G75*
%MOIN*%
%OFA0B0*%
%FSLAX25Y25*%
%IPPOS*%
%LPD*%
%AMOC8*
5,1,8,0,0,1.08239X$1,22.5*
%
%ADD10C,0.00400*%
%ADD11C,0.08661*%
%ADD12OC8,0.08661*%
%ADD13C,0.05906*%
%ADD14C,0.00787*%
%ADD15C,0.28346*%
%ADD16C,0.03562*%
%ADD17C,0.02775*%
%ADD18C,0.02400*%
%ADD19C,0.01200*%
%ADD20C,0.01600*%
D10*
X0001394Y0009268D02*
X0001394Y0288795D01*
X0001396Y0288985D01*
X0001403Y0289175D01*
X0001415Y0289365D01*
X0001431Y0289555D01*
X0001451Y0289744D01*
X0001477Y0289933D01*
X0001506Y0290121D01*
X0001541Y0290308D01*
X0001580Y0290494D01*
X0001623Y0290679D01*
X0001671Y0290864D01*
X0001723Y0291047D01*
X0001779Y0291228D01*
X0001840Y0291408D01*
X0001906Y0291587D01*
X0001975Y0291764D01*
X0002049Y0291940D01*
X0002127Y0292113D01*
X0002210Y0292285D01*
X0002296Y0292454D01*
X0002386Y0292622D01*
X0002481Y0292787D01*
X0002579Y0292950D01*
X0002682Y0293110D01*
X0002788Y0293268D01*
X0002898Y0293423D01*
X0003011Y0293576D01*
X0003129Y0293726D01*
X0003250Y0293872D01*
X0003374Y0294016D01*
X0003502Y0294157D01*
X0003633Y0294295D01*
X0003768Y0294430D01*
X0003906Y0294561D01*
X0004047Y0294689D01*
X0004191Y0294813D01*
X0004337Y0294934D01*
X0004487Y0295052D01*
X0004640Y0295165D01*
X0004795Y0295275D01*
X0004953Y0295381D01*
X0005113Y0295484D01*
X0005276Y0295582D01*
X0005441Y0295677D01*
X0005609Y0295767D01*
X0005778Y0295853D01*
X0005950Y0295936D01*
X0006123Y0296014D01*
X0006299Y0296088D01*
X0006476Y0296157D01*
X0006655Y0296223D01*
X0006835Y0296284D01*
X0007016Y0296340D01*
X0007199Y0296392D01*
X0007384Y0296440D01*
X0007569Y0296483D01*
X0007755Y0296522D01*
X0007942Y0296557D01*
X0008130Y0296586D01*
X0008319Y0296612D01*
X0008508Y0296632D01*
X0008698Y0296648D01*
X0008888Y0296660D01*
X0009078Y0296667D01*
X0009268Y0296669D01*
X0387220Y0296669D01*
X0387410Y0296667D01*
X0387600Y0296660D01*
X0387790Y0296648D01*
X0387980Y0296632D01*
X0388169Y0296612D01*
X0388358Y0296586D01*
X0388546Y0296557D01*
X0388733Y0296522D01*
X0388919Y0296483D01*
X0389104Y0296440D01*
X0389289Y0296392D01*
X0389472Y0296340D01*
X0389653Y0296284D01*
X0389833Y0296223D01*
X0390012Y0296157D01*
X0390189Y0296088D01*
X0390365Y0296014D01*
X0390538Y0295936D01*
X0390710Y0295853D01*
X0390879Y0295767D01*
X0391047Y0295677D01*
X0391212Y0295582D01*
X0391375Y0295484D01*
X0391535Y0295381D01*
X0391693Y0295275D01*
X0391848Y0295165D01*
X0392001Y0295052D01*
X0392151Y0294934D01*
X0392297Y0294813D01*
X0392441Y0294689D01*
X0392582Y0294561D01*
X0392720Y0294430D01*
X0392855Y0294295D01*
X0392986Y0294157D01*
X0393114Y0294016D01*
X0393238Y0293872D01*
X0393359Y0293726D01*
X0393477Y0293576D01*
X0393590Y0293423D01*
X0393700Y0293268D01*
X0393806Y0293110D01*
X0393909Y0292950D01*
X0394007Y0292787D01*
X0394102Y0292622D01*
X0394192Y0292454D01*
X0394278Y0292285D01*
X0394361Y0292113D01*
X0394439Y0291940D01*
X0394513Y0291764D01*
X0394582Y0291587D01*
X0394648Y0291408D01*
X0394709Y0291228D01*
X0394765Y0291047D01*
X0394817Y0290864D01*
X0394865Y0290679D01*
X0394908Y0290494D01*
X0394947Y0290308D01*
X0394982Y0290121D01*
X0395011Y0289933D01*
X0395037Y0289744D01*
X0395057Y0289555D01*
X0395073Y0289365D01*
X0395085Y0289175D01*
X0395092Y0288985D01*
X0395094Y0288795D01*
X0395094Y0009268D01*
X0395092Y0009078D01*
X0395085Y0008888D01*
X0395073Y0008698D01*
X0395057Y0008508D01*
X0395037Y0008319D01*
X0395011Y0008130D01*
X0394982Y0007942D01*
X0394947Y0007755D01*
X0394908Y0007569D01*
X0394865Y0007384D01*
X0394817Y0007199D01*
X0394765Y0007016D01*
X0394709Y0006835D01*
X0394648Y0006655D01*
X0394582Y0006476D01*
X0394513Y0006299D01*
X0394439Y0006123D01*
X0394361Y0005950D01*
X0394278Y0005778D01*
X0394192Y0005609D01*
X0394102Y0005441D01*
X0394007Y0005276D01*
X0393909Y0005113D01*
X0393806Y0004953D01*
X0393700Y0004795D01*
X0393590Y0004640D01*
X0393477Y0004487D01*
X0393359Y0004337D01*
X0393238Y0004191D01*
X0393114Y0004047D01*
X0392986Y0003906D01*
X0392855Y0003768D01*
X0392720Y0003633D01*
X0392582Y0003502D01*
X0392441Y0003374D01*
X0392297Y0003250D01*
X0392151Y0003129D01*
X0392001Y0003011D01*
X0391848Y0002898D01*
X0391693Y0002788D01*
X0391535Y0002682D01*
X0391375Y0002579D01*
X0391212Y0002481D01*
X0391047Y0002386D01*
X0390879Y0002296D01*
X0390710Y0002210D01*
X0390538Y0002127D01*
X0390365Y0002049D01*
X0390189Y0001975D01*
X0390012Y0001906D01*
X0389833Y0001840D01*
X0389653Y0001779D01*
X0389472Y0001723D01*
X0389289Y0001671D01*
X0389104Y0001623D01*
X0388919Y0001580D01*
X0388733Y0001541D01*
X0388546Y0001506D01*
X0388358Y0001477D01*
X0388169Y0001451D01*
X0387980Y0001431D01*
X0387790Y0001415D01*
X0387600Y0001403D01*
X0387410Y0001396D01*
X0387220Y0001394D01*
X0009268Y0001394D01*
X0009078Y0001396D01*
X0008888Y0001403D01*
X0008698Y0001415D01*
X0008508Y0001431D01*
X0008319Y0001451D01*
X0008130Y0001477D01*
X0007942Y0001506D01*
X0007755Y0001541D01*
X0007569Y0001580D01*
X0007384Y0001623D01*
X0007199Y0001671D01*
X0007016Y0001723D01*
X0006835Y0001779D01*
X0006655Y0001840D01*
X0006476Y0001906D01*
X0006299Y0001975D01*
X0006123Y0002049D01*
X0005950Y0002127D01*
X0005778Y0002210D01*
X0005609Y0002296D01*
X0005441Y0002386D01*
X0005276Y0002481D01*
X0005113Y0002579D01*
X0004953Y0002682D01*
X0004795Y0002788D01*
X0004640Y0002898D01*
X0004487Y0003011D01*
X0004337Y0003129D01*
X0004191Y0003250D01*
X0004047Y0003374D01*
X0003906Y0003502D01*
X0003768Y0003633D01*
X0003633Y0003768D01*
X0003502Y0003906D01*
X0003374Y0004047D01*
X0003250Y0004191D01*
X0003129Y0004337D01*
X0003011Y0004487D01*
X0002898Y0004640D01*
X0002788Y0004795D01*
X0002682Y0004953D01*
X0002579Y0005113D01*
X0002481Y0005276D01*
X0002386Y0005441D01*
X0002296Y0005609D01*
X0002210Y0005778D01*
X0002127Y0005950D01*
X0002049Y0006123D01*
X0001975Y0006299D01*
X0001906Y0006476D01*
X0001840Y0006655D01*
X0001779Y0006835D01*
X0001723Y0007016D01*
X0001671Y0007199D01*
X0001623Y0007384D01*
X0001580Y0007569D01*
X0001541Y0007755D01*
X0001506Y0007942D01*
X0001477Y0008130D01*
X0001451Y0008319D01*
X0001431Y0008508D01*
X0001415Y0008698D01*
X0001403Y0008888D01*
X0001396Y0009078D01*
X0001394Y0009268D01*
D11*
X0357004Y0091394D03*
X0357004Y0159519D03*
D12*
X0370783Y0159519D03*
X0370783Y0091394D03*
D13*
X0308480Y0020094D02*
X0308480Y0014189D01*
X0294701Y0014189D02*
X0294701Y0020094D01*
X0280921Y0020094D02*
X0280921Y0014189D01*
X0267142Y0014189D02*
X0267142Y0020094D01*
X0253362Y0020094D02*
X0253362Y0014189D01*
X0239583Y0014189D02*
X0239583Y0020094D01*
X0225803Y0020094D02*
X0225803Y0014189D01*
X0212024Y0014189D02*
X0212024Y0020094D01*
X0198244Y0020094D02*
X0198244Y0014189D01*
X0184465Y0014189D02*
X0184465Y0020094D01*
X0170685Y0020094D02*
X0170685Y0014189D01*
X0156906Y0014189D02*
X0156906Y0020094D01*
X0143126Y0020094D02*
X0143126Y0014189D01*
X0129346Y0014189D02*
X0129346Y0020094D01*
X0115567Y0020094D02*
X0115567Y0014189D01*
X0101787Y0014189D02*
X0101787Y0020094D01*
X0088008Y0020094D02*
X0088008Y0014189D01*
X0094898Y0277969D02*
X0094898Y0283874D01*
X0108677Y0283874D02*
X0108677Y0277969D01*
X0122457Y0277969D02*
X0122457Y0283874D01*
X0136236Y0283874D02*
X0136236Y0277969D01*
X0150016Y0277969D02*
X0150016Y0283874D01*
X0163795Y0283874D02*
X0163795Y0277969D01*
X0177575Y0277969D02*
X0177575Y0283874D01*
X0191354Y0283874D02*
X0191354Y0277969D01*
X0205134Y0277969D02*
X0205134Y0283874D01*
X0218913Y0283874D02*
X0218913Y0277969D01*
X0232693Y0277969D02*
X0232693Y0283874D01*
X0246472Y0283874D02*
X0246472Y0277969D01*
X0260252Y0277969D02*
X0260252Y0283874D01*
X0274031Y0283874D02*
X0274031Y0277969D01*
X0287811Y0277969D02*
X0287811Y0283874D01*
X0301591Y0283874D02*
X0301591Y0277969D01*
X0315370Y0277969D02*
X0315370Y0283874D01*
X0329150Y0283874D02*
X0329150Y0277969D01*
X0342929Y0277969D02*
X0342929Y0283874D01*
X0081118Y0283874D02*
X0081118Y0277969D01*
X0067339Y0277969D02*
X0067339Y0283874D01*
X0053559Y0283874D02*
X0053559Y0277969D01*
D14*
X0003672Y0006417D02*
X0004827Y0004827D01*
X0006417Y0003672D01*
X0008285Y0003065D01*
X0009268Y0002987D01*
X0387221Y0002987D01*
X0388203Y0003065D01*
X0390072Y0003672D01*
X0391661Y0004827D01*
X0392816Y0006416D01*
X0393423Y0008285D01*
X0393501Y0009268D01*
X0393501Y0288795D01*
X0393423Y0289778D01*
X0392816Y0291646D01*
X0391661Y0293236D01*
X0390072Y0294391D01*
X0388203Y0294998D01*
X0387220Y0295076D01*
X0348880Y0295076D01*
X0354113Y0289843D01*
X0354843Y0289113D01*
X0355237Y0288160D01*
X0355237Y0267468D01*
X0359387Y0263318D01*
X0359525Y0263318D01*
X0360692Y0262835D01*
X0361585Y0261942D01*
X0362068Y0260775D01*
X0362068Y0259512D01*
X0361585Y0258345D01*
X0360692Y0257452D01*
X0359525Y0256969D01*
X0358262Y0256969D01*
X0357095Y0257452D01*
X0356202Y0258345D01*
X0355719Y0259512D01*
X0355719Y0259650D01*
X0350445Y0264924D01*
X0350050Y0265878D01*
X0350050Y0286569D01*
X0345319Y0291300D01*
X0184968Y0291300D01*
X0180632Y0286964D01*
X0181260Y0286336D01*
X0181921Y0284739D01*
X0181921Y0277104D01*
X0181260Y0275506D01*
X0180037Y0274284D01*
X0178439Y0273622D01*
X0176710Y0273622D01*
X0175113Y0274284D01*
X0173890Y0275506D01*
X0173228Y0277104D01*
X0173228Y0284739D01*
X0173890Y0286336D01*
X0174981Y0287427D01*
X0174981Y0288091D01*
X0175376Y0289044D01*
X0181408Y0295076D01*
X0092202Y0295076D01*
X0092835Y0294442D01*
X0093318Y0293275D01*
X0093318Y0292012D01*
X0092835Y0290845D01*
X0091942Y0289952D01*
X0090775Y0289469D01*
X0089512Y0289469D01*
X0088345Y0289952D01*
X0088248Y0290050D01*
X0086218Y0290050D01*
X0083987Y0287819D01*
X0083987Y0287152D01*
X0084803Y0286336D01*
X0085465Y0284739D01*
X0085465Y0277104D01*
X0084803Y0275506D01*
X0083580Y0274284D01*
X0081983Y0273622D01*
X0080254Y0273622D01*
X0078656Y0274284D01*
X0077433Y0275506D01*
X0076772Y0277104D01*
X0076772Y0284739D01*
X0077433Y0286336D01*
X0078656Y0287559D01*
X0078800Y0287618D01*
X0078800Y0289410D01*
X0079195Y0290363D01*
X0082945Y0294113D01*
X0083674Y0294843D01*
X0084237Y0295076D01*
X0009268Y0295076D01*
X0008285Y0294998D01*
X0006417Y0294391D01*
X0004827Y0293236D01*
X0003672Y0291646D01*
X0003065Y0289778D01*
X0002987Y0288795D01*
X0002987Y0009268D01*
X0003065Y0008285D01*
X0003672Y0006417D01*
X0003895Y0006109D02*
X0392593Y0006109D01*
X0392972Y0006895D02*
X0003516Y0006895D01*
X0003261Y0007681D02*
X0393227Y0007681D01*
X0393438Y0008467D02*
X0003050Y0008467D01*
X0002989Y0009253D02*
X0393500Y0009253D01*
X0393501Y0010039D02*
X0296039Y0010039D01*
X0295565Y0009843D02*
X0297163Y0010504D01*
X0298386Y0011727D01*
X0299047Y0013324D01*
X0299047Y0020959D01*
X0298386Y0022557D01*
X0297163Y0023779D01*
X0295565Y0024441D01*
X0293836Y0024441D01*
X0292239Y0023779D01*
X0291016Y0022557D01*
X0290354Y0020959D01*
X0290354Y0013324D01*
X0291016Y0011727D01*
X0292239Y0010504D01*
X0293836Y0009843D01*
X0295565Y0009843D01*
X0297483Y0010825D02*
X0393501Y0010825D01*
X0393501Y0011611D02*
X0298269Y0011611D01*
X0298663Y0012396D02*
X0393501Y0012396D01*
X0393501Y0013182D02*
X0298988Y0013182D01*
X0299047Y0013968D02*
X0393501Y0013968D01*
X0393501Y0014754D02*
X0299047Y0014754D01*
X0299047Y0015540D02*
X0393501Y0015540D01*
X0393501Y0016326D02*
X0299047Y0016326D01*
X0299047Y0017112D02*
X0393501Y0017112D01*
X0393501Y0017898D02*
X0299047Y0017898D01*
X0299047Y0018684D02*
X0393501Y0018684D01*
X0393501Y0019470D02*
X0299047Y0019470D01*
X0299047Y0020256D02*
X0393501Y0020256D01*
X0393501Y0021042D02*
X0299013Y0021042D01*
X0298688Y0021827D02*
X0393501Y0021827D01*
X0393501Y0022613D02*
X0298329Y0022613D01*
X0297543Y0023399D02*
X0393501Y0023399D01*
X0393501Y0024185D02*
X0296183Y0024185D01*
X0293219Y0024185D02*
X0268624Y0024185D01*
X0268006Y0024441D02*
X0266277Y0024441D01*
X0264680Y0023779D01*
X0263457Y0022557D01*
X0262795Y0020959D01*
X0262795Y0013324D01*
X0263457Y0011727D01*
X0264680Y0010504D01*
X0266277Y0009843D01*
X0268006Y0009843D01*
X0269604Y0010504D01*
X0270826Y0011727D01*
X0271488Y0013324D01*
X0271488Y0020959D01*
X0270826Y0022557D01*
X0269604Y0023779D01*
X0268006Y0024441D01*
X0269984Y0023399D02*
X0291859Y0023399D01*
X0291073Y0022613D02*
X0270770Y0022613D01*
X0271128Y0021827D02*
X0290714Y0021827D01*
X0290388Y0021042D02*
X0271454Y0021042D01*
X0271488Y0020256D02*
X0290354Y0020256D01*
X0290354Y0019470D02*
X0271488Y0019470D01*
X0271488Y0018684D02*
X0290354Y0018684D01*
X0290354Y0017898D02*
X0271488Y0017898D01*
X0271488Y0017112D02*
X0290354Y0017112D01*
X0290354Y0016326D02*
X0271488Y0016326D01*
X0271488Y0015540D02*
X0290354Y0015540D01*
X0290354Y0014754D02*
X0271488Y0014754D01*
X0271488Y0013968D02*
X0290354Y0013968D01*
X0290413Y0013182D02*
X0271429Y0013182D01*
X0271104Y0012396D02*
X0290739Y0012396D01*
X0291132Y0011611D02*
X0270710Y0011611D01*
X0269924Y0010825D02*
X0291918Y0010825D01*
X0293362Y0010039D02*
X0268480Y0010039D01*
X0265803Y0010039D02*
X0254700Y0010039D01*
X0254227Y0009843D02*
X0255824Y0010504D01*
X0257047Y0011727D01*
X0257709Y0013324D01*
X0257709Y0020959D01*
X0257047Y0022557D01*
X0255824Y0023779D01*
X0254227Y0024441D01*
X0252498Y0024441D01*
X0250900Y0023779D01*
X0249677Y0022557D01*
X0249016Y0020959D01*
X0249016Y0013324D01*
X0249677Y0011727D01*
X0250900Y0010504D01*
X0252498Y0009843D01*
X0254227Y0009843D01*
X0256145Y0010825D02*
X0264359Y0010825D01*
X0263573Y0011611D02*
X0256931Y0011611D01*
X0257324Y0012396D02*
X0263180Y0012396D01*
X0262854Y0013182D02*
X0257650Y0013182D01*
X0257709Y0013968D02*
X0262795Y0013968D01*
X0262795Y0014754D02*
X0257709Y0014754D01*
X0257709Y0015540D02*
X0262795Y0015540D01*
X0262795Y0016326D02*
X0257709Y0016326D01*
X0257709Y0017112D02*
X0262795Y0017112D01*
X0262795Y0017898D02*
X0257709Y0017898D01*
X0257709Y0018684D02*
X0262795Y0018684D01*
X0262795Y0019470D02*
X0257709Y0019470D01*
X0257709Y0020256D02*
X0262795Y0020256D01*
X0262829Y0021042D02*
X0257674Y0021042D01*
X0257349Y0021827D02*
X0263155Y0021827D01*
X0263514Y0022613D02*
X0256990Y0022613D01*
X0256204Y0023399D02*
X0264300Y0023399D01*
X0265660Y0024185D02*
X0254844Y0024185D01*
X0251880Y0024185D02*
X0241065Y0024185D01*
X0240447Y0024441D02*
X0238718Y0024441D01*
X0237121Y0023779D01*
X0235898Y0022557D01*
X0235236Y0020959D01*
X0235236Y0013324D01*
X0235898Y0011727D01*
X0237121Y0010504D01*
X0238718Y0009843D01*
X0240447Y0009843D01*
X0242045Y0010504D01*
X0243267Y0011727D01*
X0243929Y0013324D01*
X0243929Y0020959D01*
X0243267Y0022557D01*
X0242045Y0023779D01*
X0240447Y0024441D01*
X0242425Y0023399D02*
X0250520Y0023399D01*
X0249734Y0022613D02*
X0243211Y0022613D01*
X0243569Y0021827D02*
X0249375Y0021827D01*
X0249050Y0021042D02*
X0243895Y0021042D01*
X0243929Y0020256D02*
X0249016Y0020256D01*
X0249016Y0019470D02*
X0243929Y0019470D01*
X0243929Y0018684D02*
X0249016Y0018684D01*
X0249016Y0017898D02*
X0243929Y0017898D01*
X0243929Y0017112D02*
X0249016Y0017112D01*
X0249016Y0016326D02*
X0243929Y0016326D01*
X0243929Y0015540D02*
X0249016Y0015540D01*
X0249016Y0014754D02*
X0243929Y0014754D01*
X0243929Y0013968D02*
X0249016Y0013968D01*
X0249075Y0013182D02*
X0243870Y0013182D01*
X0243545Y0012396D02*
X0249400Y0012396D01*
X0249794Y0011611D02*
X0243151Y0011611D01*
X0242365Y0010825D02*
X0250580Y0010825D01*
X0252024Y0010039D02*
X0240921Y0010039D01*
X0238244Y0010039D02*
X0227141Y0010039D01*
X0226668Y0009843D02*
X0228265Y0010504D01*
X0229488Y0011727D01*
X0230150Y0013324D01*
X0230150Y0020959D01*
X0229488Y0022557D01*
X0228265Y0023779D01*
X0226668Y0024441D01*
X0224939Y0024441D01*
X0223341Y0023779D01*
X0222118Y0022557D01*
X0221457Y0020959D01*
X0221457Y0013324D01*
X0222118Y0011727D01*
X0223341Y0010504D01*
X0224939Y0009843D01*
X0226668Y0009843D01*
X0228586Y0010825D02*
X0236800Y0010825D01*
X0236014Y0011611D02*
X0229372Y0011611D01*
X0229765Y0012396D02*
X0235621Y0012396D01*
X0235295Y0013182D02*
X0230091Y0013182D01*
X0230150Y0013968D02*
X0235236Y0013968D01*
X0235236Y0014754D02*
X0230150Y0014754D01*
X0230150Y0015540D02*
X0235236Y0015540D01*
X0235236Y0016326D02*
X0230150Y0016326D01*
X0230150Y0017112D02*
X0235236Y0017112D01*
X0235236Y0017898D02*
X0230150Y0017898D01*
X0230150Y0018684D02*
X0235236Y0018684D01*
X0235236Y0019470D02*
X0230150Y0019470D01*
X0230150Y0020256D02*
X0235236Y0020256D01*
X0235270Y0021042D02*
X0230115Y0021042D01*
X0229790Y0021827D02*
X0235596Y0021827D01*
X0235955Y0022613D02*
X0229431Y0022613D01*
X0228645Y0023399D02*
X0236741Y0023399D01*
X0238101Y0024185D02*
X0227285Y0024185D01*
X0224321Y0024185D02*
X0213506Y0024185D01*
X0212888Y0024441D02*
X0211159Y0024441D01*
X0209562Y0023779D01*
X0208339Y0022557D01*
X0207677Y0020959D01*
X0207677Y0013324D01*
X0208339Y0011727D01*
X0209562Y0010504D01*
X0211159Y0009843D01*
X0212888Y0009843D01*
X0214486Y0010504D01*
X0215708Y0011727D01*
X0216370Y0013324D01*
X0216370Y0020959D01*
X0215708Y0022557D01*
X0214486Y0023779D01*
X0212888Y0024441D01*
X0214866Y0023399D02*
X0222961Y0023399D01*
X0222175Y0022613D02*
X0215652Y0022613D01*
X0216010Y0021827D02*
X0221816Y0021827D01*
X0221491Y0021042D02*
X0216336Y0021042D01*
X0216370Y0020256D02*
X0221457Y0020256D01*
X0221457Y0019470D02*
X0216370Y0019470D01*
X0216370Y0018684D02*
X0221457Y0018684D01*
X0221457Y0017898D02*
X0216370Y0017898D01*
X0216370Y0017112D02*
X0221457Y0017112D01*
X0221457Y0016326D02*
X0216370Y0016326D01*
X0216370Y0015540D02*
X0221457Y0015540D01*
X0221457Y0014754D02*
X0216370Y0014754D01*
X0216370Y0013968D02*
X0221457Y0013968D01*
X0221516Y0013182D02*
X0216311Y0013182D01*
X0215986Y0012396D02*
X0221841Y0012396D01*
X0222235Y0011611D02*
X0215592Y0011611D01*
X0214806Y0010825D02*
X0223021Y0010825D01*
X0224465Y0010039D02*
X0213362Y0010039D01*
X0210685Y0010039D02*
X0199582Y0010039D01*
X0199109Y0009843D02*
X0200706Y0010504D01*
X0201929Y0011727D01*
X0202591Y0013324D01*
X0202591Y0020959D01*
X0201929Y0022557D01*
X0200706Y0023779D01*
X0199109Y0024441D01*
X0197380Y0024441D01*
X0195782Y0023779D01*
X0194559Y0022557D01*
X0193898Y0020959D01*
X0193898Y0013324D01*
X0194559Y0011727D01*
X0195782Y0010504D01*
X0197380Y0009843D01*
X0199109Y0009843D01*
X0201027Y0010825D02*
X0209241Y0010825D01*
X0208455Y0011611D02*
X0201812Y0011611D01*
X0202206Y0012396D02*
X0208062Y0012396D01*
X0207736Y0013182D02*
X0202532Y0013182D01*
X0202591Y0013968D02*
X0207677Y0013968D01*
X0207677Y0014754D02*
X0202591Y0014754D01*
X0202591Y0015540D02*
X0207677Y0015540D01*
X0207677Y0016326D02*
X0202591Y0016326D01*
X0202591Y0017112D02*
X0207677Y0017112D01*
X0207677Y0017898D02*
X0202591Y0017898D01*
X0202591Y0018684D02*
X0207677Y0018684D01*
X0207677Y0019470D02*
X0202591Y0019470D01*
X0202591Y0020256D02*
X0207677Y0020256D01*
X0207711Y0021042D02*
X0202556Y0021042D01*
X0202231Y0021827D02*
X0208037Y0021827D01*
X0208396Y0022613D02*
X0201872Y0022613D01*
X0201086Y0023399D02*
X0209182Y0023399D01*
X0210542Y0024185D02*
X0199726Y0024185D01*
X0196762Y0024185D02*
X0185947Y0024185D01*
X0185329Y0024441D02*
X0183600Y0024441D01*
X0182002Y0023779D01*
X0180780Y0022557D01*
X0180118Y0020959D01*
X0180118Y0013324D01*
X0180780Y0011727D01*
X0182002Y0010504D01*
X0183600Y0009843D01*
X0185329Y0009843D01*
X0186927Y0010504D01*
X0188149Y0011727D01*
X0188811Y0013324D01*
X0188811Y0020959D01*
X0188149Y0022557D01*
X0186927Y0023779D01*
X0185329Y0024441D01*
X0187307Y0023399D02*
X0195402Y0023399D01*
X0194616Y0022613D02*
X0188092Y0022613D01*
X0188451Y0021827D02*
X0194257Y0021827D01*
X0193932Y0021042D02*
X0188777Y0021042D01*
X0188811Y0020256D02*
X0193898Y0020256D01*
X0193898Y0019470D02*
X0188811Y0019470D01*
X0188811Y0018684D02*
X0193898Y0018684D01*
X0193898Y0017898D02*
X0188811Y0017898D01*
X0188811Y0017112D02*
X0193898Y0017112D01*
X0193898Y0016326D02*
X0188811Y0016326D01*
X0188811Y0015540D02*
X0193898Y0015540D01*
X0193898Y0014754D02*
X0188811Y0014754D01*
X0188811Y0013968D02*
X0193898Y0013968D01*
X0193956Y0013182D02*
X0188752Y0013182D01*
X0188427Y0012396D02*
X0194282Y0012396D01*
X0194676Y0011611D02*
X0188033Y0011611D01*
X0187247Y0010825D02*
X0195462Y0010825D01*
X0196906Y0010039D02*
X0185803Y0010039D01*
X0183126Y0010039D02*
X0172023Y0010039D01*
X0171550Y0009843D02*
X0173147Y0010504D01*
X0174370Y0011727D01*
X0175031Y0013324D01*
X0175031Y0020959D01*
X0174370Y0022557D01*
X0173147Y0023779D01*
X0171550Y0024441D01*
X0169820Y0024441D01*
X0168223Y0023779D01*
X0167000Y0022557D01*
X0166339Y0020959D01*
X0166339Y0013324D01*
X0167000Y0011727D01*
X0168223Y0010504D01*
X0169820Y0009843D01*
X0171550Y0009843D01*
X0173468Y0010825D02*
X0181682Y0010825D01*
X0180896Y0011611D02*
X0174253Y0011611D01*
X0174647Y0012396D02*
X0180502Y0012396D01*
X0180177Y0013182D02*
X0174973Y0013182D01*
X0175031Y0013968D02*
X0180118Y0013968D01*
X0180118Y0014754D02*
X0175031Y0014754D01*
X0175031Y0015540D02*
X0180118Y0015540D01*
X0180118Y0016326D02*
X0175031Y0016326D01*
X0175031Y0017112D02*
X0180118Y0017112D01*
X0180118Y0017898D02*
X0175031Y0017898D01*
X0175031Y0018684D02*
X0180118Y0018684D01*
X0180118Y0019470D02*
X0175031Y0019470D01*
X0175031Y0020256D02*
X0180118Y0020256D01*
X0180152Y0021042D02*
X0174997Y0021042D01*
X0174672Y0021827D02*
X0180478Y0021827D01*
X0180837Y0022613D02*
X0174313Y0022613D01*
X0173527Y0023399D02*
X0181623Y0023399D01*
X0182983Y0024185D02*
X0172167Y0024185D01*
X0169203Y0024185D02*
X0158388Y0024185D01*
X0157770Y0024441D02*
X0159368Y0023779D01*
X0160590Y0022557D01*
X0161252Y0020959D01*
X0161252Y0013324D01*
X0160590Y0011727D01*
X0159368Y0010504D01*
X0157770Y0009843D01*
X0156041Y0009843D01*
X0154443Y0010504D01*
X0153221Y0011727D01*
X0152559Y0013324D01*
X0152559Y0020959D01*
X0153221Y0022557D01*
X0154443Y0023779D01*
X0156041Y0024441D01*
X0157770Y0024441D01*
X0159748Y0023399D02*
X0167843Y0023399D01*
X0167057Y0022613D02*
X0160533Y0022613D01*
X0160892Y0021827D02*
X0166698Y0021827D01*
X0166373Y0021042D02*
X0161218Y0021042D01*
X0161252Y0020256D02*
X0166339Y0020256D01*
X0166339Y0019470D02*
X0161252Y0019470D01*
X0161252Y0018684D02*
X0166339Y0018684D01*
X0166339Y0017898D02*
X0161252Y0017898D01*
X0161252Y0017112D02*
X0166339Y0017112D01*
X0166339Y0016326D02*
X0161252Y0016326D01*
X0161252Y0015540D02*
X0166339Y0015540D01*
X0166339Y0014754D02*
X0161252Y0014754D01*
X0161252Y0013968D02*
X0166339Y0013968D01*
X0166397Y0013182D02*
X0161193Y0013182D01*
X0160868Y0012396D02*
X0166723Y0012396D01*
X0167117Y0011611D02*
X0160474Y0011611D01*
X0159688Y0010825D02*
X0167903Y0010825D01*
X0169347Y0010039D02*
X0158244Y0010039D01*
X0155567Y0010039D02*
X0144464Y0010039D01*
X0143991Y0009843D02*
X0145588Y0010504D01*
X0146811Y0011727D01*
X0147472Y0013324D01*
X0147472Y0020959D01*
X0146811Y0022557D01*
X0145588Y0023779D01*
X0143991Y0024441D01*
X0142261Y0024441D01*
X0140664Y0023779D01*
X0139441Y0022557D01*
X0138780Y0020959D01*
X0138780Y0013324D01*
X0139441Y0011727D01*
X0140664Y0010504D01*
X0142261Y0009843D01*
X0143991Y0009843D01*
X0145908Y0010825D02*
X0154123Y0010825D01*
X0153337Y0011611D02*
X0146694Y0011611D01*
X0147088Y0012396D02*
X0152943Y0012396D01*
X0152618Y0013182D02*
X0147414Y0013182D01*
X0147472Y0013968D02*
X0152559Y0013968D01*
X0152559Y0014754D02*
X0147472Y0014754D01*
X0147472Y0015540D02*
X0152559Y0015540D01*
X0152559Y0016326D02*
X0147472Y0016326D01*
X0147472Y0017112D02*
X0152559Y0017112D01*
X0152559Y0017898D02*
X0147472Y0017898D01*
X0147472Y0018684D02*
X0152559Y0018684D01*
X0152559Y0019470D02*
X0147472Y0019470D01*
X0147472Y0020256D02*
X0152559Y0020256D01*
X0152593Y0021042D02*
X0147438Y0021042D01*
X0147113Y0021827D02*
X0152919Y0021827D01*
X0153278Y0022613D02*
X0146754Y0022613D01*
X0145968Y0023399D02*
X0154063Y0023399D01*
X0155423Y0024185D02*
X0144608Y0024185D01*
X0141644Y0024185D02*
X0130828Y0024185D01*
X0130211Y0024441D02*
X0128482Y0024441D01*
X0126884Y0023779D01*
X0125662Y0022557D01*
X0125000Y0020959D01*
X0125000Y0013324D01*
X0125662Y0011727D01*
X0126884Y0010504D01*
X0128482Y0009843D01*
X0130211Y0009843D01*
X0131809Y0010504D01*
X0133031Y0011727D01*
X0133693Y0013324D01*
X0133693Y0020959D01*
X0133031Y0022557D01*
X0131809Y0023779D01*
X0130211Y0024441D01*
X0132188Y0023399D02*
X0140284Y0023399D01*
X0139498Y0022613D02*
X0132974Y0022613D01*
X0133333Y0021827D02*
X0139139Y0021827D01*
X0138814Y0021042D02*
X0133659Y0021042D01*
X0133693Y0020256D02*
X0138780Y0020256D01*
X0138780Y0019470D02*
X0133693Y0019470D01*
X0133693Y0018684D02*
X0138780Y0018684D01*
X0138780Y0017898D02*
X0133693Y0017898D01*
X0133693Y0017112D02*
X0138780Y0017112D01*
X0138780Y0016326D02*
X0133693Y0016326D01*
X0133693Y0015540D02*
X0138780Y0015540D01*
X0138780Y0014754D02*
X0133693Y0014754D01*
X0133693Y0013968D02*
X0138780Y0013968D01*
X0138838Y0013182D02*
X0133634Y0013182D01*
X0133309Y0012396D02*
X0139164Y0012396D01*
X0139558Y0011611D02*
X0132915Y0011611D01*
X0132129Y0010825D02*
X0140343Y0010825D01*
X0141788Y0010039D02*
X0130685Y0010039D01*
X0128008Y0010039D02*
X0116905Y0010039D01*
X0116431Y0009843D02*
X0118029Y0010504D01*
X0119252Y0011727D01*
X0119913Y0013324D01*
X0119913Y0020959D01*
X0119252Y0022557D01*
X0118029Y0023779D01*
X0116431Y0024441D01*
X0114702Y0024441D01*
X0113105Y0023779D01*
X0111882Y0022557D01*
X0111220Y0020959D01*
X0111220Y0013324D01*
X0111882Y0011727D01*
X0113105Y0010504D01*
X0114702Y0009843D01*
X0116431Y0009843D01*
X0118349Y0010825D02*
X0126564Y0010825D01*
X0125778Y0011611D02*
X0119135Y0011611D01*
X0119529Y0012396D02*
X0125384Y0012396D01*
X0125059Y0013182D02*
X0119855Y0013182D01*
X0119913Y0013968D02*
X0125000Y0013968D01*
X0125000Y0014754D02*
X0119913Y0014754D01*
X0119913Y0015540D02*
X0125000Y0015540D01*
X0125000Y0016326D02*
X0119913Y0016326D01*
X0119913Y0017112D02*
X0125000Y0017112D01*
X0125000Y0017898D02*
X0119913Y0017898D01*
X0119913Y0018684D02*
X0125000Y0018684D01*
X0125000Y0019470D02*
X0119913Y0019470D01*
X0119913Y0020256D02*
X0125000Y0020256D01*
X0125034Y0021042D02*
X0119879Y0021042D01*
X0119554Y0021827D02*
X0125360Y0021827D01*
X0125719Y0022613D02*
X0119195Y0022613D01*
X0118409Y0023399D02*
X0126504Y0023399D01*
X0127864Y0024185D02*
X0117049Y0024185D01*
X0114085Y0024185D02*
X0103269Y0024185D01*
X0102652Y0024441D02*
X0100923Y0024441D01*
X0099325Y0023779D01*
X0098103Y0022557D01*
X0097441Y0020959D01*
X0097441Y0013324D01*
X0098103Y0011727D01*
X0099325Y0010504D01*
X0100923Y0009843D01*
X0102652Y0009843D01*
X0104249Y0010504D01*
X0105472Y0011727D01*
X0106134Y0013324D01*
X0106134Y0020959D01*
X0105472Y0022557D01*
X0104249Y0023779D01*
X0102652Y0024441D01*
X0104629Y0023399D02*
X0112725Y0023399D01*
X0111939Y0022613D02*
X0105415Y0022613D01*
X0105774Y0021827D02*
X0111580Y0021827D01*
X0111255Y0021042D02*
X0106100Y0021042D01*
X0106134Y0020256D02*
X0111220Y0020256D01*
X0111220Y0019470D02*
X0106134Y0019470D01*
X0106134Y0018684D02*
X0111220Y0018684D01*
X0111220Y0017898D02*
X0106134Y0017898D01*
X0106134Y0017112D02*
X0111220Y0017112D01*
X0111220Y0016326D02*
X0106134Y0016326D01*
X0106134Y0015540D02*
X0111220Y0015540D01*
X0111220Y0014754D02*
X0106134Y0014754D01*
X0106134Y0013968D02*
X0111220Y0013968D01*
X0111279Y0013182D02*
X0106075Y0013182D01*
X0105749Y0012396D02*
X0111605Y0012396D01*
X0111999Y0011611D02*
X0105356Y0011611D01*
X0104570Y0010825D02*
X0112784Y0010825D01*
X0114229Y0010039D02*
X0103126Y0010039D01*
X0100449Y0010039D02*
X0089346Y0010039D01*
X0088872Y0009843D02*
X0090470Y0010504D01*
X0091693Y0011727D01*
X0092354Y0013324D01*
X0092354Y0020959D01*
X0091693Y0022557D01*
X0090470Y0023779D01*
X0088872Y0024441D01*
X0087143Y0024441D01*
X0085546Y0023779D01*
X0084323Y0022557D01*
X0083661Y0020959D01*
X0083661Y0013324D01*
X0084323Y0011727D01*
X0085546Y0010504D01*
X0087143Y0009843D01*
X0088872Y0009843D01*
X0090790Y0010825D02*
X0099005Y0010825D01*
X0098219Y0011611D02*
X0091576Y0011611D01*
X0091970Y0012396D02*
X0097825Y0012396D01*
X0097500Y0013182D02*
X0092295Y0013182D01*
X0092354Y0013968D02*
X0097441Y0013968D01*
X0097441Y0014754D02*
X0092354Y0014754D01*
X0092354Y0015540D02*
X0097441Y0015540D01*
X0097441Y0016326D02*
X0092354Y0016326D01*
X0092354Y0017112D02*
X0097441Y0017112D01*
X0097441Y0017898D02*
X0092354Y0017898D01*
X0092354Y0018684D02*
X0097441Y0018684D01*
X0097441Y0019470D02*
X0092354Y0019470D01*
X0092354Y0020256D02*
X0097441Y0020256D01*
X0097475Y0021042D02*
X0092320Y0021042D01*
X0091995Y0021827D02*
X0097801Y0021827D01*
X0098159Y0022613D02*
X0091636Y0022613D01*
X0090850Y0023399D02*
X0098945Y0023399D01*
X0100305Y0024185D02*
X0089490Y0024185D01*
X0086526Y0024185D02*
X0002987Y0024185D01*
X0002987Y0023399D02*
X0085166Y0023399D01*
X0084380Y0022613D02*
X0002987Y0022613D01*
X0002987Y0021827D02*
X0084021Y0021827D01*
X0083696Y0021042D02*
X0002987Y0021042D01*
X0002987Y0020256D02*
X0083661Y0020256D01*
X0083661Y0019470D02*
X0002987Y0019470D01*
X0002987Y0018684D02*
X0083661Y0018684D01*
X0083661Y0017898D02*
X0002987Y0017898D01*
X0002987Y0017112D02*
X0083661Y0017112D01*
X0083661Y0016326D02*
X0002987Y0016326D01*
X0002987Y0015540D02*
X0083661Y0015540D01*
X0083661Y0014754D02*
X0002987Y0014754D01*
X0002987Y0013968D02*
X0083661Y0013968D01*
X0083720Y0013182D02*
X0002987Y0013182D01*
X0002987Y0012396D02*
X0084046Y0012396D01*
X0084439Y0011611D02*
X0002987Y0011611D01*
X0002987Y0010825D02*
X0085225Y0010825D01*
X0086670Y0010039D02*
X0002987Y0010039D01*
X0004466Y0005323D02*
X0392022Y0005323D01*
X0391263Y0004537D02*
X0005225Y0004537D01*
X0006307Y0003751D02*
X0390181Y0003751D01*
X0393501Y0024971D02*
X0002987Y0024971D01*
X0002987Y0025757D02*
X0393501Y0025757D01*
X0393501Y0026543D02*
X0002987Y0026543D01*
X0002987Y0027329D02*
X0393501Y0027329D01*
X0393501Y0028115D02*
X0002987Y0028115D01*
X0002987Y0028901D02*
X0393501Y0028901D01*
X0393501Y0029687D02*
X0002987Y0029687D01*
X0002987Y0030472D02*
X0393501Y0030472D01*
X0393501Y0031258D02*
X0002987Y0031258D01*
X0002987Y0032044D02*
X0393501Y0032044D01*
X0393501Y0032830D02*
X0002987Y0032830D01*
X0002987Y0033616D02*
X0393501Y0033616D01*
X0393501Y0034402D02*
X0002987Y0034402D01*
X0002987Y0035188D02*
X0393501Y0035188D01*
X0393501Y0035974D02*
X0002987Y0035974D01*
X0002987Y0036760D02*
X0393501Y0036760D01*
X0393501Y0037546D02*
X0002987Y0037546D01*
X0002987Y0038332D02*
X0393501Y0038332D01*
X0393501Y0039118D02*
X0002987Y0039118D01*
X0002987Y0039903D02*
X0393501Y0039903D01*
X0393501Y0040689D02*
X0002987Y0040689D01*
X0002987Y0041475D02*
X0393501Y0041475D01*
X0393501Y0042261D02*
X0002987Y0042261D01*
X0002987Y0043047D02*
X0393501Y0043047D01*
X0393501Y0043833D02*
X0002987Y0043833D01*
X0002987Y0044619D02*
X0393501Y0044619D01*
X0393501Y0045405D02*
X0002987Y0045405D01*
X0002987Y0046191D02*
X0393501Y0046191D01*
X0393501Y0046977D02*
X0002987Y0046977D01*
X0002987Y0047763D02*
X0393501Y0047763D01*
X0393501Y0048548D02*
X0002987Y0048548D01*
X0002987Y0049334D02*
X0393501Y0049334D01*
X0393501Y0050120D02*
X0002987Y0050120D01*
X0002987Y0050906D02*
X0393501Y0050906D01*
X0393501Y0051692D02*
X0002987Y0051692D01*
X0002987Y0052478D02*
X0393501Y0052478D01*
X0393501Y0053264D02*
X0002987Y0053264D01*
X0002987Y0054050D02*
X0393501Y0054050D01*
X0393501Y0054836D02*
X0002987Y0054836D01*
X0002987Y0055622D02*
X0393501Y0055622D01*
X0393501Y0056408D02*
X0002987Y0056408D01*
X0002987Y0057194D02*
X0393501Y0057194D01*
X0393501Y0057979D02*
X0002987Y0057979D01*
X0002987Y0058765D02*
X0393501Y0058765D01*
X0393501Y0059551D02*
X0002987Y0059551D01*
X0002987Y0060337D02*
X0393501Y0060337D01*
X0393501Y0061123D02*
X0002987Y0061123D01*
X0002987Y0061909D02*
X0393501Y0061909D01*
X0393501Y0062695D02*
X0002987Y0062695D01*
X0002987Y0063481D02*
X0393501Y0063481D01*
X0393501Y0064267D02*
X0002987Y0064267D01*
X0002987Y0065053D02*
X0393501Y0065053D01*
X0393501Y0065839D02*
X0133564Y0065839D01*
X0133275Y0065719D02*
X0134442Y0066202D01*
X0135335Y0067095D01*
X0135818Y0068262D01*
X0135818Y0069525D01*
X0135335Y0070692D01*
X0134442Y0071585D01*
X0133587Y0071939D01*
X0133587Y0076598D01*
X0134085Y0077095D01*
X0134568Y0078262D01*
X0134568Y0079525D01*
X0134085Y0080692D01*
X0133192Y0081585D01*
X0132025Y0082068D01*
X0130762Y0082068D01*
X0129595Y0081585D01*
X0128702Y0080692D01*
X0128219Y0079525D01*
X0128219Y0078262D01*
X0128702Y0077095D01*
X0129200Y0076598D01*
X0129200Y0069235D01*
X0129469Y0068966D01*
X0129469Y0068262D01*
X0129952Y0067095D01*
X0130845Y0066202D01*
X0132012Y0065719D01*
X0133275Y0065719D01*
X0131723Y0065839D02*
X0002987Y0065839D01*
X0002987Y0066624D02*
X0130423Y0066624D01*
X0129822Y0067410D02*
X0002987Y0067410D01*
X0002987Y0068196D02*
X0129496Y0068196D01*
X0129453Y0068982D02*
X0002987Y0068982D01*
X0002987Y0069768D02*
X0129200Y0069768D01*
X0129200Y0070554D02*
X0002987Y0070554D01*
X0002987Y0071340D02*
X0129200Y0071340D01*
X0129200Y0072126D02*
X0002987Y0072126D01*
X0002987Y0072912D02*
X0129200Y0072912D01*
X0129200Y0073698D02*
X0002987Y0073698D01*
X0002987Y0074484D02*
X0129200Y0074484D01*
X0129200Y0075270D02*
X0002987Y0075270D01*
X0002987Y0076055D02*
X0129200Y0076055D01*
X0128956Y0076841D02*
X0002987Y0076841D01*
X0002987Y0077627D02*
X0128482Y0077627D01*
X0128219Y0078413D02*
X0002987Y0078413D01*
X0002987Y0079199D02*
X0128219Y0079199D01*
X0128409Y0079985D02*
X0002987Y0079985D01*
X0002987Y0080771D02*
X0128781Y0080771D01*
X0129567Y0081557D02*
X0002987Y0081557D01*
X0002987Y0082343D02*
X0393501Y0082343D01*
X0393501Y0083129D02*
X0002987Y0083129D01*
X0002987Y0083915D02*
X0193133Y0083915D01*
X0193345Y0083702D02*
X0194512Y0083219D01*
X0195775Y0083219D01*
X0196942Y0083702D01*
X0197040Y0083800D01*
X0206998Y0083800D01*
X0207095Y0083702D01*
X0208262Y0083219D01*
X0209525Y0083219D01*
X0210692Y0083702D01*
X0210790Y0083800D01*
X0220748Y0083800D01*
X0220845Y0083702D01*
X0222012Y0083219D01*
X0223275Y0083219D01*
X0224442Y0083702D01*
X0224540Y0083800D01*
X0234498Y0083800D01*
X0234595Y0083702D01*
X0235762Y0083219D01*
X0237025Y0083219D01*
X0238192Y0083702D01*
X0238290Y0083800D01*
X0248248Y0083800D01*
X0248345Y0083702D01*
X0249512Y0083219D01*
X0250775Y0083219D01*
X0251942Y0083702D01*
X0252040Y0083800D01*
X0261998Y0083800D01*
X0262095Y0083702D01*
X0263262Y0083219D01*
X0264525Y0083219D01*
X0265692Y0083702D01*
X0266585Y0084595D01*
X0267068Y0085762D01*
X0267068Y0087025D01*
X0266585Y0088192D01*
X0265692Y0089085D01*
X0264525Y0089568D01*
X0263262Y0089568D01*
X0262095Y0089085D01*
X0261998Y0088987D01*
X0252040Y0088987D01*
X0251942Y0089085D01*
X0250775Y0089568D01*
X0249512Y0089568D01*
X0248345Y0089085D01*
X0248248Y0088987D01*
X0238290Y0088987D01*
X0238192Y0089085D01*
X0237025Y0089568D01*
X0235762Y0089568D01*
X0234595Y0089085D01*
X0234498Y0088987D01*
X0224540Y0088987D01*
X0224442Y0089085D01*
X0223275Y0089568D01*
X0222012Y0089568D01*
X0220845Y0089085D01*
X0220748Y0088987D01*
X0210790Y0088987D01*
X0210692Y0089085D01*
X0209525Y0089568D01*
X0208262Y0089568D01*
X0207095Y0089085D01*
X0206998Y0088987D01*
X0197040Y0088987D01*
X0196942Y0089085D01*
X0195775Y0089568D01*
X0194512Y0089568D01*
X0193345Y0089085D01*
X0192452Y0088192D01*
X0191969Y0087025D01*
X0191969Y0085762D01*
X0192452Y0084595D01*
X0193345Y0083702D01*
X0192409Y0084700D02*
X0002987Y0084700D01*
X0002987Y0085486D02*
X0192083Y0085486D01*
X0191969Y0086272D02*
X0002987Y0086272D01*
X0002987Y0087058D02*
X0191983Y0087058D01*
X0192308Y0087844D02*
X0002987Y0087844D01*
X0002987Y0088630D02*
X0192890Y0088630D01*
X0194144Y0089416D02*
X0002987Y0089416D01*
X0002987Y0090202D02*
X0351302Y0090202D01*
X0351280Y0090255D02*
X0352151Y0088151D01*
X0353761Y0086541D01*
X0355865Y0085669D01*
X0358143Y0085669D01*
X0360247Y0086541D01*
X0361857Y0088151D01*
X0362728Y0090255D01*
X0362728Y0092532D01*
X0361857Y0094636D01*
X0360247Y0096247D01*
X0358143Y0097118D01*
X0355865Y0097118D01*
X0353761Y0096247D01*
X0352151Y0094636D01*
X0351280Y0092532D01*
X0351280Y0090255D01*
X0351280Y0090988D02*
X0002987Y0090988D01*
X0002987Y0091774D02*
X0162081Y0091774D01*
X0162318Y0091536D02*
X0161536Y0092318D01*
X0161113Y0093340D01*
X0161113Y0094447D01*
X0161285Y0094863D01*
X0160215Y0094863D01*
X0159193Y0095286D01*
X0158411Y0096068D01*
X0157988Y0097090D01*
X0157988Y0097605D01*
X0156275Y0099318D01*
X0156275Y0130704D01*
X0155911Y0131068D01*
X0155685Y0131615D01*
X0155345Y0131275D01*
X0149095Y0131275D01*
X0146512Y0128693D01*
X0146512Y0119095D01*
X0152762Y0112845D01*
X0152762Y0106818D01*
X0151595Y0105650D01*
X0150425Y0104480D01*
X0150425Y0103965D01*
X0150001Y0102943D01*
X0149219Y0102161D01*
X0148197Y0101738D01*
X0147090Y0101738D01*
X0146068Y0102161D01*
X0145286Y0102943D01*
X0144863Y0103965D01*
X0144863Y0105072D01*
X0145286Y0106094D01*
X0145968Y0106776D01*
X0145845Y0106827D01*
X0144952Y0107720D01*
X0144469Y0108887D01*
X0144469Y0109025D01*
X0139195Y0114299D01*
X0138884Y0115050D01*
X0134540Y0115050D01*
X0134442Y0114952D01*
X0133275Y0114469D01*
X0132012Y0114469D01*
X0130887Y0114935D01*
X0130887Y0109583D01*
X0131251Y0109219D01*
X0131675Y0108197D01*
X0131675Y0107090D01*
X0131251Y0106068D01*
X0130469Y0105286D01*
X0129447Y0104863D01*
X0128340Y0104863D01*
X0127318Y0105286D01*
X0126536Y0106068D01*
X0126394Y0106412D01*
X0126251Y0106068D01*
X0125469Y0105286D01*
X0124447Y0104863D01*
X0123340Y0104863D01*
X0122318Y0105286D01*
X0121536Y0106068D01*
X0121113Y0107090D01*
X0121113Y0108197D01*
X0121536Y0109219D01*
X0121900Y0109583D01*
X0121900Y0118470D01*
X0126900Y0123470D01*
X0126900Y0126954D01*
X0126536Y0127318D01*
X0126113Y0128340D01*
X0126113Y0129447D01*
X0126536Y0130469D01*
X0127318Y0131251D01*
X0128340Y0131675D01*
X0129447Y0131675D01*
X0130469Y0131251D01*
X0131251Y0130469D01*
X0131394Y0130126D01*
X0131536Y0130469D01*
X0132318Y0131251D01*
X0133340Y0131675D01*
X0134447Y0131675D01*
X0135469Y0131251D01*
X0136251Y0130469D01*
X0136675Y0129447D01*
X0136675Y0128340D01*
X0136251Y0127318D01*
X0135887Y0126954D01*
X0135887Y0123068D01*
X0133532Y0120712D01*
X0134442Y0120335D01*
X0134540Y0120237D01*
X0138800Y0120237D01*
X0138800Y0131285D01*
X0139195Y0132238D01*
X0139924Y0132968D01*
X0139924Y0132968D01*
X0143232Y0136275D01*
X0112708Y0136275D01*
X0112344Y0135911D01*
X0111322Y0135488D01*
X0110215Y0135488D01*
X0109193Y0135911D01*
X0108411Y0136693D01*
X0107988Y0137715D01*
X0107988Y0138822D01*
X0108411Y0139844D01*
X0108592Y0140025D01*
X0102443Y0140025D01*
X0101818Y0140650D01*
X0097083Y0140650D01*
X0096719Y0140286D01*
X0095697Y0139863D01*
X0094590Y0139863D01*
X0093568Y0140286D01*
X0092786Y0141068D01*
X0092363Y0142090D01*
X0092363Y0143197D01*
X0092653Y0143897D01*
X0092318Y0144036D01*
X0091536Y0144818D01*
X0091113Y0145840D01*
X0091113Y0146947D01*
X0091536Y0147969D01*
X0092318Y0148751D01*
X0092653Y0148890D01*
X0092363Y0149590D01*
X0092363Y0150697D01*
X0092786Y0151719D01*
X0093568Y0152501D01*
X0094590Y0152925D01*
X0095105Y0152925D01*
X0098068Y0155887D01*
X0140704Y0155887D01*
X0141068Y0156251D01*
X0142090Y0156675D01*
X0143197Y0156675D01*
X0144219Y0156251D01*
X0145001Y0155469D01*
X0145425Y0154447D01*
X0145425Y0153340D01*
X0145001Y0152318D01*
X0144219Y0151536D01*
X0143197Y0151113D01*
X0142090Y0151113D01*
X0141068Y0151536D01*
X0140704Y0151900D01*
X0126695Y0151900D01*
X0126876Y0151719D01*
X0127300Y0150697D01*
X0127300Y0149590D01*
X0127050Y0148987D01*
X0149498Y0148987D01*
X0149595Y0149085D01*
X0150762Y0149568D01*
X0152025Y0149568D01*
X0153192Y0149085D01*
X0153290Y0148987D01*
X0158248Y0148987D01*
X0158345Y0149085D01*
X0159512Y0149568D01*
X0160775Y0149568D01*
X0161942Y0149085D01*
X0162835Y0148192D01*
X0163318Y0147025D01*
X0163318Y0145762D01*
X0162835Y0144595D01*
X0162252Y0144012D01*
X0173470Y0144012D01*
X0174637Y0142845D01*
X0175807Y0141675D01*
X0176322Y0141675D01*
X0177344Y0141251D01*
X0178126Y0140469D01*
X0178550Y0139447D01*
X0178550Y0138869D01*
X0181113Y0141432D01*
X0181113Y0141947D01*
X0181536Y0142969D01*
X0182318Y0143751D01*
X0183340Y0144175D01*
X0184447Y0144175D01*
X0185469Y0143751D01*
X0186251Y0142969D01*
X0186675Y0141947D01*
X0186675Y0140840D01*
X0186251Y0139818D01*
X0185469Y0139036D01*
X0184447Y0138613D01*
X0183932Y0138613D01*
X0177762Y0132443D01*
X0177762Y0132443D01*
X0176595Y0131275D01*
X0173550Y0131275D01*
X0173550Y0130215D01*
X0173387Y0129823D01*
X0173387Y0099583D01*
X0173751Y0099219D01*
X0173894Y0098876D01*
X0174036Y0099219D01*
X0174400Y0099583D01*
X0174400Y0114720D01*
X0175568Y0115887D01*
X0182988Y0123307D01*
X0182988Y0123822D01*
X0183411Y0124844D01*
X0184193Y0125626D01*
X0185215Y0126050D01*
X0186322Y0126050D01*
X0187344Y0125626D01*
X0188126Y0124844D01*
X0188550Y0123822D01*
X0188550Y0122715D01*
X0188126Y0121693D01*
X0187344Y0120911D01*
X0186322Y0120488D01*
X0185807Y0120488D01*
X0178387Y0113068D01*
X0178387Y0099583D01*
X0178751Y0099219D01*
X0179175Y0098197D01*
X0179175Y0097090D01*
X0178751Y0096068D01*
X0177969Y0095286D01*
X0176947Y0094863D01*
X0175840Y0094863D01*
X0174818Y0095286D01*
X0174036Y0096068D01*
X0173894Y0096412D01*
X0173751Y0096068D01*
X0172969Y0095286D01*
X0171947Y0094863D01*
X0170840Y0094863D01*
X0169818Y0095286D01*
X0169206Y0095898D01*
X0168594Y0095286D01*
X0167572Y0094863D01*
X0166503Y0094863D01*
X0166675Y0094447D01*
X0166675Y0093340D01*
X0166251Y0092318D01*
X0165469Y0091536D01*
X0164447Y0091113D01*
X0163340Y0091113D01*
X0162318Y0091536D01*
X0161436Y0092560D02*
X0002987Y0092560D01*
X0002987Y0093346D02*
X0161113Y0093346D01*
X0161113Y0094131D02*
X0002987Y0094131D01*
X0002987Y0094917D02*
X0160083Y0094917D01*
X0158776Y0095703D02*
X0002987Y0095703D01*
X0002987Y0096489D02*
X0158237Y0096489D01*
X0157988Y0097275D02*
X0002987Y0097275D01*
X0002987Y0098061D02*
X0157532Y0098061D01*
X0156746Y0098847D02*
X0002987Y0098847D01*
X0002987Y0099633D02*
X0156275Y0099633D01*
X0156275Y0100419D02*
X0002987Y0100419D01*
X0002987Y0101205D02*
X0156275Y0101205D01*
X0156275Y0101991D02*
X0148808Y0101991D01*
X0149835Y0102776D02*
X0156275Y0102776D01*
X0156275Y0103562D02*
X0150258Y0103562D01*
X0150425Y0104348D02*
X0156275Y0104348D01*
X0156275Y0105134D02*
X0151079Y0105134D01*
X0151865Y0105920D02*
X0156275Y0105920D01*
X0156275Y0106706D02*
X0152651Y0106706D01*
X0152762Y0107492D02*
X0156275Y0107492D01*
X0156275Y0108278D02*
X0152762Y0108278D01*
X0152762Y0109064D02*
X0156275Y0109064D01*
X0156275Y0109850D02*
X0152762Y0109850D01*
X0152762Y0110636D02*
X0156275Y0110636D01*
X0156275Y0111422D02*
X0152762Y0111422D01*
X0152762Y0112207D02*
X0156275Y0112207D01*
X0156275Y0112993D02*
X0152614Y0112993D01*
X0151828Y0113779D02*
X0156275Y0113779D01*
X0156275Y0114565D02*
X0151042Y0114565D01*
X0150256Y0115351D02*
X0156275Y0115351D01*
X0156275Y0116137D02*
X0149470Y0116137D01*
X0148684Y0116923D02*
X0156275Y0116923D01*
X0156275Y0117709D02*
X0147898Y0117709D01*
X0147112Y0118495D02*
X0156275Y0118495D01*
X0156275Y0119281D02*
X0146512Y0119281D01*
X0146512Y0120067D02*
X0156275Y0120067D01*
X0156275Y0120852D02*
X0146512Y0120852D01*
X0146512Y0121638D02*
X0156275Y0121638D01*
X0156275Y0122424D02*
X0146512Y0122424D01*
X0146512Y0123210D02*
X0156275Y0123210D01*
X0156275Y0123996D02*
X0146512Y0123996D01*
X0146512Y0124782D02*
X0156275Y0124782D01*
X0156275Y0125568D02*
X0146512Y0125568D01*
X0146512Y0126354D02*
X0156275Y0126354D01*
X0156275Y0127140D02*
X0146512Y0127140D01*
X0146512Y0127926D02*
X0156275Y0127926D01*
X0156275Y0128712D02*
X0146531Y0128712D01*
X0147317Y0129498D02*
X0156275Y0129498D01*
X0156275Y0130283D02*
X0148103Y0130283D01*
X0148889Y0131069D02*
X0155911Y0131069D01*
X0142742Y0135785D02*
X0112039Y0135785D01*
X0109498Y0135785D02*
X0002987Y0135785D01*
X0002987Y0136571D02*
X0108534Y0136571D01*
X0108136Y0137357D02*
X0002987Y0137357D01*
X0002987Y0138143D02*
X0107988Y0138143D01*
X0108032Y0138928D02*
X0002987Y0138928D01*
X0002987Y0139714D02*
X0108357Y0139714D01*
X0101968Y0140500D02*
X0096933Y0140500D01*
X0093354Y0140500D02*
X0002987Y0140500D01*
X0002987Y0141286D02*
X0092696Y0141286D01*
X0092370Y0142072D02*
X0002987Y0142072D01*
X0002987Y0142858D02*
X0092363Y0142858D01*
X0092548Y0143644D02*
X0002987Y0143644D01*
X0002987Y0144430D02*
X0091924Y0144430D01*
X0091371Y0145216D02*
X0002987Y0145216D01*
X0002987Y0146002D02*
X0091113Y0146002D01*
X0091113Y0146788D02*
X0002987Y0146788D01*
X0002987Y0147573D02*
X0091372Y0147573D01*
X0091926Y0148359D02*
X0002987Y0148359D01*
X0002987Y0149145D02*
X0092547Y0149145D01*
X0092363Y0149931D02*
X0002987Y0149931D01*
X0002987Y0150717D02*
X0092371Y0150717D01*
X0092697Y0151503D02*
X0002987Y0151503D01*
X0002987Y0152289D02*
X0093356Y0152289D01*
X0095255Y0153075D02*
X0002987Y0153075D01*
X0002987Y0153861D02*
X0096041Y0153861D01*
X0096827Y0154647D02*
X0002987Y0154647D01*
X0002987Y0155433D02*
X0097613Y0155433D01*
X0115286Y0168568D02*
X0116068Y0167786D01*
X0117090Y0167363D01*
X0118197Y0167363D01*
X0119219Y0167786D01*
X0119583Y0168150D01*
X0125079Y0168150D01*
X0125443Y0167786D01*
X0126465Y0167363D01*
X0127572Y0167363D01*
X0128594Y0167786D01*
X0129376Y0168568D01*
X0129800Y0169590D01*
X0129800Y0170697D01*
X0129376Y0171719D01*
X0128594Y0172501D01*
X0127572Y0172925D01*
X0126465Y0172925D01*
X0125443Y0172501D01*
X0125079Y0172137D01*
X0119583Y0172137D01*
X0119219Y0172501D01*
X0118197Y0172925D01*
X0117090Y0172925D01*
X0116068Y0172501D01*
X0115286Y0171719D01*
X0114863Y0170697D01*
X0114863Y0169590D01*
X0115286Y0168568D01*
X0115193Y0168793D02*
X0002987Y0168793D01*
X0002987Y0168007D02*
X0115847Y0168007D01*
X0114867Y0169579D02*
X0002987Y0169579D01*
X0002987Y0170365D02*
X0114863Y0170365D01*
X0115051Y0171151D02*
X0002987Y0171151D01*
X0002987Y0171937D02*
X0115504Y0171937D01*
X0116603Y0172723D02*
X0002987Y0172723D01*
X0002987Y0173509D02*
X0215050Y0173509D01*
X0215050Y0174295D02*
X0209478Y0174295D01*
X0209219Y0174036D02*
X0210001Y0174818D01*
X0210212Y0175326D01*
X0210878Y0175050D01*
X0215050Y0175050D01*
X0215050Y0171218D01*
X0205900Y0162068D01*
X0205762Y0162068D01*
X0204595Y0161585D01*
X0204498Y0161487D01*
X0199795Y0161487D01*
X0200001Y0161693D01*
X0200425Y0162715D01*
X0200425Y0163822D01*
X0200001Y0164844D01*
X0199219Y0165626D01*
X0198197Y0166050D01*
X0197090Y0166050D01*
X0196068Y0165626D01*
X0195704Y0165262D01*
X0180833Y0165262D01*
X0180469Y0165626D01*
X0179447Y0166050D01*
X0178340Y0166050D01*
X0177318Y0165626D01*
X0176536Y0164844D01*
X0176113Y0163822D01*
X0176113Y0162715D01*
X0176536Y0161693D01*
X0176742Y0161487D01*
X0175790Y0161487D01*
X0175692Y0161585D01*
X0174525Y0162068D01*
X0174387Y0162068D01*
X0172068Y0164387D01*
X0172068Y0164525D01*
X0171585Y0165692D01*
X0170692Y0166585D01*
X0169525Y0167068D01*
X0168262Y0167068D01*
X0167095Y0166585D01*
X0166202Y0165692D01*
X0165719Y0164525D01*
X0165719Y0163262D01*
X0166202Y0162095D01*
X0167095Y0161202D01*
X0168262Y0160719D01*
X0168400Y0160719D01*
X0170719Y0158400D01*
X0170719Y0158262D01*
X0171202Y0157095D01*
X0172095Y0156202D01*
X0173036Y0155813D01*
X0172988Y0155697D01*
X0172988Y0154590D01*
X0173411Y0153568D01*
X0174193Y0152786D01*
X0175215Y0152363D01*
X0176322Y0152363D01*
X0177344Y0152786D01*
X0177708Y0153150D01*
X0200704Y0153150D01*
X0201068Y0152786D01*
X0202090Y0152363D01*
X0203197Y0152363D01*
X0204219Y0152786D01*
X0205001Y0153568D01*
X0205425Y0154590D01*
X0205425Y0155697D01*
X0205344Y0155892D01*
X0205762Y0155719D01*
X0207025Y0155719D01*
X0208192Y0156202D01*
X0209085Y0157095D01*
X0209568Y0158262D01*
X0209568Y0158400D01*
X0219843Y0168674D01*
X0220237Y0169628D01*
X0220237Y0175748D01*
X0220335Y0175845D01*
X0220818Y0177012D01*
X0220818Y0178275D01*
X0220335Y0179442D01*
X0219442Y0180335D01*
X0218275Y0180818D01*
X0217012Y0180818D01*
X0215845Y0180335D01*
X0215748Y0180237D01*
X0212468Y0180237D01*
X0206487Y0186218D01*
X0206487Y0196998D01*
X0206585Y0197095D01*
X0207068Y0198262D01*
X0207068Y0199525D01*
X0206585Y0200692D01*
X0205692Y0201585D01*
X0204525Y0202068D01*
X0203262Y0202068D01*
X0202095Y0201585D01*
X0201202Y0200692D01*
X0200719Y0199525D01*
X0200719Y0198262D01*
X0201202Y0197095D01*
X0201300Y0196998D01*
X0201300Y0185557D01*
X0200970Y0185887D01*
X0155346Y0185887D01*
X0155001Y0186719D01*
X0154219Y0187501D01*
X0153197Y0187925D01*
X0152090Y0187925D01*
X0151068Y0187501D01*
X0150286Y0186719D01*
X0149863Y0185697D01*
X0149863Y0184590D01*
X0150286Y0183568D01*
X0150467Y0183387D01*
X0129583Y0183387D01*
X0129219Y0183751D01*
X0128197Y0184175D01*
X0127090Y0184175D01*
X0126068Y0183751D01*
X0125286Y0182969D01*
X0124863Y0181947D01*
X0124863Y0180840D01*
X0125286Y0179818D01*
X0126068Y0179036D01*
X0127090Y0178613D01*
X0128197Y0178613D01*
X0129219Y0179036D01*
X0129583Y0179400D01*
X0196818Y0179400D01*
X0199863Y0176355D01*
X0199863Y0175840D01*
X0200286Y0174818D01*
X0201068Y0174036D01*
X0202090Y0173613D01*
X0203197Y0173613D01*
X0204219Y0174036D01*
X0205001Y0174818D01*
X0205144Y0175162D01*
X0205286Y0174818D01*
X0206068Y0174036D01*
X0207090Y0173613D01*
X0208197Y0173613D01*
X0209219Y0174036D01*
X0210110Y0175080D02*
X0210804Y0175080D01*
X0215050Y0172723D02*
X0128060Y0172723D01*
X0129159Y0171937D02*
X0215050Y0171937D01*
X0214983Y0171151D02*
X0129612Y0171151D01*
X0129800Y0170365D02*
X0214197Y0170365D01*
X0213411Y0169579D02*
X0129795Y0169579D01*
X0129470Y0168793D02*
X0212625Y0168793D01*
X0211839Y0168007D02*
X0128815Y0168007D01*
X0125222Y0168007D02*
X0119440Y0168007D01*
X0118685Y0172723D02*
X0125978Y0172723D01*
X0126131Y0179010D02*
X0091830Y0179010D01*
X0092137Y0179318D02*
X0092137Y0188470D01*
X0090970Y0189637D01*
X0090970Y0189637D01*
X0081675Y0198932D01*
X0081675Y0199447D01*
X0081251Y0200469D01*
X0080469Y0201251D01*
X0079447Y0201675D01*
X0078340Y0201675D01*
X0077318Y0201251D01*
X0076536Y0200469D01*
X0076113Y0199447D01*
X0076113Y0198340D01*
X0076536Y0197318D01*
X0077318Y0196536D01*
X0078340Y0196113D01*
X0078855Y0196113D01*
X0087111Y0187857D01*
X0086947Y0187925D01*
X0085840Y0187925D01*
X0084818Y0187501D01*
X0084036Y0186719D01*
X0083613Y0185697D01*
X0083613Y0184590D01*
X0084036Y0183568D01*
X0084400Y0183204D01*
X0084400Y0182220D01*
X0082605Y0180425D01*
X0082090Y0180425D01*
X0081068Y0180001D01*
X0080286Y0179219D01*
X0079863Y0178197D01*
X0079863Y0177090D01*
X0080286Y0176068D01*
X0081068Y0175286D01*
X0082090Y0174863D01*
X0083197Y0174863D01*
X0083897Y0175153D01*
X0084036Y0174818D01*
X0084818Y0174036D01*
X0085840Y0173613D01*
X0086947Y0173613D01*
X0087969Y0174036D01*
X0088751Y0174818D01*
X0089175Y0175840D01*
X0089175Y0176355D01*
X0090970Y0178150D01*
X0092137Y0179318D01*
X0092137Y0179796D02*
X0125308Y0179796D01*
X0124970Y0180582D02*
X0092137Y0180582D01*
X0092137Y0181368D02*
X0124863Y0181368D01*
X0124948Y0182154D02*
X0092137Y0182154D01*
X0092137Y0182940D02*
X0125274Y0182940D01*
X0126042Y0183725D02*
X0092137Y0183725D01*
X0092137Y0184511D02*
X0149895Y0184511D01*
X0149863Y0185297D02*
X0092137Y0185297D01*
X0092137Y0186083D02*
X0150023Y0186083D01*
X0150436Y0186869D02*
X0092137Y0186869D01*
X0092137Y0187655D02*
X0151439Y0187655D01*
X0153848Y0187655D02*
X0201300Y0187655D01*
X0201300Y0186869D02*
X0154851Y0186869D01*
X0155265Y0186083D02*
X0201300Y0186083D01*
X0201300Y0188441D02*
X0092137Y0188441D01*
X0091380Y0189227D02*
X0201300Y0189227D01*
X0201300Y0190013D02*
X0090594Y0190013D01*
X0089808Y0190799D02*
X0201300Y0190799D01*
X0201300Y0191585D02*
X0089022Y0191585D01*
X0088236Y0192371D02*
X0201300Y0192371D01*
X0201300Y0193156D02*
X0087450Y0193156D01*
X0086665Y0193942D02*
X0201300Y0193942D01*
X0201300Y0194728D02*
X0085879Y0194728D01*
X0085093Y0195514D02*
X0201300Y0195514D01*
X0201300Y0196300D02*
X0084307Y0196300D01*
X0083521Y0197086D02*
X0201212Y0197086D01*
X0200881Y0197872D02*
X0082735Y0197872D01*
X0081949Y0198658D02*
X0200719Y0198658D01*
X0200719Y0199444D02*
X0081675Y0199444D01*
X0081351Y0200230D02*
X0201011Y0200230D01*
X0201526Y0201016D02*
X0080705Y0201016D01*
X0077083Y0201016D02*
X0002987Y0201016D01*
X0002987Y0201801D02*
X0202618Y0201801D01*
X0205170Y0201801D02*
X0393501Y0201801D01*
X0393501Y0201016D02*
X0206262Y0201016D01*
X0206777Y0200230D02*
X0393501Y0200230D01*
X0393501Y0199444D02*
X0207068Y0199444D01*
X0207068Y0198658D02*
X0393501Y0198658D01*
X0393501Y0197872D02*
X0206907Y0197872D01*
X0206576Y0197086D02*
X0393501Y0197086D01*
X0393501Y0196300D02*
X0206487Y0196300D01*
X0206487Y0195514D02*
X0393501Y0195514D01*
X0393501Y0194728D02*
X0206487Y0194728D01*
X0206487Y0193942D02*
X0393501Y0193942D01*
X0393501Y0193156D02*
X0206487Y0193156D01*
X0206487Y0192371D02*
X0393501Y0192371D01*
X0393501Y0191585D02*
X0206487Y0191585D01*
X0206487Y0190799D02*
X0393501Y0190799D01*
X0393501Y0190013D02*
X0282942Y0190013D01*
X0282969Y0190001D02*
X0281947Y0190425D01*
X0280840Y0190425D01*
X0279818Y0190001D01*
X0279454Y0189637D01*
X0271458Y0189637D01*
X0271094Y0190001D01*
X0270072Y0190425D01*
X0268965Y0190425D01*
X0267943Y0190001D01*
X0267161Y0189219D01*
X0266738Y0188197D01*
X0266738Y0187090D01*
X0267161Y0186068D01*
X0267943Y0185286D01*
X0268965Y0184863D01*
X0270072Y0184863D01*
X0271094Y0185286D01*
X0271458Y0185650D01*
X0279454Y0185650D01*
X0279818Y0185286D01*
X0280840Y0184863D01*
X0281947Y0184863D01*
X0282969Y0185286D01*
X0283751Y0186068D01*
X0284175Y0187090D01*
X0284175Y0188197D01*
X0283751Y0189219D01*
X0282969Y0190001D01*
X0283744Y0189227D02*
X0393501Y0189227D01*
X0393501Y0188441D02*
X0284074Y0188441D01*
X0284175Y0187655D02*
X0393501Y0187655D01*
X0393501Y0186869D02*
X0284083Y0186869D01*
X0283758Y0186083D02*
X0393501Y0186083D01*
X0393501Y0185297D02*
X0282980Y0185297D01*
X0279807Y0185297D02*
X0271105Y0185297D01*
X0267932Y0185297D02*
X0207408Y0185297D01*
X0208194Y0184511D02*
X0393501Y0184511D01*
X0393501Y0183725D02*
X0208980Y0183725D01*
X0209766Y0182940D02*
X0393501Y0182940D01*
X0393501Y0182154D02*
X0210552Y0182154D01*
X0211338Y0181368D02*
X0393501Y0181368D01*
X0393501Y0180582D02*
X0218847Y0180582D01*
X0219981Y0179796D02*
X0242113Y0179796D01*
X0242318Y0180001D02*
X0241536Y0179219D01*
X0241113Y0178197D01*
X0241113Y0177090D01*
X0241536Y0176068D01*
X0241900Y0175704D01*
X0241900Y0147287D01*
X0241876Y0147344D01*
X0241512Y0147708D01*
X0241512Y0157948D01*
X0241675Y0158340D01*
X0241675Y0159447D01*
X0241251Y0160469D01*
X0240469Y0161251D01*
X0239447Y0161675D01*
X0238340Y0161675D01*
X0237318Y0161251D01*
X0236536Y0160469D01*
X0236113Y0159447D01*
X0236113Y0158340D01*
X0236536Y0157318D01*
X0237318Y0156536D01*
X0237525Y0156450D01*
X0237525Y0147708D01*
X0237161Y0147344D01*
X0236738Y0146322D01*
X0236738Y0145215D01*
X0237161Y0144193D01*
X0237943Y0143411D01*
X0238965Y0142988D01*
X0240072Y0142988D01*
X0241094Y0143411D01*
X0241453Y0143770D01*
X0241536Y0143568D01*
X0242318Y0142786D01*
X0243340Y0142363D01*
X0244447Y0142363D01*
X0245469Y0142786D01*
X0246251Y0143568D01*
X0246675Y0144590D01*
X0246675Y0145697D01*
X0246251Y0146719D01*
X0245887Y0147083D01*
X0245887Y0175704D01*
X0246251Y0176068D01*
X0246675Y0177090D01*
X0246675Y0178197D01*
X0246251Y0179219D01*
X0245469Y0180001D01*
X0244447Y0180425D01*
X0243340Y0180425D01*
X0242318Y0180001D01*
X0241449Y0179010D02*
X0220514Y0179010D01*
X0220818Y0178224D02*
X0241124Y0178224D01*
X0241113Y0177438D02*
X0220818Y0177438D01*
X0220669Y0176652D02*
X0241294Y0176652D01*
X0241738Y0175866D02*
X0220344Y0175866D01*
X0220237Y0175080D02*
X0241900Y0175080D01*
X0241900Y0174295D02*
X0220237Y0174295D01*
X0220237Y0173509D02*
X0241900Y0173509D01*
X0241900Y0172723D02*
X0220237Y0172723D01*
X0220237Y0171937D02*
X0241900Y0171937D01*
X0241900Y0171151D02*
X0220237Y0171151D01*
X0220237Y0170365D02*
X0241900Y0170365D01*
X0241900Y0169579D02*
X0220217Y0169579D01*
X0219892Y0168793D02*
X0241900Y0168793D01*
X0241900Y0168007D02*
X0219175Y0168007D01*
X0218389Y0167221D02*
X0241900Y0167221D01*
X0241900Y0166435D02*
X0217603Y0166435D01*
X0216818Y0165649D02*
X0241900Y0165649D01*
X0241900Y0164864D02*
X0216032Y0164864D01*
X0215246Y0164078D02*
X0241900Y0164078D01*
X0241900Y0163292D02*
X0214460Y0163292D01*
X0213674Y0162506D02*
X0241900Y0162506D01*
X0241900Y0161720D02*
X0212888Y0161720D01*
X0212102Y0160934D02*
X0237001Y0160934D01*
X0236403Y0160148D02*
X0211316Y0160148D01*
X0210530Y0159362D02*
X0236113Y0159362D01*
X0236113Y0158576D02*
X0209744Y0158576D01*
X0209373Y0157790D02*
X0236340Y0157790D01*
X0236850Y0157004D02*
X0208994Y0157004D01*
X0208208Y0156219D02*
X0237525Y0156219D01*
X0237525Y0155433D02*
X0205425Y0155433D01*
X0205425Y0154647D02*
X0237525Y0154647D01*
X0237525Y0153861D02*
X0205123Y0153861D01*
X0204508Y0153075D02*
X0237525Y0153075D01*
X0237525Y0152289D02*
X0144972Y0152289D01*
X0145315Y0153075D02*
X0173904Y0153075D01*
X0173290Y0153861D02*
X0145425Y0153861D01*
X0145342Y0154647D02*
X0172988Y0154647D01*
X0172988Y0155433D02*
X0145016Y0155433D01*
X0144252Y0156219D02*
X0172079Y0156219D01*
X0171293Y0157004D02*
X0002987Y0157004D01*
X0002987Y0156219D02*
X0141035Y0156219D01*
X0141148Y0151503D02*
X0126966Y0151503D01*
X0127291Y0150717D02*
X0195534Y0150717D01*
X0195286Y0150469D02*
X0194863Y0149447D01*
X0194863Y0148340D01*
X0195286Y0147318D01*
X0195650Y0146954D01*
X0195650Y0144583D01*
X0195286Y0144219D01*
X0194863Y0143197D01*
X0194863Y0142090D01*
X0195286Y0141068D01*
X0196068Y0140286D01*
X0197090Y0139863D01*
X0198197Y0139863D01*
X0199219Y0140286D01*
X0200001Y0141068D01*
X0200425Y0142090D01*
X0200425Y0143197D01*
X0200001Y0144219D01*
X0199637Y0144583D01*
X0199637Y0146954D01*
X0200001Y0147318D01*
X0200425Y0148340D01*
X0200425Y0149447D01*
X0200001Y0150469D01*
X0199219Y0151251D01*
X0198197Y0151675D01*
X0197090Y0151675D01*
X0196068Y0151251D01*
X0195286Y0150469D01*
X0195063Y0149931D02*
X0127300Y0149931D01*
X0127115Y0149145D02*
X0149741Y0149145D01*
X0153047Y0149145D02*
X0158491Y0149145D01*
X0161797Y0149145D02*
X0194863Y0149145D01*
X0194863Y0148359D02*
X0162668Y0148359D01*
X0163091Y0147573D02*
X0195180Y0147573D01*
X0195650Y0146788D02*
X0163318Y0146788D01*
X0163318Y0146002D02*
X0195650Y0146002D01*
X0195650Y0145216D02*
X0163092Y0145216D01*
X0162670Y0144430D02*
X0195497Y0144430D01*
X0195048Y0143644D02*
X0185577Y0143644D01*
X0186297Y0142858D02*
X0194863Y0142858D01*
X0194870Y0142072D02*
X0186623Y0142072D01*
X0186675Y0141286D02*
X0195196Y0141286D01*
X0195854Y0140500D02*
X0186534Y0140500D01*
X0186147Y0139714D02*
X0199607Y0139714D01*
X0199661Y0139844D02*
X0199238Y0138822D01*
X0199238Y0137715D01*
X0199661Y0136693D01*
X0200443Y0135911D01*
X0201465Y0135488D01*
X0202363Y0135488D01*
X0202363Y0134590D01*
X0202786Y0133568D01*
X0203568Y0132786D01*
X0204590Y0132363D01*
X0205660Y0132363D01*
X0205488Y0131947D01*
X0205488Y0130840D01*
X0205911Y0129818D01*
X0206693Y0129036D01*
X0207715Y0128613D01*
X0208822Y0128613D01*
X0209844Y0129036D01*
X0210626Y0129818D01*
X0211050Y0130840D01*
X0211050Y0131355D01*
X0224637Y0144943D01*
X0224637Y0145079D01*
X0225001Y0145443D01*
X0225425Y0146465D01*
X0225425Y0147572D01*
X0225001Y0148594D01*
X0224219Y0149376D01*
X0223197Y0149800D01*
X0222090Y0149800D01*
X0221068Y0149376D01*
X0220769Y0149077D01*
X0220469Y0149376D01*
X0219447Y0149800D01*
X0218340Y0149800D01*
X0217318Y0149376D01*
X0216706Y0148764D01*
X0216094Y0149376D01*
X0215072Y0149800D01*
X0213965Y0149800D01*
X0212943Y0149376D01*
X0212161Y0148594D01*
X0211738Y0147572D01*
X0211738Y0147057D01*
X0204943Y0140262D01*
X0203958Y0140262D01*
X0203594Y0140626D01*
X0202572Y0141050D01*
X0201465Y0141050D01*
X0200443Y0140626D01*
X0199661Y0139844D01*
X0199433Y0140500D02*
X0200317Y0140500D01*
X0200092Y0141286D02*
X0205967Y0141286D01*
X0206753Y0142072D02*
X0200417Y0142072D01*
X0200425Y0142858D02*
X0207539Y0142858D01*
X0208324Y0143644D02*
X0200240Y0143644D01*
X0199791Y0144430D02*
X0209110Y0144430D01*
X0209896Y0145216D02*
X0199637Y0145216D01*
X0199637Y0146002D02*
X0210682Y0146002D01*
X0211468Y0146788D02*
X0199637Y0146788D01*
X0200107Y0147573D02*
X0211738Y0147573D01*
X0212064Y0148359D02*
X0200425Y0148359D01*
X0200425Y0149145D02*
X0212712Y0149145D01*
X0216325Y0149145D02*
X0217087Y0149145D01*
X0220700Y0149145D02*
X0220837Y0149145D01*
X0224450Y0149145D02*
X0237525Y0149145D01*
X0237525Y0148359D02*
X0225099Y0148359D01*
X0225424Y0147573D02*
X0237390Y0147573D01*
X0236930Y0146788D02*
X0225425Y0146788D01*
X0225233Y0146002D02*
X0236738Y0146002D01*
X0236738Y0145216D02*
X0224774Y0145216D01*
X0224124Y0144430D02*
X0237063Y0144430D01*
X0237710Y0143644D02*
X0223338Y0143644D01*
X0222553Y0142858D02*
X0242246Y0142858D01*
X0241505Y0143644D02*
X0241327Y0143644D01*
X0241647Y0147573D02*
X0241900Y0147573D01*
X0241900Y0148359D02*
X0241512Y0148359D01*
X0241512Y0149145D02*
X0241900Y0149145D01*
X0241900Y0149931D02*
X0241512Y0149931D01*
X0241512Y0150717D02*
X0241900Y0150717D01*
X0241900Y0151503D02*
X0241512Y0151503D01*
X0241512Y0152289D02*
X0241900Y0152289D01*
X0241900Y0153075D02*
X0241512Y0153075D01*
X0241512Y0153861D02*
X0241900Y0153861D01*
X0241900Y0154647D02*
X0241512Y0154647D01*
X0241512Y0155433D02*
X0241900Y0155433D01*
X0241900Y0156219D02*
X0241512Y0156219D01*
X0241512Y0157004D02*
X0241900Y0157004D01*
X0241900Y0157790D02*
X0241512Y0157790D01*
X0241675Y0158576D02*
X0241900Y0158576D01*
X0241900Y0159362D02*
X0241675Y0159362D01*
X0241900Y0160148D02*
X0241384Y0160148D01*
X0241900Y0160934D02*
X0240786Y0160934D01*
X0245887Y0160934D02*
X0258944Y0160934D01*
X0258702Y0160692D02*
X0258219Y0159525D01*
X0258219Y0158262D01*
X0258702Y0157095D01*
X0259595Y0156202D01*
X0260762Y0155719D01*
X0260900Y0155719D01*
X0265719Y0150900D01*
X0265719Y0150762D01*
X0266202Y0149595D01*
X0267095Y0148702D01*
X0268262Y0148219D01*
X0269525Y0148219D01*
X0270692Y0148702D01*
X0270790Y0148800D01*
X0274498Y0148800D01*
X0274595Y0148702D01*
X0275762Y0148219D01*
X0277025Y0148219D01*
X0278192Y0148702D01*
X0279085Y0149595D01*
X0279568Y0150762D01*
X0279568Y0152025D01*
X0279085Y0153192D01*
X0278192Y0154085D01*
X0277025Y0154568D01*
X0275762Y0154568D01*
X0274595Y0154085D01*
X0274498Y0153987D01*
X0270790Y0153987D01*
X0270692Y0154085D01*
X0269525Y0154568D01*
X0269387Y0154568D01*
X0268305Y0155650D01*
X0276954Y0155650D01*
X0277318Y0155286D01*
X0278340Y0154863D01*
X0279447Y0154863D01*
X0280469Y0155286D01*
X0281251Y0156068D01*
X0281675Y0157090D01*
X0281675Y0158197D01*
X0281251Y0159219D01*
X0280469Y0160001D01*
X0280135Y0160140D01*
X0280425Y0160840D01*
X0280425Y0161947D01*
X0280001Y0162969D01*
X0279219Y0163751D01*
X0278197Y0164175D01*
X0277090Y0164175D01*
X0276068Y0163751D01*
X0275704Y0163387D01*
X0270833Y0163387D01*
X0270469Y0163751D01*
X0269447Y0164175D01*
X0268340Y0164175D01*
X0267318Y0163751D01*
X0266536Y0162969D01*
X0266493Y0162864D01*
X0263470Y0165887D01*
X0262083Y0165887D01*
X0261719Y0166251D01*
X0260697Y0166675D01*
X0259590Y0166675D01*
X0258568Y0166251D01*
X0257786Y0165469D01*
X0257363Y0164447D01*
X0257363Y0163340D01*
X0257786Y0162318D01*
X0258568Y0161536D01*
X0259260Y0161250D01*
X0258702Y0160692D01*
X0258477Y0160148D02*
X0245887Y0160148D01*
X0245887Y0159362D02*
X0258219Y0159362D01*
X0258219Y0158576D02*
X0245887Y0158576D01*
X0245887Y0157790D02*
X0258414Y0157790D01*
X0258793Y0157004D02*
X0245887Y0157004D01*
X0245887Y0156219D02*
X0259579Y0156219D01*
X0261187Y0155433D02*
X0245887Y0155433D01*
X0245887Y0154647D02*
X0261973Y0154647D01*
X0262759Y0153861D02*
X0245887Y0153861D01*
X0245887Y0153075D02*
X0263544Y0153075D01*
X0264330Y0152289D02*
X0245887Y0152289D01*
X0245887Y0151503D02*
X0265116Y0151503D01*
X0265738Y0150717D02*
X0245887Y0150717D01*
X0245887Y0149931D02*
X0266063Y0149931D01*
X0266652Y0149145D02*
X0245887Y0149145D01*
X0245887Y0148359D02*
X0267923Y0148359D01*
X0269864Y0148359D02*
X0275423Y0148359D01*
X0277364Y0148359D02*
X0393501Y0148359D01*
X0393501Y0147573D02*
X0245887Y0147573D01*
X0246183Y0146788D02*
X0393501Y0146788D01*
X0393501Y0146002D02*
X0246549Y0146002D01*
X0246675Y0145216D02*
X0393501Y0145216D01*
X0393501Y0144430D02*
X0246608Y0144430D01*
X0246283Y0143644D02*
X0393501Y0143644D01*
X0393501Y0142858D02*
X0245541Y0142858D01*
X0237525Y0149931D02*
X0200224Y0149931D01*
X0199753Y0150717D02*
X0237525Y0150717D01*
X0237525Y0151503D02*
X0198611Y0151503D01*
X0196676Y0151503D02*
X0144140Y0151503D01*
X0141956Y0134999D02*
X0002987Y0134999D01*
X0002987Y0134213D02*
X0141170Y0134213D01*
X0140384Y0133427D02*
X0002987Y0133427D01*
X0002987Y0132641D02*
X0139598Y0132641D01*
X0139036Y0131855D02*
X0002987Y0131855D01*
X0002987Y0131069D02*
X0102136Y0131069D01*
X0102318Y0131251D02*
X0101536Y0130469D01*
X0101113Y0129447D01*
X0101113Y0128340D01*
X0101536Y0127318D01*
X0101900Y0126954D01*
X0101900Y0115970D01*
X0101355Y0115425D01*
X0100840Y0115425D01*
X0099818Y0115001D01*
X0099036Y0114219D01*
X0098613Y0113197D01*
X0098613Y0112090D01*
X0099036Y0111068D01*
X0099818Y0110286D01*
X0100840Y0109863D01*
X0101947Y0109863D01*
X0102969Y0110286D01*
X0103751Y0111068D01*
X0103894Y0111412D01*
X0104036Y0111068D01*
X0104818Y0110286D01*
X0105840Y0109863D01*
X0106947Y0109863D01*
X0107969Y0110286D01*
X0108751Y0111068D01*
X0109175Y0112090D01*
X0109175Y0112605D01*
X0109720Y0113150D01*
X0110887Y0114318D01*
X0110887Y0126954D01*
X0111251Y0127318D01*
X0111675Y0128340D01*
X0111675Y0129447D01*
X0111251Y0130469D01*
X0110469Y0131251D01*
X0109447Y0131675D01*
X0108340Y0131675D01*
X0107318Y0131251D01*
X0106536Y0130469D01*
X0106394Y0130125D01*
X0106251Y0130469D01*
X0105469Y0131251D01*
X0104447Y0131675D01*
X0103340Y0131675D01*
X0102318Y0131251D01*
X0101459Y0130283D02*
X0002987Y0130283D01*
X0002987Y0129498D02*
X0101134Y0129498D01*
X0101113Y0128712D02*
X0002987Y0128712D01*
X0002987Y0127926D02*
X0101284Y0127926D01*
X0101715Y0127140D02*
X0002987Y0127140D01*
X0002987Y0126354D02*
X0090546Y0126354D01*
X0090762Y0126443D02*
X0089595Y0125960D01*
X0088702Y0125067D01*
X0088219Y0123900D01*
X0088219Y0123762D01*
X0077194Y0112737D01*
X0067040Y0112737D01*
X0066942Y0112835D01*
X0065775Y0113318D01*
X0064512Y0113318D01*
X0063345Y0112835D01*
X0062452Y0111942D01*
X0061969Y0110775D01*
X0061969Y0109512D01*
X0062452Y0108345D01*
X0063345Y0107452D01*
X0064512Y0106969D01*
X0065775Y0106969D01*
X0066942Y0107452D01*
X0067040Y0107550D01*
X0078785Y0107550D01*
X0079738Y0107945D01*
X0091887Y0120094D01*
X0092025Y0120094D01*
X0093192Y0120577D01*
X0094085Y0121470D01*
X0094568Y0122637D01*
X0094568Y0123900D01*
X0094085Y0125067D01*
X0093192Y0125960D01*
X0092025Y0126443D01*
X0090762Y0126443D01*
X0092242Y0126354D02*
X0101900Y0126354D01*
X0101900Y0125568D02*
X0093584Y0125568D01*
X0094203Y0124782D02*
X0101900Y0124782D01*
X0101900Y0123996D02*
X0094529Y0123996D01*
X0094568Y0123210D02*
X0101900Y0123210D01*
X0101900Y0122424D02*
X0094480Y0122424D01*
X0094155Y0121638D02*
X0101900Y0121638D01*
X0101900Y0120852D02*
X0093467Y0120852D01*
X0091860Y0120067D02*
X0101900Y0120067D01*
X0101900Y0119281D02*
X0091074Y0119281D01*
X0090288Y0118495D02*
X0101900Y0118495D01*
X0101900Y0117709D02*
X0089502Y0117709D01*
X0088716Y0116923D02*
X0101900Y0116923D01*
X0101900Y0116137D02*
X0087930Y0116137D01*
X0087144Y0115351D02*
X0100663Y0115351D01*
X0099382Y0114565D02*
X0086358Y0114565D01*
X0085572Y0113779D02*
X0098854Y0113779D01*
X0098613Y0112993D02*
X0084786Y0112993D01*
X0084000Y0112207D02*
X0098613Y0112207D01*
X0098890Y0111422D02*
X0083215Y0111422D01*
X0082429Y0110636D02*
X0099469Y0110636D01*
X0103319Y0110636D02*
X0104469Y0110636D01*
X0108319Y0110636D02*
X0121900Y0110636D01*
X0121900Y0111422D02*
X0108898Y0111422D01*
X0109175Y0112207D02*
X0121900Y0112207D01*
X0121900Y0112993D02*
X0109563Y0112993D01*
X0110349Y0113779D02*
X0121900Y0113779D01*
X0121900Y0114565D02*
X0110887Y0114565D01*
X0110887Y0115351D02*
X0121900Y0115351D01*
X0121900Y0116137D02*
X0110887Y0116137D01*
X0110887Y0116923D02*
X0121900Y0116923D01*
X0121900Y0117709D02*
X0110887Y0117709D01*
X0110887Y0118495D02*
X0121925Y0118495D01*
X0122711Y0119281D02*
X0110887Y0119281D01*
X0110887Y0120067D02*
X0123497Y0120067D01*
X0124283Y0120852D02*
X0110887Y0120852D01*
X0110887Y0121638D02*
X0125069Y0121638D01*
X0125855Y0122424D02*
X0110887Y0122424D01*
X0110887Y0123210D02*
X0126641Y0123210D01*
X0126900Y0123996D02*
X0110887Y0123996D01*
X0110887Y0124782D02*
X0126900Y0124782D01*
X0126900Y0125568D02*
X0110887Y0125568D01*
X0110887Y0126354D02*
X0126900Y0126354D01*
X0126715Y0127140D02*
X0111073Y0127140D01*
X0111503Y0127926D02*
X0126284Y0127926D01*
X0126113Y0128712D02*
X0111675Y0128712D01*
X0111654Y0129498D02*
X0126134Y0129498D01*
X0126459Y0130283D02*
X0111328Y0130283D01*
X0110651Y0131069D02*
X0127136Y0131069D01*
X0130651Y0131069D02*
X0132136Y0131069D01*
X0131459Y0130283D02*
X0131328Y0130283D01*
X0135651Y0131069D02*
X0138800Y0131069D01*
X0138800Y0130283D02*
X0136328Y0130283D01*
X0136654Y0129498D02*
X0138800Y0129498D01*
X0138800Y0128712D02*
X0136675Y0128712D01*
X0136503Y0127926D02*
X0138800Y0127926D01*
X0138800Y0127140D02*
X0136073Y0127140D01*
X0135887Y0126354D02*
X0138800Y0126354D01*
X0138800Y0125568D02*
X0135887Y0125568D01*
X0135887Y0124782D02*
X0138800Y0124782D01*
X0138800Y0123996D02*
X0135887Y0123996D01*
X0135887Y0123210D02*
X0138800Y0123210D01*
X0138800Y0122424D02*
X0135244Y0122424D01*
X0134458Y0121638D02*
X0138800Y0121638D01*
X0138800Y0120852D02*
X0133672Y0120852D01*
X0133508Y0114565D02*
X0139085Y0114565D01*
X0139715Y0113779D02*
X0130887Y0113779D01*
X0130887Y0112993D02*
X0140501Y0112993D01*
X0141287Y0112207D02*
X0130887Y0112207D01*
X0130887Y0111422D02*
X0142073Y0111422D01*
X0142859Y0110636D02*
X0130887Y0110636D01*
X0130887Y0109850D02*
X0143645Y0109850D01*
X0144431Y0109064D02*
X0131316Y0109064D01*
X0131641Y0108278D02*
X0144721Y0108278D01*
X0145181Y0107492D02*
X0131675Y0107492D01*
X0131516Y0106706D02*
X0145898Y0106706D01*
X0145214Y0105920D02*
X0131103Y0105920D01*
X0130103Y0105134D02*
X0144888Y0105134D01*
X0144863Y0104348D02*
X0002987Y0104348D01*
X0002987Y0103562D02*
X0145030Y0103562D01*
X0145453Y0102776D02*
X0002987Y0102776D01*
X0002987Y0101991D02*
X0146480Y0101991D01*
X0131780Y0114565D02*
X0130887Y0114565D01*
X0121900Y0109850D02*
X0081643Y0109850D01*
X0080857Y0109064D02*
X0121472Y0109064D01*
X0121146Y0108278D02*
X0080071Y0108278D01*
X0077450Y0112993D02*
X0066560Y0112993D01*
X0063727Y0112993D02*
X0002987Y0112993D01*
X0002987Y0112207D02*
X0062718Y0112207D01*
X0062237Y0111422D02*
X0002987Y0111422D01*
X0002987Y0110636D02*
X0061969Y0110636D01*
X0061969Y0109850D02*
X0002987Y0109850D01*
X0002987Y0109064D02*
X0062155Y0109064D01*
X0062520Y0108278D02*
X0002987Y0108278D01*
X0002987Y0107492D02*
X0063306Y0107492D01*
X0066982Y0107492D02*
X0121113Y0107492D01*
X0121272Y0106706D02*
X0002987Y0106706D01*
X0002987Y0105920D02*
X0121684Y0105920D01*
X0122685Y0105134D02*
X0002987Y0105134D01*
X0002987Y0113779D02*
X0078236Y0113779D01*
X0079022Y0114565D02*
X0002987Y0114565D01*
X0002987Y0115351D02*
X0079808Y0115351D01*
X0080594Y0116137D02*
X0002987Y0116137D01*
X0002987Y0116923D02*
X0081380Y0116923D01*
X0082166Y0117709D02*
X0002987Y0117709D01*
X0002987Y0118495D02*
X0082952Y0118495D01*
X0083738Y0119281D02*
X0002987Y0119281D01*
X0002987Y0120067D02*
X0084524Y0120067D01*
X0085309Y0120852D02*
X0002987Y0120852D01*
X0002987Y0121638D02*
X0086095Y0121638D01*
X0086881Y0122424D02*
X0002987Y0122424D01*
X0002987Y0123210D02*
X0087667Y0123210D01*
X0088259Y0123996D02*
X0002987Y0123996D01*
X0002987Y0124782D02*
X0088584Y0124782D01*
X0089203Y0125568D02*
X0002987Y0125568D01*
X0002987Y0157790D02*
X0170914Y0157790D01*
X0170543Y0158576D02*
X0002987Y0158576D01*
X0002987Y0159362D02*
X0169757Y0159362D01*
X0168971Y0160148D02*
X0002987Y0160148D01*
X0002987Y0160934D02*
X0167743Y0160934D01*
X0166578Y0161720D02*
X0002987Y0161720D01*
X0002987Y0162506D02*
X0166032Y0162506D01*
X0165719Y0163292D02*
X0002987Y0163292D01*
X0002987Y0164078D02*
X0165719Y0164078D01*
X0165859Y0164864D02*
X0002987Y0164864D01*
X0002987Y0165649D02*
X0166185Y0165649D01*
X0166946Y0166435D02*
X0002987Y0166435D01*
X0002987Y0167221D02*
X0211053Y0167221D01*
X0210267Y0166435D02*
X0170842Y0166435D01*
X0171603Y0165649D02*
X0177374Y0165649D01*
X0176556Y0164864D02*
X0171928Y0164864D01*
X0172378Y0164078D02*
X0176219Y0164078D01*
X0176113Y0163292D02*
X0173164Y0163292D01*
X0173950Y0162506D02*
X0176199Y0162506D01*
X0176525Y0161720D02*
X0175367Y0161720D01*
X0180413Y0165649D02*
X0196124Y0165649D01*
X0199163Y0165649D02*
X0209481Y0165649D01*
X0208696Y0164864D02*
X0199982Y0164864D01*
X0200319Y0164078D02*
X0207910Y0164078D01*
X0207124Y0163292D02*
X0200425Y0163292D01*
X0200338Y0162506D02*
X0206338Y0162506D01*
X0204921Y0161720D02*
X0200012Y0161720D01*
X0200779Y0153075D02*
X0177633Y0153075D01*
X0173838Y0143644D02*
X0182211Y0143644D01*
X0181490Y0142858D02*
X0174624Y0142858D01*
X0175410Y0142072D02*
X0181164Y0142072D01*
X0180967Y0141286D02*
X0177260Y0141286D01*
X0178095Y0140500D02*
X0180181Y0140500D01*
X0179395Y0139714D02*
X0178439Y0139714D01*
X0178550Y0138928D02*
X0178609Y0138928D01*
X0181104Y0135785D02*
X0200748Y0135785D01*
X0199784Y0136571D02*
X0181890Y0136571D01*
X0182676Y0137357D02*
X0199386Y0137357D01*
X0199238Y0138143D02*
X0183462Y0138143D01*
X0185209Y0138928D02*
X0199282Y0138928D01*
X0203720Y0140500D02*
X0205181Y0140500D01*
X0202363Y0134999D02*
X0180318Y0134999D01*
X0179532Y0134213D02*
X0202519Y0134213D01*
X0202927Y0133427D02*
X0178747Y0133427D01*
X0177961Y0132641D02*
X0203918Y0132641D01*
X0205488Y0131855D02*
X0177175Y0131855D01*
X0173550Y0131069D02*
X0205488Y0131069D01*
X0205718Y0130283D02*
X0173550Y0130283D01*
X0173387Y0129498D02*
X0206232Y0129498D01*
X0207477Y0128712D02*
X0173387Y0128712D01*
X0173387Y0127926D02*
X0393501Y0127926D01*
X0393501Y0128712D02*
X0209061Y0128712D01*
X0210306Y0129498D02*
X0393501Y0129498D01*
X0393501Y0130283D02*
X0210819Y0130283D01*
X0211050Y0131069D02*
X0393501Y0131069D01*
X0393501Y0131855D02*
X0211550Y0131855D01*
X0212336Y0132641D02*
X0393501Y0132641D01*
X0393501Y0133427D02*
X0213122Y0133427D01*
X0213907Y0134213D02*
X0393501Y0134213D01*
X0393501Y0134999D02*
X0214693Y0134999D01*
X0215479Y0135785D02*
X0393501Y0135785D01*
X0393501Y0136571D02*
X0216265Y0136571D01*
X0217051Y0137357D02*
X0393501Y0137357D01*
X0393501Y0138143D02*
X0217837Y0138143D01*
X0218623Y0138928D02*
X0393501Y0138928D01*
X0393501Y0139714D02*
X0219409Y0139714D01*
X0220195Y0140500D02*
X0393501Y0140500D01*
X0393501Y0141286D02*
X0220981Y0141286D01*
X0221767Y0142072D02*
X0393501Y0142072D01*
X0393501Y0149145D02*
X0278635Y0149145D01*
X0279224Y0149931D02*
X0393501Y0149931D01*
X0393501Y0150717D02*
X0279550Y0150717D01*
X0279568Y0151503D02*
X0393501Y0151503D01*
X0393501Y0152289D02*
X0279459Y0152289D01*
X0279134Y0153075D02*
X0393501Y0153075D01*
X0393501Y0153861D02*
X0358303Y0153861D01*
X0358143Y0153794D02*
X0360247Y0154666D01*
X0361857Y0156276D01*
X0362728Y0158380D01*
X0362728Y0160657D01*
X0361857Y0162761D01*
X0360247Y0164372D01*
X0358143Y0165243D01*
X0355865Y0165243D01*
X0353761Y0164372D01*
X0352151Y0162761D01*
X0351280Y0160657D01*
X0351280Y0158380D01*
X0352151Y0156276D01*
X0353761Y0154666D01*
X0355865Y0153794D01*
X0358143Y0153794D01*
X0360201Y0154647D02*
X0393501Y0154647D01*
X0393501Y0155433D02*
X0361013Y0155433D01*
X0361799Y0156219D02*
X0393501Y0156219D01*
X0393501Y0157004D02*
X0362159Y0157004D01*
X0362484Y0157790D02*
X0393501Y0157790D01*
X0393501Y0158576D02*
X0362728Y0158576D01*
X0362728Y0159362D02*
X0393501Y0159362D01*
X0393501Y0160148D02*
X0362728Y0160148D01*
X0362614Y0160934D02*
X0393501Y0160934D01*
X0393501Y0161720D02*
X0362288Y0161720D01*
X0361963Y0162506D02*
X0393501Y0162506D01*
X0393501Y0163292D02*
X0361326Y0163292D01*
X0360540Y0164078D02*
X0393501Y0164078D01*
X0393501Y0164864D02*
X0359059Y0164864D01*
X0354949Y0164864D02*
X0264493Y0164864D01*
X0263707Y0165649D02*
X0393501Y0165649D01*
X0393501Y0166435D02*
X0261275Y0166435D01*
X0259013Y0166435D02*
X0245887Y0166435D01*
X0245887Y0165649D02*
X0257966Y0165649D01*
X0257535Y0164864D02*
X0245887Y0164864D01*
X0245887Y0164078D02*
X0257363Y0164078D01*
X0257383Y0163292D02*
X0245887Y0163292D01*
X0245887Y0162506D02*
X0257708Y0162506D01*
X0258384Y0161720D02*
X0245887Y0161720D01*
X0245887Y0167221D02*
X0393501Y0167221D01*
X0393501Y0168007D02*
X0245887Y0168007D01*
X0245887Y0168793D02*
X0393501Y0168793D01*
X0393501Y0169579D02*
X0245887Y0169579D01*
X0245887Y0170365D02*
X0393501Y0170365D01*
X0393501Y0171151D02*
X0245887Y0171151D01*
X0245887Y0171937D02*
X0393501Y0171937D01*
X0393501Y0172723D02*
X0245887Y0172723D01*
X0245887Y0173509D02*
X0265063Y0173509D01*
X0264595Y0173702D02*
X0265762Y0173219D01*
X0267025Y0173219D01*
X0268192Y0173702D01*
X0269085Y0174595D01*
X0269568Y0175762D01*
X0269568Y0177025D01*
X0269085Y0178192D01*
X0268192Y0179085D01*
X0267025Y0179568D01*
X0265762Y0179568D01*
X0264595Y0179085D01*
X0263702Y0178192D01*
X0263219Y0177025D01*
X0263219Y0175762D01*
X0263702Y0174595D01*
X0264595Y0173702D01*
X0264003Y0174295D02*
X0245887Y0174295D01*
X0245887Y0175080D02*
X0263501Y0175080D01*
X0263219Y0175866D02*
X0246049Y0175866D01*
X0246493Y0176652D02*
X0263219Y0176652D01*
X0263390Y0177438D02*
X0246675Y0177438D01*
X0246664Y0178224D02*
X0263734Y0178224D01*
X0264520Y0179010D02*
X0246338Y0179010D01*
X0245675Y0179796D02*
X0393501Y0179796D01*
X0393501Y0179010D02*
X0268267Y0179010D01*
X0269053Y0178224D02*
X0393501Y0178224D01*
X0393501Y0177438D02*
X0269397Y0177438D01*
X0269568Y0176652D02*
X0393501Y0176652D01*
X0393501Y0175866D02*
X0269568Y0175866D01*
X0269286Y0175080D02*
X0393501Y0175080D01*
X0393501Y0174295D02*
X0268784Y0174295D01*
X0267725Y0173509D02*
X0393501Y0173509D01*
X0393501Y0202587D02*
X0002987Y0202587D01*
X0002987Y0203373D02*
X0393501Y0203373D01*
X0393501Y0204159D02*
X0002987Y0204159D01*
X0002987Y0204945D02*
X0393501Y0204945D01*
X0393501Y0205731D02*
X0002987Y0205731D01*
X0002987Y0206517D02*
X0393501Y0206517D01*
X0393501Y0207303D02*
X0002987Y0207303D01*
X0002987Y0208089D02*
X0393501Y0208089D01*
X0393501Y0208875D02*
X0222100Y0208875D01*
X0222025Y0208844D02*
X0223192Y0209327D01*
X0223290Y0209425D01*
X0261285Y0209425D01*
X0262238Y0209820D01*
X0263762Y0211344D01*
X0263900Y0211344D01*
X0265067Y0211827D01*
X0265960Y0212720D01*
X0266443Y0213887D01*
X0266443Y0215150D01*
X0265960Y0216317D01*
X0265862Y0216415D01*
X0265862Y0229410D01*
X0265468Y0230363D01*
X0260818Y0235012D01*
X0260818Y0235150D01*
X0260335Y0236317D01*
X0259442Y0237210D01*
X0258275Y0237693D01*
X0257012Y0237693D01*
X0255845Y0237210D01*
X0254952Y0236317D01*
X0254469Y0235150D01*
X0254469Y0233887D01*
X0254952Y0232720D01*
X0255845Y0231827D01*
X0257012Y0231344D01*
X0257150Y0231344D01*
X0260675Y0227819D01*
X0260675Y0216415D01*
X0260577Y0216317D01*
X0260094Y0215150D01*
X0260094Y0215012D01*
X0259694Y0214612D01*
X0252112Y0214612D01*
X0252112Y0215388D01*
X0252300Y0215840D01*
X0252300Y0216947D01*
X0251876Y0217969D01*
X0251094Y0218751D01*
X0250072Y0219175D01*
X0248965Y0219175D01*
X0248387Y0218935D01*
X0248387Y0274057D01*
X0248934Y0274284D01*
X0250157Y0275506D01*
X0250819Y0277104D01*
X0250819Y0284739D01*
X0250157Y0286336D01*
X0248934Y0287559D01*
X0247337Y0288220D01*
X0245608Y0288220D01*
X0244010Y0287559D01*
X0242788Y0286336D01*
X0242126Y0284739D01*
X0242126Y0277104D01*
X0242788Y0275506D01*
X0244010Y0274284D01*
X0244400Y0274122D01*
X0244400Y0219095D01*
X0243855Y0218550D01*
X0243340Y0218550D01*
X0242318Y0218126D01*
X0241536Y0217344D01*
X0241113Y0216322D01*
X0241113Y0215215D01*
X0241362Y0214612D01*
X0238362Y0214612D01*
X0238362Y0215388D01*
X0238550Y0215840D01*
X0238550Y0216947D01*
X0238126Y0217969D01*
X0237344Y0218751D01*
X0236322Y0219175D01*
X0235215Y0219175D01*
X0234637Y0218935D01*
X0234637Y0274069D01*
X0235155Y0274284D01*
X0236378Y0275506D01*
X0237039Y0277104D01*
X0237039Y0284739D01*
X0236378Y0286336D01*
X0235155Y0287559D01*
X0233557Y0288220D01*
X0231828Y0288220D01*
X0230231Y0287559D01*
X0229008Y0286336D01*
X0228346Y0284739D01*
X0228346Y0277104D01*
X0229008Y0275506D01*
X0230231Y0274284D01*
X0230650Y0274110D01*
X0230650Y0219095D01*
X0230105Y0218550D01*
X0229590Y0218550D01*
X0228568Y0218126D01*
X0227786Y0217344D01*
X0227363Y0216322D01*
X0227363Y0215215D01*
X0227612Y0214612D01*
X0223290Y0214612D01*
X0223192Y0214710D01*
X0222025Y0215193D01*
X0220762Y0215193D01*
X0219595Y0214710D01*
X0218702Y0213817D01*
X0218219Y0212650D01*
X0218219Y0211387D01*
X0218702Y0210220D01*
X0219595Y0209327D01*
X0220762Y0208844D01*
X0222025Y0208844D01*
X0220688Y0208875D02*
X0002987Y0208875D01*
X0002987Y0209661D02*
X0219262Y0209661D01*
X0218609Y0210447D02*
X0002987Y0210447D01*
X0002987Y0211232D02*
X0218283Y0211232D01*
X0218219Y0212018D02*
X0002987Y0212018D01*
X0002987Y0212804D02*
X0218283Y0212804D01*
X0218608Y0213590D02*
X0162922Y0213590D01*
X0163192Y0213702D02*
X0164085Y0214595D01*
X0164568Y0215762D01*
X0164568Y0216749D01*
X0165789Y0217969D01*
X0165789Y0274090D01*
X0166257Y0274284D01*
X0167480Y0275506D01*
X0168142Y0277104D01*
X0168142Y0284739D01*
X0167480Y0286336D01*
X0166257Y0287559D01*
X0164660Y0288220D01*
X0162931Y0288220D01*
X0161333Y0287559D01*
X0160111Y0286336D01*
X0159449Y0284739D01*
X0159449Y0277104D01*
X0160111Y0275506D01*
X0161333Y0274284D01*
X0161802Y0274090D01*
X0161802Y0219621D01*
X0161749Y0219568D01*
X0160762Y0219568D01*
X0159595Y0219085D01*
X0158702Y0218192D01*
X0158219Y0217025D01*
X0158219Y0215762D01*
X0158702Y0214595D01*
X0159595Y0213702D01*
X0160762Y0213219D01*
X0162025Y0213219D01*
X0163192Y0213702D01*
X0163866Y0214376D02*
X0219261Y0214376D01*
X0220686Y0215162D02*
X0164320Y0215162D01*
X0164568Y0215948D02*
X0227363Y0215948D01*
X0227385Y0215162D02*
X0222101Y0215162D01*
X0227533Y0216734D02*
X0164568Y0216734D01*
X0165339Y0217520D02*
X0227962Y0217520D01*
X0229001Y0218306D02*
X0165789Y0218306D01*
X0165789Y0219092D02*
X0230647Y0219092D01*
X0230650Y0219877D02*
X0165789Y0219877D01*
X0165789Y0220663D02*
X0230650Y0220663D01*
X0230650Y0221449D02*
X0165789Y0221449D01*
X0165789Y0222235D02*
X0230650Y0222235D01*
X0230650Y0223021D02*
X0165789Y0223021D01*
X0165789Y0223807D02*
X0230650Y0223807D01*
X0230650Y0224593D02*
X0165789Y0224593D01*
X0165789Y0225379D02*
X0230650Y0225379D01*
X0230650Y0226165D02*
X0165789Y0226165D01*
X0165789Y0226951D02*
X0230650Y0226951D01*
X0230650Y0227737D02*
X0165789Y0227737D01*
X0165789Y0228523D02*
X0230650Y0228523D01*
X0230650Y0229308D02*
X0165789Y0229308D01*
X0165789Y0230094D02*
X0230650Y0230094D01*
X0230650Y0230880D02*
X0165789Y0230880D01*
X0165789Y0231666D02*
X0230650Y0231666D01*
X0230650Y0232452D02*
X0165789Y0232452D01*
X0165789Y0233238D02*
X0230650Y0233238D01*
X0230650Y0234024D02*
X0165789Y0234024D01*
X0165789Y0234810D02*
X0230650Y0234810D01*
X0230650Y0235596D02*
X0165789Y0235596D01*
X0165789Y0236382D02*
X0230650Y0236382D01*
X0230650Y0237168D02*
X0165789Y0237168D01*
X0165789Y0237953D02*
X0230650Y0237953D01*
X0230650Y0238739D02*
X0165789Y0238739D01*
X0165789Y0239525D02*
X0230650Y0239525D01*
X0230650Y0240311D02*
X0165789Y0240311D01*
X0165789Y0241097D02*
X0230650Y0241097D01*
X0230650Y0241883D02*
X0165789Y0241883D01*
X0165789Y0242669D02*
X0230650Y0242669D01*
X0230650Y0243455D02*
X0165789Y0243455D01*
X0165789Y0244241D02*
X0230650Y0244241D01*
X0230650Y0245027D02*
X0165789Y0245027D01*
X0165789Y0245813D02*
X0230650Y0245813D01*
X0230650Y0246599D02*
X0165789Y0246599D01*
X0165789Y0247384D02*
X0230650Y0247384D01*
X0230650Y0248170D02*
X0165789Y0248170D01*
X0165789Y0248956D02*
X0230650Y0248956D01*
X0230650Y0249742D02*
X0165789Y0249742D01*
X0165789Y0250528D02*
X0230650Y0250528D01*
X0230650Y0251314D02*
X0165789Y0251314D01*
X0165789Y0252100D02*
X0230650Y0252100D01*
X0230650Y0252886D02*
X0165789Y0252886D01*
X0165789Y0253672D02*
X0230650Y0253672D01*
X0230650Y0254458D02*
X0165789Y0254458D01*
X0165789Y0255244D02*
X0230650Y0255244D01*
X0230650Y0256029D02*
X0165789Y0256029D01*
X0165789Y0256815D02*
X0230650Y0256815D01*
X0230650Y0257601D02*
X0165789Y0257601D01*
X0165789Y0258387D02*
X0230650Y0258387D01*
X0230650Y0259173D02*
X0165789Y0259173D01*
X0165789Y0259959D02*
X0230650Y0259959D01*
X0230650Y0260745D02*
X0165789Y0260745D01*
X0165789Y0261531D02*
X0230650Y0261531D01*
X0230650Y0262317D02*
X0165789Y0262317D01*
X0165789Y0263103D02*
X0230650Y0263103D01*
X0230650Y0263889D02*
X0165789Y0263889D01*
X0165789Y0264675D02*
X0230650Y0264675D01*
X0230650Y0265460D02*
X0165789Y0265460D01*
X0165789Y0266246D02*
X0230650Y0266246D01*
X0230650Y0267032D02*
X0165789Y0267032D01*
X0165789Y0267818D02*
X0230650Y0267818D01*
X0230650Y0268604D02*
X0165789Y0268604D01*
X0165789Y0269390D02*
X0230650Y0269390D01*
X0230650Y0270176D02*
X0165789Y0270176D01*
X0165789Y0270962D02*
X0230650Y0270962D01*
X0230650Y0271748D02*
X0165789Y0271748D01*
X0165789Y0272534D02*
X0230650Y0272534D01*
X0230650Y0273320D02*
X0165789Y0273320D01*
X0165827Y0274105D02*
X0175543Y0274105D01*
X0174505Y0274891D02*
X0166865Y0274891D01*
X0167551Y0275677D02*
X0173819Y0275677D01*
X0173494Y0276463D02*
X0167876Y0276463D01*
X0168142Y0277249D02*
X0173228Y0277249D01*
X0173228Y0278035D02*
X0168142Y0278035D01*
X0168142Y0278821D02*
X0173228Y0278821D01*
X0173228Y0279607D02*
X0168142Y0279607D01*
X0168142Y0280393D02*
X0173228Y0280393D01*
X0173228Y0281179D02*
X0168142Y0281179D01*
X0168142Y0281965D02*
X0173228Y0281965D01*
X0173228Y0282751D02*
X0168142Y0282751D01*
X0168142Y0283536D02*
X0173228Y0283536D01*
X0173228Y0284322D02*
X0168142Y0284322D01*
X0167989Y0285108D02*
X0173381Y0285108D01*
X0173707Y0285894D02*
X0167663Y0285894D01*
X0167136Y0286680D02*
X0174234Y0286680D01*
X0174981Y0287466D02*
X0166350Y0287466D01*
X0161240Y0287466D02*
X0152571Y0287466D01*
X0152478Y0287559D02*
X0150880Y0288220D01*
X0149151Y0288220D01*
X0147554Y0287559D01*
X0146331Y0286336D01*
X0145669Y0284739D01*
X0145669Y0277104D01*
X0146331Y0275506D01*
X0147554Y0274284D01*
X0148150Y0274037D01*
X0148150Y0219720D01*
X0147999Y0219568D01*
X0147012Y0219568D01*
X0145845Y0219085D01*
X0144952Y0218192D01*
X0144469Y0217025D01*
X0144469Y0215762D01*
X0144952Y0214595D01*
X0145845Y0213702D01*
X0147012Y0213219D01*
X0148275Y0213219D01*
X0149442Y0213702D01*
X0150335Y0214595D01*
X0150818Y0215762D01*
X0150818Y0216749D01*
X0152137Y0218068D01*
X0152137Y0274143D01*
X0152478Y0274284D01*
X0153700Y0275506D01*
X0154362Y0277104D01*
X0154362Y0284739D01*
X0153700Y0286336D01*
X0152478Y0287559D01*
X0153356Y0286680D02*
X0160455Y0286680D01*
X0159927Y0285894D02*
X0153884Y0285894D01*
X0154209Y0285108D02*
X0159602Y0285108D01*
X0159449Y0284322D02*
X0154362Y0284322D01*
X0154362Y0283536D02*
X0159449Y0283536D01*
X0159449Y0282751D02*
X0154362Y0282751D01*
X0154362Y0281965D02*
X0159449Y0281965D01*
X0159449Y0281179D02*
X0154362Y0281179D01*
X0154362Y0280393D02*
X0159449Y0280393D01*
X0159449Y0279607D02*
X0154362Y0279607D01*
X0154362Y0278821D02*
X0159449Y0278821D01*
X0159449Y0278035D02*
X0154362Y0278035D01*
X0154362Y0277249D02*
X0159449Y0277249D01*
X0159714Y0276463D02*
X0154097Y0276463D01*
X0153771Y0275677D02*
X0160040Y0275677D01*
X0160726Y0274891D02*
X0153085Y0274891D01*
X0152137Y0274105D02*
X0161764Y0274105D01*
X0161802Y0273320D02*
X0152137Y0273320D01*
X0152137Y0272534D02*
X0161802Y0272534D01*
X0161802Y0271748D02*
X0152137Y0271748D01*
X0152137Y0270962D02*
X0161802Y0270962D01*
X0161802Y0270176D02*
X0152137Y0270176D01*
X0152137Y0269390D02*
X0161802Y0269390D01*
X0161802Y0268604D02*
X0152137Y0268604D01*
X0152137Y0267818D02*
X0161802Y0267818D01*
X0161802Y0267032D02*
X0152137Y0267032D01*
X0152137Y0266246D02*
X0161802Y0266246D01*
X0161802Y0265460D02*
X0152137Y0265460D01*
X0152137Y0264675D02*
X0161802Y0264675D01*
X0161802Y0263889D02*
X0152137Y0263889D01*
X0152137Y0263103D02*
X0161802Y0263103D01*
X0161802Y0262317D02*
X0152137Y0262317D01*
X0152137Y0261531D02*
X0161802Y0261531D01*
X0161802Y0260745D02*
X0152137Y0260745D01*
X0152137Y0259959D02*
X0161802Y0259959D01*
X0161802Y0259173D02*
X0152137Y0259173D01*
X0152137Y0258387D02*
X0161802Y0258387D01*
X0161802Y0257601D02*
X0152137Y0257601D01*
X0152137Y0256815D02*
X0161802Y0256815D01*
X0161802Y0256029D02*
X0152137Y0256029D01*
X0152137Y0255244D02*
X0161802Y0255244D01*
X0161802Y0254458D02*
X0152137Y0254458D01*
X0152137Y0253672D02*
X0161802Y0253672D01*
X0161802Y0252886D02*
X0152137Y0252886D01*
X0152137Y0252100D02*
X0161802Y0252100D01*
X0161802Y0251314D02*
X0152137Y0251314D01*
X0152137Y0250528D02*
X0161802Y0250528D01*
X0161802Y0249742D02*
X0152137Y0249742D01*
X0152137Y0248956D02*
X0161802Y0248956D01*
X0161802Y0248170D02*
X0152137Y0248170D01*
X0152137Y0247384D02*
X0161802Y0247384D01*
X0161802Y0246599D02*
X0152137Y0246599D01*
X0152137Y0245813D02*
X0161802Y0245813D01*
X0161802Y0245027D02*
X0152137Y0245027D01*
X0152137Y0244241D02*
X0161802Y0244241D01*
X0161802Y0243455D02*
X0152137Y0243455D01*
X0152137Y0242669D02*
X0161802Y0242669D01*
X0161802Y0241883D02*
X0152137Y0241883D01*
X0152137Y0241097D02*
X0161802Y0241097D01*
X0161802Y0240311D02*
X0152137Y0240311D01*
X0152137Y0239525D02*
X0161802Y0239525D01*
X0161802Y0238739D02*
X0152137Y0238739D01*
X0152137Y0237953D02*
X0161802Y0237953D01*
X0161802Y0237168D02*
X0152137Y0237168D01*
X0152137Y0236382D02*
X0161802Y0236382D01*
X0161802Y0235596D02*
X0152137Y0235596D01*
X0152137Y0234810D02*
X0161802Y0234810D01*
X0161802Y0234024D02*
X0152137Y0234024D01*
X0152137Y0233238D02*
X0161802Y0233238D01*
X0161802Y0232452D02*
X0152137Y0232452D01*
X0152137Y0231666D02*
X0161802Y0231666D01*
X0161802Y0230880D02*
X0152137Y0230880D01*
X0152137Y0230094D02*
X0161802Y0230094D01*
X0161802Y0229308D02*
X0152137Y0229308D01*
X0152137Y0228523D02*
X0161802Y0228523D01*
X0161802Y0227737D02*
X0152137Y0227737D01*
X0152137Y0226951D02*
X0161802Y0226951D01*
X0161802Y0226165D02*
X0152137Y0226165D01*
X0152137Y0225379D02*
X0161802Y0225379D01*
X0161802Y0224593D02*
X0152137Y0224593D01*
X0152137Y0223807D02*
X0161802Y0223807D01*
X0161802Y0223021D02*
X0152137Y0223021D01*
X0152137Y0222235D02*
X0161802Y0222235D01*
X0161802Y0221449D02*
X0152137Y0221449D01*
X0152137Y0220663D02*
X0161802Y0220663D01*
X0161802Y0219877D02*
X0152137Y0219877D01*
X0152137Y0219092D02*
X0159611Y0219092D01*
X0158816Y0218306D02*
X0152137Y0218306D01*
X0151589Y0217520D02*
X0158424Y0217520D01*
X0158219Y0216734D02*
X0150818Y0216734D01*
X0150818Y0215948D02*
X0158219Y0215948D01*
X0158467Y0215162D02*
X0150570Y0215162D01*
X0150116Y0214376D02*
X0158921Y0214376D01*
X0159866Y0213590D02*
X0149172Y0213590D01*
X0146116Y0213590D02*
X0135422Y0213590D01*
X0135692Y0213702D02*
X0136585Y0214595D01*
X0137068Y0215762D01*
X0137068Y0216749D01*
X0138387Y0218068D01*
X0138387Y0274155D01*
X0138698Y0274284D01*
X0139921Y0275506D01*
X0140583Y0277104D01*
X0140583Y0284739D01*
X0139921Y0286336D01*
X0138698Y0287559D01*
X0137101Y0288220D01*
X0135372Y0288220D01*
X0133774Y0287559D01*
X0132551Y0286336D01*
X0131890Y0284739D01*
X0131890Y0277104D01*
X0132551Y0275506D01*
X0133774Y0274284D01*
X0134400Y0274025D01*
X0134400Y0219720D01*
X0134249Y0219568D01*
X0133262Y0219568D01*
X0132095Y0219085D01*
X0131202Y0218192D01*
X0130719Y0217025D01*
X0130719Y0215762D01*
X0131202Y0214595D01*
X0132095Y0213702D01*
X0133262Y0213219D01*
X0134525Y0213219D01*
X0135692Y0213702D01*
X0136366Y0214376D02*
X0145171Y0214376D01*
X0144717Y0215162D02*
X0136820Y0215162D01*
X0137068Y0215948D02*
X0144469Y0215948D01*
X0144469Y0216734D02*
X0137068Y0216734D01*
X0137839Y0217520D02*
X0144674Y0217520D01*
X0145066Y0218306D02*
X0138387Y0218306D01*
X0138387Y0219092D02*
X0145861Y0219092D01*
X0148150Y0219877D02*
X0138387Y0219877D01*
X0138387Y0220663D02*
X0148150Y0220663D01*
X0148150Y0221449D02*
X0138387Y0221449D01*
X0138387Y0222235D02*
X0148150Y0222235D01*
X0148150Y0223021D02*
X0138387Y0223021D01*
X0138387Y0223807D02*
X0148150Y0223807D01*
X0148150Y0224593D02*
X0138387Y0224593D01*
X0138387Y0225379D02*
X0148150Y0225379D01*
X0148150Y0226165D02*
X0138387Y0226165D01*
X0138387Y0226951D02*
X0148150Y0226951D01*
X0148150Y0227737D02*
X0138387Y0227737D01*
X0138387Y0228523D02*
X0148150Y0228523D01*
X0148150Y0229308D02*
X0138387Y0229308D01*
X0138387Y0230094D02*
X0148150Y0230094D01*
X0148150Y0230880D02*
X0138387Y0230880D01*
X0138387Y0231666D02*
X0148150Y0231666D01*
X0148150Y0232452D02*
X0138387Y0232452D01*
X0138387Y0233238D02*
X0148150Y0233238D01*
X0148150Y0234024D02*
X0138387Y0234024D01*
X0138387Y0234810D02*
X0148150Y0234810D01*
X0148150Y0235596D02*
X0138387Y0235596D01*
X0138387Y0236382D02*
X0148150Y0236382D01*
X0148150Y0237168D02*
X0138387Y0237168D01*
X0138387Y0237953D02*
X0148150Y0237953D01*
X0148150Y0238739D02*
X0138387Y0238739D01*
X0138387Y0239525D02*
X0148150Y0239525D01*
X0148150Y0240311D02*
X0138387Y0240311D01*
X0138387Y0241097D02*
X0148150Y0241097D01*
X0148150Y0241883D02*
X0138387Y0241883D01*
X0138387Y0242669D02*
X0148150Y0242669D01*
X0148150Y0243455D02*
X0138387Y0243455D01*
X0138387Y0244241D02*
X0148150Y0244241D01*
X0148150Y0245027D02*
X0138387Y0245027D01*
X0138387Y0245813D02*
X0148150Y0245813D01*
X0148150Y0246599D02*
X0138387Y0246599D01*
X0138387Y0247384D02*
X0148150Y0247384D01*
X0148150Y0248170D02*
X0138387Y0248170D01*
X0138387Y0248956D02*
X0148150Y0248956D01*
X0148150Y0249742D02*
X0138387Y0249742D01*
X0138387Y0250528D02*
X0148150Y0250528D01*
X0148150Y0251314D02*
X0138387Y0251314D01*
X0138387Y0252100D02*
X0148150Y0252100D01*
X0148150Y0252886D02*
X0138387Y0252886D01*
X0138387Y0253672D02*
X0148150Y0253672D01*
X0148150Y0254458D02*
X0138387Y0254458D01*
X0138387Y0255244D02*
X0148150Y0255244D01*
X0148150Y0256029D02*
X0138387Y0256029D01*
X0138387Y0256815D02*
X0148150Y0256815D01*
X0148150Y0257601D02*
X0138387Y0257601D01*
X0138387Y0258387D02*
X0148150Y0258387D01*
X0148150Y0259173D02*
X0138387Y0259173D01*
X0138387Y0259959D02*
X0148150Y0259959D01*
X0148150Y0260745D02*
X0138387Y0260745D01*
X0138387Y0261531D02*
X0148150Y0261531D01*
X0148150Y0262317D02*
X0138387Y0262317D01*
X0138387Y0263103D02*
X0148150Y0263103D01*
X0148150Y0263889D02*
X0138387Y0263889D01*
X0138387Y0264675D02*
X0148150Y0264675D01*
X0148150Y0265460D02*
X0138387Y0265460D01*
X0138387Y0266246D02*
X0148150Y0266246D01*
X0148150Y0267032D02*
X0138387Y0267032D01*
X0138387Y0267818D02*
X0148150Y0267818D01*
X0148150Y0268604D02*
X0138387Y0268604D01*
X0138387Y0269390D02*
X0148150Y0269390D01*
X0148150Y0270176D02*
X0138387Y0270176D01*
X0138387Y0270962D02*
X0148150Y0270962D01*
X0148150Y0271748D02*
X0138387Y0271748D01*
X0138387Y0272534D02*
X0148150Y0272534D01*
X0148150Y0273320D02*
X0138387Y0273320D01*
X0138387Y0274105D02*
X0147984Y0274105D01*
X0146946Y0274891D02*
X0139306Y0274891D01*
X0139992Y0275677D02*
X0146260Y0275677D01*
X0145935Y0276463D02*
X0140317Y0276463D01*
X0140583Y0277249D02*
X0145669Y0277249D01*
X0145669Y0278035D02*
X0140583Y0278035D01*
X0140583Y0278821D02*
X0145669Y0278821D01*
X0145669Y0279607D02*
X0140583Y0279607D01*
X0140583Y0280393D02*
X0145669Y0280393D01*
X0145669Y0281179D02*
X0140583Y0281179D01*
X0140583Y0281965D02*
X0145669Y0281965D01*
X0145669Y0282751D02*
X0140583Y0282751D01*
X0140583Y0283536D02*
X0145669Y0283536D01*
X0145669Y0284322D02*
X0140583Y0284322D01*
X0140430Y0285108D02*
X0145822Y0285108D01*
X0146148Y0285894D02*
X0140104Y0285894D01*
X0139577Y0286680D02*
X0146675Y0286680D01*
X0147461Y0287466D02*
X0138791Y0287466D01*
X0133681Y0287466D02*
X0111232Y0287466D01*
X0111139Y0287559D02*
X0109542Y0288220D01*
X0107813Y0288220D01*
X0106215Y0287559D01*
X0104992Y0286336D01*
X0104331Y0284739D01*
X0104331Y0277104D01*
X0104992Y0275506D01*
X0106215Y0274284D01*
X0107813Y0273622D01*
X0109542Y0273622D01*
X0111139Y0274284D01*
X0112362Y0275506D01*
X0113024Y0277104D01*
X0113024Y0284739D01*
X0112362Y0286336D01*
X0111139Y0287559D01*
X0112018Y0286680D02*
X0132895Y0286680D01*
X0132368Y0285894D02*
X0112545Y0285894D01*
X0112870Y0285108D02*
X0132043Y0285108D01*
X0131890Y0284322D02*
X0113024Y0284322D01*
X0113024Y0283536D02*
X0131890Y0283536D01*
X0131890Y0282751D02*
X0113024Y0282751D01*
X0113024Y0281965D02*
X0131890Y0281965D01*
X0131890Y0281179D02*
X0113024Y0281179D01*
X0113024Y0280393D02*
X0131890Y0280393D01*
X0131890Y0279607D02*
X0113024Y0279607D01*
X0113024Y0278821D02*
X0131890Y0278821D01*
X0131890Y0278035D02*
X0113024Y0278035D01*
X0113024Y0277249D02*
X0131890Y0277249D01*
X0132155Y0276463D02*
X0112758Y0276463D01*
X0112433Y0275677D02*
X0132481Y0275677D01*
X0133167Y0274891D02*
X0111747Y0274891D01*
X0110709Y0274105D02*
X0134205Y0274105D01*
X0134400Y0273320D02*
X0002987Y0273320D01*
X0002987Y0274105D02*
X0051527Y0274105D01*
X0051097Y0274284D02*
X0052694Y0273622D01*
X0054424Y0273622D01*
X0056021Y0274284D01*
X0057244Y0275506D01*
X0057905Y0277104D01*
X0057905Y0284739D01*
X0057244Y0286336D01*
X0056021Y0287559D01*
X0054424Y0288220D01*
X0052694Y0288220D01*
X0051097Y0287559D01*
X0049874Y0286336D01*
X0049213Y0284739D01*
X0049213Y0277104D01*
X0049874Y0275506D01*
X0051097Y0274284D01*
X0050489Y0274891D02*
X0002987Y0274891D01*
X0002987Y0275677D02*
X0049804Y0275677D01*
X0049478Y0276463D02*
X0002987Y0276463D01*
X0002987Y0277249D02*
X0049213Y0277249D01*
X0049213Y0278035D02*
X0002987Y0278035D01*
X0002987Y0278821D02*
X0049213Y0278821D01*
X0049213Y0279607D02*
X0002987Y0279607D01*
X0002987Y0280393D02*
X0049213Y0280393D01*
X0049213Y0281179D02*
X0002987Y0281179D01*
X0002987Y0281965D02*
X0049213Y0281965D01*
X0049213Y0282751D02*
X0002987Y0282751D01*
X0002987Y0283536D02*
X0049213Y0283536D01*
X0049213Y0284322D02*
X0002987Y0284322D01*
X0002987Y0285108D02*
X0049366Y0285108D01*
X0049691Y0285894D02*
X0002987Y0285894D01*
X0002987Y0286680D02*
X0050218Y0286680D01*
X0051004Y0287466D02*
X0002987Y0287466D01*
X0002987Y0288252D02*
X0078800Y0288252D01*
X0078800Y0289038D02*
X0003006Y0289038D01*
X0003080Y0289824D02*
X0078972Y0289824D01*
X0079442Y0290610D02*
X0003335Y0290610D01*
X0003590Y0291396D02*
X0080228Y0291396D01*
X0081013Y0292181D02*
X0004061Y0292181D01*
X0004632Y0292967D02*
X0081799Y0292967D01*
X0082585Y0293753D02*
X0005539Y0293753D01*
X0006872Y0294539D02*
X0083371Y0294539D01*
X0085992Y0289824D02*
X0088656Y0289824D01*
X0091632Y0289824D02*
X0176156Y0289824D01*
X0175373Y0289038D02*
X0085206Y0289038D01*
X0084420Y0288252D02*
X0175048Y0288252D01*
X0176942Y0290610D02*
X0092599Y0290610D01*
X0093063Y0291396D02*
X0177728Y0291396D01*
X0178513Y0292181D02*
X0093318Y0292181D01*
X0093318Y0292967D02*
X0179299Y0292967D01*
X0180085Y0293753D02*
X0093120Y0293753D01*
X0092738Y0294539D02*
X0180871Y0294539D01*
X0184278Y0290610D02*
X0346010Y0290610D01*
X0346796Y0289824D02*
X0183492Y0289824D01*
X0182706Y0289038D02*
X0347582Y0289038D01*
X0348367Y0288252D02*
X0181920Y0288252D01*
X0181134Y0287466D02*
X0202579Y0287466D01*
X0202672Y0287559D02*
X0201449Y0286336D01*
X0200787Y0284739D01*
X0200787Y0277104D01*
X0201449Y0275506D01*
X0202672Y0274284D01*
X0204269Y0273622D01*
X0205998Y0273622D01*
X0207596Y0274284D01*
X0208819Y0275506D01*
X0209480Y0277104D01*
X0209480Y0284739D01*
X0208819Y0286336D01*
X0207596Y0287559D01*
X0205998Y0288220D01*
X0204269Y0288220D01*
X0202672Y0287559D01*
X0201793Y0286680D02*
X0180916Y0286680D01*
X0181443Y0285894D02*
X0201266Y0285894D01*
X0200941Y0285108D02*
X0181768Y0285108D01*
X0181921Y0284322D02*
X0200787Y0284322D01*
X0200787Y0283536D02*
X0181921Y0283536D01*
X0181921Y0282751D02*
X0200787Y0282751D01*
X0200787Y0281965D02*
X0181921Y0281965D01*
X0181921Y0281179D02*
X0200787Y0281179D01*
X0200787Y0280393D02*
X0181921Y0280393D01*
X0181921Y0279607D02*
X0200787Y0279607D01*
X0200787Y0278821D02*
X0181921Y0278821D01*
X0181921Y0278035D02*
X0200787Y0278035D01*
X0200787Y0277249D02*
X0181921Y0277249D01*
X0181656Y0276463D02*
X0201053Y0276463D01*
X0201378Y0275677D02*
X0181330Y0275677D01*
X0180644Y0274891D02*
X0202064Y0274891D01*
X0203102Y0274105D02*
X0179606Y0274105D01*
X0207166Y0274105D02*
X0216882Y0274105D01*
X0216451Y0274284D02*
X0218049Y0273622D01*
X0219778Y0273622D01*
X0221375Y0274284D01*
X0222598Y0275506D01*
X0223260Y0277104D01*
X0223260Y0284739D01*
X0222598Y0286336D01*
X0221375Y0287559D01*
X0219778Y0288220D01*
X0218049Y0288220D01*
X0216451Y0287559D01*
X0215229Y0286336D01*
X0214567Y0284739D01*
X0214567Y0277104D01*
X0215229Y0275506D01*
X0216451Y0274284D01*
X0215844Y0274891D02*
X0208204Y0274891D01*
X0208889Y0275677D02*
X0215158Y0275677D01*
X0214832Y0276463D02*
X0209215Y0276463D01*
X0209480Y0277249D02*
X0214567Y0277249D01*
X0214567Y0278035D02*
X0209480Y0278035D01*
X0209480Y0278821D02*
X0214567Y0278821D01*
X0214567Y0279607D02*
X0209480Y0279607D01*
X0209480Y0280393D02*
X0214567Y0280393D01*
X0214567Y0281179D02*
X0209480Y0281179D01*
X0209480Y0281965D02*
X0214567Y0281965D01*
X0214567Y0282751D02*
X0209480Y0282751D01*
X0209480Y0283536D02*
X0214567Y0283536D01*
X0214567Y0284322D02*
X0209480Y0284322D01*
X0209327Y0285108D02*
X0214720Y0285108D01*
X0215046Y0285894D02*
X0209002Y0285894D01*
X0208475Y0286680D02*
X0215573Y0286680D01*
X0216359Y0287466D02*
X0207689Y0287466D01*
X0221468Y0287466D02*
X0230138Y0287466D01*
X0229352Y0286680D02*
X0222254Y0286680D01*
X0222781Y0285894D02*
X0228825Y0285894D01*
X0228500Y0285108D02*
X0223107Y0285108D01*
X0223260Y0284322D02*
X0228346Y0284322D01*
X0228346Y0283536D02*
X0223260Y0283536D01*
X0223260Y0282751D02*
X0228346Y0282751D01*
X0228346Y0281965D02*
X0223260Y0281965D01*
X0223260Y0281179D02*
X0228346Y0281179D01*
X0228346Y0280393D02*
X0223260Y0280393D01*
X0223260Y0279607D02*
X0228346Y0279607D01*
X0228346Y0278821D02*
X0223260Y0278821D01*
X0223260Y0278035D02*
X0228346Y0278035D01*
X0228346Y0277249D02*
X0223260Y0277249D01*
X0222994Y0276463D02*
X0228612Y0276463D01*
X0228937Y0275677D02*
X0222669Y0275677D01*
X0221983Y0274891D02*
X0229623Y0274891D01*
X0230650Y0274105D02*
X0220945Y0274105D01*
X0234637Y0273320D02*
X0244400Y0273320D01*
X0244400Y0274105D02*
X0234725Y0274105D01*
X0235763Y0274891D02*
X0243403Y0274891D01*
X0242717Y0275677D02*
X0236448Y0275677D01*
X0236774Y0276463D02*
X0242391Y0276463D01*
X0242126Y0277249D02*
X0237039Y0277249D01*
X0237039Y0278035D02*
X0242126Y0278035D01*
X0242126Y0278821D02*
X0237039Y0278821D01*
X0237039Y0279607D02*
X0242126Y0279607D01*
X0242126Y0280393D02*
X0237039Y0280393D01*
X0237039Y0281179D02*
X0242126Y0281179D01*
X0242126Y0281965D02*
X0237039Y0281965D01*
X0237039Y0282751D02*
X0242126Y0282751D01*
X0242126Y0283536D02*
X0237039Y0283536D01*
X0237039Y0284322D02*
X0242126Y0284322D01*
X0242279Y0285108D02*
X0236886Y0285108D01*
X0236561Y0285894D02*
X0242605Y0285894D01*
X0243132Y0286680D02*
X0236034Y0286680D01*
X0235248Y0287466D02*
X0243918Y0287466D01*
X0249027Y0287466D02*
X0257697Y0287466D01*
X0257790Y0287559D02*
X0256567Y0286336D01*
X0255906Y0284739D01*
X0255906Y0277104D01*
X0256567Y0275506D01*
X0257790Y0274284D01*
X0259387Y0273622D01*
X0261117Y0273622D01*
X0262714Y0274284D01*
X0263937Y0275506D01*
X0264598Y0277104D01*
X0264598Y0284739D01*
X0263937Y0286336D01*
X0262714Y0287559D01*
X0261117Y0288220D01*
X0259387Y0288220D01*
X0257790Y0287559D01*
X0256911Y0286680D02*
X0249813Y0286680D01*
X0250340Y0285894D02*
X0256384Y0285894D01*
X0256059Y0285108D02*
X0250666Y0285108D01*
X0250819Y0284322D02*
X0255906Y0284322D01*
X0255906Y0283536D02*
X0250819Y0283536D01*
X0250819Y0282751D02*
X0255906Y0282751D01*
X0255906Y0281965D02*
X0250819Y0281965D01*
X0250819Y0281179D02*
X0255906Y0281179D01*
X0255906Y0280393D02*
X0250819Y0280393D01*
X0250819Y0279607D02*
X0255906Y0279607D01*
X0255906Y0278821D02*
X0250819Y0278821D01*
X0250819Y0278035D02*
X0255906Y0278035D01*
X0255906Y0277249D02*
X0250819Y0277249D01*
X0250553Y0276463D02*
X0256171Y0276463D01*
X0256496Y0275677D02*
X0250228Y0275677D01*
X0249542Y0274891D02*
X0257182Y0274891D01*
X0258220Y0274105D02*
X0248504Y0274105D01*
X0248387Y0273320D02*
X0271900Y0273320D01*
X0271900Y0274105D02*
X0262284Y0274105D01*
X0263322Y0274891D02*
X0270962Y0274891D01*
X0271569Y0274284D02*
X0270347Y0275506D01*
X0269685Y0277104D01*
X0269685Y0284739D01*
X0270347Y0286336D01*
X0271569Y0287559D01*
X0273167Y0288220D01*
X0274896Y0288220D01*
X0276494Y0287559D01*
X0277716Y0286336D01*
X0278378Y0284739D01*
X0278378Y0277104D01*
X0277716Y0275506D01*
X0276494Y0274284D01*
X0275887Y0274033D01*
X0275887Y0218068D01*
X0274568Y0216749D01*
X0274568Y0215762D01*
X0274085Y0214595D01*
X0273192Y0213702D01*
X0272025Y0213219D01*
X0270762Y0213219D01*
X0269595Y0213702D01*
X0268702Y0214595D01*
X0268219Y0215762D01*
X0268219Y0217025D01*
X0268702Y0218192D01*
X0269595Y0219085D01*
X0270762Y0219568D01*
X0271749Y0219568D01*
X0271900Y0219720D01*
X0271900Y0274147D01*
X0271569Y0274284D01*
X0271900Y0272534D02*
X0248387Y0272534D01*
X0248387Y0271748D02*
X0271900Y0271748D01*
X0271900Y0270962D02*
X0248387Y0270962D01*
X0248387Y0270176D02*
X0271900Y0270176D01*
X0271900Y0269390D02*
X0248387Y0269390D01*
X0248387Y0268604D02*
X0271900Y0268604D01*
X0271900Y0267818D02*
X0248387Y0267818D01*
X0248387Y0267032D02*
X0271900Y0267032D01*
X0271900Y0266246D02*
X0248387Y0266246D01*
X0248387Y0265460D02*
X0271900Y0265460D01*
X0271900Y0264675D02*
X0248387Y0264675D01*
X0248387Y0263889D02*
X0271900Y0263889D01*
X0271900Y0263103D02*
X0248387Y0263103D01*
X0248387Y0262317D02*
X0271900Y0262317D01*
X0271900Y0261531D02*
X0248387Y0261531D01*
X0248387Y0260745D02*
X0271900Y0260745D01*
X0271900Y0259959D02*
X0248387Y0259959D01*
X0248387Y0259173D02*
X0271900Y0259173D01*
X0271900Y0258387D02*
X0248387Y0258387D01*
X0248387Y0257601D02*
X0271900Y0257601D01*
X0271900Y0256815D02*
X0248387Y0256815D01*
X0248387Y0256029D02*
X0271900Y0256029D01*
X0271900Y0255244D02*
X0248387Y0255244D01*
X0248387Y0254458D02*
X0271900Y0254458D01*
X0271900Y0253672D02*
X0248387Y0253672D01*
X0248387Y0252886D02*
X0271900Y0252886D01*
X0271900Y0252100D02*
X0248387Y0252100D01*
X0248387Y0251314D02*
X0271900Y0251314D01*
X0271900Y0250528D02*
X0248387Y0250528D01*
X0248387Y0249742D02*
X0271900Y0249742D01*
X0271900Y0248956D02*
X0248387Y0248956D01*
X0248387Y0248170D02*
X0271900Y0248170D01*
X0271900Y0247384D02*
X0248387Y0247384D01*
X0248387Y0246599D02*
X0271900Y0246599D01*
X0271900Y0245813D02*
X0248387Y0245813D01*
X0248387Y0245027D02*
X0271900Y0245027D01*
X0271900Y0244241D02*
X0248387Y0244241D01*
X0248387Y0243455D02*
X0271900Y0243455D01*
X0271900Y0242669D02*
X0248387Y0242669D01*
X0248387Y0241883D02*
X0271900Y0241883D01*
X0271900Y0241097D02*
X0248387Y0241097D01*
X0248387Y0240311D02*
X0271900Y0240311D01*
X0271900Y0239525D02*
X0248387Y0239525D01*
X0248387Y0238739D02*
X0271900Y0238739D01*
X0271900Y0237953D02*
X0248387Y0237953D01*
X0248387Y0237168D02*
X0255803Y0237168D01*
X0255017Y0236382D02*
X0248387Y0236382D01*
X0248387Y0235596D02*
X0254653Y0235596D01*
X0254469Y0234810D02*
X0248387Y0234810D01*
X0248387Y0234024D02*
X0254469Y0234024D01*
X0254738Y0233238D02*
X0248387Y0233238D01*
X0248387Y0232452D02*
X0255220Y0232452D01*
X0256234Y0231666D02*
X0248387Y0231666D01*
X0248387Y0230880D02*
X0257614Y0230880D01*
X0258400Y0230094D02*
X0248387Y0230094D01*
X0248387Y0229308D02*
X0259186Y0229308D01*
X0259972Y0228523D02*
X0248387Y0228523D01*
X0248387Y0227737D02*
X0260675Y0227737D01*
X0260675Y0226951D02*
X0248387Y0226951D01*
X0248387Y0226165D02*
X0260675Y0226165D01*
X0260675Y0225379D02*
X0248387Y0225379D01*
X0248387Y0224593D02*
X0260675Y0224593D01*
X0260675Y0223807D02*
X0248387Y0223807D01*
X0248387Y0223021D02*
X0260675Y0223021D01*
X0260675Y0222235D02*
X0248387Y0222235D01*
X0248387Y0221449D02*
X0260675Y0221449D01*
X0260675Y0220663D02*
X0248387Y0220663D01*
X0248387Y0219877D02*
X0260675Y0219877D01*
X0260675Y0219092D02*
X0250273Y0219092D01*
X0251540Y0218306D02*
X0260675Y0218306D01*
X0260675Y0217520D02*
X0252063Y0217520D01*
X0252300Y0216734D02*
X0260675Y0216734D01*
X0260424Y0215948D02*
X0252300Y0215948D01*
X0252112Y0215162D02*
X0260099Y0215162D01*
X0263650Y0211232D02*
X0393501Y0211232D01*
X0393501Y0210447D02*
X0262865Y0210447D01*
X0261853Y0209661D02*
X0393501Y0209661D01*
X0393501Y0212018D02*
X0265258Y0212018D01*
X0265995Y0212804D02*
X0393501Y0212804D01*
X0393501Y0213590D02*
X0272922Y0213590D01*
X0273866Y0214376D02*
X0393501Y0214376D01*
X0393501Y0215162D02*
X0274320Y0215162D01*
X0274568Y0215948D02*
X0310209Y0215948D01*
X0310762Y0215719D02*
X0312025Y0215719D01*
X0313192Y0216202D01*
X0314085Y0217095D01*
X0314568Y0218262D01*
X0314568Y0218400D01*
X0317343Y0221174D01*
X0317737Y0222128D01*
X0317737Y0274245D01*
X0317832Y0274284D01*
X0319055Y0275506D01*
X0319717Y0277104D01*
X0319717Y0284739D01*
X0319055Y0286336D01*
X0317832Y0287559D01*
X0316235Y0288220D01*
X0314505Y0288220D01*
X0312908Y0287559D01*
X0311685Y0286336D01*
X0311024Y0284739D01*
X0311024Y0277104D01*
X0311685Y0275506D01*
X0312550Y0274642D01*
X0312550Y0223718D01*
X0310900Y0222068D01*
X0310762Y0222068D01*
X0309595Y0221585D01*
X0308702Y0220692D01*
X0308219Y0219525D01*
X0308219Y0218262D01*
X0308702Y0217095D01*
X0309595Y0216202D01*
X0310762Y0215719D01*
X0312578Y0215948D02*
X0393501Y0215948D01*
X0393501Y0216734D02*
X0313724Y0216734D01*
X0314261Y0217520D02*
X0393501Y0217520D01*
X0393501Y0218306D02*
X0314568Y0218306D01*
X0315260Y0219092D02*
X0393501Y0219092D01*
X0393501Y0219877D02*
X0316046Y0219877D01*
X0316831Y0220663D02*
X0393501Y0220663D01*
X0393501Y0221449D02*
X0317456Y0221449D01*
X0317737Y0222235D02*
X0393501Y0222235D01*
X0393501Y0223021D02*
X0317737Y0223021D01*
X0317737Y0223807D02*
X0393501Y0223807D01*
X0393501Y0224593D02*
X0317737Y0224593D01*
X0317737Y0225379D02*
X0393501Y0225379D01*
X0393501Y0226165D02*
X0317737Y0226165D01*
X0317737Y0226951D02*
X0393501Y0226951D01*
X0393501Y0227737D02*
X0317737Y0227737D01*
X0317737Y0228523D02*
X0393501Y0228523D01*
X0393501Y0229308D02*
X0317737Y0229308D01*
X0317737Y0230094D02*
X0393501Y0230094D01*
X0393501Y0230880D02*
X0317737Y0230880D01*
X0317737Y0231666D02*
X0393501Y0231666D01*
X0393501Y0232452D02*
X0317737Y0232452D01*
X0317737Y0233238D02*
X0393501Y0233238D01*
X0393501Y0234024D02*
X0317737Y0234024D01*
X0317737Y0234810D02*
X0393501Y0234810D01*
X0393501Y0235596D02*
X0317737Y0235596D01*
X0317737Y0236382D02*
X0393501Y0236382D01*
X0393501Y0237168D02*
X0317737Y0237168D01*
X0317737Y0237953D02*
X0393501Y0237953D01*
X0393501Y0238739D02*
X0317737Y0238739D01*
X0317737Y0239525D02*
X0393501Y0239525D01*
X0393501Y0240311D02*
X0317737Y0240311D01*
X0317737Y0241097D02*
X0393501Y0241097D01*
X0393501Y0241883D02*
X0317737Y0241883D01*
X0317737Y0242669D02*
X0393501Y0242669D01*
X0393501Y0243455D02*
X0317737Y0243455D01*
X0317737Y0244241D02*
X0393501Y0244241D01*
X0393501Y0245027D02*
X0317737Y0245027D01*
X0317737Y0245813D02*
X0393501Y0245813D01*
X0393501Y0246599D02*
X0317737Y0246599D01*
X0317737Y0247384D02*
X0393501Y0247384D01*
X0393501Y0248170D02*
X0317737Y0248170D01*
X0317737Y0248956D02*
X0393501Y0248956D01*
X0393501Y0249742D02*
X0317737Y0249742D01*
X0317737Y0250528D02*
X0393501Y0250528D01*
X0393501Y0251314D02*
X0317737Y0251314D01*
X0317737Y0252100D02*
X0393501Y0252100D01*
X0393501Y0252886D02*
X0317737Y0252886D01*
X0317737Y0253672D02*
X0393501Y0253672D01*
X0393501Y0254458D02*
X0317737Y0254458D01*
X0317737Y0255244D02*
X0393501Y0255244D01*
X0393501Y0256029D02*
X0317737Y0256029D01*
X0317737Y0256815D02*
X0393501Y0256815D01*
X0393501Y0257601D02*
X0360841Y0257601D01*
X0361603Y0258387D02*
X0393501Y0258387D01*
X0393501Y0259173D02*
X0361928Y0259173D01*
X0362068Y0259959D02*
X0393501Y0259959D01*
X0393501Y0260745D02*
X0362068Y0260745D01*
X0361755Y0261531D02*
X0393501Y0261531D01*
X0393501Y0262317D02*
X0361210Y0262317D01*
X0360046Y0263103D02*
X0393501Y0263103D01*
X0393501Y0263889D02*
X0358817Y0263889D01*
X0358031Y0264675D02*
X0393501Y0264675D01*
X0393501Y0265460D02*
X0357245Y0265460D01*
X0356459Y0266246D02*
X0393501Y0266246D01*
X0393501Y0267032D02*
X0355673Y0267032D01*
X0355237Y0267818D02*
X0393501Y0267818D01*
X0393501Y0268604D02*
X0355237Y0268604D01*
X0355237Y0269390D02*
X0393501Y0269390D01*
X0393501Y0270176D02*
X0355237Y0270176D01*
X0355237Y0270962D02*
X0393501Y0270962D01*
X0393501Y0271748D02*
X0355237Y0271748D01*
X0355237Y0272534D02*
X0393501Y0272534D01*
X0393501Y0273320D02*
X0355237Y0273320D01*
X0355237Y0274105D02*
X0393501Y0274105D01*
X0393501Y0274891D02*
X0355237Y0274891D01*
X0355237Y0275677D02*
X0393501Y0275677D01*
X0393501Y0276463D02*
X0355237Y0276463D01*
X0355237Y0277249D02*
X0393501Y0277249D01*
X0393501Y0278035D02*
X0355237Y0278035D01*
X0355237Y0278821D02*
X0393501Y0278821D01*
X0393501Y0279607D02*
X0355237Y0279607D01*
X0355237Y0280393D02*
X0393501Y0280393D01*
X0393501Y0281179D02*
X0355237Y0281179D01*
X0355237Y0281965D02*
X0393501Y0281965D01*
X0393501Y0282751D02*
X0355237Y0282751D01*
X0355237Y0283536D02*
X0393501Y0283536D01*
X0393501Y0284322D02*
X0355237Y0284322D01*
X0355237Y0285108D02*
X0393501Y0285108D01*
X0393501Y0285894D02*
X0355237Y0285894D01*
X0355237Y0286680D02*
X0393501Y0286680D01*
X0393501Y0287466D02*
X0355237Y0287466D01*
X0355199Y0288252D02*
X0393501Y0288252D01*
X0393482Y0289038D02*
X0354874Y0289038D01*
X0354132Y0289824D02*
X0393409Y0289824D01*
X0393153Y0290610D02*
X0353346Y0290610D01*
X0352560Y0291396D02*
X0392898Y0291396D01*
X0392428Y0292181D02*
X0351774Y0292181D01*
X0350988Y0292967D02*
X0391857Y0292967D01*
X0390949Y0293753D02*
X0350202Y0293753D01*
X0349416Y0294539D02*
X0389616Y0294539D01*
X0350223Y0265460D02*
X0317737Y0265460D01*
X0317737Y0264675D02*
X0350695Y0264675D01*
X0351481Y0263889D02*
X0317737Y0263889D01*
X0317737Y0263103D02*
X0352267Y0263103D01*
X0353053Y0262317D02*
X0317737Y0262317D01*
X0317737Y0261531D02*
X0353838Y0261531D01*
X0354624Y0260745D02*
X0317737Y0260745D01*
X0317737Y0259959D02*
X0355410Y0259959D01*
X0355859Y0259173D02*
X0317737Y0259173D01*
X0317737Y0258387D02*
X0356185Y0258387D01*
X0356946Y0257601D02*
X0317737Y0257601D01*
X0312550Y0257601D02*
X0303987Y0257601D01*
X0303987Y0256815D02*
X0312550Y0256815D01*
X0312550Y0256029D02*
X0303987Y0256029D01*
X0303987Y0255244D02*
X0312550Y0255244D01*
X0312550Y0254458D02*
X0303987Y0254458D01*
X0303987Y0253672D02*
X0312550Y0253672D01*
X0312550Y0252886D02*
X0303987Y0252886D01*
X0303987Y0252100D02*
X0312550Y0252100D01*
X0312550Y0251314D02*
X0303987Y0251314D01*
X0303987Y0250528D02*
X0312550Y0250528D01*
X0312550Y0249742D02*
X0303987Y0249742D01*
X0303987Y0248956D02*
X0312550Y0248956D01*
X0312550Y0248170D02*
X0303987Y0248170D01*
X0303987Y0247384D02*
X0312550Y0247384D01*
X0312550Y0246599D02*
X0303987Y0246599D01*
X0303987Y0245813D02*
X0312550Y0245813D01*
X0312550Y0245027D02*
X0303987Y0245027D01*
X0303987Y0244241D02*
X0312550Y0244241D01*
X0312550Y0243455D02*
X0303987Y0243455D01*
X0303987Y0242669D02*
X0312550Y0242669D01*
X0312550Y0241883D02*
X0303987Y0241883D01*
X0303987Y0241097D02*
X0312550Y0241097D01*
X0312550Y0240311D02*
X0303987Y0240311D01*
X0303987Y0239525D02*
X0312550Y0239525D01*
X0312550Y0238739D02*
X0303987Y0238739D01*
X0303987Y0237953D02*
X0312550Y0237953D01*
X0312550Y0237168D02*
X0303987Y0237168D01*
X0303987Y0236382D02*
X0312550Y0236382D01*
X0312550Y0235596D02*
X0303987Y0235596D01*
X0303987Y0234810D02*
X0312550Y0234810D01*
X0312550Y0234024D02*
X0303987Y0234024D01*
X0303987Y0233238D02*
X0312550Y0233238D01*
X0312550Y0232452D02*
X0303987Y0232452D01*
X0303987Y0231666D02*
X0312550Y0231666D01*
X0312550Y0230880D02*
X0303987Y0230880D01*
X0303987Y0230094D02*
X0312550Y0230094D01*
X0312550Y0229308D02*
X0303987Y0229308D01*
X0303987Y0228523D02*
X0312550Y0228523D01*
X0312550Y0227737D02*
X0303987Y0227737D01*
X0303987Y0226951D02*
X0312550Y0226951D01*
X0312550Y0226165D02*
X0303987Y0226165D01*
X0303987Y0225379D02*
X0312550Y0225379D01*
X0312550Y0224593D02*
X0303987Y0224593D01*
X0303987Y0223807D02*
X0312550Y0223807D01*
X0311853Y0223021D02*
X0304156Y0223021D01*
X0304085Y0223192D02*
X0304568Y0222025D01*
X0304568Y0220762D01*
X0304085Y0219595D01*
X0303192Y0218702D01*
X0302025Y0218219D01*
X0300762Y0218219D01*
X0299595Y0218702D01*
X0298702Y0219595D01*
X0298219Y0220762D01*
X0298219Y0222025D01*
X0298702Y0223192D01*
X0298800Y0223290D01*
X0298800Y0274612D01*
X0297906Y0275506D01*
X0297244Y0277104D01*
X0297244Y0284739D01*
X0297906Y0286336D01*
X0299128Y0287559D01*
X0300726Y0288220D01*
X0302455Y0288220D01*
X0304053Y0287559D01*
X0305275Y0286336D01*
X0305937Y0284739D01*
X0305937Y0277104D01*
X0305275Y0275506D01*
X0304053Y0274284D01*
X0303987Y0274257D01*
X0303987Y0223290D01*
X0304085Y0223192D01*
X0304482Y0222235D02*
X0311067Y0222235D01*
X0309459Y0221449D02*
X0304568Y0221449D01*
X0304528Y0220663D02*
X0308690Y0220663D01*
X0308365Y0219877D02*
X0304202Y0219877D01*
X0303581Y0219092D02*
X0308219Y0219092D01*
X0308219Y0218306D02*
X0302235Y0218306D01*
X0300553Y0218306D02*
X0275887Y0218306D01*
X0275887Y0219092D02*
X0299206Y0219092D01*
X0298585Y0219877D02*
X0293012Y0219877D01*
X0293192Y0219952D02*
X0292025Y0219469D01*
X0290762Y0219469D01*
X0289595Y0219952D01*
X0288702Y0220845D01*
X0288219Y0222012D01*
X0288219Y0222150D01*
X0285445Y0224924D01*
X0285050Y0225878D01*
X0285050Y0274583D01*
X0284126Y0275506D01*
X0283465Y0277104D01*
X0283465Y0284739D01*
X0284126Y0286336D01*
X0285349Y0287559D01*
X0286946Y0288220D01*
X0288676Y0288220D01*
X0290273Y0287559D01*
X0291496Y0286336D01*
X0292157Y0284739D01*
X0292157Y0277104D01*
X0291496Y0275506D01*
X0290273Y0274284D01*
X0290237Y0274269D01*
X0290237Y0227468D01*
X0291887Y0225818D01*
X0292025Y0225818D01*
X0293192Y0225335D01*
X0294085Y0224442D01*
X0294568Y0223275D01*
X0294568Y0222012D01*
X0294085Y0220845D01*
X0293192Y0219952D01*
X0293903Y0220663D02*
X0298260Y0220663D01*
X0298219Y0221449D02*
X0294335Y0221449D01*
X0294568Y0222235D02*
X0298306Y0222235D01*
X0298631Y0223021D02*
X0294568Y0223021D01*
X0294348Y0223807D02*
X0298800Y0223807D01*
X0298800Y0224593D02*
X0293934Y0224593D01*
X0293087Y0225379D02*
X0298800Y0225379D01*
X0298800Y0226165D02*
X0291541Y0226165D01*
X0290755Y0226951D02*
X0298800Y0226951D01*
X0298800Y0227737D02*
X0290237Y0227737D01*
X0290237Y0228523D02*
X0298800Y0228523D01*
X0298800Y0229308D02*
X0290237Y0229308D01*
X0290237Y0230094D02*
X0298800Y0230094D01*
X0298800Y0230880D02*
X0290237Y0230880D01*
X0290237Y0231666D02*
X0298800Y0231666D01*
X0298800Y0232452D02*
X0290237Y0232452D01*
X0290237Y0233238D02*
X0298800Y0233238D01*
X0298800Y0234024D02*
X0290237Y0234024D01*
X0290237Y0234810D02*
X0298800Y0234810D01*
X0298800Y0235596D02*
X0290237Y0235596D01*
X0290237Y0236382D02*
X0298800Y0236382D01*
X0298800Y0237168D02*
X0290237Y0237168D01*
X0290237Y0237953D02*
X0298800Y0237953D01*
X0298800Y0238739D02*
X0290237Y0238739D01*
X0290237Y0239525D02*
X0298800Y0239525D01*
X0298800Y0240311D02*
X0290237Y0240311D01*
X0290237Y0241097D02*
X0298800Y0241097D01*
X0298800Y0241883D02*
X0290237Y0241883D01*
X0290237Y0242669D02*
X0298800Y0242669D01*
X0298800Y0243455D02*
X0290237Y0243455D01*
X0290237Y0244241D02*
X0298800Y0244241D01*
X0298800Y0245027D02*
X0290237Y0245027D01*
X0290237Y0245813D02*
X0298800Y0245813D01*
X0298800Y0246599D02*
X0290237Y0246599D01*
X0290237Y0247384D02*
X0298800Y0247384D01*
X0298800Y0248170D02*
X0290237Y0248170D01*
X0290237Y0248956D02*
X0298800Y0248956D01*
X0298800Y0249742D02*
X0290237Y0249742D01*
X0290237Y0250528D02*
X0298800Y0250528D01*
X0298800Y0251314D02*
X0290237Y0251314D01*
X0290237Y0252100D02*
X0298800Y0252100D01*
X0298800Y0252886D02*
X0290237Y0252886D01*
X0290237Y0253672D02*
X0298800Y0253672D01*
X0298800Y0254458D02*
X0290237Y0254458D01*
X0290237Y0255244D02*
X0298800Y0255244D01*
X0298800Y0256029D02*
X0290237Y0256029D01*
X0290237Y0256815D02*
X0298800Y0256815D01*
X0298800Y0257601D02*
X0290237Y0257601D01*
X0290237Y0258387D02*
X0298800Y0258387D01*
X0298800Y0259173D02*
X0290237Y0259173D01*
X0290237Y0259959D02*
X0298800Y0259959D01*
X0298800Y0260745D02*
X0290237Y0260745D01*
X0290237Y0261531D02*
X0298800Y0261531D01*
X0298800Y0262317D02*
X0290237Y0262317D01*
X0290237Y0263103D02*
X0298800Y0263103D01*
X0298800Y0263889D02*
X0290237Y0263889D01*
X0290237Y0264675D02*
X0298800Y0264675D01*
X0298800Y0265460D02*
X0290237Y0265460D01*
X0290237Y0266246D02*
X0298800Y0266246D01*
X0298800Y0267032D02*
X0290237Y0267032D01*
X0290237Y0267818D02*
X0298800Y0267818D01*
X0298800Y0268604D02*
X0290237Y0268604D01*
X0290237Y0269390D02*
X0298800Y0269390D01*
X0298800Y0270176D02*
X0290237Y0270176D01*
X0290237Y0270962D02*
X0298800Y0270962D01*
X0298800Y0271748D02*
X0290237Y0271748D01*
X0290237Y0272534D02*
X0298800Y0272534D01*
X0298800Y0273320D02*
X0290237Y0273320D01*
X0290237Y0274105D02*
X0298800Y0274105D01*
X0298521Y0274891D02*
X0290881Y0274891D01*
X0291567Y0275677D02*
X0297835Y0275677D01*
X0297509Y0276463D02*
X0291892Y0276463D01*
X0292157Y0277249D02*
X0297244Y0277249D01*
X0297244Y0278035D02*
X0292157Y0278035D01*
X0292157Y0278821D02*
X0297244Y0278821D01*
X0297244Y0279607D02*
X0292157Y0279607D01*
X0292157Y0280393D02*
X0297244Y0280393D01*
X0297244Y0281179D02*
X0292157Y0281179D01*
X0292157Y0281965D02*
X0297244Y0281965D01*
X0297244Y0282751D02*
X0292157Y0282751D01*
X0292157Y0283536D02*
X0297244Y0283536D01*
X0297244Y0284322D02*
X0292157Y0284322D01*
X0292004Y0285108D02*
X0297397Y0285108D01*
X0297723Y0285894D02*
X0291679Y0285894D01*
X0291152Y0286680D02*
X0298250Y0286680D01*
X0299036Y0287466D02*
X0290366Y0287466D01*
X0285256Y0287466D02*
X0276586Y0287466D01*
X0277372Y0286680D02*
X0284470Y0286680D01*
X0283943Y0285894D02*
X0277899Y0285894D01*
X0278225Y0285108D02*
X0283618Y0285108D01*
X0283465Y0284322D02*
X0278378Y0284322D01*
X0278378Y0283536D02*
X0283465Y0283536D01*
X0283465Y0282751D02*
X0278378Y0282751D01*
X0278378Y0281965D02*
X0283465Y0281965D01*
X0283465Y0281179D02*
X0278378Y0281179D01*
X0278378Y0280393D02*
X0283465Y0280393D01*
X0283465Y0279607D02*
X0278378Y0279607D01*
X0278378Y0278821D02*
X0283465Y0278821D01*
X0283465Y0278035D02*
X0278378Y0278035D01*
X0278378Y0277249D02*
X0283465Y0277249D01*
X0283730Y0276463D02*
X0278113Y0276463D01*
X0277787Y0275677D02*
X0284055Y0275677D01*
X0284741Y0274891D02*
X0277101Y0274891D01*
X0276063Y0274105D02*
X0285050Y0274105D01*
X0285050Y0273320D02*
X0275887Y0273320D01*
X0275887Y0272534D02*
X0285050Y0272534D01*
X0285050Y0271748D02*
X0275887Y0271748D01*
X0275887Y0270962D02*
X0285050Y0270962D01*
X0285050Y0270176D02*
X0275887Y0270176D01*
X0275887Y0269390D02*
X0285050Y0269390D01*
X0285050Y0268604D02*
X0275887Y0268604D01*
X0275887Y0267818D02*
X0285050Y0267818D01*
X0285050Y0267032D02*
X0275887Y0267032D01*
X0275887Y0266246D02*
X0285050Y0266246D01*
X0285050Y0265460D02*
X0275887Y0265460D01*
X0275887Y0264675D02*
X0285050Y0264675D01*
X0285050Y0263889D02*
X0275887Y0263889D01*
X0275887Y0263103D02*
X0285050Y0263103D01*
X0285050Y0262317D02*
X0275887Y0262317D01*
X0275887Y0261531D02*
X0285050Y0261531D01*
X0285050Y0260745D02*
X0275887Y0260745D01*
X0275887Y0259959D02*
X0285050Y0259959D01*
X0285050Y0259173D02*
X0275887Y0259173D01*
X0275887Y0258387D02*
X0285050Y0258387D01*
X0285050Y0257601D02*
X0275887Y0257601D01*
X0275887Y0256815D02*
X0285050Y0256815D01*
X0285050Y0256029D02*
X0275887Y0256029D01*
X0275887Y0255244D02*
X0285050Y0255244D01*
X0285050Y0254458D02*
X0275887Y0254458D01*
X0275887Y0253672D02*
X0285050Y0253672D01*
X0285050Y0252886D02*
X0275887Y0252886D01*
X0275887Y0252100D02*
X0285050Y0252100D01*
X0285050Y0251314D02*
X0275887Y0251314D01*
X0275887Y0250528D02*
X0285050Y0250528D01*
X0285050Y0249742D02*
X0275887Y0249742D01*
X0275887Y0248956D02*
X0285050Y0248956D01*
X0285050Y0248170D02*
X0275887Y0248170D01*
X0275887Y0247384D02*
X0285050Y0247384D01*
X0285050Y0246599D02*
X0275887Y0246599D01*
X0275887Y0245813D02*
X0285050Y0245813D01*
X0285050Y0245027D02*
X0275887Y0245027D01*
X0275887Y0244241D02*
X0285050Y0244241D01*
X0285050Y0243455D02*
X0275887Y0243455D01*
X0275887Y0242669D02*
X0285050Y0242669D01*
X0285050Y0241883D02*
X0275887Y0241883D01*
X0275887Y0241097D02*
X0285050Y0241097D01*
X0285050Y0240311D02*
X0275887Y0240311D01*
X0275887Y0239525D02*
X0285050Y0239525D01*
X0285050Y0238739D02*
X0275887Y0238739D01*
X0275887Y0237953D02*
X0285050Y0237953D01*
X0285050Y0237168D02*
X0275887Y0237168D01*
X0275887Y0236382D02*
X0285050Y0236382D01*
X0285050Y0235596D02*
X0275887Y0235596D01*
X0275887Y0234810D02*
X0285050Y0234810D01*
X0285050Y0234024D02*
X0275887Y0234024D01*
X0275887Y0233238D02*
X0285050Y0233238D01*
X0285050Y0232452D02*
X0275887Y0232452D01*
X0275887Y0231666D02*
X0285050Y0231666D01*
X0285050Y0230880D02*
X0275887Y0230880D01*
X0275887Y0230094D02*
X0285050Y0230094D01*
X0285050Y0229308D02*
X0275887Y0229308D01*
X0275887Y0228523D02*
X0285050Y0228523D01*
X0285050Y0227737D02*
X0275887Y0227737D01*
X0275887Y0226951D02*
X0285050Y0226951D01*
X0285050Y0226165D02*
X0275887Y0226165D01*
X0275887Y0225379D02*
X0285257Y0225379D01*
X0285776Y0224593D02*
X0275887Y0224593D01*
X0275887Y0223807D02*
X0286562Y0223807D01*
X0287348Y0223021D02*
X0275887Y0223021D01*
X0275887Y0222235D02*
X0288134Y0222235D01*
X0288452Y0221449D02*
X0275887Y0221449D01*
X0275887Y0220663D02*
X0288884Y0220663D01*
X0289776Y0219877D02*
X0275887Y0219877D01*
X0275339Y0217520D02*
X0308526Y0217520D01*
X0309064Y0216734D02*
X0274568Y0216734D01*
X0271900Y0219877D02*
X0265862Y0219877D01*
X0265862Y0219092D02*
X0269611Y0219092D01*
X0268816Y0218306D02*
X0265862Y0218306D01*
X0265862Y0217520D02*
X0268424Y0217520D01*
X0268219Y0216734D02*
X0265862Y0216734D01*
X0266113Y0215948D02*
X0268219Y0215948D01*
X0268467Y0215162D02*
X0266439Y0215162D01*
X0266443Y0214376D02*
X0268921Y0214376D01*
X0269866Y0213590D02*
X0266320Y0213590D01*
X0265862Y0220663D02*
X0271900Y0220663D01*
X0271900Y0221449D02*
X0265862Y0221449D01*
X0265862Y0222235D02*
X0271900Y0222235D01*
X0271900Y0223021D02*
X0265862Y0223021D01*
X0265862Y0223807D02*
X0271900Y0223807D01*
X0271900Y0224593D02*
X0265862Y0224593D01*
X0265862Y0225379D02*
X0271900Y0225379D01*
X0271900Y0226165D02*
X0265862Y0226165D01*
X0265862Y0226951D02*
X0271900Y0226951D01*
X0271900Y0227737D02*
X0265862Y0227737D01*
X0265862Y0228523D02*
X0271900Y0228523D01*
X0271900Y0229308D02*
X0265862Y0229308D01*
X0265579Y0230094D02*
X0271900Y0230094D01*
X0271900Y0230880D02*
X0264950Y0230880D01*
X0264164Y0231666D02*
X0271900Y0231666D01*
X0271900Y0232452D02*
X0263378Y0232452D01*
X0262592Y0233238D02*
X0271900Y0233238D01*
X0271900Y0234024D02*
X0261807Y0234024D01*
X0261021Y0234810D02*
X0271900Y0234810D01*
X0271900Y0235596D02*
X0260634Y0235596D01*
X0260271Y0236382D02*
X0271900Y0236382D01*
X0271900Y0237168D02*
X0259485Y0237168D01*
X0244400Y0237168D02*
X0234637Y0237168D01*
X0234637Y0237953D02*
X0244400Y0237953D01*
X0244400Y0238739D02*
X0234637Y0238739D01*
X0234637Y0239525D02*
X0244400Y0239525D01*
X0244400Y0240311D02*
X0234637Y0240311D01*
X0234637Y0241097D02*
X0244400Y0241097D01*
X0244400Y0241883D02*
X0234637Y0241883D01*
X0234637Y0242669D02*
X0244400Y0242669D01*
X0244400Y0243455D02*
X0234637Y0243455D01*
X0234637Y0244241D02*
X0244400Y0244241D01*
X0244400Y0245027D02*
X0234637Y0245027D01*
X0234637Y0245813D02*
X0244400Y0245813D01*
X0244400Y0246599D02*
X0234637Y0246599D01*
X0234637Y0247384D02*
X0244400Y0247384D01*
X0244400Y0248170D02*
X0234637Y0248170D01*
X0234637Y0248956D02*
X0244400Y0248956D01*
X0244400Y0249742D02*
X0234637Y0249742D01*
X0234637Y0250528D02*
X0244400Y0250528D01*
X0244400Y0251314D02*
X0234637Y0251314D01*
X0234637Y0252100D02*
X0244400Y0252100D01*
X0244400Y0252886D02*
X0234637Y0252886D01*
X0234637Y0253672D02*
X0244400Y0253672D01*
X0244400Y0254458D02*
X0234637Y0254458D01*
X0234637Y0255244D02*
X0244400Y0255244D01*
X0244400Y0256029D02*
X0234637Y0256029D01*
X0234637Y0256815D02*
X0244400Y0256815D01*
X0244400Y0257601D02*
X0234637Y0257601D01*
X0234637Y0258387D02*
X0244400Y0258387D01*
X0244400Y0259173D02*
X0234637Y0259173D01*
X0234637Y0259959D02*
X0244400Y0259959D01*
X0244400Y0260745D02*
X0234637Y0260745D01*
X0234637Y0261531D02*
X0244400Y0261531D01*
X0244400Y0262317D02*
X0234637Y0262317D01*
X0234637Y0263103D02*
X0244400Y0263103D01*
X0244400Y0263889D02*
X0234637Y0263889D01*
X0234637Y0264675D02*
X0244400Y0264675D01*
X0244400Y0265460D02*
X0234637Y0265460D01*
X0234637Y0266246D02*
X0244400Y0266246D01*
X0244400Y0267032D02*
X0234637Y0267032D01*
X0234637Y0267818D02*
X0244400Y0267818D01*
X0244400Y0268604D02*
X0234637Y0268604D01*
X0234637Y0269390D02*
X0244400Y0269390D01*
X0244400Y0270176D02*
X0234637Y0270176D01*
X0234637Y0270962D02*
X0244400Y0270962D01*
X0244400Y0271748D02*
X0234637Y0271748D01*
X0234637Y0272534D02*
X0244400Y0272534D01*
X0264007Y0275677D02*
X0270276Y0275677D01*
X0269950Y0276463D02*
X0264333Y0276463D01*
X0264598Y0277249D02*
X0269685Y0277249D01*
X0269685Y0278035D02*
X0264598Y0278035D01*
X0264598Y0278821D02*
X0269685Y0278821D01*
X0269685Y0279607D02*
X0264598Y0279607D01*
X0264598Y0280393D02*
X0269685Y0280393D01*
X0269685Y0281179D02*
X0264598Y0281179D01*
X0264598Y0281965D02*
X0269685Y0281965D01*
X0269685Y0282751D02*
X0264598Y0282751D01*
X0264598Y0283536D02*
X0269685Y0283536D01*
X0269685Y0284322D02*
X0264598Y0284322D01*
X0264445Y0285108D02*
X0269838Y0285108D01*
X0270164Y0285894D02*
X0264120Y0285894D01*
X0263593Y0286680D02*
X0270691Y0286680D01*
X0271477Y0287466D02*
X0262807Y0287466D01*
X0304145Y0287466D02*
X0312815Y0287466D01*
X0312029Y0286680D02*
X0304931Y0286680D01*
X0305458Y0285894D02*
X0311502Y0285894D01*
X0311177Y0285108D02*
X0305784Y0285108D01*
X0305937Y0284322D02*
X0311024Y0284322D01*
X0311024Y0283536D02*
X0305937Y0283536D01*
X0305937Y0282751D02*
X0311024Y0282751D01*
X0311024Y0281965D02*
X0305937Y0281965D01*
X0305937Y0281179D02*
X0311024Y0281179D01*
X0311024Y0280393D02*
X0305937Y0280393D01*
X0305937Y0279607D02*
X0311024Y0279607D01*
X0311024Y0278821D02*
X0305937Y0278821D01*
X0305937Y0278035D02*
X0311024Y0278035D01*
X0311024Y0277249D02*
X0305937Y0277249D01*
X0305672Y0276463D02*
X0311289Y0276463D01*
X0311615Y0275677D02*
X0305346Y0275677D01*
X0304660Y0274891D02*
X0312300Y0274891D01*
X0312550Y0274105D02*
X0303987Y0274105D01*
X0303987Y0273320D02*
X0312550Y0273320D01*
X0312550Y0272534D02*
X0303987Y0272534D01*
X0303987Y0271748D02*
X0312550Y0271748D01*
X0312550Y0270962D02*
X0303987Y0270962D01*
X0303987Y0270176D02*
X0312550Y0270176D01*
X0312550Y0269390D02*
X0303987Y0269390D01*
X0303987Y0268604D02*
X0312550Y0268604D01*
X0312550Y0267818D02*
X0303987Y0267818D01*
X0303987Y0267032D02*
X0312550Y0267032D01*
X0312550Y0266246D02*
X0303987Y0266246D01*
X0303987Y0265460D02*
X0312550Y0265460D01*
X0312550Y0264675D02*
X0303987Y0264675D01*
X0303987Y0263889D02*
X0312550Y0263889D01*
X0312550Y0263103D02*
X0303987Y0263103D01*
X0303987Y0262317D02*
X0312550Y0262317D01*
X0312550Y0261531D02*
X0303987Y0261531D01*
X0303987Y0260745D02*
X0312550Y0260745D01*
X0312550Y0259959D02*
X0303987Y0259959D01*
X0303987Y0259173D02*
X0312550Y0259173D01*
X0312550Y0258387D02*
X0303987Y0258387D01*
X0317737Y0266246D02*
X0350050Y0266246D01*
X0350050Y0267032D02*
X0317737Y0267032D01*
X0317737Y0267818D02*
X0350050Y0267818D01*
X0350050Y0268604D02*
X0317737Y0268604D01*
X0317737Y0269390D02*
X0350050Y0269390D01*
X0350050Y0270176D02*
X0317737Y0270176D01*
X0317737Y0270962D02*
X0350050Y0270962D01*
X0350050Y0271748D02*
X0317737Y0271748D01*
X0317737Y0272534D02*
X0350050Y0272534D01*
X0350050Y0273320D02*
X0317737Y0273320D01*
X0317737Y0274105D02*
X0327118Y0274105D01*
X0326688Y0274284D02*
X0328285Y0273622D01*
X0330014Y0273622D01*
X0331612Y0274284D01*
X0332834Y0275506D01*
X0333496Y0277104D01*
X0333496Y0284739D01*
X0332834Y0286336D01*
X0331612Y0287559D01*
X0330014Y0288220D01*
X0328285Y0288220D01*
X0326688Y0287559D01*
X0325465Y0286336D01*
X0324803Y0284739D01*
X0324803Y0277104D01*
X0325465Y0275506D01*
X0326688Y0274284D01*
X0326080Y0274891D02*
X0318440Y0274891D01*
X0319126Y0275677D02*
X0325394Y0275677D01*
X0325069Y0276463D02*
X0319451Y0276463D01*
X0319717Y0277249D02*
X0324803Y0277249D01*
X0324803Y0278035D02*
X0319717Y0278035D01*
X0319717Y0278821D02*
X0324803Y0278821D01*
X0324803Y0279607D02*
X0319717Y0279607D01*
X0319717Y0280393D02*
X0324803Y0280393D01*
X0324803Y0281179D02*
X0319717Y0281179D01*
X0319717Y0281965D02*
X0324803Y0281965D01*
X0324803Y0282751D02*
X0319717Y0282751D01*
X0319717Y0283536D02*
X0324803Y0283536D01*
X0324803Y0284322D02*
X0319717Y0284322D01*
X0319563Y0285108D02*
X0324956Y0285108D01*
X0325282Y0285894D02*
X0319238Y0285894D01*
X0318711Y0286680D02*
X0325809Y0286680D01*
X0326595Y0287466D02*
X0317925Y0287466D01*
X0331704Y0287466D02*
X0349153Y0287466D01*
X0349939Y0286680D02*
X0332490Y0286680D01*
X0333017Y0285894D02*
X0350050Y0285894D01*
X0350050Y0285108D02*
X0333343Y0285108D01*
X0333496Y0284322D02*
X0350050Y0284322D01*
X0350050Y0283536D02*
X0333496Y0283536D01*
X0333496Y0282751D02*
X0350050Y0282751D01*
X0350050Y0281965D02*
X0333496Y0281965D01*
X0333496Y0281179D02*
X0350050Y0281179D01*
X0350050Y0280393D02*
X0333496Y0280393D01*
X0333496Y0279607D02*
X0350050Y0279607D01*
X0350050Y0278821D02*
X0333496Y0278821D01*
X0333496Y0278035D02*
X0350050Y0278035D01*
X0350050Y0277249D02*
X0333496Y0277249D01*
X0333231Y0276463D02*
X0350050Y0276463D01*
X0350050Y0275677D02*
X0332905Y0275677D01*
X0332219Y0274891D02*
X0350050Y0274891D01*
X0350050Y0274105D02*
X0331181Y0274105D01*
X0248765Y0219092D02*
X0248387Y0219092D01*
X0244397Y0219092D02*
X0236523Y0219092D01*
X0237790Y0218306D02*
X0242751Y0218306D01*
X0241712Y0217520D02*
X0238313Y0217520D01*
X0238550Y0216734D02*
X0241283Y0216734D01*
X0241113Y0215948D02*
X0238550Y0215948D01*
X0238362Y0215162D02*
X0241135Y0215162D01*
X0244400Y0219877D02*
X0234637Y0219877D01*
X0234637Y0219092D02*
X0235015Y0219092D01*
X0234637Y0220663D02*
X0244400Y0220663D01*
X0244400Y0221449D02*
X0234637Y0221449D01*
X0234637Y0222235D02*
X0244400Y0222235D01*
X0244400Y0223021D02*
X0234637Y0223021D01*
X0234637Y0223807D02*
X0244400Y0223807D01*
X0244400Y0224593D02*
X0234637Y0224593D01*
X0234637Y0225379D02*
X0244400Y0225379D01*
X0244400Y0226165D02*
X0234637Y0226165D01*
X0234637Y0226951D02*
X0244400Y0226951D01*
X0244400Y0227737D02*
X0234637Y0227737D01*
X0234637Y0228523D02*
X0244400Y0228523D01*
X0244400Y0229308D02*
X0234637Y0229308D01*
X0234637Y0230094D02*
X0244400Y0230094D01*
X0244400Y0230880D02*
X0234637Y0230880D01*
X0234637Y0231666D02*
X0244400Y0231666D01*
X0244400Y0232452D02*
X0234637Y0232452D01*
X0234637Y0233238D02*
X0244400Y0233238D01*
X0244400Y0234024D02*
X0234637Y0234024D01*
X0234637Y0234810D02*
X0244400Y0234810D01*
X0244400Y0235596D02*
X0234637Y0235596D01*
X0234637Y0236382D02*
X0244400Y0236382D01*
X0267971Y0190013D02*
X0206487Y0190013D01*
X0206487Y0189227D02*
X0267169Y0189227D01*
X0266839Y0188441D02*
X0206487Y0188441D01*
X0206487Y0187655D02*
X0266738Y0187655D01*
X0266829Y0186869D02*
X0206487Y0186869D01*
X0206622Y0186083D02*
X0267155Y0186083D01*
X0271067Y0190013D02*
X0279846Y0190013D01*
X0278431Y0164078D02*
X0353467Y0164078D01*
X0352681Y0163292D02*
X0279679Y0163292D01*
X0280193Y0162506D02*
X0352045Y0162506D01*
X0351720Y0161720D02*
X0280425Y0161720D01*
X0280425Y0160934D02*
X0351394Y0160934D01*
X0351280Y0160148D02*
X0280138Y0160148D01*
X0281108Y0159362D02*
X0351280Y0159362D01*
X0351280Y0158576D02*
X0281518Y0158576D01*
X0281675Y0157790D02*
X0351524Y0157790D01*
X0351849Y0157004D02*
X0281639Y0157004D01*
X0281314Y0156219D02*
X0352209Y0156219D01*
X0352994Y0155433D02*
X0280616Y0155433D01*
X0278416Y0153861D02*
X0355705Y0153861D01*
X0353807Y0154647D02*
X0269309Y0154647D01*
X0268523Y0155433D02*
X0277172Y0155433D01*
X0276856Y0164078D02*
X0269681Y0164078D01*
X0268106Y0164078D02*
X0265279Y0164078D01*
X0266065Y0163292D02*
X0266859Y0163292D01*
X0216441Y0180582D02*
X0212124Y0180582D01*
X0205177Y0175080D02*
X0205110Y0175080D01*
X0204478Y0174295D02*
X0205810Y0174295D01*
X0200810Y0174295D02*
X0088228Y0174295D01*
X0088860Y0175080D02*
X0200177Y0175080D01*
X0199863Y0175866D02*
X0089175Y0175866D01*
X0089472Y0176652D02*
X0199566Y0176652D01*
X0198780Y0177438D02*
X0090258Y0177438D01*
X0091044Y0178224D02*
X0197994Y0178224D01*
X0197208Y0179010D02*
X0129156Y0179010D01*
X0129245Y0183725D02*
X0150221Y0183725D01*
X0132366Y0213590D02*
X0002987Y0213590D01*
X0002987Y0214376D02*
X0131421Y0214376D01*
X0130967Y0215162D02*
X0002987Y0215162D01*
X0002987Y0215948D02*
X0130719Y0215948D01*
X0130719Y0216734D02*
X0002987Y0216734D01*
X0002987Y0217520D02*
X0130924Y0217520D01*
X0131316Y0218306D02*
X0002987Y0218306D01*
X0002987Y0219092D02*
X0132111Y0219092D01*
X0134400Y0219877D02*
X0002987Y0219877D01*
X0002987Y0220663D02*
X0134400Y0220663D01*
X0134400Y0221449D02*
X0002987Y0221449D01*
X0002987Y0222235D02*
X0134400Y0222235D01*
X0134400Y0223021D02*
X0002987Y0223021D01*
X0002987Y0223807D02*
X0134400Y0223807D01*
X0134400Y0224593D02*
X0002987Y0224593D01*
X0002987Y0225379D02*
X0134400Y0225379D01*
X0134400Y0226165D02*
X0002987Y0226165D01*
X0002987Y0226951D02*
X0134400Y0226951D01*
X0134400Y0227737D02*
X0002987Y0227737D01*
X0002987Y0228523D02*
X0134400Y0228523D01*
X0134400Y0229308D02*
X0002987Y0229308D01*
X0002987Y0230094D02*
X0134400Y0230094D01*
X0134400Y0230880D02*
X0002987Y0230880D01*
X0002987Y0231666D02*
X0134400Y0231666D01*
X0134400Y0232452D02*
X0002987Y0232452D01*
X0002987Y0233238D02*
X0134400Y0233238D01*
X0134400Y0234024D02*
X0002987Y0234024D01*
X0002987Y0234810D02*
X0134400Y0234810D01*
X0134400Y0235596D02*
X0002987Y0235596D01*
X0002987Y0236382D02*
X0134400Y0236382D01*
X0134400Y0237168D02*
X0002987Y0237168D01*
X0002987Y0237953D02*
X0134400Y0237953D01*
X0134400Y0238739D02*
X0002987Y0238739D01*
X0002987Y0239525D02*
X0134400Y0239525D01*
X0134400Y0240311D02*
X0002987Y0240311D01*
X0002987Y0241097D02*
X0134400Y0241097D01*
X0134400Y0241883D02*
X0002987Y0241883D01*
X0002987Y0242669D02*
X0134400Y0242669D01*
X0134400Y0243455D02*
X0002987Y0243455D01*
X0002987Y0244241D02*
X0134400Y0244241D01*
X0134400Y0245027D02*
X0002987Y0245027D01*
X0002987Y0245813D02*
X0134400Y0245813D01*
X0134400Y0246599D02*
X0002987Y0246599D01*
X0002987Y0247384D02*
X0134400Y0247384D01*
X0134400Y0248170D02*
X0002987Y0248170D01*
X0002987Y0248956D02*
X0134400Y0248956D01*
X0134400Y0249742D02*
X0002987Y0249742D01*
X0002987Y0250528D02*
X0134400Y0250528D01*
X0134400Y0251314D02*
X0002987Y0251314D01*
X0002987Y0252100D02*
X0134400Y0252100D01*
X0134400Y0252886D02*
X0002987Y0252886D01*
X0002987Y0253672D02*
X0134400Y0253672D01*
X0134400Y0254458D02*
X0002987Y0254458D01*
X0002987Y0255244D02*
X0134400Y0255244D01*
X0134400Y0256029D02*
X0002987Y0256029D01*
X0002987Y0256815D02*
X0134400Y0256815D01*
X0134400Y0257601D02*
X0002987Y0257601D01*
X0002987Y0258387D02*
X0134400Y0258387D01*
X0134400Y0259173D02*
X0002987Y0259173D01*
X0002987Y0259959D02*
X0134400Y0259959D01*
X0134400Y0260745D02*
X0002987Y0260745D01*
X0002987Y0261531D02*
X0134400Y0261531D01*
X0134400Y0262317D02*
X0002987Y0262317D01*
X0002987Y0263103D02*
X0134400Y0263103D01*
X0134400Y0263889D02*
X0002987Y0263889D01*
X0002987Y0264675D02*
X0134400Y0264675D01*
X0134400Y0265460D02*
X0002987Y0265460D01*
X0002987Y0266246D02*
X0134400Y0266246D01*
X0134400Y0267032D02*
X0002987Y0267032D01*
X0002987Y0267818D02*
X0134400Y0267818D01*
X0134400Y0268604D02*
X0002987Y0268604D01*
X0002987Y0269390D02*
X0134400Y0269390D01*
X0134400Y0270176D02*
X0002987Y0270176D01*
X0002987Y0270962D02*
X0134400Y0270962D01*
X0134400Y0271748D02*
X0002987Y0271748D01*
X0002987Y0272534D02*
X0134400Y0272534D01*
X0106645Y0274105D02*
X0096929Y0274105D01*
X0097360Y0274284D02*
X0098582Y0275506D01*
X0099244Y0277104D01*
X0099244Y0284739D01*
X0098582Y0286336D01*
X0097360Y0287559D01*
X0095762Y0288220D01*
X0094033Y0288220D01*
X0092436Y0287559D01*
X0091213Y0286336D01*
X0090551Y0284739D01*
X0090551Y0277104D01*
X0091213Y0275506D01*
X0092436Y0274284D01*
X0094033Y0273622D01*
X0095762Y0273622D01*
X0097360Y0274284D01*
X0097967Y0274891D02*
X0105607Y0274891D01*
X0104922Y0275677D02*
X0098653Y0275677D01*
X0098979Y0276463D02*
X0104596Y0276463D01*
X0104331Y0277249D02*
X0099244Y0277249D01*
X0099244Y0278035D02*
X0104331Y0278035D01*
X0104331Y0278821D02*
X0099244Y0278821D01*
X0099244Y0279607D02*
X0104331Y0279607D01*
X0104331Y0280393D02*
X0099244Y0280393D01*
X0099244Y0281179D02*
X0104331Y0281179D01*
X0104331Y0281965D02*
X0099244Y0281965D01*
X0099244Y0282751D02*
X0104331Y0282751D01*
X0104331Y0283536D02*
X0099244Y0283536D01*
X0099244Y0284322D02*
X0104331Y0284322D01*
X0104484Y0285108D02*
X0099091Y0285108D01*
X0098765Y0285894D02*
X0104809Y0285894D01*
X0105336Y0286680D02*
X0098238Y0286680D01*
X0097452Y0287466D02*
X0106122Y0287466D01*
X0092343Y0287466D02*
X0083987Y0287466D01*
X0084459Y0286680D02*
X0091557Y0286680D01*
X0091030Y0285894D02*
X0084986Y0285894D01*
X0085311Y0285108D02*
X0090704Y0285108D01*
X0090551Y0284322D02*
X0085465Y0284322D01*
X0085465Y0283536D02*
X0090551Y0283536D01*
X0090551Y0282751D02*
X0085465Y0282751D01*
X0085465Y0281965D02*
X0090551Y0281965D01*
X0090551Y0281179D02*
X0085465Y0281179D01*
X0085465Y0280393D02*
X0090551Y0280393D01*
X0090551Y0279607D02*
X0085465Y0279607D01*
X0085465Y0278821D02*
X0090551Y0278821D01*
X0090551Y0278035D02*
X0085465Y0278035D01*
X0085465Y0277249D02*
X0090551Y0277249D01*
X0090817Y0276463D02*
X0085199Y0276463D01*
X0084874Y0275677D02*
X0091142Y0275677D01*
X0091828Y0274891D02*
X0084188Y0274891D01*
X0083150Y0274105D02*
X0092866Y0274105D01*
X0079086Y0274105D02*
X0069370Y0274105D01*
X0069801Y0274284D02*
X0071023Y0275506D01*
X0071685Y0277104D01*
X0071685Y0284739D01*
X0071023Y0286336D01*
X0069801Y0287559D01*
X0068203Y0288220D01*
X0066474Y0288220D01*
X0064877Y0287559D01*
X0063654Y0286336D01*
X0062992Y0284739D01*
X0062992Y0277104D01*
X0063654Y0275506D01*
X0064877Y0274284D01*
X0066474Y0273622D01*
X0068203Y0273622D01*
X0069801Y0274284D01*
X0070408Y0274891D02*
X0078048Y0274891D01*
X0077363Y0275677D02*
X0071094Y0275677D01*
X0071420Y0276463D02*
X0077037Y0276463D01*
X0076772Y0277249D02*
X0071685Y0277249D01*
X0071685Y0278035D02*
X0076772Y0278035D01*
X0076772Y0278821D02*
X0071685Y0278821D01*
X0071685Y0279607D02*
X0076772Y0279607D01*
X0076772Y0280393D02*
X0071685Y0280393D01*
X0071685Y0281179D02*
X0076772Y0281179D01*
X0076772Y0281965D02*
X0071685Y0281965D01*
X0071685Y0282751D02*
X0076772Y0282751D01*
X0076772Y0283536D02*
X0071685Y0283536D01*
X0071685Y0284322D02*
X0076772Y0284322D01*
X0076925Y0285108D02*
X0071532Y0285108D01*
X0071206Y0285894D02*
X0077250Y0285894D01*
X0077777Y0286680D02*
X0070679Y0286680D01*
X0069893Y0287466D02*
X0078563Y0287466D01*
X0064784Y0287466D02*
X0056114Y0287466D01*
X0056900Y0286680D02*
X0063998Y0286680D01*
X0063471Y0285894D02*
X0057427Y0285894D01*
X0057752Y0285108D02*
X0063145Y0285108D01*
X0062992Y0284322D02*
X0057905Y0284322D01*
X0057905Y0283536D02*
X0062992Y0283536D01*
X0062992Y0282751D02*
X0057905Y0282751D01*
X0057905Y0281965D02*
X0062992Y0281965D01*
X0062992Y0281179D02*
X0057905Y0281179D01*
X0057905Y0280393D02*
X0062992Y0280393D01*
X0062992Y0279607D02*
X0057905Y0279607D01*
X0057905Y0278821D02*
X0062992Y0278821D01*
X0062992Y0278035D02*
X0057905Y0278035D01*
X0057905Y0277249D02*
X0062992Y0277249D01*
X0063258Y0276463D02*
X0057640Y0276463D01*
X0057315Y0275677D02*
X0063583Y0275677D01*
X0064269Y0274891D02*
X0056629Y0274891D01*
X0055591Y0274105D02*
X0065307Y0274105D01*
X0076437Y0200230D02*
X0002987Y0200230D01*
X0002987Y0199444D02*
X0076113Y0199444D01*
X0076113Y0198658D02*
X0002987Y0198658D01*
X0002987Y0197872D02*
X0076307Y0197872D01*
X0076768Y0197086D02*
X0002987Y0197086D01*
X0002987Y0196300D02*
X0077888Y0196300D01*
X0079454Y0195514D02*
X0002987Y0195514D01*
X0002987Y0194728D02*
X0080240Y0194728D01*
X0081026Y0193942D02*
X0002987Y0193942D01*
X0002987Y0193156D02*
X0081811Y0193156D01*
X0082597Y0192371D02*
X0002987Y0192371D01*
X0002987Y0191585D02*
X0083383Y0191585D01*
X0084169Y0190799D02*
X0002987Y0190799D01*
X0002987Y0190013D02*
X0084955Y0190013D01*
X0085741Y0189227D02*
X0002987Y0189227D01*
X0002987Y0188441D02*
X0086527Y0188441D01*
X0085189Y0187655D02*
X0002987Y0187655D01*
X0002987Y0186869D02*
X0084186Y0186869D01*
X0083773Y0186083D02*
X0002987Y0186083D01*
X0002987Y0185297D02*
X0083613Y0185297D01*
X0083645Y0184511D02*
X0002987Y0184511D01*
X0002987Y0183725D02*
X0083971Y0183725D01*
X0084400Y0182940D02*
X0002987Y0182940D01*
X0002987Y0182154D02*
X0084334Y0182154D01*
X0083548Y0181368D02*
X0002987Y0181368D01*
X0002987Y0180582D02*
X0082762Y0180582D01*
X0080863Y0179796D02*
X0002987Y0179796D01*
X0002987Y0179010D02*
X0080199Y0179010D01*
X0079874Y0178224D02*
X0002987Y0178224D01*
X0002987Y0177438D02*
X0079863Y0177438D01*
X0080044Y0176652D02*
X0002987Y0176652D01*
X0002987Y0175866D02*
X0080488Y0175866D01*
X0081565Y0175080D02*
X0002987Y0175080D01*
X0002987Y0174295D02*
X0084560Y0174295D01*
X0083927Y0175080D02*
X0083723Y0175080D01*
X0105651Y0131069D02*
X0107136Y0131069D01*
X0106459Y0130283D02*
X0106328Y0130283D01*
X0126103Y0105920D02*
X0126684Y0105920D01*
X0127685Y0105134D02*
X0125103Y0105134D01*
X0133220Y0081557D02*
X0393501Y0081557D01*
X0393501Y0080771D02*
X0134006Y0080771D01*
X0134378Y0079985D02*
X0393501Y0079985D01*
X0393501Y0079199D02*
X0134568Y0079199D01*
X0134568Y0078413D02*
X0393501Y0078413D01*
X0393501Y0077627D02*
X0134305Y0077627D01*
X0133831Y0076841D02*
X0393501Y0076841D01*
X0393501Y0076055D02*
X0133587Y0076055D01*
X0133587Y0075270D02*
X0393501Y0075270D01*
X0393501Y0074484D02*
X0133587Y0074484D01*
X0133587Y0073698D02*
X0393501Y0073698D01*
X0393501Y0072912D02*
X0133587Y0072912D01*
X0133587Y0072126D02*
X0393501Y0072126D01*
X0393501Y0071340D02*
X0134687Y0071340D01*
X0135392Y0070554D02*
X0393501Y0070554D01*
X0393501Y0069768D02*
X0135718Y0069768D01*
X0135818Y0068982D02*
X0393501Y0068982D01*
X0393501Y0068196D02*
X0135791Y0068196D01*
X0135466Y0067410D02*
X0393501Y0067410D01*
X0393501Y0066624D02*
X0134864Y0066624D01*
X0165707Y0091774D02*
X0351280Y0091774D01*
X0351291Y0092560D02*
X0166351Y0092560D01*
X0166675Y0093346D02*
X0351616Y0093346D01*
X0351942Y0094131D02*
X0166675Y0094131D01*
X0167704Y0094917D02*
X0170708Y0094917D01*
X0172079Y0094917D02*
X0175708Y0094917D01*
X0177079Y0094917D02*
X0352432Y0094917D01*
X0353218Y0095703D02*
X0178386Y0095703D01*
X0178926Y0096489D02*
X0354347Y0096489D01*
X0359661Y0096489D02*
X0393501Y0096489D01*
X0393501Y0095703D02*
X0360790Y0095703D01*
X0361576Y0094917D02*
X0393501Y0094917D01*
X0393501Y0094131D02*
X0362066Y0094131D01*
X0362392Y0093346D02*
X0393501Y0093346D01*
X0393501Y0092560D02*
X0362717Y0092560D01*
X0362728Y0091774D02*
X0393501Y0091774D01*
X0393501Y0090988D02*
X0362728Y0090988D01*
X0362706Y0090202D02*
X0393501Y0090202D01*
X0393501Y0089416D02*
X0362381Y0089416D01*
X0362055Y0088630D02*
X0393501Y0088630D01*
X0393501Y0087844D02*
X0361550Y0087844D01*
X0360764Y0087058D02*
X0393501Y0087058D01*
X0393501Y0086272D02*
X0359598Y0086272D01*
X0354409Y0086272D02*
X0267068Y0086272D01*
X0267055Y0087058D02*
X0353244Y0087058D01*
X0352458Y0087844D02*
X0266729Y0087844D01*
X0266147Y0088630D02*
X0351953Y0088630D01*
X0351627Y0089416D02*
X0264894Y0089416D01*
X0262894Y0089416D02*
X0251144Y0089416D01*
X0249144Y0089416D02*
X0237394Y0089416D01*
X0235394Y0089416D02*
X0223644Y0089416D01*
X0221644Y0089416D02*
X0209894Y0089416D01*
X0207894Y0089416D02*
X0196144Y0089416D01*
X0179175Y0097275D02*
X0393501Y0097275D01*
X0393501Y0098061D02*
X0179175Y0098061D01*
X0178906Y0098847D02*
X0393501Y0098847D01*
X0393501Y0099633D02*
X0178387Y0099633D01*
X0178387Y0100419D02*
X0393501Y0100419D01*
X0393501Y0101205D02*
X0178387Y0101205D01*
X0178387Y0101991D02*
X0393501Y0101991D01*
X0393501Y0102776D02*
X0178387Y0102776D01*
X0178387Y0103562D02*
X0393501Y0103562D01*
X0393501Y0104348D02*
X0178387Y0104348D01*
X0178387Y0105134D02*
X0393501Y0105134D01*
X0393501Y0105920D02*
X0178387Y0105920D01*
X0178387Y0106706D02*
X0393501Y0106706D01*
X0393501Y0107492D02*
X0178387Y0107492D01*
X0178387Y0108278D02*
X0393501Y0108278D01*
X0393501Y0109064D02*
X0211747Y0109064D01*
X0211719Y0109036D02*
X0212501Y0109818D01*
X0212925Y0110840D01*
X0212925Y0111947D01*
X0212501Y0112969D01*
X0212137Y0113333D01*
X0212137Y0119454D01*
X0212501Y0119818D01*
X0212644Y0120162D01*
X0212786Y0119818D01*
X0213150Y0119454D01*
X0213150Y0115833D01*
X0212786Y0115469D01*
X0212363Y0114447D01*
X0212363Y0113340D01*
X0212786Y0112318D01*
X0213568Y0111536D01*
X0214590Y0111113D01*
X0215697Y0111113D01*
X0216719Y0111536D01*
X0217501Y0112318D01*
X0217925Y0113340D01*
X0217925Y0114447D01*
X0217501Y0115469D01*
X0217137Y0115833D01*
X0217137Y0119454D01*
X0217501Y0119818D01*
X0217925Y0120840D01*
X0217925Y0121947D01*
X0217501Y0122969D01*
X0216719Y0123751D01*
X0215697Y0124175D01*
X0214590Y0124175D01*
X0213568Y0123751D01*
X0212786Y0122969D01*
X0212644Y0122625D01*
X0212501Y0122969D01*
X0211719Y0123751D01*
X0210697Y0124175D01*
X0209590Y0124175D01*
X0208568Y0123751D01*
X0207786Y0122969D01*
X0207363Y0121947D01*
X0207363Y0120840D01*
X0207786Y0119818D01*
X0208150Y0119454D01*
X0208150Y0113333D01*
X0207786Y0112969D01*
X0207363Y0111947D01*
X0207363Y0110840D01*
X0207786Y0109818D01*
X0208568Y0109036D01*
X0209590Y0108613D01*
X0210697Y0108613D01*
X0211719Y0109036D01*
X0212514Y0109850D02*
X0393501Y0109850D01*
X0393501Y0110636D02*
X0212840Y0110636D01*
X0212925Y0111422D02*
X0213845Y0111422D01*
X0212897Y0112207D02*
X0212817Y0112207D01*
X0212506Y0112993D02*
X0212477Y0112993D01*
X0212363Y0113779D02*
X0212137Y0113779D01*
X0212137Y0114565D02*
X0212412Y0114565D01*
X0212137Y0115351D02*
X0212737Y0115351D01*
X0213150Y0116137D02*
X0212137Y0116137D01*
X0212137Y0116923D02*
X0213150Y0116923D01*
X0213150Y0117709D02*
X0212137Y0117709D01*
X0212137Y0118495D02*
X0213150Y0118495D01*
X0213150Y0119281D02*
X0212137Y0119281D01*
X0212604Y0120067D02*
X0212683Y0120067D01*
X0213027Y0123210D02*
X0212260Y0123210D01*
X0211128Y0123996D02*
X0214159Y0123996D01*
X0216128Y0123996D02*
X0393501Y0123996D01*
X0393501Y0123210D02*
X0217260Y0123210D01*
X0217727Y0122424D02*
X0393501Y0122424D01*
X0393501Y0121638D02*
X0217925Y0121638D01*
X0217925Y0120852D02*
X0393501Y0120852D01*
X0393501Y0120067D02*
X0217604Y0120067D01*
X0217137Y0119281D02*
X0393501Y0119281D01*
X0393501Y0118495D02*
X0217137Y0118495D01*
X0217137Y0117709D02*
X0393501Y0117709D01*
X0393501Y0116923D02*
X0217137Y0116923D01*
X0217137Y0116137D02*
X0393501Y0116137D01*
X0393501Y0115351D02*
X0217550Y0115351D01*
X0217876Y0114565D02*
X0393501Y0114565D01*
X0393501Y0113779D02*
X0217925Y0113779D01*
X0217781Y0112993D02*
X0393501Y0112993D01*
X0393501Y0112207D02*
X0217390Y0112207D01*
X0216443Y0111422D02*
X0393501Y0111422D01*
X0393501Y0124782D02*
X0188152Y0124782D01*
X0188478Y0123996D02*
X0209159Y0123996D01*
X0208027Y0123210D02*
X0188550Y0123210D01*
X0188429Y0122424D02*
X0207560Y0122424D01*
X0207363Y0121638D02*
X0188071Y0121638D01*
X0187203Y0120852D02*
X0207363Y0120852D01*
X0207683Y0120067D02*
X0185386Y0120067D01*
X0184600Y0119281D02*
X0208150Y0119281D01*
X0208150Y0118495D02*
X0183814Y0118495D01*
X0183028Y0117709D02*
X0208150Y0117709D01*
X0208150Y0116923D02*
X0182242Y0116923D01*
X0181456Y0116137D02*
X0208150Y0116137D01*
X0208150Y0115351D02*
X0180671Y0115351D01*
X0179885Y0114565D02*
X0208150Y0114565D01*
X0208150Y0113779D02*
X0179099Y0113779D01*
X0178387Y0112993D02*
X0207810Y0112993D01*
X0207471Y0112207D02*
X0178387Y0112207D01*
X0178387Y0111422D02*
X0207363Y0111422D01*
X0207447Y0110636D02*
X0178387Y0110636D01*
X0178387Y0109850D02*
X0207773Y0109850D01*
X0208541Y0109064D02*
X0178387Y0109064D01*
X0174400Y0109064D02*
X0173387Y0109064D01*
X0173387Y0109850D02*
X0174400Y0109850D01*
X0174400Y0110636D02*
X0173387Y0110636D01*
X0173387Y0111422D02*
X0174400Y0111422D01*
X0174400Y0112207D02*
X0173387Y0112207D01*
X0173387Y0112993D02*
X0174400Y0112993D01*
X0174400Y0113779D02*
X0173387Y0113779D01*
X0173387Y0114565D02*
X0174400Y0114565D01*
X0175032Y0115351D02*
X0173387Y0115351D01*
X0173387Y0116137D02*
X0175817Y0116137D01*
X0176603Y0116923D02*
X0173387Y0116923D01*
X0173387Y0117709D02*
X0177389Y0117709D01*
X0178175Y0118495D02*
X0173387Y0118495D01*
X0173387Y0119281D02*
X0178961Y0119281D01*
X0179747Y0120067D02*
X0173387Y0120067D01*
X0173387Y0120852D02*
X0180533Y0120852D01*
X0181319Y0121638D02*
X0173387Y0121638D01*
X0173387Y0122424D02*
X0182105Y0122424D01*
X0182891Y0123210D02*
X0173387Y0123210D01*
X0173387Y0123996D02*
X0183060Y0123996D01*
X0183385Y0124782D02*
X0173387Y0124782D01*
X0173387Y0125568D02*
X0184135Y0125568D01*
X0187403Y0125568D02*
X0393501Y0125568D01*
X0393501Y0126354D02*
X0173387Y0126354D01*
X0173387Y0127140D02*
X0393501Y0127140D01*
X0393501Y0085486D02*
X0266954Y0085486D01*
X0266629Y0084700D02*
X0393501Y0084700D01*
X0393501Y0083915D02*
X0265904Y0083915D01*
X0174401Y0095703D02*
X0173386Y0095703D01*
X0173387Y0099633D02*
X0174400Y0099633D01*
X0174400Y0100419D02*
X0173387Y0100419D01*
X0173387Y0101205D02*
X0174400Y0101205D01*
X0174400Y0101991D02*
X0173387Y0101991D01*
X0173387Y0102776D02*
X0174400Y0102776D01*
X0174400Y0103562D02*
X0173387Y0103562D01*
X0173387Y0104348D02*
X0174400Y0104348D01*
X0174400Y0105134D02*
X0173387Y0105134D01*
X0173387Y0105920D02*
X0174400Y0105920D01*
X0174400Y0106706D02*
X0173387Y0106706D01*
X0173387Y0107492D02*
X0174400Y0107492D01*
X0174400Y0108278D02*
X0173387Y0108278D01*
X0169401Y0095703D02*
X0169011Y0095703D01*
D15*
X0017142Y0017142D03*
X0017142Y0280921D03*
X0379346Y0280921D03*
X0379346Y0017142D03*
D16*
X0326394Y0012644D03*
X0312644Y0072644D03*
X0312644Y0077644D03*
X0312644Y0082644D03*
X0312644Y0087644D03*
X0312644Y0092644D03*
X0296394Y0107644D03*
X0296394Y0112644D03*
X0280144Y0117644D03*
X0270144Y0113894D03*
X0282644Y0131394D03*
X0276394Y0151394D03*
X0268894Y0151394D03*
X0261394Y0158894D03*
X0266394Y0176394D03*
X0290769Y0163269D03*
X0290769Y0158894D03*
X0309519Y0177019D03*
X0314519Y0177019D03*
X0319519Y0177019D03*
X0314519Y0182019D03*
X0309519Y0182019D03*
X0271394Y0201394D03*
X0271394Y0205144D03*
X0271394Y0216394D03*
X0263269Y0214519D03*
X0257644Y0234519D03*
X0291394Y0222644D03*
X0301394Y0221394D03*
X0311394Y0218894D03*
X0358894Y0260144D03*
X0386394Y0225144D03*
X0386394Y0147644D03*
X0376394Y0135144D03*
X0376394Y0130144D03*
X0376394Y0125144D03*
X0376394Y0105144D03*
X0352644Y0112644D03*
X0352644Y0116394D03*
X0352644Y0120144D03*
X0335144Y0125144D03*
X0335144Y0130144D03*
X0335144Y0135144D03*
X0335144Y0140144D03*
X0343894Y0093894D03*
X0386394Y0072644D03*
X0286394Y0085144D03*
X0286394Y0090144D03*
X0263894Y0086394D03*
X0250144Y0086394D03*
X0236394Y0086394D03*
X0222644Y0086394D03*
X0208894Y0086394D03*
X0195144Y0086394D03*
X0191394Y0091394D03*
X0186394Y0091394D03*
X0151394Y0119519D03*
X0147644Y0109519D03*
X0139519Y0108269D03*
X0139519Y0103894D03*
X0139519Y0099519D03*
X0145144Y0093894D03*
X0131394Y0078894D03*
X0132644Y0068894D03*
X0115144Y0092644D03*
X0115144Y0096394D03*
X0093894Y0100144D03*
X0090144Y0100144D03*
X0090144Y0106394D03*
X0093894Y0106394D03*
X0113894Y0118269D03*
X0118894Y0128269D03*
X0132644Y0117644D03*
X0151394Y0129519D03*
X0152019Y0136394D03*
X0151394Y0146394D03*
X0160144Y0146394D03*
X0173894Y0158894D03*
X0168894Y0163894D03*
X0175144Y0177644D03*
X0167019Y0188269D03*
X0167019Y0192644D03*
X0158894Y0199519D03*
X0158894Y0205769D03*
X0161394Y0216394D03*
X0153269Y0217019D03*
X0147644Y0216394D03*
X0139519Y0217019D03*
X0133894Y0216394D03*
X0133894Y0205144D03*
X0127644Y0195144D03*
X0127644Y0190144D03*
X0131394Y0185144D03*
X0147644Y0205769D03*
X0113894Y0207644D03*
X0113894Y0212644D03*
X0113894Y0217644D03*
X0108894Y0217644D03*
X0103894Y0192644D03*
X0103894Y0187644D03*
X0125144Y0163894D03*
X0125144Y0160144D03*
X0107644Y0146394D03*
X0091394Y0123269D03*
X0073894Y0129519D03*
X0069519Y0129519D03*
X0065144Y0110144D03*
X0046394Y0113269D03*
X0043269Y0115769D03*
X0045769Y0105144D03*
X0045769Y0100769D03*
X0070144Y0170144D03*
X0070144Y0175144D03*
X0070144Y0180144D03*
X0161394Y0177644D03*
X0182644Y0192644D03*
X0183894Y0197644D03*
X0188269Y0195769D03*
X0188269Y0190769D03*
X0203894Y0198894D03*
X0218894Y0203894D03*
X0223894Y0201394D03*
X0227644Y0191561D03*
X0232644Y0191394D03*
X0236394Y0185769D03*
X0229519Y0181394D03*
X0225144Y0181394D03*
X0217644Y0177644D03*
X0224519Y0163894D03*
X0224519Y0159519D03*
X0206394Y0158894D03*
X0196394Y0128894D03*
X0196394Y0123894D03*
X0191394Y0123894D03*
X0191394Y0128894D03*
X0221394Y0212019D03*
X0090144Y0292644D03*
D17*
X0078894Y0198894D03*
X0086394Y0185144D03*
X0082644Y0177644D03*
X0086394Y0176394D03*
X0117644Y0170144D03*
X0127019Y0170144D03*
X0127644Y0181394D03*
X0152644Y0185144D03*
X0178894Y0163269D03*
X0175769Y0155144D03*
X0183894Y0141394D03*
X0175769Y0138894D03*
X0173269Y0136394D03*
X0170769Y0130769D03*
X0166394Y0130144D03*
X0161394Y0130144D03*
X0158269Y0132644D03*
X0133894Y0128894D03*
X0128894Y0128894D03*
X0108894Y0128894D03*
X0103894Y0128894D03*
X0110769Y0138269D03*
X0095144Y0142644D03*
X0093894Y0146394D03*
X0095144Y0150144D03*
X0124519Y0150144D03*
X0142644Y0153894D03*
X0185769Y0123269D03*
X0202019Y0138269D03*
X0205144Y0135144D03*
X0208269Y0131394D03*
X0210144Y0121394D03*
X0215144Y0121394D03*
X0215144Y0113894D03*
X0210144Y0111394D03*
X0176394Y0097644D03*
X0171394Y0097644D03*
X0167019Y0097644D03*
X0163894Y0093894D03*
X0160769Y0097644D03*
X0147644Y0104519D03*
X0128894Y0107644D03*
X0123894Y0107644D03*
X0106394Y0112644D03*
X0101394Y0112644D03*
X0197644Y0142644D03*
X0197644Y0148894D03*
X0202644Y0155144D03*
X0197644Y0163269D03*
X0202644Y0176394D03*
X0207644Y0176394D03*
X0238894Y0158894D03*
X0239519Y0145769D03*
X0243894Y0145144D03*
X0222644Y0147019D03*
X0218894Y0147019D03*
X0214519Y0147019D03*
X0243894Y0177644D03*
X0260144Y0163894D03*
X0268894Y0161394D03*
X0277644Y0161394D03*
X0278894Y0157644D03*
X0281394Y0187644D03*
X0269519Y0187644D03*
X0242644Y0201394D03*
X0242644Y0205144D03*
X0243894Y0215769D03*
X0249519Y0216394D03*
X0235769Y0216394D03*
X0230144Y0215769D03*
X0278894Y0236394D03*
X0278894Y0240144D03*
X0338894Y0240144D03*
X0338894Y0236394D03*
D18*
X0315144Y0222644D02*
X0311394Y0218894D01*
X0315144Y0222644D02*
X0315144Y0280921D01*
X0315144Y0281394D01*
X0315144Y0280921D02*
X0315370Y0280921D01*
X0301591Y0280921D02*
X0301591Y0280341D01*
X0301394Y0280144D01*
X0301394Y0221394D01*
X0291394Y0222644D02*
X0287644Y0226394D01*
X0287644Y0280144D01*
X0287811Y0280311D01*
X0287811Y0280921D01*
X0257644Y0234519D02*
X0263269Y0228894D01*
X0263269Y0214519D01*
X0260769Y0212019D01*
X0249519Y0212019D01*
X0249519Y0216394D01*
X0249519Y0212019D02*
X0235769Y0212019D01*
X0235769Y0216394D01*
X0235769Y0212019D02*
X0221394Y0212019D01*
X0203894Y0198894D02*
X0203894Y0185144D01*
X0211394Y0177644D01*
X0217644Y0177644D01*
X0217644Y0170144D01*
X0206394Y0158894D01*
X0173894Y0158894D01*
X0168894Y0163894D01*
X0160144Y0146394D02*
X0151394Y0146394D01*
X0107644Y0146394D01*
X0091394Y0123269D02*
X0078269Y0110144D01*
X0065144Y0110144D01*
X0132644Y0117644D02*
X0141394Y0117644D01*
X0141394Y0115769D01*
X0147644Y0109519D01*
X0141394Y0117644D02*
X0141394Y0130769D01*
X0147019Y0136394D01*
X0152019Y0136394D01*
X0195144Y0086394D02*
X0208894Y0086394D01*
X0222644Y0086394D01*
X0236394Y0086394D01*
X0250144Y0086394D01*
X0263894Y0086394D01*
X0268894Y0151394D02*
X0261394Y0158894D01*
X0268894Y0151394D02*
X0276394Y0151394D01*
X0358894Y0260144D02*
X0352644Y0266394D01*
X0352644Y0287644D01*
X0346394Y0293894D01*
X0183894Y0293894D01*
X0177575Y0287575D01*
X0177575Y0280921D01*
X0090144Y0292644D02*
X0085144Y0292644D01*
X0081394Y0288894D01*
X0081394Y0281197D01*
X0081118Y0280921D01*
D19*
X0136236Y0280921D02*
X0136236Y0280301D01*
X0136394Y0280144D01*
X0136394Y0218894D01*
X0133894Y0216394D01*
X0147644Y0216394D02*
X0150144Y0218894D01*
X0150144Y0280144D01*
X0150016Y0280272D01*
X0150016Y0280921D01*
X0163795Y0280921D02*
X0163795Y0218795D01*
X0161394Y0216394D01*
X0152644Y0185144D02*
X0153894Y0183894D01*
X0200144Y0183894D01*
X0207644Y0176394D01*
X0202644Y0176394D02*
X0197644Y0181394D01*
X0127644Y0181394D01*
X0127019Y0170144D02*
X0117644Y0170144D01*
X0098894Y0153894D02*
X0095144Y0150144D01*
X0093894Y0146394D02*
X0102644Y0146394D01*
X0106394Y0150144D01*
X0124519Y0150144D01*
X0110769Y0138269D02*
X0145144Y0138269D01*
X0146394Y0139519D01*
X0170144Y0139519D01*
X0173269Y0136394D01*
X0172019Y0133269D02*
X0169519Y0135769D01*
X0157019Y0135769D01*
X0154519Y0133269D01*
X0148269Y0133269D01*
X0144519Y0129519D01*
X0144519Y0118269D01*
X0150769Y0112019D01*
X0150769Y0107644D01*
X0147644Y0104519D01*
X0158269Y0100144D02*
X0160769Y0097644D01*
X0158269Y0100144D02*
X0158269Y0132644D01*
X0161394Y0130144D02*
X0163894Y0127644D01*
X0163894Y0093894D01*
X0167019Y0097644D02*
X0166394Y0098269D01*
X0166394Y0130144D01*
X0170769Y0130769D02*
X0171394Y0130144D01*
X0171394Y0097644D01*
X0176394Y0097644D02*
X0176394Y0113894D01*
X0185769Y0123269D01*
X0175769Y0133269D02*
X0172019Y0133269D01*
X0175769Y0133269D02*
X0183894Y0141394D01*
X0175769Y0138894D02*
X0172644Y0142019D01*
X0103269Y0142019D01*
X0102644Y0142644D01*
X0095144Y0142644D01*
X0098894Y0153894D02*
X0142644Y0153894D01*
X0133894Y0128894D02*
X0133894Y0123894D01*
X0128894Y0118894D01*
X0128894Y0107644D01*
X0123894Y0107644D02*
X0123894Y0117644D01*
X0128894Y0122644D01*
X0128894Y0128894D01*
X0108894Y0128894D02*
X0108894Y0115144D01*
X0106394Y0112644D01*
X0103894Y0115144D02*
X0103894Y0128894D01*
X0103894Y0115144D02*
X0101394Y0112644D01*
X0175769Y0155144D02*
X0202644Y0155144D01*
X0197644Y0148894D02*
X0197644Y0142644D01*
X0202019Y0138269D02*
X0205769Y0138269D01*
X0214519Y0147019D01*
X0218894Y0147019D02*
X0207019Y0135144D01*
X0205144Y0135144D01*
X0208269Y0131394D02*
X0222644Y0145769D01*
X0222644Y0147019D01*
X0239519Y0145769D02*
X0239519Y0158269D01*
X0238894Y0158894D01*
X0243894Y0145144D02*
X0243894Y0177644D01*
X0260144Y0163894D02*
X0262644Y0163894D01*
X0268894Y0157644D01*
X0278894Y0157644D01*
X0277644Y0161394D02*
X0268894Y0161394D01*
X0269519Y0187644D02*
X0281394Y0187644D01*
X0271394Y0216394D02*
X0273894Y0218894D01*
X0273894Y0280144D01*
X0274031Y0280144D01*
X0274031Y0280921D01*
X0246472Y0280921D02*
X0246472Y0280222D01*
X0246394Y0280144D01*
X0246394Y0218269D01*
X0243894Y0215769D01*
X0232644Y0218269D02*
X0230144Y0215769D01*
X0232644Y0218269D02*
X0232644Y0278894D01*
X0232693Y0278943D01*
X0232693Y0280921D01*
X0090144Y0187644D02*
X0090144Y0180144D01*
X0086394Y0176394D01*
X0082644Y0177644D02*
X0086394Y0181394D01*
X0086394Y0185144D01*
X0090144Y0187644D02*
X0078894Y0198894D01*
X0178894Y0163269D02*
X0197644Y0163269D01*
X0210144Y0121394D02*
X0210144Y0111394D01*
X0215144Y0113894D02*
X0215144Y0121394D01*
D20*
X0132644Y0068894D02*
X0131394Y0070144D01*
X0131394Y0078894D01*
M02*
