G75*
%MOIN*%
%OFA0B0*%
%FSLAX25Y25*%
%IPPOS*%
%LPD*%
%AMOC8*
5,1,8,0,0,1.08239X$1,22.5*
%
%ADD10C,0.00591*%
%ADD11C,0.00700*%
%ADD12C,0.01000*%
%ADD13C,0.00500*%
%ADD14C,0.00600*%
D10*
X0081118Y0002969D02*
X0081118Y0030528D01*
X0315370Y0030528D01*
X0315370Y0002969D01*
X0081118Y0002969D01*
X0081118Y0029937D02*
X0081118Y0050606D01*
X0081118Y0058480D01*
X0081118Y0066354D01*
X0094898Y0066354D01*
X0094898Y0058480D01*
X0108677Y0058480D01*
X0108677Y0066354D01*
X0122457Y0066354D01*
X0122457Y0058480D01*
X0136236Y0058480D01*
X0136236Y0066354D01*
X0122457Y0066354D01*
X0116541Y0068047D02*
X0116541Y0074740D01*
X0128746Y0074740D01*
X0128746Y0068047D01*
X0116541Y0068047D01*
X0116541Y0075547D02*
X0116541Y0082240D01*
X0128746Y0082240D01*
X0128746Y0075547D01*
X0116541Y0075547D01*
X0116541Y0083047D02*
X0128746Y0083047D01*
X0128746Y0089740D01*
X0116541Y0089740D01*
X0116541Y0083047D01*
X0114996Y0083047D02*
X0114996Y0089740D01*
X0102791Y0089740D01*
X0102791Y0083047D01*
X0114996Y0083047D01*
X0114996Y0090547D02*
X0102791Y0090547D01*
X0102791Y0097240D01*
X0114996Y0097240D01*
X0114996Y0090547D01*
X0116541Y0090547D02*
X0116541Y0097240D01*
X0128746Y0097240D01*
X0128746Y0090547D01*
X0116541Y0090547D01*
X0130291Y0090547D02*
X0142496Y0090547D01*
X0142496Y0097240D01*
X0130291Y0097240D01*
X0130291Y0090547D01*
X0130291Y0089740D02*
X0130291Y0083047D01*
X0142496Y0083047D01*
X0142496Y0089740D01*
X0130291Y0089740D01*
X0143047Y0082496D02*
X0143047Y0070291D01*
X0149740Y0070291D01*
X0149740Y0082496D01*
X0143047Y0082496D01*
X0150547Y0082496D02*
X0157240Y0082496D01*
X0157240Y0070291D01*
X0150547Y0070291D01*
X0150547Y0082496D01*
X0164297Y0082496D02*
X0164297Y0070291D01*
X0170990Y0070291D01*
X0170990Y0082496D01*
X0164297Y0082496D01*
X0178047Y0082496D02*
X0178047Y0070291D01*
X0184740Y0070291D01*
X0184740Y0082496D01*
X0178047Y0082496D01*
X0191797Y0082496D02*
X0191797Y0070291D01*
X0198490Y0070291D01*
X0198490Y0082496D01*
X0191797Y0082496D01*
X0190990Y0094041D02*
X0184297Y0094041D01*
X0184297Y0106246D01*
X0190990Y0106246D01*
X0190990Y0094041D01*
X0197565Y0106807D02*
X0197565Y0120980D01*
X0237722Y0120980D01*
X0237722Y0106807D01*
X0197565Y0106807D01*
X0183618Y0107398D02*
X0183618Y0120390D01*
X0149169Y0120390D01*
X0149169Y0107398D01*
X0183618Y0107398D01*
X0179001Y0118008D02*
X0179003Y0118091D01*
X0179009Y0118175D01*
X0179019Y0118258D01*
X0179032Y0118340D01*
X0179050Y0118422D01*
X0179072Y0118502D01*
X0179097Y0118582D01*
X0179126Y0118660D01*
X0179158Y0118737D01*
X0179195Y0118813D01*
X0179234Y0118886D01*
X0179278Y0118957D01*
X0179324Y0119027D01*
X0179374Y0119094D01*
X0179427Y0119159D01*
X0179482Y0119221D01*
X0179541Y0119280D01*
X0179603Y0119337D01*
X0179667Y0119390D01*
X0179733Y0119441D01*
X0179802Y0119488D01*
X0179873Y0119532D01*
X0179946Y0119573D01*
X0180021Y0119610D01*
X0180097Y0119643D01*
X0180175Y0119673D01*
X0180255Y0119699D01*
X0180335Y0119722D01*
X0180416Y0119740D01*
X0180499Y0119755D01*
X0180581Y0119766D01*
X0180665Y0119773D01*
X0180748Y0119776D01*
X0180832Y0119775D01*
X0180915Y0119770D01*
X0180998Y0119761D01*
X0181081Y0119748D01*
X0181162Y0119732D01*
X0181243Y0119711D01*
X0181323Y0119687D01*
X0181402Y0119659D01*
X0181479Y0119627D01*
X0181555Y0119592D01*
X0181629Y0119553D01*
X0181701Y0119511D01*
X0181771Y0119465D01*
X0181838Y0119416D01*
X0181904Y0119364D01*
X0181966Y0119309D01*
X0182027Y0119251D01*
X0182084Y0119190D01*
X0182138Y0119127D01*
X0182189Y0119061D01*
X0182238Y0118992D01*
X0182282Y0118922D01*
X0182324Y0118849D01*
X0182362Y0118775D01*
X0182396Y0118699D01*
X0182427Y0118621D01*
X0182454Y0118542D01*
X0182478Y0118462D01*
X0182497Y0118381D01*
X0182513Y0118299D01*
X0182525Y0118216D01*
X0182533Y0118133D01*
X0182537Y0118050D01*
X0182537Y0117966D01*
X0182533Y0117883D01*
X0182525Y0117800D01*
X0182513Y0117717D01*
X0182497Y0117635D01*
X0182478Y0117554D01*
X0182454Y0117474D01*
X0182427Y0117395D01*
X0182396Y0117317D01*
X0182362Y0117241D01*
X0182324Y0117167D01*
X0182282Y0117094D01*
X0182238Y0117024D01*
X0182189Y0116955D01*
X0182138Y0116889D01*
X0182084Y0116826D01*
X0182027Y0116765D01*
X0181966Y0116707D01*
X0181904Y0116652D01*
X0181838Y0116600D01*
X0181771Y0116551D01*
X0181701Y0116505D01*
X0181629Y0116463D01*
X0181555Y0116424D01*
X0181479Y0116389D01*
X0181402Y0116357D01*
X0181323Y0116329D01*
X0181243Y0116305D01*
X0181162Y0116284D01*
X0181081Y0116268D01*
X0180998Y0116255D01*
X0180915Y0116246D01*
X0180832Y0116241D01*
X0180748Y0116240D01*
X0180665Y0116243D01*
X0180581Y0116250D01*
X0180499Y0116261D01*
X0180416Y0116276D01*
X0180335Y0116294D01*
X0180255Y0116317D01*
X0180175Y0116343D01*
X0180097Y0116373D01*
X0180021Y0116406D01*
X0179946Y0116443D01*
X0179873Y0116484D01*
X0179802Y0116528D01*
X0179733Y0116575D01*
X0179667Y0116626D01*
X0179603Y0116679D01*
X0179541Y0116736D01*
X0179482Y0116795D01*
X0179427Y0116857D01*
X0179374Y0116922D01*
X0179324Y0116989D01*
X0179278Y0117059D01*
X0179234Y0117130D01*
X0179195Y0117203D01*
X0179158Y0117279D01*
X0179126Y0117356D01*
X0179097Y0117434D01*
X0179072Y0117514D01*
X0179050Y0117594D01*
X0179032Y0117676D01*
X0179019Y0117758D01*
X0179009Y0117841D01*
X0179003Y0117925D01*
X0179001Y0118008D01*
X0139996Y0144297D02*
X0139996Y0150990D01*
X0127791Y0150990D01*
X0127791Y0144297D01*
X0139996Y0144297D01*
X0139996Y0151797D02*
X0139996Y0158490D01*
X0127791Y0158490D01*
X0127791Y0151797D01*
X0139996Y0151797D01*
X0145547Y0151541D02*
X0152240Y0151541D01*
X0152240Y0163746D01*
X0145547Y0163746D01*
X0145547Y0151541D01*
X0153047Y0151541D02*
X0159740Y0151541D01*
X0159740Y0163746D01*
X0153047Y0163746D01*
X0153047Y0151541D01*
X0139996Y0159297D02*
X0139996Y0165990D01*
X0127791Y0165990D01*
X0127791Y0159297D01*
X0139996Y0159297D01*
X0129169Y0174898D02*
X0129169Y0187890D01*
X0163618Y0187890D01*
X0163618Y0174898D01*
X0129169Y0174898D01*
X0130291Y0199297D02*
X0130291Y0205990D01*
X0142496Y0205990D01*
X0142496Y0199297D01*
X0130291Y0199297D01*
X0130291Y0208047D02*
X0142496Y0208047D01*
X0142496Y0214740D01*
X0130291Y0214740D01*
X0130291Y0208047D01*
X0130291Y0216797D02*
X0142496Y0216797D01*
X0142496Y0223490D01*
X0130291Y0223490D01*
X0130291Y0216797D01*
X0130291Y0225547D02*
X0142496Y0225547D01*
X0142496Y0232240D01*
X0130291Y0232240D01*
X0130291Y0225547D01*
X0129346Y0234661D02*
X0129346Y0242535D01*
X0129346Y0251394D01*
X0129346Y0267142D01*
X0115567Y0267142D02*
X0115567Y0251394D01*
X0101787Y0251394D01*
X0101787Y0267142D01*
X0088008Y0267142D02*
X0088008Y0251394D01*
X0074228Y0251394D01*
X0074228Y0267142D01*
X0060449Y0267142D02*
X0060449Y0251394D01*
X0046669Y0251394D01*
X0046669Y0267142D01*
X0046669Y0267535D02*
X0046669Y0295094D01*
X0349819Y0295094D01*
X0349819Y0267535D01*
X0046669Y0267535D01*
X0046669Y0251394D02*
X0046669Y0242535D01*
X0129346Y0242535D01*
X0143126Y0242535D01*
X0143126Y0234661D01*
X0129346Y0234661D01*
X0143126Y0234661D02*
X0156906Y0234661D01*
X0156906Y0242535D01*
X0143126Y0242535D01*
X0143126Y0251394D02*
X0143126Y0267142D01*
X0156906Y0267142D02*
X0156906Y0251394D01*
X0143126Y0251394D01*
X0129346Y0251394D01*
X0115567Y0251394D01*
X0101787Y0251394D02*
X0088008Y0251394D01*
X0074228Y0251394D02*
X0060449Y0251394D01*
X0052496Y0238490D02*
X0052496Y0231797D01*
X0040291Y0231797D01*
X0040291Y0238490D01*
X0052496Y0238490D01*
X0063894Y0228894D02*
X0063894Y0213894D01*
X0026394Y0213894D01*
X0026394Y0228894D01*
X0063894Y0228894D01*
X0071305Y0228569D02*
X0071305Y0214396D01*
X0111463Y0214396D01*
X0111463Y0228569D01*
X0071305Y0228569D01*
X0072293Y0217152D02*
X0072295Y0217235D01*
X0072301Y0217319D01*
X0072311Y0217402D01*
X0072324Y0217484D01*
X0072342Y0217566D01*
X0072364Y0217646D01*
X0072389Y0217726D01*
X0072418Y0217804D01*
X0072450Y0217881D01*
X0072487Y0217957D01*
X0072526Y0218030D01*
X0072570Y0218101D01*
X0072616Y0218171D01*
X0072666Y0218238D01*
X0072719Y0218303D01*
X0072774Y0218365D01*
X0072833Y0218424D01*
X0072895Y0218481D01*
X0072959Y0218534D01*
X0073025Y0218585D01*
X0073094Y0218632D01*
X0073165Y0218676D01*
X0073238Y0218717D01*
X0073313Y0218754D01*
X0073389Y0218787D01*
X0073467Y0218817D01*
X0073547Y0218843D01*
X0073627Y0218866D01*
X0073708Y0218884D01*
X0073791Y0218899D01*
X0073873Y0218910D01*
X0073957Y0218917D01*
X0074040Y0218920D01*
X0074124Y0218919D01*
X0074207Y0218914D01*
X0074290Y0218905D01*
X0074373Y0218892D01*
X0074454Y0218876D01*
X0074535Y0218855D01*
X0074615Y0218831D01*
X0074694Y0218803D01*
X0074771Y0218771D01*
X0074847Y0218736D01*
X0074921Y0218697D01*
X0074993Y0218655D01*
X0075063Y0218609D01*
X0075130Y0218560D01*
X0075196Y0218508D01*
X0075258Y0218453D01*
X0075319Y0218395D01*
X0075376Y0218334D01*
X0075430Y0218271D01*
X0075481Y0218205D01*
X0075530Y0218136D01*
X0075574Y0218066D01*
X0075616Y0217993D01*
X0075654Y0217919D01*
X0075688Y0217843D01*
X0075719Y0217765D01*
X0075746Y0217686D01*
X0075770Y0217606D01*
X0075789Y0217525D01*
X0075805Y0217443D01*
X0075817Y0217360D01*
X0075825Y0217277D01*
X0075829Y0217194D01*
X0075829Y0217110D01*
X0075825Y0217027D01*
X0075817Y0216944D01*
X0075805Y0216861D01*
X0075789Y0216779D01*
X0075770Y0216698D01*
X0075746Y0216618D01*
X0075719Y0216539D01*
X0075688Y0216461D01*
X0075654Y0216385D01*
X0075616Y0216311D01*
X0075574Y0216238D01*
X0075530Y0216168D01*
X0075481Y0216099D01*
X0075430Y0216033D01*
X0075376Y0215970D01*
X0075319Y0215909D01*
X0075258Y0215851D01*
X0075196Y0215796D01*
X0075130Y0215744D01*
X0075063Y0215695D01*
X0074993Y0215649D01*
X0074921Y0215607D01*
X0074847Y0215568D01*
X0074771Y0215533D01*
X0074694Y0215501D01*
X0074615Y0215473D01*
X0074535Y0215449D01*
X0074454Y0215428D01*
X0074373Y0215412D01*
X0074290Y0215399D01*
X0074207Y0215390D01*
X0074124Y0215385D01*
X0074040Y0215384D01*
X0073957Y0215387D01*
X0073873Y0215394D01*
X0073791Y0215405D01*
X0073708Y0215420D01*
X0073627Y0215438D01*
X0073547Y0215461D01*
X0073467Y0215487D01*
X0073389Y0215517D01*
X0073313Y0215550D01*
X0073238Y0215587D01*
X0073165Y0215628D01*
X0073094Y0215672D01*
X0073025Y0215719D01*
X0072959Y0215770D01*
X0072895Y0215823D01*
X0072833Y0215880D01*
X0072774Y0215939D01*
X0072719Y0216001D01*
X0072666Y0216066D01*
X0072616Y0216133D01*
X0072570Y0216203D01*
X0072526Y0216274D01*
X0072487Y0216347D01*
X0072450Y0216423D01*
X0072418Y0216500D01*
X0072389Y0216578D01*
X0072364Y0216658D01*
X0072342Y0216738D01*
X0072324Y0216820D01*
X0072311Y0216902D01*
X0072301Y0216985D01*
X0072295Y0217069D01*
X0072293Y0217152D01*
X0063894Y0206394D02*
X0026394Y0206394D01*
X0026394Y0156394D01*
X0063894Y0156394D01*
X0063894Y0206394D01*
X0066797Y0194996D02*
X0066797Y0182791D01*
X0073490Y0182791D01*
X0073490Y0194996D01*
X0066797Y0194996D01*
X0074445Y0188480D02*
X0093343Y0188480D01*
X0093343Y0174307D01*
X0074445Y0174307D01*
X0074445Y0188480D01*
X0075046Y0176669D02*
X0075048Y0176753D01*
X0075054Y0176836D01*
X0075064Y0176920D01*
X0075078Y0177002D01*
X0075096Y0177084D01*
X0075117Y0177165D01*
X0075143Y0177245D01*
X0075172Y0177323D01*
X0075205Y0177401D01*
X0075242Y0177476D01*
X0075282Y0177549D01*
X0075326Y0177621D01*
X0075373Y0177690D01*
X0075423Y0177758D01*
X0075476Y0177822D01*
X0075533Y0177884D01*
X0075592Y0177943D01*
X0075654Y0178000D01*
X0075718Y0178053D01*
X0075786Y0178103D01*
X0075855Y0178150D01*
X0075926Y0178194D01*
X0076000Y0178234D01*
X0076075Y0178271D01*
X0076153Y0178304D01*
X0076231Y0178333D01*
X0076311Y0178359D01*
X0076392Y0178380D01*
X0076474Y0178398D01*
X0076556Y0178412D01*
X0076640Y0178422D01*
X0076723Y0178428D01*
X0076807Y0178430D01*
X0076891Y0178428D01*
X0076974Y0178422D01*
X0077058Y0178412D01*
X0077140Y0178398D01*
X0077222Y0178380D01*
X0077303Y0178359D01*
X0077383Y0178333D01*
X0077461Y0178304D01*
X0077539Y0178271D01*
X0077614Y0178234D01*
X0077687Y0178194D01*
X0077759Y0178150D01*
X0077828Y0178103D01*
X0077896Y0178053D01*
X0077960Y0178000D01*
X0078022Y0177943D01*
X0078081Y0177884D01*
X0078138Y0177822D01*
X0078191Y0177758D01*
X0078241Y0177690D01*
X0078288Y0177621D01*
X0078332Y0177550D01*
X0078372Y0177476D01*
X0078409Y0177401D01*
X0078442Y0177323D01*
X0078471Y0177245D01*
X0078497Y0177165D01*
X0078518Y0177084D01*
X0078536Y0177002D01*
X0078550Y0176920D01*
X0078560Y0176836D01*
X0078566Y0176753D01*
X0078568Y0176669D01*
X0078566Y0176585D01*
X0078560Y0176502D01*
X0078550Y0176418D01*
X0078536Y0176336D01*
X0078518Y0176254D01*
X0078497Y0176173D01*
X0078471Y0176093D01*
X0078442Y0176015D01*
X0078409Y0175937D01*
X0078372Y0175862D01*
X0078332Y0175789D01*
X0078288Y0175717D01*
X0078241Y0175648D01*
X0078191Y0175580D01*
X0078138Y0175516D01*
X0078081Y0175454D01*
X0078022Y0175395D01*
X0077960Y0175338D01*
X0077896Y0175285D01*
X0077828Y0175235D01*
X0077759Y0175188D01*
X0077688Y0175144D01*
X0077614Y0175104D01*
X0077539Y0175067D01*
X0077461Y0175034D01*
X0077383Y0175005D01*
X0077303Y0174979D01*
X0077222Y0174958D01*
X0077140Y0174940D01*
X0077058Y0174926D01*
X0076974Y0174916D01*
X0076891Y0174910D01*
X0076807Y0174908D01*
X0076723Y0174910D01*
X0076640Y0174916D01*
X0076556Y0174926D01*
X0076474Y0174940D01*
X0076392Y0174958D01*
X0076311Y0174979D01*
X0076231Y0175005D01*
X0076153Y0175034D01*
X0076075Y0175067D01*
X0076000Y0175104D01*
X0075927Y0175144D01*
X0075855Y0175188D01*
X0075786Y0175235D01*
X0075718Y0175285D01*
X0075654Y0175338D01*
X0075592Y0175395D01*
X0075533Y0175454D01*
X0075476Y0175516D01*
X0075423Y0175580D01*
X0075373Y0175648D01*
X0075326Y0175717D01*
X0075282Y0175788D01*
X0075242Y0175862D01*
X0075205Y0175937D01*
X0075172Y0176015D01*
X0075143Y0176093D01*
X0075117Y0176173D01*
X0075096Y0176254D01*
X0075078Y0176336D01*
X0075064Y0176418D01*
X0075054Y0176502D01*
X0075048Y0176585D01*
X0075046Y0176669D01*
X0076541Y0164740D02*
X0076541Y0158047D01*
X0088746Y0158047D01*
X0088746Y0164740D01*
X0076541Y0164740D01*
X0094297Y0167791D02*
X0094297Y0179996D01*
X0100990Y0179996D01*
X0100990Y0167791D01*
X0094297Y0167791D01*
X0094297Y0182791D02*
X0100990Y0182791D01*
X0100990Y0194996D01*
X0094297Y0194996D01*
X0094297Y0182791D01*
X0053205Y0191236D02*
X0053205Y0171551D01*
X0053203Y0171465D01*
X0053198Y0171379D01*
X0053188Y0171294D01*
X0053175Y0171209D01*
X0053158Y0171125D01*
X0053138Y0171041D01*
X0053114Y0170959D01*
X0053086Y0170878D01*
X0053055Y0170797D01*
X0053021Y0170719D01*
X0052983Y0170642D01*
X0052941Y0170567D01*
X0052897Y0170493D01*
X0052849Y0170422D01*
X0052798Y0170352D01*
X0052744Y0170285D01*
X0052688Y0170221D01*
X0052628Y0170159D01*
X0052566Y0170099D01*
X0052502Y0170043D01*
X0052435Y0169989D01*
X0052365Y0169938D01*
X0052294Y0169890D01*
X0052221Y0169846D01*
X0052145Y0169804D01*
X0052068Y0169766D01*
X0051990Y0169732D01*
X0051909Y0169701D01*
X0051828Y0169673D01*
X0051746Y0169649D01*
X0051662Y0169629D01*
X0051578Y0169612D01*
X0051493Y0169599D01*
X0051408Y0169589D01*
X0051322Y0169584D01*
X0051236Y0169582D01*
X0051236Y0169583D02*
X0031551Y0169583D01*
X0031551Y0169582D02*
X0031465Y0169584D01*
X0031379Y0169589D01*
X0031294Y0169599D01*
X0031209Y0169612D01*
X0031125Y0169629D01*
X0031041Y0169649D01*
X0030959Y0169673D01*
X0030878Y0169701D01*
X0030797Y0169732D01*
X0030719Y0169766D01*
X0030642Y0169804D01*
X0030566Y0169846D01*
X0030493Y0169890D01*
X0030422Y0169938D01*
X0030352Y0169989D01*
X0030285Y0170043D01*
X0030221Y0170099D01*
X0030159Y0170159D01*
X0030099Y0170221D01*
X0030043Y0170285D01*
X0029989Y0170352D01*
X0029938Y0170422D01*
X0029890Y0170493D01*
X0029846Y0170567D01*
X0029804Y0170642D01*
X0029766Y0170719D01*
X0029732Y0170797D01*
X0029701Y0170878D01*
X0029673Y0170959D01*
X0029649Y0171041D01*
X0029629Y0171125D01*
X0029612Y0171209D01*
X0029599Y0171294D01*
X0029589Y0171379D01*
X0029584Y0171465D01*
X0029582Y0171551D01*
X0029583Y0171551D02*
X0029583Y0191236D01*
X0029582Y0191236D02*
X0029584Y0191322D01*
X0029589Y0191408D01*
X0029599Y0191493D01*
X0029612Y0191578D01*
X0029629Y0191662D01*
X0029649Y0191746D01*
X0029673Y0191828D01*
X0029701Y0191909D01*
X0029732Y0191990D01*
X0029766Y0192068D01*
X0029804Y0192145D01*
X0029846Y0192221D01*
X0029890Y0192294D01*
X0029938Y0192365D01*
X0029989Y0192435D01*
X0030043Y0192502D01*
X0030099Y0192566D01*
X0030159Y0192628D01*
X0030221Y0192688D01*
X0030285Y0192744D01*
X0030352Y0192798D01*
X0030422Y0192849D01*
X0030493Y0192897D01*
X0030567Y0192941D01*
X0030642Y0192983D01*
X0030719Y0193021D01*
X0030797Y0193055D01*
X0030878Y0193086D01*
X0030959Y0193114D01*
X0031041Y0193138D01*
X0031125Y0193158D01*
X0031209Y0193175D01*
X0031294Y0193188D01*
X0031379Y0193198D01*
X0031465Y0193203D01*
X0031551Y0193205D01*
X0051236Y0193205D01*
X0051322Y0193203D01*
X0051408Y0193198D01*
X0051493Y0193188D01*
X0051578Y0193175D01*
X0051662Y0193158D01*
X0051746Y0193138D01*
X0051828Y0193114D01*
X0051909Y0193086D01*
X0051990Y0193055D01*
X0052068Y0193021D01*
X0052145Y0192983D01*
X0052221Y0192941D01*
X0052294Y0192897D01*
X0052365Y0192849D01*
X0052435Y0192798D01*
X0052502Y0192744D01*
X0052566Y0192688D01*
X0052628Y0192628D01*
X0052688Y0192566D01*
X0052744Y0192502D01*
X0052798Y0192435D01*
X0052849Y0192365D01*
X0052897Y0192294D01*
X0052941Y0192221D01*
X0052983Y0192145D01*
X0053021Y0192068D01*
X0053055Y0191990D01*
X0053086Y0191909D01*
X0053114Y0191828D01*
X0053138Y0191746D01*
X0053158Y0191662D01*
X0053175Y0191578D01*
X0053188Y0191493D01*
X0053198Y0191408D01*
X0053203Y0191322D01*
X0053205Y0191236D01*
X0034504Y0181394D02*
X0034506Y0181563D01*
X0034512Y0181732D01*
X0034523Y0181901D01*
X0034537Y0182069D01*
X0034556Y0182237D01*
X0034579Y0182405D01*
X0034605Y0182572D01*
X0034636Y0182738D01*
X0034671Y0182904D01*
X0034710Y0183068D01*
X0034754Y0183232D01*
X0034801Y0183394D01*
X0034852Y0183555D01*
X0034907Y0183715D01*
X0034966Y0183874D01*
X0035028Y0184031D01*
X0035095Y0184186D01*
X0035166Y0184340D01*
X0035240Y0184492D01*
X0035318Y0184642D01*
X0035399Y0184790D01*
X0035484Y0184936D01*
X0035573Y0185080D01*
X0035665Y0185222D01*
X0035761Y0185361D01*
X0035860Y0185498D01*
X0035962Y0185633D01*
X0036068Y0185765D01*
X0036177Y0185894D01*
X0036289Y0186021D01*
X0036404Y0186145D01*
X0036522Y0186266D01*
X0036643Y0186384D01*
X0036767Y0186499D01*
X0036894Y0186611D01*
X0037023Y0186720D01*
X0037155Y0186826D01*
X0037290Y0186928D01*
X0037427Y0187027D01*
X0037566Y0187123D01*
X0037708Y0187215D01*
X0037852Y0187304D01*
X0037998Y0187389D01*
X0038146Y0187470D01*
X0038296Y0187548D01*
X0038448Y0187622D01*
X0038602Y0187693D01*
X0038757Y0187760D01*
X0038914Y0187822D01*
X0039073Y0187881D01*
X0039233Y0187936D01*
X0039394Y0187987D01*
X0039556Y0188034D01*
X0039720Y0188078D01*
X0039884Y0188117D01*
X0040050Y0188152D01*
X0040216Y0188183D01*
X0040383Y0188209D01*
X0040551Y0188232D01*
X0040719Y0188251D01*
X0040887Y0188265D01*
X0041056Y0188276D01*
X0041225Y0188282D01*
X0041394Y0188284D01*
X0041563Y0188282D01*
X0041732Y0188276D01*
X0041901Y0188265D01*
X0042069Y0188251D01*
X0042237Y0188232D01*
X0042405Y0188209D01*
X0042572Y0188183D01*
X0042738Y0188152D01*
X0042904Y0188117D01*
X0043068Y0188078D01*
X0043232Y0188034D01*
X0043394Y0187987D01*
X0043555Y0187936D01*
X0043715Y0187881D01*
X0043874Y0187822D01*
X0044031Y0187760D01*
X0044186Y0187693D01*
X0044340Y0187622D01*
X0044492Y0187548D01*
X0044642Y0187470D01*
X0044790Y0187389D01*
X0044936Y0187304D01*
X0045080Y0187215D01*
X0045222Y0187123D01*
X0045361Y0187027D01*
X0045498Y0186928D01*
X0045633Y0186826D01*
X0045765Y0186720D01*
X0045894Y0186611D01*
X0046021Y0186499D01*
X0046145Y0186384D01*
X0046266Y0186266D01*
X0046384Y0186145D01*
X0046499Y0186021D01*
X0046611Y0185894D01*
X0046720Y0185765D01*
X0046826Y0185633D01*
X0046928Y0185498D01*
X0047027Y0185361D01*
X0047123Y0185222D01*
X0047215Y0185080D01*
X0047304Y0184936D01*
X0047389Y0184790D01*
X0047470Y0184642D01*
X0047548Y0184492D01*
X0047622Y0184340D01*
X0047693Y0184186D01*
X0047760Y0184031D01*
X0047822Y0183874D01*
X0047881Y0183715D01*
X0047936Y0183555D01*
X0047987Y0183394D01*
X0048034Y0183232D01*
X0048078Y0183068D01*
X0048117Y0182904D01*
X0048152Y0182738D01*
X0048183Y0182572D01*
X0048209Y0182405D01*
X0048232Y0182237D01*
X0048251Y0182069D01*
X0048265Y0181901D01*
X0048276Y0181732D01*
X0048282Y0181563D01*
X0048284Y0181394D01*
X0048282Y0181225D01*
X0048276Y0181056D01*
X0048265Y0180887D01*
X0048251Y0180719D01*
X0048232Y0180551D01*
X0048209Y0180383D01*
X0048183Y0180216D01*
X0048152Y0180050D01*
X0048117Y0179884D01*
X0048078Y0179720D01*
X0048034Y0179556D01*
X0047987Y0179394D01*
X0047936Y0179233D01*
X0047881Y0179073D01*
X0047822Y0178914D01*
X0047760Y0178757D01*
X0047693Y0178602D01*
X0047622Y0178448D01*
X0047548Y0178296D01*
X0047470Y0178146D01*
X0047389Y0177998D01*
X0047304Y0177852D01*
X0047215Y0177708D01*
X0047123Y0177566D01*
X0047027Y0177427D01*
X0046928Y0177290D01*
X0046826Y0177155D01*
X0046720Y0177023D01*
X0046611Y0176894D01*
X0046499Y0176767D01*
X0046384Y0176643D01*
X0046266Y0176522D01*
X0046145Y0176404D01*
X0046021Y0176289D01*
X0045894Y0176177D01*
X0045765Y0176068D01*
X0045633Y0175962D01*
X0045498Y0175860D01*
X0045361Y0175761D01*
X0045222Y0175665D01*
X0045080Y0175573D01*
X0044936Y0175484D01*
X0044790Y0175399D01*
X0044642Y0175318D01*
X0044492Y0175240D01*
X0044340Y0175166D01*
X0044186Y0175095D01*
X0044031Y0175028D01*
X0043874Y0174966D01*
X0043715Y0174907D01*
X0043555Y0174852D01*
X0043394Y0174801D01*
X0043232Y0174754D01*
X0043068Y0174710D01*
X0042904Y0174671D01*
X0042738Y0174636D01*
X0042572Y0174605D01*
X0042405Y0174579D01*
X0042237Y0174556D01*
X0042069Y0174537D01*
X0041901Y0174523D01*
X0041732Y0174512D01*
X0041563Y0174506D01*
X0041394Y0174504D01*
X0041225Y0174506D01*
X0041056Y0174512D01*
X0040887Y0174523D01*
X0040719Y0174537D01*
X0040551Y0174556D01*
X0040383Y0174579D01*
X0040216Y0174605D01*
X0040050Y0174636D01*
X0039884Y0174671D01*
X0039720Y0174710D01*
X0039556Y0174754D01*
X0039394Y0174801D01*
X0039233Y0174852D01*
X0039073Y0174907D01*
X0038914Y0174966D01*
X0038757Y0175028D01*
X0038602Y0175095D01*
X0038448Y0175166D01*
X0038296Y0175240D01*
X0038146Y0175318D01*
X0037998Y0175399D01*
X0037852Y0175484D01*
X0037708Y0175573D01*
X0037566Y0175665D01*
X0037427Y0175761D01*
X0037290Y0175860D01*
X0037155Y0175962D01*
X0037023Y0176068D01*
X0036894Y0176177D01*
X0036767Y0176289D01*
X0036643Y0176404D01*
X0036522Y0176522D01*
X0036404Y0176643D01*
X0036289Y0176767D01*
X0036177Y0176894D01*
X0036068Y0177023D01*
X0035962Y0177155D01*
X0035860Y0177290D01*
X0035761Y0177427D01*
X0035665Y0177566D01*
X0035573Y0177708D01*
X0035484Y0177852D01*
X0035399Y0177998D01*
X0035318Y0178146D01*
X0035240Y0178296D01*
X0035166Y0178448D01*
X0035095Y0178602D01*
X0035028Y0178757D01*
X0034966Y0178914D01*
X0034907Y0179073D01*
X0034852Y0179233D01*
X0034801Y0179394D01*
X0034754Y0179556D01*
X0034710Y0179720D01*
X0034671Y0179884D01*
X0034636Y0180050D01*
X0034605Y0180216D01*
X0034579Y0180383D01*
X0034556Y0180551D01*
X0034537Y0180719D01*
X0034523Y0180887D01*
X0034512Y0181056D01*
X0034506Y0181225D01*
X0034504Y0181394D01*
X0049041Y0135990D02*
X0049041Y0129297D01*
X0061246Y0129297D01*
X0061246Y0135990D01*
X0049041Y0135990D01*
X0047240Y0129996D02*
X0040547Y0129996D01*
X0040547Y0117791D01*
X0047240Y0117791D01*
X0047240Y0129996D01*
X0048195Y0120980D02*
X0067093Y0120980D01*
X0067093Y0106807D01*
X0048195Y0106807D01*
X0048195Y0120980D01*
X0048796Y0109169D02*
X0048798Y0109253D01*
X0048804Y0109336D01*
X0048814Y0109420D01*
X0048828Y0109502D01*
X0048846Y0109584D01*
X0048867Y0109665D01*
X0048893Y0109745D01*
X0048922Y0109823D01*
X0048955Y0109901D01*
X0048992Y0109976D01*
X0049032Y0110049D01*
X0049076Y0110121D01*
X0049123Y0110190D01*
X0049173Y0110258D01*
X0049226Y0110322D01*
X0049283Y0110384D01*
X0049342Y0110443D01*
X0049404Y0110500D01*
X0049468Y0110553D01*
X0049536Y0110603D01*
X0049605Y0110650D01*
X0049676Y0110694D01*
X0049750Y0110734D01*
X0049825Y0110771D01*
X0049903Y0110804D01*
X0049981Y0110833D01*
X0050061Y0110859D01*
X0050142Y0110880D01*
X0050224Y0110898D01*
X0050306Y0110912D01*
X0050390Y0110922D01*
X0050473Y0110928D01*
X0050557Y0110930D01*
X0050641Y0110928D01*
X0050724Y0110922D01*
X0050808Y0110912D01*
X0050890Y0110898D01*
X0050972Y0110880D01*
X0051053Y0110859D01*
X0051133Y0110833D01*
X0051211Y0110804D01*
X0051289Y0110771D01*
X0051364Y0110734D01*
X0051437Y0110694D01*
X0051509Y0110650D01*
X0051578Y0110603D01*
X0051646Y0110553D01*
X0051710Y0110500D01*
X0051772Y0110443D01*
X0051831Y0110384D01*
X0051888Y0110322D01*
X0051941Y0110258D01*
X0051991Y0110190D01*
X0052038Y0110121D01*
X0052082Y0110050D01*
X0052122Y0109976D01*
X0052159Y0109901D01*
X0052192Y0109823D01*
X0052221Y0109745D01*
X0052247Y0109665D01*
X0052268Y0109584D01*
X0052286Y0109502D01*
X0052300Y0109420D01*
X0052310Y0109336D01*
X0052316Y0109253D01*
X0052318Y0109169D01*
X0052316Y0109085D01*
X0052310Y0109002D01*
X0052300Y0108918D01*
X0052286Y0108836D01*
X0052268Y0108754D01*
X0052247Y0108673D01*
X0052221Y0108593D01*
X0052192Y0108515D01*
X0052159Y0108437D01*
X0052122Y0108362D01*
X0052082Y0108289D01*
X0052038Y0108217D01*
X0051991Y0108148D01*
X0051941Y0108080D01*
X0051888Y0108016D01*
X0051831Y0107954D01*
X0051772Y0107895D01*
X0051710Y0107838D01*
X0051646Y0107785D01*
X0051578Y0107735D01*
X0051509Y0107688D01*
X0051438Y0107644D01*
X0051364Y0107604D01*
X0051289Y0107567D01*
X0051211Y0107534D01*
X0051133Y0107505D01*
X0051053Y0107479D01*
X0050972Y0107458D01*
X0050890Y0107440D01*
X0050808Y0107426D01*
X0050724Y0107416D01*
X0050641Y0107410D01*
X0050557Y0107408D01*
X0050473Y0107410D01*
X0050390Y0107416D01*
X0050306Y0107426D01*
X0050224Y0107440D01*
X0050142Y0107458D01*
X0050061Y0107479D01*
X0049981Y0107505D01*
X0049903Y0107534D01*
X0049825Y0107567D01*
X0049750Y0107604D01*
X0049677Y0107644D01*
X0049605Y0107688D01*
X0049536Y0107735D01*
X0049468Y0107785D01*
X0049404Y0107838D01*
X0049342Y0107895D01*
X0049283Y0107954D01*
X0049226Y0108016D01*
X0049173Y0108080D01*
X0049123Y0108148D01*
X0049076Y0108217D01*
X0049032Y0108288D01*
X0048992Y0108362D01*
X0048955Y0108437D01*
X0048922Y0108515D01*
X0048893Y0108593D01*
X0048867Y0108673D01*
X0048846Y0108754D01*
X0048828Y0108836D01*
X0048814Y0108918D01*
X0048804Y0109002D01*
X0048798Y0109085D01*
X0048796Y0109169D01*
X0068047Y0113121D02*
X0068047Y0100916D01*
X0074740Y0100916D01*
X0074740Y0113121D01*
X0068047Y0113121D01*
X0068047Y0114666D02*
X0074740Y0114666D01*
X0074740Y0126871D01*
X0068047Y0126871D01*
X0068047Y0114666D01*
X0088047Y0109041D02*
X0094740Y0109041D01*
X0094740Y0121246D01*
X0088047Y0121246D01*
X0088047Y0109041D01*
X0096315Y0106807D02*
X0096315Y0120980D01*
X0136472Y0120980D01*
X0136472Y0106807D01*
X0096315Y0106807D01*
X0097303Y0109563D02*
X0097305Y0109646D01*
X0097311Y0109730D01*
X0097321Y0109813D01*
X0097334Y0109895D01*
X0097352Y0109977D01*
X0097374Y0110057D01*
X0097399Y0110137D01*
X0097428Y0110215D01*
X0097460Y0110292D01*
X0097497Y0110368D01*
X0097536Y0110441D01*
X0097580Y0110512D01*
X0097626Y0110582D01*
X0097676Y0110649D01*
X0097729Y0110714D01*
X0097784Y0110776D01*
X0097843Y0110835D01*
X0097905Y0110892D01*
X0097969Y0110945D01*
X0098035Y0110996D01*
X0098104Y0111043D01*
X0098175Y0111087D01*
X0098248Y0111128D01*
X0098323Y0111165D01*
X0098399Y0111198D01*
X0098477Y0111228D01*
X0098557Y0111254D01*
X0098637Y0111277D01*
X0098718Y0111295D01*
X0098801Y0111310D01*
X0098883Y0111321D01*
X0098967Y0111328D01*
X0099050Y0111331D01*
X0099134Y0111330D01*
X0099217Y0111325D01*
X0099300Y0111316D01*
X0099383Y0111303D01*
X0099464Y0111287D01*
X0099545Y0111266D01*
X0099625Y0111242D01*
X0099704Y0111214D01*
X0099781Y0111182D01*
X0099857Y0111147D01*
X0099931Y0111108D01*
X0100003Y0111066D01*
X0100073Y0111020D01*
X0100140Y0110971D01*
X0100206Y0110919D01*
X0100268Y0110864D01*
X0100329Y0110806D01*
X0100386Y0110745D01*
X0100440Y0110682D01*
X0100491Y0110616D01*
X0100540Y0110547D01*
X0100584Y0110477D01*
X0100626Y0110404D01*
X0100664Y0110330D01*
X0100698Y0110254D01*
X0100729Y0110176D01*
X0100756Y0110097D01*
X0100780Y0110017D01*
X0100799Y0109936D01*
X0100815Y0109854D01*
X0100827Y0109771D01*
X0100835Y0109688D01*
X0100839Y0109605D01*
X0100839Y0109521D01*
X0100835Y0109438D01*
X0100827Y0109355D01*
X0100815Y0109272D01*
X0100799Y0109190D01*
X0100780Y0109109D01*
X0100756Y0109029D01*
X0100729Y0108950D01*
X0100698Y0108872D01*
X0100664Y0108796D01*
X0100626Y0108722D01*
X0100584Y0108649D01*
X0100540Y0108579D01*
X0100491Y0108510D01*
X0100440Y0108444D01*
X0100386Y0108381D01*
X0100329Y0108320D01*
X0100268Y0108262D01*
X0100206Y0108207D01*
X0100140Y0108155D01*
X0100073Y0108106D01*
X0100003Y0108060D01*
X0099931Y0108018D01*
X0099857Y0107979D01*
X0099781Y0107944D01*
X0099704Y0107912D01*
X0099625Y0107884D01*
X0099545Y0107860D01*
X0099464Y0107839D01*
X0099383Y0107823D01*
X0099300Y0107810D01*
X0099217Y0107801D01*
X0099134Y0107796D01*
X0099050Y0107795D01*
X0098967Y0107798D01*
X0098883Y0107805D01*
X0098801Y0107816D01*
X0098718Y0107831D01*
X0098637Y0107849D01*
X0098557Y0107872D01*
X0098477Y0107898D01*
X0098399Y0107928D01*
X0098323Y0107961D01*
X0098248Y0107998D01*
X0098175Y0108039D01*
X0098104Y0108083D01*
X0098035Y0108130D01*
X0097969Y0108181D01*
X0097905Y0108234D01*
X0097843Y0108291D01*
X0097784Y0108350D01*
X0097729Y0108412D01*
X0097676Y0108477D01*
X0097626Y0108544D01*
X0097580Y0108614D01*
X0097536Y0108685D01*
X0097497Y0108758D01*
X0097460Y0108834D01*
X0097428Y0108911D01*
X0097399Y0108989D01*
X0097374Y0109069D01*
X0097352Y0109149D01*
X0097334Y0109231D01*
X0097321Y0109313D01*
X0097311Y0109396D01*
X0097305Y0109480D01*
X0097303Y0109563D01*
X0101246Y0097240D02*
X0089041Y0097240D01*
X0089041Y0090547D01*
X0101246Y0090547D01*
X0101246Y0097240D01*
X0101246Y0089740D02*
X0089041Y0089740D01*
X0089041Y0083047D01*
X0101246Y0083047D01*
X0101246Y0089740D01*
X0101246Y0082240D02*
X0089041Y0082240D01*
X0089041Y0075547D01*
X0101246Y0075547D01*
X0101246Y0082240D01*
X0101246Y0074740D02*
X0089041Y0074740D01*
X0089041Y0068047D01*
X0101246Y0068047D01*
X0101246Y0074740D01*
X0094898Y0066354D02*
X0108677Y0066354D01*
X0108677Y0058480D02*
X0122457Y0058480D01*
X0122457Y0050606D02*
X0108677Y0050606D01*
X0108677Y0030921D01*
X0094898Y0030921D02*
X0094898Y0050606D01*
X0108677Y0050606D01*
X0094898Y0050606D02*
X0081118Y0050606D01*
X0081118Y0058480D02*
X0094898Y0058480D01*
X0122457Y0050606D02*
X0122457Y0030921D01*
X0136236Y0030921D02*
X0136236Y0050606D01*
X0150016Y0050606D01*
X0150016Y0030921D01*
X0163795Y0030921D02*
X0163795Y0050606D01*
X0177575Y0050606D01*
X0177575Y0030921D01*
X0191354Y0030921D02*
X0191354Y0050606D01*
X0191354Y0058480D01*
X0191354Y0066354D01*
X0177575Y0066354D01*
X0177575Y0058480D01*
X0191354Y0058480D01*
X0205134Y0058480D01*
X0205134Y0066354D01*
X0191354Y0066354D01*
X0177575Y0066354D02*
X0163795Y0066354D01*
X0163795Y0058480D01*
X0177575Y0058480D01*
X0177575Y0050606D02*
X0191354Y0050606D01*
X0205134Y0050606D01*
X0205134Y0030921D01*
X0218913Y0030921D02*
X0218913Y0050606D01*
X0232339Y0050606D01*
X0232339Y0030921D01*
X0246472Y0030921D02*
X0246472Y0050606D01*
X0260252Y0050606D01*
X0260252Y0030921D01*
X0274031Y0030921D02*
X0274031Y0050606D01*
X0287811Y0050606D01*
X0287811Y0030921D01*
X0301591Y0030921D02*
X0301591Y0050606D01*
X0315370Y0050606D01*
X0315370Y0030921D01*
X0315370Y0050606D02*
X0315370Y0058480D01*
X0260252Y0058480D01*
X0260252Y0066354D01*
X0246472Y0066354D01*
X0246472Y0058480D01*
X0260252Y0058480D01*
X0260252Y0050606D02*
X0274031Y0050606D01*
X0287811Y0050606D02*
X0301591Y0050606D01*
X0315291Y0073047D02*
X0315291Y0079740D01*
X0327496Y0079740D01*
X0327496Y0073047D01*
X0315291Y0073047D01*
X0315291Y0080547D02*
X0315291Y0087240D01*
X0327496Y0087240D01*
X0327496Y0080547D01*
X0315291Y0080547D01*
X0315291Y0088047D02*
X0315291Y0094740D01*
X0327496Y0094740D01*
X0327496Y0088047D01*
X0315291Y0088047D01*
X0333047Y0082791D02*
X0339740Y0082791D01*
X0339740Y0094996D01*
X0333047Y0094996D01*
X0333047Y0082791D01*
X0333047Y0096541D02*
X0339740Y0096541D01*
X0339740Y0108746D01*
X0333047Y0108746D01*
X0333047Y0096541D01*
X0340547Y0096541D02*
X0347240Y0096541D01*
X0347240Y0108746D01*
X0340547Y0108746D01*
X0340547Y0096541D01*
X0348969Y0091276D02*
X0351969Y0091276D01*
X0350469Y0092776D02*
X0350469Y0089776D01*
X0348146Y0091394D02*
X0348151Y0091780D01*
X0348165Y0092167D01*
X0348189Y0092552D01*
X0348222Y0092938D01*
X0348264Y0093322D01*
X0348316Y0093705D01*
X0348378Y0094086D01*
X0348449Y0094466D01*
X0348529Y0094844D01*
X0348618Y0095220D01*
X0348716Y0095594D01*
X0348824Y0095965D01*
X0348941Y0096334D01*
X0349067Y0096699D01*
X0349201Y0097062D01*
X0349345Y0097420D01*
X0349497Y0097776D01*
X0349658Y0098127D01*
X0349828Y0098474D01*
X0350006Y0098818D01*
X0350192Y0099156D01*
X0350386Y0099490D01*
X0350589Y0099819D01*
X0350800Y0100143D01*
X0351019Y0100462D01*
X0351245Y0100775D01*
X0351479Y0101083D01*
X0351721Y0101384D01*
X0351969Y0101680D01*
X0352226Y0101970D01*
X0352489Y0102253D01*
X0352758Y0102530D01*
X0353035Y0102799D01*
X0353318Y0103062D01*
X0353608Y0103319D01*
X0353904Y0103567D01*
X0354205Y0103809D01*
X0354513Y0104043D01*
X0354826Y0104269D01*
X0355145Y0104488D01*
X0355469Y0104699D01*
X0355798Y0104902D01*
X0356132Y0105096D01*
X0356470Y0105282D01*
X0356814Y0105460D01*
X0357161Y0105630D01*
X0357512Y0105791D01*
X0357868Y0105943D01*
X0358226Y0106087D01*
X0358589Y0106221D01*
X0358954Y0106347D01*
X0359323Y0106464D01*
X0359694Y0106572D01*
X0360068Y0106670D01*
X0360444Y0106759D01*
X0360822Y0106839D01*
X0361202Y0106910D01*
X0361583Y0106972D01*
X0361966Y0107024D01*
X0362350Y0107066D01*
X0362736Y0107099D01*
X0363121Y0107123D01*
X0363508Y0107137D01*
X0363894Y0107142D01*
X0364280Y0107137D01*
X0364667Y0107123D01*
X0365052Y0107099D01*
X0365438Y0107066D01*
X0365822Y0107024D01*
X0366205Y0106972D01*
X0366586Y0106910D01*
X0366966Y0106839D01*
X0367344Y0106759D01*
X0367720Y0106670D01*
X0368094Y0106572D01*
X0368465Y0106464D01*
X0368834Y0106347D01*
X0369199Y0106221D01*
X0369562Y0106087D01*
X0369920Y0105943D01*
X0370276Y0105791D01*
X0370627Y0105630D01*
X0370974Y0105460D01*
X0371318Y0105282D01*
X0371656Y0105096D01*
X0371990Y0104902D01*
X0372319Y0104699D01*
X0372643Y0104488D01*
X0372962Y0104269D01*
X0373275Y0104043D01*
X0373583Y0103809D01*
X0373884Y0103567D01*
X0374180Y0103319D01*
X0374470Y0103062D01*
X0374753Y0102799D01*
X0375030Y0102530D01*
X0375299Y0102253D01*
X0375562Y0101970D01*
X0375819Y0101680D01*
X0376067Y0101384D01*
X0376309Y0101083D01*
X0376543Y0100775D01*
X0376769Y0100462D01*
X0376988Y0100143D01*
X0377199Y0099819D01*
X0377402Y0099490D01*
X0377596Y0099156D01*
X0377782Y0098818D01*
X0377960Y0098474D01*
X0378130Y0098127D01*
X0378291Y0097776D01*
X0378443Y0097420D01*
X0378587Y0097062D01*
X0378721Y0096699D01*
X0378847Y0096334D01*
X0378964Y0095965D01*
X0379072Y0095594D01*
X0379170Y0095220D01*
X0379259Y0094844D01*
X0379339Y0094466D01*
X0379410Y0094086D01*
X0379472Y0093705D01*
X0379524Y0093322D01*
X0379566Y0092938D01*
X0379599Y0092552D01*
X0379623Y0092167D01*
X0379637Y0091780D01*
X0379642Y0091394D01*
X0379637Y0091008D01*
X0379623Y0090621D01*
X0379599Y0090236D01*
X0379566Y0089850D01*
X0379524Y0089466D01*
X0379472Y0089083D01*
X0379410Y0088702D01*
X0379339Y0088322D01*
X0379259Y0087944D01*
X0379170Y0087568D01*
X0379072Y0087194D01*
X0378964Y0086823D01*
X0378847Y0086454D01*
X0378721Y0086089D01*
X0378587Y0085726D01*
X0378443Y0085368D01*
X0378291Y0085012D01*
X0378130Y0084661D01*
X0377960Y0084314D01*
X0377782Y0083970D01*
X0377596Y0083632D01*
X0377402Y0083298D01*
X0377199Y0082969D01*
X0376988Y0082645D01*
X0376769Y0082326D01*
X0376543Y0082013D01*
X0376309Y0081705D01*
X0376067Y0081404D01*
X0375819Y0081108D01*
X0375562Y0080818D01*
X0375299Y0080535D01*
X0375030Y0080258D01*
X0374753Y0079989D01*
X0374470Y0079726D01*
X0374180Y0079469D01*
X0373884Y0079221D01*
X0373583Y0078979D01*
X0373275Y0078745D01*
X0372962Y0078519D01*
X0372643Y0078300D01*
X0372319Y0078089D01*
X0371990Y0077886D01*
X0371656Y0077692D01*
X0371318Y0077506D01*
X0370974Y0077328D01*
X0370627Y0077158D01*
X0370276Y0076997D01*
X0369920Y0076845D01*
X0369562Y0076701D01*
X0369199Y0076567D01*
X0368834Y0076441D01*
X0368465Y0076324D01*
X0368094Y0076216D01*
X0367720Y0076118D01*
X0367344Y0076029D01*
X0366966Y0075949D01*
X0366586Y0075878D01*
X0366205Y0075816D01*
X0365822Y0075764D01*
X0365438Y0075722D01*
X0365052Y0075689D01*
X0364667Y0075665D01*
X0364280Y0075651D01*
X0363894Y0075646D01*
X0363508Y0075651D01*
X0363121Y0075665D01*
X0362736Y0075689D01*
X0362350Y0075722D01*
X0361966Y0075764D01*
X0361583Y0075816D01*
X0361202Y0075878D01*
X0360822Y0075949D01*
X0360444Y0076029D01*
X0360068Y0076118D01*
X0359694Y0076216D01*
X0359323Y0076324D01*
X0358954Y0076441D01*
X0358589Y0076567D01*
X0358226Y0076701D01*
X0357868Y0076845D01*
X0357512Y0076997D01*
X0357161Y0077158D01*
X0356814Y0077328D01*
X0356470Y0077506D01*
X0356132Y0077692D01*
X0355798Y0077886D01*
X0355469Y0078089D01*
X0355145Y0078300D01*
X0354826Y0078519D01*
X0354513Y0078745D01*
X0354205Y0078979D01*
X0353904Y0079221D01*
X0353608Y0079469D01*
X0353318Y0079726D01*
X0353035Y0079989D01*
X0352758Y0080258D01*
X0352489Y0080535D01*
X0352226Y0080818D01*
X0351969Y0081108D01*
X0351721Y0081404D01*
X0351479Y0081705D01*
X0351245Y0082013D01*
X0351019Y0082326D01*
X0350800Y0082645D01*
X0350589Y0082969D01*
X0350386Y0083298D01*
X0350192Y0083632D01*
X0350006Y0083970D01*
X0349828Y0084314D01*
X0349658Y0084661D01*
X0349497Y0085012D01*
X0349345Y0085368D01*
X0349201Y0085726D01*
X0349067Y0086089D01*
X0348941Y0086454D01*
X0348824Y0086823D01*
X0348716Y0087194D01*
X0348618Y0087568D01*
X0348529Y0087944D01*
X0348449Y0088322D01*
X0348378Y0088702D01*
X0348316Y0089083D01*
X0348264Y0089466D01*
X0348222Y0089850D01*
X0348189Y0090236D01*
X0348165Y0090621D01*
X0348151Y0091008D01*
X0348146Y0091394D01*
X0367791Y0108047D02*
X0379996Y0108047D01*
X0379996Y0114740D01*
X0367791Y0114740D01*
X0367791Y0108047D01*
X0367791Y0115547D02*
X0379996Y0115547D01*
X0379996Y0122240D01*
X0367791Y0122240D01*
X0367791Y0115547D01*
X0367181Y0124031D02*
X0364031Y0126394D01*
X0367181Y0128756D01*
X0367181Y0124031D01*
X0364031Y0124031D01*
X0364031Y0128756D01*
X0367181Y0128756D01*
X0373874Y0128756D01*
X0373874Y0124031D01*
X0367181Y0124031D01*
X0364031Y0124031D02*
X0358913Y0124031D01*
X0358913Y0128756D01*
X0364031Y0128756D01*
X0359041Y0130547D02*
X0371246Y0130547D01*
X0371246Y0137240D01*
X0359041Y0137240D01*
X0359041Y0130547D01*
X0357093Y0132599D02*
X0357093Y0123938D01*
X0338195Y0123938D01*
X0338195Y0132599D01*
X0357093Y0132599D01*
X0357093Y0133938D02*
X0357093Y0142599D01*
X0338195Y0142599D01*
X0338195Y0133938D01*
X0357093Y0133938D01*
X0357762Y0122299D02*
X0347526Y0122299D01*
X0347526Y0110488D01*
X0357762Y0110488D01*
X0357762Y0122299D01*
X0354655Y0112150D02*
X0354657Y0112225D01*
X0354663Y0112299D01*
X0354673Y0112373D01*
X0354686Y0112446D01*
X0354704Y0112519D01*
X0354725Y0112590D01*
X0354750Y0112661D01*
X0354779Y0112730D01*
X0354812Y0112797D01*
X0354848Y0112862D01*
X0354887Y0112926D01*
X0354929Y0112987D01*
X0354975Y0113046D01*
X0355024Y0113103D01*
X0355076Y0113156D01*
X0355130Y0113207D01*
X0355187Y0113256D01*
X0355247Y0113300D01*
X0355309Y0113342D01*
X0355373Y0113381D01*
X0355439Y0113416D01*
X0355506Y0113447D01*
X0355576Y0113475D01*
X0355646Y0113499D01*
X0355718Y0113520D01*
X0355791Y0113536D01*
X0355864Y0113549D01*
X0355939Y0113558D01*
X0356013Y0113563D01*
X0356088Y0113564D01*
X0356162Y0113561D01*
X0356237Y0113554D01*
X0356310Y0113543D01*
X0356384Y0113529D01*
X0356456Y0113510D01*
X0356527Y0113488D01*
X0356597Y0113462D01*
X0356666Y0113432D01*
X0356732Y0113399D01*
X0356797Y0113362D01*
X0356860Y0113322D01*
X0356921Y0113278D01*
X0356979Y0113232D01*
X0357035Y0113182D01*
X0357088Y0113130D01*
X0357139Y0113075D01*
X0357186Y0113017D01*
X0357230Y0112957D01*
X0357271Y0112894D01*
X0357309Y0112830D01*
X0357343Y0112764D01*
X0357374Y0112695D01*
X0357401Y0112626D01*
X0357424Y0112555D01*
X0357443Y0112483D01*
X0357459Y0112410D01*
X0357471Y0112336D01*
X0357479Y0112262D01*
X0357483Y0112187D01*
X0357483Y0112113D01*
X0357479Y0112038D01*
X0357471Y0111964D01*
X0357459Y0111890D01*
X0357443Y0111817D01*
X0357424Y0111745D01*
X0357401Y0111674D01*
X0357374Y0111605D01*
X0357343Y0111536D01*
X0357309Y0111470D01*
X0357271Y0111406D01*
X0357230Y0111343D01*
X0357186Y0111283D01*
X0357139Y0111225D01*
X0357088Y0111170D01*
X0357035Y0111118D01*
X0356979Y0111068D01*
X0356921Y0111022D01*
X0356860Y0110978D01*
X0356797Y0110938D01*
X0356732Y0110901D01*
X0356666Y0110868D01*
X0356597Y0110838D01*
X0356527Y0110812D01*
X0356456Y0110790D01*
X0356384Y0110771D01*
X0356310Y0110757D01*
X0356237Y0110746D01*
X0356162Y0110739D01*
X0356088Y0110736D01*
X0356013Y0110737D01*
X0355939Y0110742D01*
X0355864Y0110751D01*
X0355791Y0110764D01*
X0355718Y0110780D01*
X0355646Y0110801D01*
X0355576Y0110825D01*
X0355506Y0110853D01*
X0355439Y0110884D01*
X0355373Y0110919D01*
X0355309Y0110958D01*
X0355247Y0111000D01*
X0355187Y0111044D01*
X0355130Y0111093D01*
X0355076Y0111144D01*
X0355024Y0111197D01*
X0354975Y0111254D01*
X0354929Y0111313D01*
X0354887Y0111374D01*
X0354848Y0111438D01*
X0354812Y0111503D01*
X0354779Y0111570D01*
X0354750Y0111639D01*
X0354725Y0111710D01*
X0354704Y0111781D01*
X0354686Y0111854D01*
X0354673Y0111927D01*
X0354663Y0112001D01*
X0354657Y0112075D01*
X0354655Y0112150D01*
X0339740Y0110291D02*
X0339740Y0122496D01*
X0333047Y0122496D01*
X0333047Y0110291D01*
X0339740Y0110291D01*
X0328490Y0135291D02*
X0321797Y0135291D01*
X0321797Y0147496D01*
X0328490Y0147496D01*
X0328490Y0135291D01*
X0319371Y0157880D02*
X0307166Y0157880D01*
X0307166Y0164573D01*
X0319371Y0164573D01*
X0319371Y0157880D01*
X0305621Y0157880D02*
X0305621Y0164573D01*
X0293416Y0164573D01*
X0293416Y0157880D01*
X0305621Y0157880D01*
X0318972Y0174307D02*
X0278815Y0174307D01*
X0278815Y0188480D01*
X0318972Y0188480D01*
X0318972Y0174307D01*
X0348969Y0159401D02*
X0351969Y0159401D01*
X0350469Y0160901D02*
X0350469Y0157901D01*
X0348146Y0159519D02*
X0348151Y0159905D01*
X0348165Y0160292D01*
X0348189Y0160677D01*
X0348222Y0161063D01*
X0348264Y0161447D01*
X0348316Y0161830D01*
X0348378Y0162211D01*
X0348449Y0162591D01*
X0348529Y0162969D01*
X0348618Y0163345D01*
X0348716Y0163719D01*
X0348824Y0164090D01*
X0348941Y0164459D01*
X0349067Y0164824D01*
X0349201Y0165187D01*
X0349345Y0165545D01*
X0349497Y0165901D01*
X0349658Y0166252D01*
X0349828Y0166599D01*
X0350006Y0166943D01*
X0350192Y0167281D01*
X0350386Y0167615D01*
X0350589Y0167944D01*
X0350800Y0168268D01*
X0351019Y0168587D01*
X0351245Y0168900D01*
X0351479Y0169208D01*
X0351721Y0169509D01*
X0351969Y0169805D01*
X0352226Y0170095D01*
X0352489Y0170378D01*
X0352758Y0170655D01*
X0353035Y0170924D01*
X0353318Y0171187D01*
X0353608Y0171444D01*
X0353904Y0171692D01*
X0354205Y0171934D01*
X0354513Y0172168D01*
X0354826Y0172394D01*
X0355145Y0172613D01*
X0355469Y0172824D01*
X0355798Y0173027D01*
X0356132Y0173221D01*
X0356470Y0173407D01*
X0356814Y0173585D01*
X0357161Y0173755D01*
X0357512Y0173916D01*
X0357868Y0174068D01*
X0358226Y0174212D01*
X0358589Y0174346D01*
X0358954Y0174472D01*
X0359323Y0174589D01*
X0359694Y0174697D01*
X0360068Y0174795D01*
X0360444Y0174884D01*
X0360822Y0174964D01*
X0361202Y0175035D01*
X0361583Y0175097D01*
X0361966Y0175149D01*
X0362350Y0175191D01*
X0362736Y0175224D01*
X0363121Y0175248D01*
X0363508Y0175262D01*
X0363894Y0175267D01*
X0364280Y0175262D01*
X0364667Y0175248D01*
X0365052Y0175224D01*
X0365438Y0175191D01*
X0365822Y0175149D01*
X0366205Y0175097D01*
X0366586Y0175035D01*
X0366966Y0174964D01*
X0367344Y0174884D01*
X0367720Y0174795D01*
X0368094Y0174697D01*
X0368465Y0174589D01*
X0368834Y0174472D01*
X0369199Y0174346D01*
X0369562Y0174212D01*
X0369920Y0174068D01*
X0370276Y0173916D01*
X0370627Y0173755D01*
X0370974Y0173585D01*
X0371318Y0173407D01*
X0371656Y0173221D01*
X0371990Y0173027D01*
X0372319Y0172824D01*
X0372643Y0172613D01*
X0372962Y0172394D01*
X0373275Y0172168D01*
X0373583Y0171934D01*
X0373884Y0171692D01*
X0374180Y0171444D01*
X0374470Y0171187D01*
X0374753Y0170924D01*
X0375030Y0170655D01*
X0375299Y0170378D01*
X0375562Y0170095D01*
X0375819Y0169805D01*
X0376067Y0169509D01*
X0376309Y0169208D01*
X0376543Y0168900D01*
X0376769Y0168587D01*
X0376988Y0168268D01*
X0377199Y0167944D01*
X0377402Y0167615D01*
X0377596Y0167281D01*
X0377782Y0166943D01*
X0377960Y0166599D01*
X0378130Y0166252D01*
X0378291Y0165901D01*
X0378443Y0165545D01*
X0378587Y0165187D01*
X0378721Y0164824D01*
X0378847Y0164459D01*
X0378964Y0164090D01*
X0379072Y0163719D01*
X0379170Y0163345D01*
X0379259Y0162969D01*
X0379339Y0162591D01*
X0379410Y0162211D01*
X0379472Y0161830D01*
X0379524Y0161447D01*
X0379566Y0161063D01*
X0379599Y0160677D01*
X0379623Y0160292D01*
X0379637Y0159905D01*
X0379642Y0159519D01*
X0379637Y0159133D01*
X0379623Y0158746D01*
X0379599Y0158361D01*
X0379566Y0157975D01*
X0379524Y0157591D01*
X0379472Y0157208D01*
X0379410Y0156827D01*
X0379339Y0156447D01*
X0379259Y0156069D01*
X0379170Y0155693D01*
X0379072Y0155319D01*
X0378964Y0154948D01*
X0378847Y0154579D01*
X0378721Y0154214D01*
X0378587Y0153851D01*
X0378443Y0153493D01*
X0378291Y0153137D01*
X0378130Y0152786D01*
X0377960Y0152439D01*
X0377782Y0152095D01*
X0377596Y0151757D01*
X0377402Y0151423D01*
X0377199Y0151094D01*
X0376988Y0150770D01*
X0376769Y0150451D01*
X0376543Y0150138D01*
X0376309Y0149830D01*
X0376067Y0149529D01*
X0375819Y0149233D01*
X0375562Y0148943D01*
X0375299Y0148660D01*
X0375030Y0148383D01*
X0374753Y0148114D01*
X0374470Y0147851D01*
X0374180Y0147594D01*
X0373884Y0147346D01*
X0373583Y0147104D01*
X0373275Y0146870D01*
X0372962Y0146644D01*
X0372643Y0146425D01*
X0372319Y0146214D01*
X0371990Y0146011D01*
X0371656Y0145817D01*
X0371318Y0145631D01*
X0370974Y0145453D01*
X0370627Y0145283D01*
X0370276Y0145122D01*
X0369920Y0144970D01*
X0369562Y0144826D01*
X0369199Y0144692D01*
X0368834Y0144566D01*
X0368465Y0144449D01*
X0368094Y0144341D01*
X0367720Y0144243D01*
X0367344Y0144154D01*
X0366966Y0144074D01*
X0366586Y0144003D01*
X0366205Y0143941D01*
X0365822Y0143889D01*
X0365438Y0143847D01*
X0365052Y0143814D01*
X0364667Y0143790D01*
X0364280Y0143776D01*
X0363894Y0143771D01*
X0363508Y0143776D01*
X0363121Y0143790D01*
X0362736Y0143814D01*
X0362350Y0143847D01*
X0361966Y0143889D01*
X0361583Y0143941D01*
X0361202Y0144003D01*
X0360822Y0144074D01*
X0360444Y0144154D01*
X0360068Y0144243D01*
X0359694Y0144341D01*
X0359323Y0144449D01*
X0358954Y0144566D01*
X0358589Y0144692D01*
X0358226Y0144826D01*
X0357868Y0144970D01*
X0357512Y0145122D01*
X0357161Y0145283D01*
X0356814Y0145453D01*
X0356470Y0145631D01*
X0356132Y0145817D01*
X0355798Y0146011D01*
X0355469Y0146214D01*
X0355145Y0146425D01*
X0354826Y0146644D01*
X0354513Y0146870D01*
X0354205Y0147104D01*
X0353904Y0147346D01*
X0353608Y0147594D01*
X0353318Y0147851D01*
X0353035Y0148114D01*
X0352758Y0148383D01*
X0352489Y0148660D01*
X0352226Y0148943D01*
X0351969Y0149233D01*
X0351721Y0149529D01*
X0351479Y0149830D01*
X0351245Y0150138D01*
X0351019Y0150451D01*
X0350800Y0150770D01*
X0350589Y0151094D01*
X0350386Y0151423D01*
X0350192Y0151757D01*
X0350006Y0152095D01*
X0349828Y0152439D01*
X0349658Y0152786D01*
X0349497Y0153137D01*
X0349345Y0153493D01*
X0349201Y0153851D01*
X0349067Y0154214D01*
X0348941Y0154579D01*
X0348824Y0154948D01*
X0348716Y0155319D01*
X0348618Y0155693D01*
X0348529Y0156069D01*
X0348449Y0156447D01*
X0348378Y0156827D01*
X0348316Y0157208D01*
X0348264Y0157591D01*
X0348222Y0157975D01*
X0348189Y0158361D01*
X0348165Y0158746D01*
X0348151Y0159133D01*
X0348146Y0159519D01*
X0291305Y0135793D02*
X0291305Y0129494D01*
X0284219Y0129494D01*
X0284219Y0135793D01*
X0281069Y0132644D01*
X0284219Y0129494D01*
X0281069Y0129494D01*
X0281069Y0132644D01*
X0281069Y0135793D01*
X0284219Y0135793D01*
X0291305Y0135793D01*
X0293490Y0126246D02*
X0286797Y0126246D01*
X0286797Y0114041D01*
X0293490Y0114041D01*
X0293490Y0126246D01*
X0284593Y0120980D02*
X0265695Y0120980D01*
X0265695Y0106807D01*
X0284593Y0106807D01*
X0284593Y0120980D01*
X0280469Y0118618D02*
X0280471Y0118702D01*
X0280477Y0118785D01*
X0280487Y0118869D01*
X0280501Y0118951D01*
X0280519Y0119033D01*
X0280540Y0119114D01*
X0280566Y0119194D01*
X0280595Y0119272D01*
X0280628Y0119350D01*
X0280665Y0119425D01*
X0280705Y0119498D01*
X0280749Y0119570D01*
X0280796Y0119639D01*
X0280846Y0119707D01*
X0280899Y0119771D01*
X0280956Y0119833D01*
X0281015Y0119892D01*
X0281077Y0119949D01*
X0281141Y0120002D01*
X0281209Y0120052D01*
X0281278Y0120099D01*
X0281349Y0120143D01*
X0281423Y0120183D01*
X0281498Y0120220D01*
X0281576Y0120253D01*
X0281654Y0120282D01*
X0281734Y0120308D01*
X0281815Y0120329D01*
X0281897Y0120347D01*
X0281979Y0120361D01*
X0282063Y0120371D01*
X0282146Y0120377D01*
X0282230Y0120379D01*
X0282314Y0120377D01*
X0282397Y0120371D01*
X0282481Y0120361D01*
X0282563Y0120347D01*
X0282645Y0120329D01*
X0282726Y0120308D01*
X0282806Y0120282D01*
X0282884Y0120253D01*
X0282962Y0120220D01*
X0283037Y0120183D01*
X0283110Y0120143D01*
X0283182Y0120099D01*
X0283251Y0120052D01*
X0283319Y0120002D01*
X0283383Y0119949D01*
X0283445Y0119892D01*
X0283504Y0119833D01*
X0283561Y0119771D01*
X0283614Y0119707D01*
X0283664Y0119639D01*
X0283711Y0119570D01*
X0283755Y0119499D01*
X0283795Y0119425D01*
X0283832Y0119350D01*
X0283865Y0119272D01*
X0283894Y0119194D01*
X0283920Y0119114D01*
X0283941Y0119033D01*
X0283959Y0118951D01*
X0283973Y0118869D01*
X0283983Y0118785D01*
X0283989Y0118702D01*
X0283991Y0118618D01*
X0283989Y0118534D01*
X0283983Y0118451D01*
X0283973Y0118367D01*
X0283959Y0118285D01*
X0283941Y0118203D01*
X0283920Y0118122D01*
X0283894Y0118042D01*
X0283865Y0117964D01*
X0283832Y0117886D01*
X0283795Y0117811D01*
X0283755Y0117738D01*
X0283711Y0117666D01*
X0283664Y0117597D01*
X0283614Y0117529D01*
X0283561Y0117465D01*
X0283504Y0117403D01*
X0283445Y0117344D01*
X0283383Y0117287D01*
X0283319Y0117234D01*
X0283251Y0117184D01*
X0283182Y0117137D01*
X0283111Y0117093D01*
X0283037Y0117053D01*
X0282962Y0117016D01*
X0282884Y0116983D01*
X0282806Y0116954D01*
X0282726Y0116928D01*
X0282645Y0116907D01*
X0282563Y0116889D01*
X0282481Y0116875D01*
X0282397Y0116865D01*
X0282314Y0116859D01*
X0282230Y0116857D01*
X0282146Y0116859D01*
X0282063Y0116865D01*
X0281979Y0116875D01*
X0281897Y0116889D01*
X0281815Y0116907D01*
X0281734Y0116928D01*
X0281654Y0116954D01*
X0281576Y0116983D01*
X0281498Y0117016D01*
X0281423Y0117053D01*
X0281350Y0117093D01*
X0281278Y0117137D01*
X0281209Y0117184D01*
X0281141Y0117234D01*
X0281077Y0117287D01*
X0281015Y0117344D01*
X0280956Y0117403D01*
X0280899Y0117465D01*
X0280846Y0117529D01*
X0280796Y0117597D01*
X0280749Y0117666D01*
X0280705Y0117737D01*
X0280665Y0117811D01*
X0280628Y0117886D01*
X0280595Y0117964D01*
X0280566Y0118042D01*
X0280540Y0118122D01*
X0280519Y0118203D01*
X0280501Y0118285D01*
X0280487Y0118367D01*
X0280477Y0118451D01*
X0280471Y0118534D01*
X0280469Y0118618D01*
X0286797Y0112496D02*
X0293490Y0112496D01*
X0293490Y0100291D01*
X0286797Y0100291D01*
X0286797Y0112496D01*
X0283746Y0098490D02*
X0271541Y0098490D01*
X0271541Y0091797D01*
X0283746Y0091797D01*
X0283746Y0098490D01*
X0283746Y0090990D02*
X0283746Y0084297D01*
X0271541Y0084297D01*
X0271541Y0090990D01*
X0283746Y0090990D01*
X0253490Y0082496D02*
X0253490Y0070291D01*
X0246797Y0070291D01*
X0246797Y0082496D01*
X0253490Y0082496D01*
X0239740Y0082496D02*
X0233047Y0082496D01*
X0233047Y0070291D01*
X0239740Y0070291D01*
X0239740Y0082496D01*
X0225990Y0082496D02*
X0225990Y0070291D01*
X0219297Y0070291D01*
X0219297Y0082496D01*
X0225990Y0082496D01*
X0212240Y0082496D02*
X0205547Y0082496D01*
X0205547Y0070291D01*
X0212240Y0070291D01*
X0212240Y0082496D01*
X0218913Y0066354D02*
X0205134Y0066354D01*
X0205134Y0058480D02*
X0218913Y0058480D01*
X0218913Y0066354D01*
X0232693Y0066354D01*
X0232693Y0058480D01*
X0246472Y0058480D01*
X0246472Y0066354D02*
X0232693Y0066354D01*
X0232693Y0058480D02*
X0218913Y0058480D01*
X0218913Y0050606D02*
X0205134Y0050606D01*
X0232339Y0050606D02*
X0246472Y0050606D01*
X0163795Y0050606D02*
X0150016Y0050606D01*
X0150016Y0058480D02*
X0150016Y0066354D01*
X0136236Y0066354D01*
X0136236Y0058480D02*
X0150016Y0058480D01*
X0163795Y0058480D01*
X0163795Y0066354D02*
X0150016Y0066354D01*
X0136236Y0050606D02*
X0122457Y0050606D01*
X0233199Y0118224D02*
X0233201Y0118307D01*
X0233207Y0118391D01*
X0233217Y0118474D01*
X0233230Y0118556D01*
X0233248Y0118638D01*
X0233270Y0118718D01*
X0233295Y0118798D01*
X0233324Y0118876D01*
X0233356Y0118953D01*
X0233393Y0119029D01*
X0233432Y0119102D01*
X0233476Y0119173D01*
X0233522Y0119243D01*
X0233572Y0119310D01*
X0233625Y0119375D01*
X0233680Y0119437D01*
X0233739Y0119496D01*
X0233801Y0119553D01*
X0233865Y0119606D01*
X0233931Y0119657D01*
X0234000Y0119704D01*
X0234071Y0119748D01*
X0234144Y0119789D01*
X0234219Y0119826D01*
X0234295Y0119859D01*
X0234373Y0119889D01*
X0234453Y0119915D01*
X0234533Y0119938D01*
X0234614Y0119956D01*
X0234697Y0119971D01*
X0234779Y0119982D01*
X0234863Y0119989D01*
X0234946Y0119992D01*
X0235030Y0119991D01*
X0235113Y0119986D01*
X0235196Y0119977D01*
X0235279Y0119964D01*
X0235360Y0119948D01*
X0235441Y0119927D01*
X0235521Y0119903D01*
X0235600Y0119875D01*
X0235677Y0119843D01*
X0235753Y0119808D01*
X0235827Y0119769D01*
X0235899Y0119727D01*
X0235969Y0119681D01*
X0236036Y0119632D01*
X0236102Y0119580D01*
X0236164Y0119525D01*
X0236225Y0119467D01*
X0236282Y0119406D01*
X0236336Y0119343D01*
X0236387Y0119277D01*
X0236436Y0119208D01*
X0236480Y0119138D01*
X0236522Y0119065D01*
X0236560Y0118991D01*
X0236594Y0118915D01*
X0236625Y0118837D01*
X0236652Y0118758D01*
X0236676Y0118678D01*
X0236695Y0118597D01*
X0236711Y0118515D01*
X0236723Y0118432D01*
X0236731Y0118349D01*
X0236735Y0118266D01*
X0236735Y0118182D01*
X0236731Y0118099D01*
X0236723Y0118016D01*
X0236711Y0117933D01*
X0236695Y0117851D01*
X0236676Y0117770D01*
X0236652Y0117690D01*
X0236625Y0117611D01*
X0236594Y0117533D01*
X0236560Y0117457D01*
X0236522Y0117383D01*
X0236480Y0117310D01*
X0236436Y0117240D01*
X0236387Y0117171D01*
X0236336Y0117105D01*
X0236282Y0117042D01*
X0236225Y0116981D01*
X0236164Y0116923D01*
X0236102Y0116868D01*
X0236036Y0116816D01*
X0235969Y0116767D01*
X0235899Y0116721D01*
X0235827Y0116679D01*
X0235753Y0116640D01*
X0235677Y0116605D01*
X0235600Y0116573D01*
X0235521Y0116545D01*
X0235441Y0116521D01*
X0235360Y0116500D01*
X0235279Y0116484D01*
X0235196Y0116471D01*
X0235113Y0116462D01*
X0235030Y0116457D01*
X0234946Y0116456D01*
X0234863Y0116459D01*
X0234779Y0116466D01*
X0234697Y0116477D01*
X0234614Y0116492D01*
X0234533Y0116510D01*
X0234453Y0116533D01*
X0234373Y0116559D01*
X0234295Y0116589D01*
X0234219Y0116622D01*
X0234144Y0116659D01*
X0234071Y0116700D01*
X0234000Y0116744D01*
X0233931Y0116791D01*
X0233865Y0116842D01*
X0233801Y0116895D01*
X0233739Y0116952D01*
X0233680Y0117011D01*
X0233625Y0117073D01*
X0233572Y0117138D01*
X0233522Y0117205D01*
X0233476Y0117275D01*
X0233432Y0117346D01*
X0233393Y0117419D01*
X0233356Y0117495D01*
X0233324Y0117572D01*
X0233295Y0117650D01*
X0233270Y0117730D01*
X0233248Y0117810D01*
X0233230Y0117892D01*
X0233217Y0117974D01*
X0233207Y0118057D01*
X0233201Y0118141D01*
X0233199Y0118224D01*
X0256797Y0115291D02*
X0263490Y0115291D01*
X0263490Y0127496D01*
X0256797Y0127496D01*
X0256797Y0115291D01*
X0273982Y0129494D02*
X0273982Y0135793D01*
X0281069Y0135793D01*
X0281069Y0129494D02*
X0273982Y0129494D01*
X0234996Y0149297D02*
X0234996Y0155990D01*
X0222791Y0155990D01*
X0222791Y0149297D01*
X0234996Y0149297D01*
X0221871Y0149297D02*
X0221871Y0155990D01*
X0209666Y0155990D01*
X0209666Y0149297D01*
X0221871Y0149297D01*
X0221871Y0156797D02*
X0209666Y0156797D01*
X0209666Y0163490D01*
X0221871Y0163490D01*
X0221871Y0156797D01*
X0225547Y0166541D02*
X0232240Y0166541D01*
X0232240Y0178746D01*
X0225547Y0178746D01*
X0225547Y0166541D01*
X0224868Y0174898D02*
X0190419Y0174898D01*
X0190419Y0187890D01*
X0224868Y0187890D01*
X0224868Y0174898D01*
X0234169Y0175065D02*
X0234169Y0188057D01*
X0268618Y0188057D01*
X0268618Y0175065D01*
X0234169Y0175065D01*
X0220251Y0185508D02*
X0220253Y0185591D01*
X0220259Y0185675D01*
X0220269Y0185758D01*
X0220282Y0185840D01*
X0220300Y0185922D01*
X0220322Y0186002D01*
X0220347Y0186082D01*
X0220376Y0186160D01*
X0220408Y0186237D01*
X0220445Y0186313D01*
X0220484Y0186386D01*
X0220528Y0186457D01*
X0220574Y0186527D01*
X0220624Y0186594D01*
X0220677Y0186659D01*
X0220732Y0186721D01*
X0220791Y0186780D01*
X0220853Y0186837D01*
X0220917Y0186890D01*
X0220983Y0186941D01*
X0221052Y0186988D01*
X0221123Y0187032D01*
X0221196Y0187073D01*
X0221271Y0187110D01*
X0221347Y0187143D01*
X0221425Y0187173D01*
X0221505Y0187199D01*
X0221585Y0187222D01*
X0221666Y0187240D01*
X0221749Y0187255D01*
X0221831Y0187266D01*
X0221915Y0187273D01*
X0221998Y0187276D01*
X0222082Y0187275D01*
X0222165Y0187270D01*
X0222248Y0187261D01*
X0222331Y0187248D01*
X0222412Y0187232D01*
X0222493Y0187211D01*
X0222573Y0187187D01*
X0222652Y0187159D01*
X0222729Y0187127D01*
X0222805Y0187092D01*
X0222879Y0187053D01*
X0222951Y0187011D01*
X0223021Y0186965D01*
X0223088Y0186916D01*
X0223154Y0186864D01*
X0223216Y0186809D01*
X0223277Y0186751D01*
X0223334Y0186690D01*
X0223388Y0186627D01*
X0223439Y0186561D01*
X0223488Y0186492D01*
X0223532Y0186422D01*
X0223574Y0186349D01*
X0223612Y0186275D01*
X0223646Y0186199D01*
X0223677Y0186121D01*
X0223704Y0186042D01*
X0223728Y0185962D01*
X0223747Y0185881D01*
X0223763Y0185799D01*
X0223775Y0185716D01*
X0223783Y0185633D01*
X0223787Y0185550D01*
X0223787Y0185466D01*
X0223783Y0185383D01*
X0223775Y0185300D01*
X0223763Y0185217D01*
X0223747Y0185135D01*
X0223728Y0185054D01*
X0223704Y0184974D01*
X0223677Y0184895D01*
X0223646Y0184817D01*
X0223612Y0184741D01*
X0223574Y0184667D01*
X0223532Y0184594D01*
X0223488Y0184524D01*
X0223439Y0184455D01*
X0223388Y0184389D01*
X0223334Y0184326D01*
X0223277Y0184265D01*
X0223216Y0184207D01*
X0223154Y0184152D01*
X0223088Y0184100D01*
X0223021Y0184051D01*
X0222951Y0184005D01*
X0222879Y0183963D01*
X0222805Y0183924D01*
X0222729Y0183889D01*
X0222652Y0183857D01*
X0222573Y0183829D01*
X0222493Y0183805D01*
X0222412Y0183784D01*
X0222331Y0183768D01*
X0222248Y0183755D01*
X0222165Y0183746D01*
X0222082Y0183741D01*
X0221998Y0183740D01*
X0221915Y0183743D01*
X0221831Y0183750D01*
X0221749Y0183761D01*
X0221666Y0183776D01*
X0221585Y0183794D01*
X0221505Y0183817D01*
X0221425Y0183843D01*
X0221347Y0183873D01*
X0221271Y0183906D01*
X0221196Y0183943D01*
X0221123Y0183984D01*
X0221052Y0184028D01*
X0220983Y0184075D01*
X0220917Y0184126D01*
X0220853Y0184179D01*
X0220791Y0184236D01*
X0220732Y0184295D01*
X0220677Y0184357D01*
X0220624Y0184422D01*
X0220574Y0184489D01*
X0220528Y0184559D01*
X0220484Y0184630D01*
X0220445Y0184703D01*
X0220408Y0184779D01*
X0220376Y0184856D01*
X0220347Y0184934D01*
X0220322Y0185014D01*
X0220300Y0185094D01*
X0220282Y0185176D01*
X0220269Y0185258D01*
X0220259Y0185341D01*
X0220253Y0185425D01*
X0220251Y0185508D01*
X0226541Y0199297D02*
X0226541Y0205990D01*
X0238746Y0205990D01*
X0238746Y0199297D01*
X0226541Y0199297D01*
X0226541Y0208047D02*
X0238746Y0208047D01*
X0238746Y0214740D01*
X0226541Y0214740D01*
X0226541Y0208047D01*
X0226541Y0216797D02*
X0226541Y0223490D01*
X0238746Y0223490D01*
X0238746Y0216797D01*
X0226541Y0216797D01*
X0226541Y0225547D02*
X0238746Y0225547D01*
X0238746Y0232240D01*
X0226541Y0232240D01*
X0226541Y0225547D01*
X0224996Y0225547D02*
X0224996Y0232240D01*
X0212791Y0232240D01*
X0212791Y0225547D01*
X0224996Y0225547D01*
X0225803Y0234661D02*
X0212024Y0234661D01*
X0212024Y0242535D01*
X0198244Y0242535D01*
X0198244Y0251394D01*
X0198244Y0267142D01*
X0184465Y0267142D02*
X0184465Y0251394D01*
X0170685Y0251394D01*
X0156906Y0251394D01*
X0156906Y0242535D02*
X0170685Y0242535D01*
X0170685Y0234661D01*
X0156906Y0234661D01*
X0156246Y0232240D02*
X0156246Y0225547D01*
X0144041Y0225547D01*
X0144041Y0232240D01*
X0156246Y0232240D01*
X0157791Y0232240D02*
X0157791Y0225547D01*
X0169996Y0225547D01*
X0169996Y0232240D01*
X0157791Y0232240D01*
X0157791Y0223490D02*
X0157791Y0216797D01*
X0169996Y0216797D01*
X0169996Y0223490D01*
X0157791Y0223490D01*
X0156246Y0223490D02*
X0156246Y0216797D01*
X0144041Y0216797D01*
X0144041Y0223490D01*
X0156246Y0223490D01*
X0156246Y0214740D02*
X0144041Y0214740D01*
X0144041Y0208047D01*
X0156246Y0208047D01*
X0156246Y0214740D01*
X0157791Y0214740D02*
X0157791Y0208047D01*
X0169996Y0208047D01*
X0169996Y0214740D01*
X0157791Y0214740D01*
X0157791Y0205990D02*
X0157791Y0199297D01*
X0169996Y0199297D01*
X0169996Y0205990D01*
X0157791Y0205990D01*
X0156246Y0205990D02*
X0144041Y0205990D01*
X0144041Y0199297D01*
X0156246Y0199297D01*
X0156246Y0205990D01*
X0159001Y0185508D02*
X0159003Y0185591D01*
X0159009Y0185675D01*
X0159019Y0185758D01*
X0159032Y0185840D01*
X0159050Y0185922D01*
X0159072Y0186002D01*
X0159097Y0186082D01*
X0159126Y0186160D01*
X0159158Y0186237D01*
X0159195Y0186313D01*
X0159234Y0186386D01*
X0159278Y0186457D01*
X0159324Y0186527D01*
X0159374Y0186594D01*
X0159427Y0186659D01*
X0159482Y0186721D01*
X0159541Y0186780D01*
X0159603Y0186837D01*
X0159667Y0186890D01*
X0159733Y0186941D01*
X0159802Y0186988D01*
X0159873Y0187032D01*
X0159946Y0187073D01*
X0160021Y0187110D01*
X0160097Y0187143D01*
X0160175Y0187173D01*
X0160255Y0187199D01*
X0160335Y0187222D01*
X0160416Y0187240D01*
X0160499Y0187255D01*
X0160581Y0187266D01*
X0160665Y0187273D01*
X0160748Y0187276D01*
X0160832Y0187275D01*
X0160915Y0187270D01*
X0160998Y0187261D01*
X0161081Y0187248D01*
X0161162Y0187232D01*
X0161243Y0187211D01*
X0161323Y0187187D01*
X0161402Y0187159D01*
X0161479Y0187127D01*
X0161555Y0187092D01*
X0161629Y0187053D01*
X0161701Y0187011D01*
X0161771Y0186965D01*
X0161838Y0186916D01*
X0161904Y0186864D01*
X0161966Y0186809D01*
X0162027Y0186751D01*
X0162084Y0186690D01*
X0162138Y0186627D01*
X0162189Y0186561D01*
X0162238Y0186492D01*
X0162282Y0186422D01*
X0162324Y0186349D01*
X0162362Y0186275D01*
X0162396Y0186199D01*
X0162427Y0186121D01*
X0162454Y0186042D01*
X0162478Y0185962D01*
X0162497Y0185881D01*
X0162513Y0185799D01*
X0162525Y0185716D01*
X0162533Y0185633D01*
X0162537Y0185550D01*
X0162537Y0185466D01*
X0162533Y0185383D01*
X0162525Y0185300D01*
X0162513Y0185217D01*
X0162497Y0185135D01*
X0162478Y0185054D01*
X0162454Y0184974D01*
X0162427Y0184895D01*
X0162396Y0184817D01*
X0162362Y0184741D01*
X0162324Y0184667D01*
X0162282Y0184594D01*
X0162238Y0184524D01*
X0162189Y0184455D01*
X0162138Y0184389D01*
X0162084Y0184326D01*
X0162027Y0184265D01*
X0161966Y0184207D01*
X0161904Y0184152D01*
X0161838Y0184100D01*
X0161771Y0184051D01*
X0161701Y0184005D01*
X0161629Y0183963D01*
X0161555Y0183924D01*
X0161479Y0183889D01*
X0161402Y0183857D01*
X0161323Y0183829D01*
X0161243Y0183805D01*
X0161162Y0183784D01*
X0161081Y0183768D01*
X0160998Y0183755D01*
X0160915Y0183746D01*
X0160832Y0183741D01*
X0160748Y0183740D01*
X0160665Y0183743D01*
X0160581Y0183750D01*
X0160499Y0183761D01*
X0160416Y0183776D01*
X0160335Y0183794D01*
X0160255Y0183817D01*
X0160175Y0183843D01*
X0160097Y0183873D01*
X0160021Y0183906D01*
X0159946Y0183943D01*
X0159873Y0183984D01*
X0159802Y0184028D01*
X0159733Y0184075D01*
X0159667Y0184126D01*
X0159603Y0184179D01*
X0159541Y0184236D01*
X0159482Y0184295D01*
X0159427Y0184357D01*
X0159374Y0184422D01*
X0159324Y0184489D01*
X0159278Y0184559D01*
X0159234Y0184630D01*
X0159195Y0184703D01*
X0159158Y0184779D01*
X0159126Y0184856D01*
X0159097Y0184934D01*
X0159072Y0185014D01*
X0159050Y0185094D01*
X0159032Y0185176D01*
X0159019Y0185258D01*
X0159009Y0185341D01*
X0159003Y0185425D01*
X0159001Y0185508D01*
X0165547Y0178746D02*
X0172240Y0178746D01*
X0172240Y0166541D01*
X0165547Y0166541D01*
X0165547Y0178746D01*
X0199041Y0225547D02*
X0211246Y0225547D01*
X0211246Y0232240D01*
X0199041Y0232240D01*
X0199041Y0225547D01*
X0198244Y0234661D02*
X0198244Y0242535D01*
X0170685Y0242535D01*
X0170685Y0251394D02*
X0170685Y0267142D01*
X0184465Y0251394D02*
X0198244Y0251394D01*
X0212024Y0251394D01*
X0212024Y0267142D01*
X0225803Y0267142D02*
X0225803Y0251394D01*
X0225803Y0242535D01*
X0225803Y0234661D01*
X0239583Y0234661D01*
X0239583Y0242535D01*
X0239583Y0267142D01*
X0253362Y0267142D02*
X0253362Y0251394D01*
X0253362Y0242535D01*
X0253362Y0234661D01*
X0267142Y0234661D01*
X0267142Y0242535D01*
X0253362Y0242535D01*
X0239583Y0242535D01*
X0225803Y0242535D01*
X0212024Y0242535D01*
X0212024Y0251394D02*
X0225803Y0251394D01*
X0212024Y0234661D02*
X0198244Y0234661D01*
X0239583Y0234661D02*
X0253362Y0234661D01*
X0254041Y0232240D02*
X0254041Y0225547D01*
X0266246Y0225547D01*
X0266246Y0232240D01*
X0254041Y0232240D01*
X0252496Y0232240D02*
X0252496Y0225547D01*
X0240291Y0225547D01*
X0240291Y0232240D01*
X0252496Y0232240D01*
X0252496Y0223490D02*
X0240291Y0223490D01*
X0240291Y0216797D01*
X0252496Y0216797D01*
X0252496Y0223490D01*
X0254041Y0223490D02*
X0254041Y0216797D01*
X0266246Y0216797D01*
X0266246Y0223490D01*
X0254041Y0223490D01*
X0252496Y0214740D02*
X0240291Y0214740D01*
X0240291Y0208047D01*
X0252496Y0208047D01*
X0252496Y0214740D01*
X0252496Y0205990D02*
X0240291Y0205990D01*
X0240291Y0199297D01*
X0252496Y0199297D01*
X0252496Y0205990D01*
X0267791Y0208047D02*
X0267791Y0214740D01*
X0279996Y0214740D01*
X0279996Y0208047D01*
X0267791Y0208047D01*
X0274041Y0205990D02*
X0274041Y0199297D01*
X0286246Y0199297D01*
X0286246Y0205990D01*
X0274041Y0205990D01*
X0279996Y0216797D02*
X0267791Y0216797D01*
X0267791Y0223490D01*
X0279996Y0223490D01*
X0279996Y0216797D01*
X0279996Y0225547D02*
X0279996Y0232240D01*
X0267791Y0232240D01*
X0267791Y0225547D01*
X0279996Y0225547D01*
X0281541Y0225547D02*
X0293746Y0225547D01*
X0293746Y0232240D01*
X0281541Y0232240D01*
X0281541Y0225547D01*
X0280921Y0234661D02*
X0267142Y0234661D01*
X0267142Y0242535D02*
X0280921Y0242535D01*
X0280921Y0234661D01*
X0294701Y0234661D01*
X0308480Y0234661D01*
X0308480Y0242535D01*
X0294701Y0242535D01*
X0280921Y0242535D01*
X0280921Y0251394D02*
X0280921Y0267142D01*
X0267142Y0267142D02*
X0267142Y0251394D01*
X0253362Y0251394D01*
X0267142Y0251394D02*
X0280921Y0251394D01*
X0294701Y0251394D01*
X0294701Y0242535D01*
X0294701Y0234661D01*
X0295291Y0232240D02*
X0295291Y0225547D01*
X0307496Y0225547D01*
X0307496Y0232240D01*
X0295291Y0232240D01*
X0308480Y0234661D02*
X0322260Y0234661D01*
X0322260Y0242535D01*
X0322260Y0267142D01*
X0336039Y0267142D02*
X0336039Y0251394D01*
X0308480Y0251394D01*
X0308480Y0267142D01*
X0294701Y0267142D02*
X0294701Y0251394D01*
X0308480Y0251394D01*
X0308480Y0242535D02*
X0322260Y0242535D01*
X0336039Y0242535D01*
X0336039Y0234661D01*
X0322260Y0234661D01*
X0322791Y0232240D02*
X0322791Y0225547D01*
X0334996Y0225547D01*
X0334996Y0232240D01*
X0322791Y0232240D01*
X0321246Y0232240D02*
X0309041Y0232240D01*
X0309041Y0225547D01*
X0321246Y0225547D01*
X0321246Y0232240D01*
X0336039Y0242535D02*
X0349819Y0242535D01*
X0349819Y0251394D01*
X0336039Y0251394D01*
X0349819Y0251394D02*
X0349819Y0267142D01*
X0348244Y0238805D02*
X0354543Y0238805D01*
X0354543Y0231719D01*
X0348244Y0231719D01*
X0351394Y0228569D01*
X0354543Y0231719D01*
X0354543Y0228569D01*
X0351394Y0228569D01*
X0348244Y0228569D01*
X0348244Y0231719D01*
X0348244Y0238805D01*
X0348244Y0228569D02*
X0348244Y0221482D01*
X0354543Y0221482D01*
X0354543Y0228569D01*
X0279803Y0177063D02*
X0279805Y0177146D01*
X0279811Y0177230D01*
X0279821Y0177313D01*
X0279834Y0177395D01*
X0279852Y0177477D01*
X0279874Y0177557D01*
X0279899Y0177637D01*
X0279928Y0177715D01*
X0279960Y0177792D01*
X0279997Y0177868D01*
X0280036Y0177941D01*
X0280080Y0178012D01*
X0280126Y0178082D01*
X0280176Y0178149D01*
X0280229Y0178214D01*
X0280284Y0178276D01*
X0280343Y0178335D01*
X0280405Y0178392D01*
X0280469Y0178445D01*
X0280535Y0178496D01*
X0280604Y0178543D01*
X0280675Y0178587D01*
X0280748Y0178628D01*
X0280823Y0178665D01*
X0280899Y0178698D01*
X0280977Y0178728D01*
X0281057Y0178754D01*
X0281137Y0178777D01*
X0281218Y0178795D01*
X0281301Y0178810D01*
X0281383Y0178821D01*
X0281467Y0178828D01*
X0281550Y0178831D01*
X0281634Y0178830D01*
X0281717Y0178825D01*
X0281800Y0178816D01*
X0281883Y0178803D01*
X0281964Y0178787D01*
X0282045Y0178766D01*
X0282125Y0178742D01*
X0282204Y0178714D01*
X0282281Y0178682D01*
X0282357Y0178647D01*
X0282431Y0178608D01*
X0282503Y0178566D01*
X0282573Y0178520D01*
X0282640Y0178471D01*
X0282706Y0178419D01*
X0282768Y0178364D01*
X0282829Y0178306D01*
X0282886Y0178245D01*
X0282940Y0178182D01*
X0282991Y0178116D01*
X0283040Y0178047D01*
X0283084Y0177977D01*
X0283126Y0177904D01*
X0283164Y0177830D01*
X0283198Y0177754D01*
X0283229Y0177676D01*
X0283256Y0177597D01*
X0283280Y0177517D01*
X0283299Y0177436D01*
X0283315Y0177354D01*
X0283327Y0177271D01*
X0283335Y0177188D01*
X0283339Y0177105D01*
X0283339Y0177021D01*
X0283335Y0176938D01*
X0283327Y0176855D01*
X0283315Y0176772D01*
X0283299Y0176690D01*
X0283280Y0176609D01*
X0283256Y0176529D01*
X0283229Y0176450D01*
X0283198Y0176372D01*
X0283164Y0176296D01*
X0283126Y0176222D01*
X0283084Y0176149D01*
X0283040Y0176079D01*
X0282991Y0176010D01*
X0282940Y0175944D01*
X0282886Y0175881D01*
X0282829Y0175820D01*
X0282768Y0175762D01*
X0282706Y0175707D01*
X0282640Y0175655D01*
X0282573Y0175606D01*
X0282503Y0175560D01*
X0282431Y0175518D01*
X0282357Y0175479D01*
X0282281Y0175444D01*
X0282204Y0175412D01*
X0282125Y0175384D01*
X0282045Y0175360D01*
X0281964Y0175339D01*
X0281883Y0175323D01*
X0281800Y0175310D01*
X0281717Y0175301D01*
X0281634Y0175296D01*
X0281550Y0175295D01*
X0281467Y0175298D01*
X0281383Y0175305D01*
X0281301Y0175316D01*
X0281218Y0175331D01*
X0281137Y0175349D01*
X0281057Y0175372D01*
X0280977Y0175398D01*
X0280899Y0175428D01*
X0280823Y0175461D01*
X0280748Y0175498D01*
X0280675Y0175539D01*
X0280604Y0175583D01*
X0280535Y0175630D01*
X0280469Y0175681D01*
X0280405Y0175734D01*
X0280343Y0175791D01*
X0280284Y0175850D01*
X0280229Y0175912D01*
X0280176Y0175977D01*
X0280126Y0176044D01*
X0280080Y0176114D01*
X0280036Y0176185D01*
X0279997Y0176258D01*
X0279960Y0176334D01*
X0279928Y0176411D01*
X0279899Y0176489D01*
X0279874Y0176569D01*
X0279852Y0176649D01*
X0279834Y0176731D01*
X0279821Y0176813D01*
X0279811Y0176896D01*
X0279805Y0176980D01*
X0279803Y0177063D01*
X0275990Y0178746D02*
X0269297Y0178746D01*
X0269297Y0166541D01*
X0275990Y0166541D01*
X0275990Y0178746D01*
X0264001Y0185675D02*
X0264003Y0185758D01*
X0264009Y0185842D01*
X0264019Y0185925D01*
X0264032Y0186007D01*
X0264050Y0186089D01*
X0264072Y0186169D01*
X0264097Y0186249D01*
X0264126Y0186327D01*
X0264158Y0186404D01*
X0264195Y0186480D01*
X0264234Y0186553D01*
X0264278Y0186624D01*
X0264324Y0186694D01*
X0264374Y0186761D01*
X0264427Y0186826D01*
X0264482Y0186888D01*
X0264541Y0186947D01*
X0264603Y0187004D01*
X0264667Y0187057D01*
X0264733Y0187108D01*
X0264802Y0187155D01*
X0264873Y0187199D01*
X0264946Y0187240D01*
X0265021Y0187277D01*
X0265097Y0187310D01*
X0265175Y0187340D01*
X0265255Y0187366D01*
X0265335Y0187389D01*
X0265416Y0187407D01*
X0265499Y0187422D01*
X0265581Y0187433D01*
X0265665Y0187440D01*
X0265748Y0187443D01*
X0265832Y0187442D01*
X0265915Y0187437D01*
X0265998Y0187428D01*
X0266081Y0187415D01*
X0266162Y0187399D01*
X0266243Y0187378D01*
X0266323Y0187354D01*
X0266402Y0187326D01*
X0266479Y0187294D01*
X0266555Y0187259D01*
X0266629Y0187220D01*
X0266701Y0187178D01*
X0266771Y0187132D01*
X0266838Y0187083D01*
X0266904Y0187031D01*
X0266966Y0186976D01*
X0267027Y0186918D01*
X0267084Y0186857D01*
X0267138Y0186794D01*
X0267189Y0186728D01*
X0267238Y0186659D01*
X0267282Y0186589D01*
X0267324Y0186516D01*
X0267362Y0186442D01*
X0267396Y0186366D01*
X0267427Y0186288D01*
X0267454Y0186209D01*
X0267478Y0186129D01*
X0267497Y0186048D01*
X0267513Y0185966D01*
X0267525Y0185883D01*
X0267533Y0185800D01*
X0267537Y0185717D01*
X0267537Y0185633D01*
X0267533Y0185550D01*
X0267525Y0185467D01*
X0267513Y0185384D01*
X0267497Y0185302D01*
X0267478Y0185221D01*
X0267454Y0185141D01*
X0267427Y0185062D01*
X0267396Y0184984D01*
X0267362Y0184908D01*
X0267324Y0184834D01*
X0267282Y0184761D01*
X0267238Y0184691D01*
X0267189Y0184622D01*
X0267138Y0184556D01*
X0267084Y0184493D01*
X0267027Y0184432D01*
X0266966Y0184374D01*
X0266904Y0184319D01*
X0266838Y0184267D01*
X0266771Y0184218D01*
X0266701Y0184172D01*
X0266629Y0184130D01*
X0266555Y0184091D01*
X0266479Y0184056D01*
X0266402Y0184024D01*
X0266323Y0183996D01*
X0266243Y0183972D01*
X0266162Y0183951D01*
X0266081Y0183935D01*
X0265998Y0183922D01*
X0265915Y0183913D01*
X0265832Y0183908D01*
X0265748Y0183907D01*
X0265665Y0183910D01*
X0265581Y0183917D01*
X0265499Y0183928D01*
X0265416Y0183943D01*
X0265335Y0183961D01*
X0265255Y0183984D01*
X0265175Y0184010D01*
X0265097Y0184040D01*
X0265021Y0184073D01*
X0264946Y0184110D01*
X0264873Y0184151D01*
X0264802Y0184195D01*
X0264733Y0184242D01*
X0264667Y0184293D01*
X0264603Y0184346D01*
X0264541Y0184403D01*
X0264482Y0184462D01*
X0264427Y0184524D01*
X0264374Y0184589D01*
X0264324Y0184656D01*
X0264278Y0184726D01*
X0264234Y0184797D01*
X0264195Y0184870D01*
X0264158Y0184946D01*
X0264126Y0185023D01*
X0264097Y0185101D01*
X0264072Y0185181D01*
X0264050Y0185261D01*
X0264032Y0185343D01*
X0264019Y0185425D01*
X0264009Y0185508D01*
X0264003Y0185592D01*
X0264001Y0185675D01*
D11*
X0290803Y0183547D02*
X0292238Y0183547D01*
X0291520Y0183547D02*
X0291520Y0179244D01*
X0290803Y0179244D02*
X0292238Y0179244D01*
X0293872Y0179961D02*
X0294590Y0179244D01*
X0296024Y0179244D01*
X0296742Y0179961D01*
X0298476Y0179244D02*
X0301345Y0179244D01*
X0299911Y0179244D02*
X0299911Y0183547D01*
X0298476Y0182113D01*
X0296742Y0182830D02*
X0296024Y0183547D01*
X0294590Y0183547D01*
X0293872Y0182830D01*
X0293872Y0179961D01*
X0303080Y0179244D02*
X0305949Y0179244D01*
X0304515Y0179244D02*
X0304515Y0183547D01*
X0303080Y0182113D01*
X0331496Y0191744D02*
X0331496Y0196047D01*
X0333648Y0196047D01*
X0334366Y0195330D01*
X0334366Y0193896D01*
X0333648Y0193178D01*
X0331496Y0193178D01*
X0332931Y0193178D02*
X0334366Y0191744D01*
X0336100Y0192461D02*
X0336100Y0193896D01*
X0336818Y0194613D01*
X0338252Y0194613D01*
X0338970Y0193896D01*
X0338970Y0193178D01*
X0336100Y0193178D01*
X0336100Y0192461D02*
X0336818Y0191744D01*
X0338252Y0191744D01*
X0340704Y0194613D02*
X0342139Y0191744D01*
X0343573Y0194613D01*
X0349912Y0193896D02*
X0352064Y0193896D01*
X0352781Y0193178D01*
X0352781Y0192461D01*
X0352064Y0191744D01*
X0349912Y0191744D01*
X0349912Y0196047D01*
X0352064Y0196047D01*
X0352781Y0195330D01*
X0352781Y0194613D01*
X0352064Y0193896D01*
X0359120Y0193896D02*
X0361989Y0193896D01*
X0368328Y0195330D02*
X0369045Y0196047D01*
X0370480Y0196047D01*
X0371197Y0195330D01*
X0371197Y0194613D01*
X0368328Y0191744D01*
X0371197Y0191744D01*
X0372932Y0192461D02*
X0372932Y0195330D01*
X0373649Y0196047D01*
X0375084Y0196047D01*
X0375801Y0195330D01*
X0372932Y0192461D01*
X0373649Y0191744D01*
X0375084Y0191744D01*
X0375801Y0192461D01*
X0375801Y0195330D01*
X0377536Y0194613D02*
X0378970Y0196047D01*
X0378970Y0191744D01*
X0377536Y0191744D02*
X0380405Y0191744D01*
X0382140Y0192461D02*
X0382857Y0191744D01*
X0384291Y0191744D01*
X0385009Y0192461D01*
X0385009Y0195330D01*
X0384291Y0196047D01*
X0382857Y0196047D01*
X0382140Y0195330D01*
X0382140Y0194613D01*
X0382857Y0193896D01*
X0385009Y0193896D01*
X0366044Y0162021D02*
X0361740Y0162021D01*
X0363892Y0159869D01*
X0363892Y0162738D01*
X0365326Y0158134D02*
X0366044Y0157417D01*
X0366044Y0155982D01*
X0365326Y0155265D01*
X0362457Y0155265D01*
X0361740Y0155982D01*
X0361740Y0157417D01*
X0362457Y0158134D01*
X0362457Y0094613D02*
X0361740Y0093896D01*
X0361740Y0092461D01*
X0362457Y0091744D01*
X0363175Y0091744D01*
X0363892Y0092461D01*
X0363892Y0094613D01*
X0365326Y0094613D02*
X0362457Y0094613D01*
X0365326Y0094613D02*
X0366044Y0093896D01*
X0366044Y0092461D01*
X0365326Y0091744D01*
X0365326Y0090009D02*
X0366044Y0089292D01*
X0366044Y0087857D01*
X0365326Y0087140D01*
X0362457Y0087140D01*
X0361740Y0087857D01*
X0361740Y0089292D01*
X0362457Y0090009D01*
X0310630Y0043615D02*
X0309913Y0044332D01*
X0307044Y0044332D01*
X0306327Y0043615D01*
X0306327Y0041463D01*
X0310630Y0041463D01*
X0310630Y0043615D01*
X0310630Y0039729D02*
X0306327Y0039729D01*
X0306327Y0036859D02*
X0310630Y0039729D01*
X0310630Y0036859D02*
X0306327Y0036859D01*
X0307044Y0035125D02*
X0306327Y0034407D01*
X0306327Y0032973D01*
X0307044Y0032256D01*
X0309913Y0032256D01*
X0310630Y0032973D01*
X0310630Y0034407D01*
X0309913Y0035125D01*
X0308478Y0035125D01*
X0308478Y0033690D01*
X0296851Y0036859D02*
X0293982Y0039729D01*
X0293264Y0039729D01*
X0292547Y0039011D01*
X0292547Y0037577D01*
X0293264Y0036859D01*
X0294699Y0035125D02*
X0294699Y0032256D01*
X0293264Y0033690D02*
X0296134Y0033690D01*
X0296851Y0036859D02*
X0296851Y0039729D01*
X0294699Y0041463D02*
X0294699Y0044332D01*
X0295416Y0046067D02*
X0292547Y0046067D01*
X0292547Y0043615D02*
X0294699Y0041463D01*
X0296851Y0043615D02*
X0292547Y0043615D01*
X0295416Y0046067D02*
X0296851Y0047502D01*
X0295416Y0048936D01*
X0292547Y0048936D01*
X0283071Y0043615D02*
X0282354Y0044332D01*
X0279485Y0044332D01*
X0278768Y0043615D01*
X0278768Y0041463D01*
X0283071Y0041463D01*
X0283071Y0043615D01*
X0283071Y0039729D02*
X0278768Y0039729D01*
X0278768Y0036859D02*
X0283071Y0039729D01*
X0283071Y0036859D02*
X0278768Y0036859D01*
X0279485Y0035125D02*
X0278768Y0034407D01*
X0278768Y0032973D01*
X0279485Y0032256D01*
X0282354Y0032256D01*
X0283071Y0032973D01*
X0283071Y0034407D01*
X0282354Y0035125D01*
X0280919Y0035125D01*
X0280919Y0033690D01*
X0269292Y0033690D02*
X0267857Y0035125D01*
X0264988Y0035125D01*
X0264988Y0036859D02*
X0264988Y0039011D01*
X0265705Y0039729D01*
X0267140Y0039729D01*
X0267857Y0039011D01*
X0267857Y0036859D01*
X0269292Y0036859D02*
X0264988Y0036859D01*
X0267857Y0038294D02*
X0269292Y0039729D01*
X0269292Y0041463D02*
X0269292Y0044332D01*
X0269292Y0046067D02*
X0264988Y0046067D01*
X0264988Y0048936D01*
X0267140Y0047502D02*
X0267140Y0046067D01*
X0264988Y0044332D02*
X0264988Y0041463D01*
X0269292Y0041463D01*
X0267140Y0041463D02*
X0267140Y0042898D01*
X0269292Y0033690D02*
X0267857Y0032256D01*
X0264988Y0032256D01*
X0255512Y0032973D02*
X0254795Y0032256D01*
X0255512Y0032973D02*
X0255512Y0034407D01*
X0254795Y0035125D01*
X0254078Y0035125D01*
X0253360Y0034407D01*
X0253360Y0032973D01*
X0252643Y0032256D01*
X0251926Y0032256D01*
X0251209Y0032973D01*
X0251209Y0034407D01*
X0251926Y0035125D01*
X0253360Y0036859D02*
X0253360Y0039729D01*
X0251926Y0041463D02*
X0254795Y0041463D01*
X0255512Y0042181D01*
X0255512Y0043615D01*
X0254795Y0044332D01*
X0251926Y0044332D01*
X0251209Y0043615D01*
X0251209Y0042181D01*
X0251926Y0041463D01*
X0251209Y0046067D02*
X0255512Y0048936D01*
X0251209Y0048936D01*
X0251209Y0046067D02*
X0255512Y0046067D01*
X0257081Y0052393D02*
X0258516Y0055262D01*
X0260251Y0054545D02*
X0260251Y0053111D01*
X0260968Y0052393D01*
X0262402Y0052393D01*
X0263120Y0053111D01*
X0263120Y0054545D01*
X0262402Y0055262D01*
X0260968Y0055262D01*
X0260251Y0054545D01*
X0257081Y0052393D02*
X0255647Y0055262D01*
X0253962Y0055262D02*
X0253245Y0055262D01*
X0251810Y0053828D01*
X0251810Y0055262D02*
X0251810Y0052393D01*
X0250075Y0053828D02*
X0247206Y0053828D01*
X0247206Y0054545D02*
X0247923Y0055262D01*
X0249358Y0055262D01*
X0250075Y0054545D01*
X0250075Y0053828D01*
X0249358Y0052393D02*
X0247923Y0052393D01*
X0247206Y0053111D01*
X0247206Y0054545D01*
X0245471Y0053828D02*
X0245471Y0053111D01*
X0244754Y0052393D01*
X0243319Y0052393D01*
X0242602Y0053111D01*
X0243319Y0054545D02*
X0244754Y0054545D01*
X0245471Y0053828D01*
X0245471Y0055980D02*
X0244754Y0056697D01*
X0243319Y0056697D01*
X0242602Y0055980D01*
X0242602Y0055262D01*
X0243319Y0054545D01*
X0236263Y0054545D02*
X0235546Y0055262D01*
X0234112Y0055262D01*
X0233394Y0054545D01*
X0233394Y0053111D01*
X0234112Y0052393D01*
X0235546Y0052393D01*
X0236263Y0053111D01*
X0236263Y0054545D01*
X0231659Y0056697D02*
X0228790Y0056697D01*
X0230225Y0056697D02*
X0230225Y0052393D01*
X0223649Y0048936D02*
X0223649Y0046067D01*
X0223649Y0047502D02*
X0227953Y0047502D01*
X0227236Y0044332D02*
X0227953Y0043615D01*
X0227953Y0042181D01*
X0227236Y0041463D01*
X0225801Y0042181D02*
X0225801Y0043615D01*
X0226519Y0044332D01*
X0227236Y0044332D01*
X0225801Y0042181D02*
X0225084Y0041463D01*
X0224367Y0041463D01*
X0223649Y0042181D01*
X0223649Y0043615D01*
X0224367Y0044332D01*
X0224367Y0039729D02*
X0225801Y0039729D01*
X0226519Y0039011D01*
X0226519Y0036859D01*
X0227953Y0036859D02*
X0223649Y0036859D01*
X0223649Y0039011D01*
X0224367Y0039729D01*
X0226519Y0038294D02*
X0227953Y0039729D01*
X0227953Y0035125D02*
X0225084Y0035125D01*
X0223649Y0033690D01*
X0225084Y0032256D01*
X0227953Y0032256D01*
X0225801Y0032256D02*
X0225801Y0035125D01*
X0214174Y0035125D02*
X0212739Y0033690D01*
X0212739Y0034407D02*
X0212739Y0032256D01*
X0214174Y0032256D02*
X0209870Y0032256D01*
X0209870Y0034407D01*
X0210587Y0035125D01*
X0212022Y0035125D01*
X0212739Y0034407D01*
X0212022Y0036859D02*
X0212022Y0038294D01*
X0209870Y0036859D02*
X0214174Y0036859D01*
X0214174Y0039729D01*
X0212739Y0041463D02*
X0214174Y0042898D01*
X0212739Y0044332D01*
X0209870Y0044332D01*
X0209870Y0041463D02*
X0212739Y0041463D01*
X0209870Y0039729D02*
X0209870Y0036859D01*
X0200394Y0036859D02*
X0196090Y0036859D01*
X0196090Y0039011D01*
X0196808Y0039729D01*
X0198242Y0039729D01*
X0198960Y0039011D01*
X0198960Y0036859D01*
X0198960Y0038294D02*
X0200394Y0039729D01*
X0199677Y0041463D02*
X0200394Y0042181D01*
X0200394Y0043615D01*
X0199677Y0044332D01*
X0196808Y0044332D01*
X0196090Y0043615D01*
X0196090Y0042181D01*
X0196808Y0041463D01*
X0199677Y0041463D01*
X0200394Y0046067D02*
X0196090Y0046067D01*
X0196090Y0048219D01*
X0196808Y0048936D01*
X0198242Y0048936D01*
X0198960Y0048219D01*
X0198960Y0046067D01*
X0186615Y0047402D02*
X0182311Y0047402D01*
X0182311Y0044533D02*
X0186615Y0047402D01*
X0186615Y0044533D02*
X0182311Y0044533D01*
X0182311Y0042898D02*
X0182311Y0041463D01*
X0182311Y0042181D02*
X0186615Y0042181D01*
X0186615Y0042898D02*
X0186615Y0041463D01*
X0185897Y0039729D02*
X0183028Y0039729D01*
X0182311Y0039011D01*
X0182311Y0037577D01*
X0183028Y0036859D01*
X0185897Y0036859D01*
X0186615Y0037577D01*
X0186615Y0039011D01*
X0185897Y0039729D01*
X0185897Y0035125D02*
X0186615Y0034407D01*
X0186615Y0032973D01*
X0185897Y0032256D01*
X0183028Y0032256D01*
X0182311Y0032973D01*
X0182311Y0034407D01*
X0183028Y0035125D01*
X0172835Y0035125D02*
X0168531Y0035125D01*
X0168531Y0036859D02*
X0172835Y0036859D01*
X0172835Y0039729D01*
X0172835Y0041463D02*
X0169966Y0041463D01*
X0168531Y0042898D01*
X0169966Y0044332D01*
X0172835Y0044332D01*
X0172835Y0046067D02*
X0168531Y0046067D01*
X0168531Y0048219D01*
X0169249Y0048936D01*
X0170683Y0048936D01*
X0171400Y0048219D01*
X0171400Y0046067D01*
X0171400Y0047502D02*
X0172835Y0048936D01*
X0170166Y0052393D02*
X0170883Y0053111D01*
X0170883Y0054545D01*
X0170166Y0055262D01*
X0168731Y0055262D01*
X0168014Y0054545D01*
X0168014Y0053111D01*
X0168731Y0052393D01*
X0170166Y0052393D01*
X0166279Y0055262D02*
X0164845Y0052393D01*
X0163410Y0055262D01*
X0161725Y0055262D02*
X0161008Y0055262D01*
X0159574Y0053828D01*
X0159574Y0055262D02*
X0159574Y0052393D01*
X0157839Y0053828D02*
X0154970Y0053828D01*
X0154970Y0054545D02*
X0155687Y0055262D01*
X0157121Y0055262D01*
X0157839Y0054545D01*
X0157839Y0053828D01*
X0157121Y0052393D02*
X0155687Y0052393D01*
X0154970Y0053111D01*
X0154970Y0054545D01*
X0153235Y0053828D02*
X0153235Y0053111D01*
X0152518Y0052393D01*
X0151083Y0052393D01*
X0150366Y0053111D01*
X0151083Y0054545D02*
X0152518Y0054545D01*
X0153235Y0053828D01*
X0153235Y0055980D02*
X0152518Y0056697D01*
X0151083Y0056697D01*
X0150366Y0055980D01*
X0150366Y0055262D01*
X0151083Y0054545D01*
X0144027Y0054545D02*
X0144027Y0052393D01*
X0142592Y0052393D02*
X0142592Y0054545D01*
X0143310Y0055262D01*
X0144027Y0054545D01*
X0142592Y0054545D02*
X0141875Y0055262D01*
X0141158Y0055262D01*
X0141158Y0052393D01*
X0139423Y0053111D02*
X0139423Y0054545D01*
X0138706Y0055262D01*
X0137271Y0055262D01*
X0136554Y0054545D01*
X0136554Y0053111D01*
X0137271Y0052393D01*
X0138706Y0052393D01*
X0139423Y0053111D01*
X0134869Y0055262D02*
X0134152Y0055262D01*
X0132717Y0053828D01*
X0132717Y0055262D02*
X0132717Y0052393D01*
X0129548Y0054545D02*
X0128113Y0054545D01*
X0128113Y0052393D02*
X0128113Y0056697D01*
X0130983Y0056697D01*
X0129345Y0048936D02*
X0129345Y0046067D01*
X0130779Y0044332D02*
X0127910Y0044332D01*
X0127193Y0043615D01*
X0127193Y0042181D01*
X0127910Y0041463D01*
X0130779Y0041463D01*
X0131496Y0042181D01*
X0131496Y0043615D01*
X0130779Y0044332D01*
X0130779Y0039729D02*
X0131496Y0039011D01*
X0131496Y0036859D01*
X0127193Y0036859D01*
X0127193Y0039011D01*
X0127910Y0039729D01*
X0128627Y0039729D01*
X0129345Y0039011D01*
X0129345Y0036859D01*
X0129345Y0035125D02*
X0127910Y0035125D01*
X0127193Y0034407D01*
X0127193Y0032256D01*
X0131496Y0032256D01*
X0130062Y0032256D02*
X0130062Y0034407D01*
X0129345Y0035125D01*
X0129345Y0039011D02*
X0130062Y0039729D01*
X0130779Y0039729D01*
X0140972Y0039011D02*
X0140972Y0036859D01*
X0145276Y0036859D01*
X0145276Y0039011D01*
X0144559Y0039729D01*
X0141690Y0039729D01*
X0140972Y0039011D01*
X0140972Y0041463D02*
X0141690Y0041463D01*
X0143124Y0042898D01*
X0145276Y0042898D01*
X0143124Y0042898D02*
X0141690Y0044332D01*
X0140972Y0044332D01*
X0141690Y0035125D02*
X0143124Y0035125D01*
X0143841Y0034407D01*
X0143841Y0032256D01*
X0143841Y0033690D02*
X0145276Y0035125D01*
X0145276Y0032256D02*
X0140972Y0032256D01*
X0140972Y0034407D01*
X0141690Y0035125D01*
X0154752Y0033690D02*
X0156186Y0032256D01*
X0159056Y0032256D01*
X0156904Y0032256D02*
X0156904Y0035125D01*
X0156186Y0035125D02*
X0159056Y0035125D01*
X0159056Y0036859D02*
X0154752Y0036859D01*
X0156186Y0035125D02*
X0154752Y0033690D01*
X0159056Y0036859D02*
X0159056Y0039729D01*
X0159056Y0041463D02*
X0154752Y0041463D01*
X0156186Y0042898D01*
X0154752Y0044332D01*
X0159056Y0044332D01*
X0168531Y0039729D02*
X0168531Y0036859D01*
X0170683Y0036859D02*
X0170683Y0038294D01*
X0170683Y0041463D02*
X0170683Y0044332D01*
X0172835Y0035125D02*
X0168531Y0032256D01*
X0172835Y0032256D01*
X0196090Y0032256D02*
X0196090Y0034407D01*
X0196808Y0035125D01*
X0198242Y0035125D01*
X0198960Y0034407D01*
X0198960Y0032256D01*
X0200394Y0032256D02*
X0196090Y0032256D01*
X0237429Y0032973D02*
X0238146Y0032256D01*
X0241015Y0032256D01*
X0241733Y0032973D01*
X0241733Y0034407D01*
X0241015Y0035125D01*
X0238146Y0035125D01*
X0237429Y0034407D01*
X0237429Y0032973D01*
X0237429Y0036859D02*
X0237429Y0039729D01*
X0237429Y0041463D02*
X0237429Y0044332D01*
X0239581Y0042898D02*
X0239581Y0041463D01*
X0241733Y0041463D02*
X0237429Y0041463D01*
X0239581Y0038294D02*
X0239581Y0036859D01*
X0241733Y0036859D02*
X0237429Y0036859D01*
X0222397Y0111744D02*
X0219528Y0111744D01*
X0222397Y0114613D01*
X0222397Y0115330D01*
X0221680Y0116047D01*
X0220246Y0116047D01*
X0219528Y0115330D01*
X0217794Y0115330D02*
X0217076Y0116047D01*
X0215642Y0116047D01*
X0214924Y0115330D01*
X0214924Y0112461D01*
X0215642Y0111744D01*
X0217076Y0111744D01*
X0217794Y0112461D01*
X0213290Y0111744D02*
X0211855Y0111744D01*
X0212572Y0111744D02*
X0212572Y0116047D01*
X0211855Y0116047D02*
X0213290Y0116047D01*
X0269355Y0116047D02*
X0270790Y0116047D01*
X0270072Y0116047D02*
X0270072Y0111744D01*
X0269355Y0111744D02*
X0270790Y0111744D01*
X0272424Y0112461D02*
X0273142Y0111744D01*
X0274576Y0111744D01*
X0275294Y0112461D01*
X0277028Y0112461D02*
X0277746Y0111744D01*
X0279180Y0111744D01*
X0279897Y0112461D01*
X0279897Y0113178D01*
X0279180Y0113896D01*
X0277028Y0113896D01*
X0277028Y0112461D01*
X0277028Y0113896D02*
X0278463Y0115330D01*
X0279897Y0116047D01*
X0275294Y0115330D02*
X0274576Y0116047D01*
X0273142Y0116047D01*
X0272424Y0115330D01*
X0272424Y0112461D01*
X0121147Y0112461D02*
X0121147Y0115330D01*
X0120430Y0116047D01*
X0118996Y0116047D01*
X0118278Y0115330D01*
X0118278Y0114613D01*
X0118996Y0113896D01*
X0121147Y0113896D01*
X0121147Y0112461D02*
X0120430Y0111744D01*
X0118996Y0111744D01*
X0118278Y0112461D01*
X0116544Y0112461D02*
X0115826Y0111744D01*
X0114392Y0111744D01*
X0113674Y0112461D01*
X0113674Y0115330D01*
X0114392Y0116047D01*
X0115826Y0116047D01*
X0116544Y0115330D01*
X0112040Y0116047D02*
X0110605Y0116047D01*
X0111322Y0116047D02*
X0111322Y0111744D01*
X0110605Y0111744D02*
X0112040Y0111744D01*
X0063432Y0111740D02*
X0061998Y0111740D01*
X0062715Y0111740D02*
X0062715Y0116044D01*
X0063432Y0116044D02*
X0061998Y0116044D01*
X0060363Y0115326D02*
X0059646Y0116044D01*
X0058211Y0116044D01*
X0057494Y0115326D01*
X0055759Y0113892D02*
X0052890Y0113892D01*
X0053607Y0116044D02*
X0053607Y0111740D01*
X0055759Y0113892D01*
X0057494Y0112457D02*
X0058211Y0111740D01*
X0059646Y0111740D01*
X0060363Y0112457D01*
X0060363Y0115326D01*
X0061044Y0158340D02*
X0058175Y0158340D01*
X0056740Y0159775D01*
X0058175Y0161209D01*
X0061044Y0161209D01*
X0061044Y0162944D02*
X0061044Y0164379D01*
X0061044Y0163662D02*
X0056740Y0163662D01*
X0056740Y0162944D01*
X0058892Y0161209D02*
X0058892Y0158340D01*
X0060326Y0166014D02*
X0059609Y0166731D01*
X0059609Y0168883D01*
X0058892Y0168883D02*
X0061044Y0168883D01*
X0061044Y0166731D01*
X0060326Y0166014D01*
X0058175Y0166731D02*
X0058175Y0168165D01*
X0058892Y0168883D01*
X0059609Y0170617D02*
X0058175Y0172052D01*
X0058175Y0172769D01*
X0058175Y0174454D02*
X0058175Y0175171D01*
X0058892Y0175889D01*
X0058175Y0176606D01*
X0058892Y0177323D01*
X0061044Y0177323D01*
X0061044Y0175889D02*
X0058892Y0175889D01*
X0058175Y0174454D02*
X0061044Y0174454D01*
X0061044Y0170617D02*
X0058175Y0170617D01*
X0059609Y0183662D02*
X0059609Y0185814D01*
X0058892Y0186531D01*
X0057457Y0186531D01*
X0056740Y0185814D01*
X0056740Y0183662D01*
X0061044Y0183662D01*
X0059609Y0185096D02*
X0061044Y0186531D01*
X0060326Y0188266D02*
X0058892Y0188266D01*
X0058175Y0188983D01*
X0058175Y0190418D01*
X0058892Y0191135D01*
X0059609Y0191135D01*
X0059609Y0188266D01*
X0060326Y0188266D02*
X0061044Y0188983D01*
X0061044Y0190418D01*
X0061044Y0192870D02*
X0061044Y0195022D01*
X0060326Y0195739D01*
X0059609Y0195022D01*
X0059609Y0193587D01*
X0058892Y0192870D01*
X0058175Y0193587D01*
X0058175Y0195739D01*
X0058892Y0197474D02*
X0058175Y0198191D01*
X0058175Y0199626D01*
X0058892Y0200343D01*
X0059609Y0200343D01*
X0059609Y0197474D01*
X0060326Y0197474D02*
X0058892Y0197474D01*
X0060326Y0197474D02*
X0061044Y0198191D01*
X0061044Y0199626D01*
X0060326Y0202795D02*
X0057457Y0202795D01*
X0058175Y0202078D02*
X0058175Y0203512D01*
X0060326Y0202795D02*
X0061044Y0203512D01*
X0056569Y0215494D02*
X0055134Y0215494D01*
X0054417Y0216211D01*
X0054417Y0217646D01*
X0055134Y0218363D01*
X0056569Y0218363D01*
X0057286Y0217646D01*
X0057286Y0216928D01*
X0054417Y0216928D01*
X0052782Y0215494D02*
X0051348Y0215494D01*
X0052065Y0215494D02*
X0052065Y0219797D01*
X0051348Y0219797D01*
X0049613Y0217646D02*
X0049613Y0216211D01*
X0048896Y0215494D01*
X0046744Y0215494D01*
X0046744Y0219797D01*
X0046744Y0218363D02*
X0048896Y0218363D01*
X0049613Y0217646D01*
X0045009Y0217646D02*
X0045009Y0215494D01*
X0042857Y0215494D01*
X0042140Y0216211D01*
X0042857Y0216928D01*
X0045009Y0216928D01*
X0045009Y0217646D02*
X0044292Y0218363D01*
X0042857Y0218363D01*
X0040505Y0218363D02*
X0039070Y0218363D01*
X0039788Y0219080D02*
X0039788Y0216211D01*
X0040505Y0215494D01*
X0037336Y0216211D02*
X0037336Y0216928D01*
X0036618Y0217646D01*
X0035184Y0217646D01*
X0034467Y0218363D01*
X0034467Y0219080D01*
X0035184Y0219797D01*
X0036618Y0219797D01*
X0037336Y0219080D01*
X0037336Y0216211D02*
X0036618Y0215494D01*
X0035184Y0215494D01*
X0034467Y0216211D01*
X0064187Y0245307D02*
X0067056Y0245307D01*
X0068791Y0245307D02*
X0068791Y0248176D01*
X0070943Y0248176D01*
X0071660Y0247459D01*
X0071660Y0245307D01*
X0073395Y0246024D02*
X0074112Y0245307D01*
X0076264Y0245307D01*
X0077999Y0246024D02*
X0078716Y0245307D01*
X0080151Y0245307D01*
X0080868Y0246024D01*
X0080868Y0247459D01*
X0080151Y0248176D01*
X0078716Y0248176D01*
X0077999Y0247459D01*
X0077999Y0246024D01*
X0076264Y0248176D02*
X0074112Y0248176D01*
X0073395Y0247459D01*
X0073395Y0246024D01*
X0067056Y0249610D02*
X0064187Y0249610D01*
X0064187Y0245307D01*
X0064187Y0247459D02*
X0065622Y0247459D01*
X0065185Y0257649D02*
X0065185Y0259801D01*
X0065902Y0260518D01*
X0066619Y0260518D01*
X0067337Y0259801D01*
X0067337Y0257649D01*
X0069489Y0257649D02*
X0065185Y0257649D01*
X0067337Y0259801D02*
X0068054Y0260518D01*
X0068771Y0260518D01*
X0069489Y0259801D01*
X0069489Y0257649D01*
X0078964Y0255864D02*
X0078964Y0254429D01*
X0079682Y0253712D01*
X0078964Y0255864D02*
X0079682Y0256581D01*
X0080399Y0256581D01*
X0083268Y0253712D01*
X0083268Y0256581D01*
X0081116Y0258316D02*
X0081116Y0261185D01*
X0081834Y0262920D02*
X0078964Y0262920D01*
X0078964Y0260468D02*
X0081116Y0258316D01*
X0083268Y0260468D02*
X0078964Y0260468D01*
X0081834Y0262920D02*
X0083268Y0264355D01*
X0081834Y0265789D01*
X0078964Y0265789D01*
X0094179Y0265789D02*
X0094179Y0263637D01*
X0094896Y0262920D01*
X0096330Y0262920D01*
X0097048Y0263637D01*
X0097048Y0265789D01*
X0096330Y0261185D02*
X0094896Y0261185D01*
X0094179Y0260468D01*
X0094179Y0259033D01*
X0094896Y0258316D01*
X0096330Y0258316D01*
X0097048Y0259033D01*
X0097048Y0260468D01*
X0096330Y0261185D01*
X0097048Y0256581D02*
X0094179Y0256581D01*
X0092744Y0255147D01*
X0094179Y0253712D01*
X0097048Y0253712D01*
X0094896Y0253712D02*
X0094896Y0256581D01*
X0100969Y0249610D02*
X0100251Y0248893D01*
X0100251Y0246024D01*
X0100969Y0245307D01*
X0102403Y0245307D01*
X0103120Y0246024D01*
X0103120Y0248893D01*
X0102403Y0249610D01*
X0100969Y0249610D01*
X0104855Y0248176D02*
X0104855Y0246024D01*
X0105572Y0245307D01*
X0107724Y0245307D01*
X0107724Y0248176D01*
X0109459Y0248176D02*
X0110894Y0248176D01*
X0110176Y0248893D02*
X0110176Y0246024D01*
X0110894Y0245307D01*
X0110827Y0253712D02*
X0106523Y0253712D01*
X0106523Y0255864D01*
X0107241Y0256581D01*
X0107958Y0256581D01*
X0108675Y0255864D01*
X0108675Y0253712D01*
X0108675Y0255864D02*
X0109393Y0256581D01*
X0110110Y0256581D01*
X0110827Y0255864D01*
X0110827Y0253712D01*
X0110110Y0258316D02*
X0110827Y0259033D01*
X0110827Y0260468D01*
X0110110Y0261185D01*
X0108675Y0261185D01*
X0107958Y0260468D01*
X0107958Y0259033D01*
X0108675Y0258316D01*
X0110110Y0258316D01*
X0110110Y0262920D02*
X0110827Y0263637D01*
X0110827Y0265789D01*
X0107958Y0265789D02*
X0107958Y0263637D01*
X0108675Y0262920D01*
X0110110Y0262920D01*
X0120303Y0262920D02*
X0120303Y0265072D01*
X0121020Y0265789D01*
X0123889Y0265789D01*
X0124607Y0265072D01*
X0124607Y0262920D01*
X0120303Y0262920D01*
X0120303Y0261185D02*
X0124607Y0261185D01*
X0120303Y0258316D01*
X0124607Y0258316D01*
X0123889Y0256581D02*
X0122455Y0256581D01*
X0122455Y0255147D01*
X0123889Y0256581D02*
X0124607Y0255864D01*
X0124607Y0254429D01*
X0123889Y0253712D01*
X0121020Y0253712D01*
X0120303Y0254429D01*
X0120303Y0255864D01*
X0121020Y0256581D01*
X0134083Y0255864D02*
X0134083Y0253712D01*
X0138386Y0253712D01*
X0136952Y0253712D02*
X0136952Y0255864D01*
X0136234Y0256581D01*
X0134800Y0256581D01*
X0134083Y0255864D01*
X0134083Y0258316D02*
X0134083Y0260468D01*
X0134800Y0261185D01*
X0136234Y0261185D01*
X0136952Y0260468D01*
X0136952Y0258316D01*
X0138386Y0258316D02*
X0134083Y0258316D01*
X0136952Y0259751D02*
X0138386Y0261185D01*
X0138386Y0262920D02*
X0134083Y0262920D01*
X0134083Y0265072D01*
X0134800Y0265789D01*
X0136234Y0265789D01*
X0136952Y0265072D01*
X0136952Y0262920D01*
X0147862Y0262920D02*
X0150731Y0262920D01*
X0152166Y0264355D01*
X0150731Y0265789D01*
X0147862Y0265789D01*
X0147862Y0261185D02*
X0147862Y0258316D01*
X0152166Y0258316D01*
X0152166Y0261185D01*
X0150014Y0259751D02*
X0150014Y0258316D01*
X0150014Y0256581D02*
X0150731Y0255864D01*
X0150731Y0253712D01*
X0152166Y0253712D02*
X0147862Y0253712D01*
X0147862Y0255864D01*
X0148579Y0256581D01*
X0150014Y0256581D01*
X0150731Y0255147D02*
X0152166Y0256581D01*
X0152819Y0249610D02*
X0152819Y0245307D01*
X0150667Y0245307D01*
X0149950Y0246024D01*
X0149950Y0247459D01*
X0150667Y0248176D01*
X0152819Y0248176D01*
X0154554Y0249610D02*
X0155271Y0249610D01*
X0155271Y0245307D01*
X0154554Y0245307D02*
X0155988Y0245307D01*
X0157623Y0246024D02*
X0157623Y0247459D01*
X0158340Y0248176D01*
X0159775Y0248176D01*
X0160492Y0247459D01*
X0160492Y0246741D01*
X0157623Y0246741D01*
X0157623Y0246024D02*
X0158340Y0245307D01*
X0159775Y0245307D01*
X0166831Y0246024D02*
X0167548Y0245307D01*
X0168983Y0245307D01*
X0169700Y0246024D01*
X0171435Y0246024D02*
X0172152Y0245307D01*
X0173587Y0245307D01*
X0174304Y0246024D01*
X0174304Y0247459D01*
X0173587Y0248176D01*
X0172152Y0248176D01*
X0171435Y0247459D01*
X0171435Y0246024D01*
X0169700Y0248893D02*
X0168983Y0249610D01*
X0167548Y0249610D01*
X0166831Y0248893D01*
X0166831Y0246024D01*
X0165228Y0253712D02*
X0165945Y0254429D01*
X0165945Y0255864D01*
X0165228Y0256581D01*
X0162359Y0256581D01*
X0161642Y0255864D01*
X0161642Y0254429D01*
X0162359Y0253712D01*
X0165228Y0253712D01*
X0165945Y0258316D02*
X0161642Y0258316D01*
X0165945Y0261185D01*
X0161642Y0261185D01*
X0175421Y0261185D02*
X0175421Y0258316D01*
X0179725Y0258316D01*
X0179725Y0261185D01*
X0179725Y0262920D02*
X0175421Y0262920D01*
X0175421Y0265789D01*
X0177573Y0264355D02*
X0177573Y0262920D01*
X0177573Y0259751D02*
X0177573Y0258316D01*
X0177573Y0256581D02*
X0178290Y0255864D01*
X0178290Y0253712D01*
X0178290Y0255147D02*
X0179725Y0256581D01*
X0177573Y0256581D02*
X0176138Y0256581D01*
X0175421Y0255864D01*
X0175421Y0253712D01*
X0179725Y0253712D01*
X0181360Y0248893D02*
X0181360Y0246024D01*
X0182077Y0245307D01*
X0183712Y0245307D02*
X0183712Y0248176D01*
X0185146Y0248176D02*
X0185864Y0248176D01*
X0185146Y0248176D02*
X0183712Y0246741D01*
X0182077Y0248176D02*
X0180643Y0248176D01*
X0178908Y0247459D02*
X0178908Y0245307D01*
X0178908Y0247459D02*
X0178191Y0248176D01*
X0176039Y0248176D01*
X0176039Y0245307D01*
X0187548Y0246024D02*
X0188266Y0245307D01*
X0189700Y0245307D01*
X0190418Y0246024D01*
X0190418Y0247459D01*
X0189700Y0248176D01*
X0188266Y0248176D01*
X0187548Y0247459D01*
X0187548Y0246024D01*
X0192152Y0245307D02*
X0193587Y0245307D01*
X0192870Y0245307D02*
X0192870Y0249610D01*
X0192152Y0249610D01*
X0192787Y0253712D02*
X0189918Y0253712D01*
X0189201Y0254429D01*
X0189201Y0255864D01*
X0189918Y0256581D01*
X0191352Y0256581D02*
X0191352Y0255147D01*
X0191352Y0256581D02*
X0192787Y0256581D01*
X0193504Y0255864D01*
X0193504Y0254429D01*
X0192787Y0253712D01*
X0193504Y0258316D02*
X0189201Y0258316D01*
X0193504Y0261185D01*
X0189201Y0261185D01*
X0189201Y0262920D02*
X0189201Y0265072D01*
X0189918Y0265789D01*
X0192787Y0265789D01*
X0193504Y0265072D01*
X0193504Y0262920D01*
X0189201Y0262920D01*
X0202980Y0262920D02*
X0204415Y0264355D01*
X0202980Y0265789D01*
X0207284Y0265789D01*
X0207284Y0262920D02*
X0202980Y0262920D01*
X0207284Y0261185D02*
X0207284Y0258316D01*
X0202980Y0258316D01*
X0204415Y0256581D02*
X0207284Y0256581D01*
X0205132Y0256581D02*
X0205132Y0253712D01*
X0204415Y0253712D02*
X0207284Y0253712D01*
X0204415Y0253712D02*
X0202980Y0255147D01*
X0204415Y0256581D01*
X0202248Y0249610D02*
X0200814Y0249610D01*
X0200096Y0248893D01*
X0200096Y0248176D01*
X0200814Y0247459D01*
X0202248Y0247459D01*
X0202966Y0246741D01*
X0202966Y0246024D01*
X0202248Y0245307D01*
X0200814Y0245307D01*
X0200096Y0246024D01*
X0202966Y0248893D02*
X0202248Y0249610D01*
X0204700Y0248176D02*
X0206135Y0248176D01*
X0205418Y0248893D02*
X0205418Y0246024D01*
X0206135Y0245307D01*
X0207770Y0246024D02*
X0208487Y0245307D01*
X0210639Y0245307D01*
X0210639Y0247459D01*
X0209922Y0248176D01*
X0208487Y0248176D01*
X0208487Y0246741D02*
X0210639Y0246741D01*
X0208487Y0246741D02*
X0207770Y0246024D01*
X0212374Y0248176D02*
X0213808Y0248176D01*
X0213091Y0248893D02*
X0213091Y0246024D01*
X0213808Y0245307D01*
X0215443Y0246024D02*
X0216160Y0245307D01*
X0218312Y0245307D01*
X0218312Y0248176D01*
X0220047Y0247459D02*
X0220764Y0248176D01*
X0222916Y0248176D01*
X0222199Y0246741D02*
X0220764Y0246741D01*
X0220047Y0247459D01*
X0220047Y0245307D02*
X0222199Y0245307D01*
X0222916Y0246024D01*
X0222199Y0246741D01*
X0215443Y0246024D02*
X0215443Y0248176D01*
X0216760Y0253712D02*
X0216760Y0255864D01*
X0217477Y0256581D01*
X0218912Y0256581D01*
X0219629Y0255864D01*
X0219629Y0253712D01*
X0221063Y0253712D02*
X0216760Y0253712D01*
X0219629Y0255147D02*
X0221063Y0256581D01*
X0221063Y0258316D02*
X0221063Y0260468D01*
X0220346Y0261185D01*
X0217477Y0261185D01*
X0216760Y0260468D01*
X0216760Y0258316D01*
X0221063Y0258316D01*
X0217477Y0262920D02*
X0218912Y0264355D01*
X0221063Y0264355D01*
X0218912Y0264355D02*
X0217477Y0265789D01*
X0216760Y0265789D01*
X0216760Y0262920D02*
X0217477Y0262920D01*
X0230825Y0263503D02*
X0230825Y0260634D01*
X0230825Y0262069D02*
X0235128Y0262069D01*
X0234411Y0258899D02*
X0235128Y0258182D01*
X0235128Y0256748D01*
X0234411Y0256030D01*
X0232977Y0256748D02*
X0232977Y0258182D01*
X0233694Y0258899D01*
X0234411Y0258899D01*
X0232977Y0256748D02*
X0232259Y0256030D01*
X0231542Y0256030D01*
X0230825Y0256748D01*
X0230825Y0258182D01*
X0231542Y0258899D01*
X0231542Y0254295D02*
X0232977Y0254295D01*
X0233694Y0253578D01*
X0233694Y0251426D01*
X0235128Y0251426D02*
X0230825Y0251426D01*
X0230825Y0253578D01*
X0231542Y0254295D01*
X0233694Y0252861D02*
X0235128Y0254295D01*
X0235128Y0249692D02*
X0232259Y0249692D01*
X0230825Y0248257D01*
X0232259Y0246822D01*
X0235128Y0246822D01*
X0232977Y0246822D02*
X0232977Y0249692D01*
X0244604Y0248974D02*
X0245321Y0249692D01*
X0248191Y0249692D01*
X0248908Y0248974D01*
X0248908Y0247540D01*
X0248191Y0246822D01*
X0245321Y0246822D01*
X0244604Y0247540D01*
X0244604Y0248974D01*
X0244604Y0251426D02*
X0244604Y0254295D01*
X0244604Y0256030D02*
X0244604Y0258899D01*
X0246756Y0257465D02*
X0246756Y0256030D01*
X0248908Y0256030D02*
X0244604Y0256030D01*
X0246756Y0252861D02*
X0246756Y0251426D01*
X0248908Y0251426D02*
X0244604Y0251426D01*
X0258098Y0253712D02*
X0262402Y0256581D01*
X0258098Y0256581D01*
X0258098Y0258316D02*
X0262402Y0258316D01*
X0262402Y0261185D01*
X0262402Y0262920D02*
X0258098Y0262920D01*
X0258098Y0265072D01*
X0258816Y0265789D01*
X0261685Y0265789D01*
X0262402Y0265072D01*
X0262402Y0262920D01*
X0260250Y0259751D02*
X0260250Y0258316D01*
X0258098Y0258316D02*
X0258098Y0261185D01*
X0258098Y0253712D02*
X0262402Y0253712D01*
X0261337Y0249610D02*
X0261337Y0245307D01*
X0264206Y0245307D01*
X0265941Y0245307D02*
X0265941Y0248176D01*
X0268093Y0248176D01*
X0268810Y0247459D01*
X0268810Y0245307D01*
X0270545Y0246024D02*
X0271262Y0246741D01*
X0273414Y0246741D01*
X0273414Y0247459D02*
X0273414Y0245307D01*
X0271262Y0245307D01*
X0270545Y0246024D01*
X0271262Y0248176D02*
X0272697Y0248176D01*
X0273414Y0247459D01*
X0275149Y0248176D02*
X0277301Y0248176D01*
X0278018Y0247459D01*
X0278018Y0246024D01*
X0277301Y0245307D01*
X0275149Y0245307D01*
X0275149Y0249610D01*
X0276181Y0253712D02*
X0271878Y0253712D01*
X0271878Y0256581D01*
X0271878Y0258316D02*
X0276181Y0261185D01*
X0271878Y0261185D01*
X0271878Y0258316D02*
X0276181Y0258316D01*
X0276181Y0256581D02*
X0276181Y0253712D01*
X0274030Y0253712D02*
X0274030Y0255147D01*
X0279753Y0249610D02*
X0280470Y0249610D01*
X0280470Y0245307D01*
X0279753Y0245307D02*
X0281187Y0245307D01*
X0282822Y0246024D02*
X0282822Y0247459D01*
X0283539Y0248176D01*
X0284974Y0248176D01*
X0285691Y0247459D01*
X0285691Y0246741D01*
X0282822Y0246741D01*
X0282822Y0246024D02*
X0283539Y0245307D01*
X0284974Y0245307D01*
X0285657Y0253712D02*
X0289961Y0256581D01*
X0285657Y0256581D01*
X0285657Y0258316D02*
X0289961Y0261185D01*
X0289961Y0258316D02*
X0285657Y0261185D01*
X0285657Y0262920D02*
X0285657Y0265789D01*
X0285657Y0264355D02*
X0289961Y0264355D01*
X0299437Y0265072D02*
X0300154Y0265789D01*
X0301589Y0265789D01*
X0302306Y0265072D01*
X0302306Y0262920D01*
X0303741Y0262920D02*
X0299437Y0262920D01*
X0299437Y0265072D01*
X0302306Y0264355D02*
X0303741Y0265789D01*
X0303741Y0259751D02*
X0299437Y0259751D01*
X0299437Y0261185D02*
X0299437Y0258316D01*
X0300154Y0256581D02*
X0299437Y0255864D01*
X0299437Y0254429D01*
X0300154Y0253712D01*
X0303023Y0253712D01*
X0303741Y0254429D01*
X0303741Y0255864D01*
X0303023Y0256581D01*
X0300240Y0249610D02*
X0298088Y0249610D01*
X0298088Y0245307D01*
X0298088Y0246741D02*
X0300240Y0246741D01*
X0300957Y0247459D01*
X0300957Y0248893D01*
X0300240Y0249610D01*
X0299522Y0246741D02*
X0300957Y0245307D01*
X0302692Y0246024D02*
X0302692Y0247459D01*
X0303409Y0248176D01*
X0304844Y0248176D01*
X0305561Y0247459D01*
X0305561Y0246741D01*
X0302692Y0246741D01*
X0302692Y0246024D02*
X0303409Y0245307D01*
X0304844Y0245307D01*
X0307296Y0245307D02*
X0308730Y0245307D01*
X0308013Y0245307D02*
X0308013Y0249610D01*
X0307296Y0249610D01*
X0311082Y0248176D02*
X0312517Y0248176D01*
X0313234Y0247459D01*
X0313234Y0245307D01*
X0311082Y0245307D01*
X0310365Y0246024D01*
X0311082Y0246741D01*
X0313234Y0246741D01*
X0314969Y0246024D02*
X0315686Y0245307D01*
X0317838Y0245307D01*
X0317838Y0244589D02*
X0317121Y0243872D01*
X0316403Y0243872D01*
X0317838Y0244589D02*
X0317838Y0248176D01*
X0314969Y0248176D02*
X0314969Y0246024D01*
X0316086Y0253712D02*
X0316086Y0255864D01*
X0315368Y0256581D01*
X0313934Y0256581D01*
X0313216Y0255864D01*
X0313216Y0253712D01*
X0317520Y0253712D01*
X0317520Y0258316D02*
X0313216Y0258316D01*
X0313216Y0261185D02*
X0317520Y0261185D01*
X0316086Y0259751D01*
X0317520Y0258316D01*
X0317520Y0262920D02*
X0313216Y0262920D01*
X0313216Y0265072D01*
X0313934Y0265789D01*
X0315368Y0265789D01*
X0316086Y0265072D01*
X0316086Y0262920D01*
X0316086Y0264355D02*
X0317520Y0265789D01*
X0326996Y0265789D02*
X0329865Y0265789D01*
X0331300Y0264355D01*
X0329865Y0262920D01*
X0326996Y0262920D01*
X0326996Y0260468D02*
X0329148Y0258316D01*
X0329148Y0261185D01*
X0331300Y0260468D02*
X0326996Y0260468D01*
X0327713Y0256581D02*
X0326996Y0255864D01*
X0326996Y0254429D01*
X0327713Y0253712D01*
X0327713Y0256581D02*
X0328430Y0256581D01*
X0331300Y0253712D01*
X0331300Y0256581D01*
X0327415Y0249610D02*
X0328132Y0248893D01*
X0328132Y0247459D01*
X0327415Y0246741D01*
X0325263Y0246741D01*
X0325263Y0245307D02*
X0325263Y0249610D01*
X0327415Y0249610D01*
X0329867Y0247459D02*
X0329867Y0246024D01*
X0330584Y0245307D01*
X0332019Y0245307D01*
X0332736Y0246024D01*
X0332736Y0247459D01*
X0332019Y0248176D01*
X0330584Y0248176D01*
X0329867Y0247459D01*
X0334471Y0248176D02*
X0334471Y0246024D01*
X0335188Y0245307D01*
X0335906Y0246024D01*
X0336623Y0245307D01*
X0337340Y0246024D01*
X0337340Y0248176D01*
X0339075Y0247459D02*
X0339792Y0248176D01*
X0341227Y0248176D01*
X0341944Y0247459D01*
X0341944Y0246741D01*
X0339075Y0246741D01*
X0339075Y0246024D02*
X0339075Y0247459D01*
X0339075Y0246024D02*
X0339792Y0245307D01*
X0341227Y0245307D01*
X0343679Y0245307D02*
X0343679Y0248176D01*
X0345113Y0248176D02*
X0345831Y0248176D01*
X0345113Y0248176D02*
X0343679Y0246741D01*
X0344362Y0253712D02*
X0341493Y0253712D01*
X0340775Y0254429D01*
X0340775Y0255864D01*
X0341493Y0256581D01*
X0342927Y0256581D02*
X0342927Y0255147D01*
X0342927Y0256581D02*
X0344362Y0256581D01*
X0345079Y0255864D01*
X0345079Y0254429D01*
X0344362Y0253712D01*
X0345079Y0258316D02*
X0340775Y0258316D01*
X0345079Y0261185D01*
X0340775Y0261185D01*
X0340775Y0262920D02*
X0340775Y0265072D01*
X0341493Y0265789D01*
X0344362Y0265789D01*
X0345079Y0265072D01*
X0345079Y0262920D01*
X0340775Y0262920D01*
X0289961Y0253712D02*
X0285657Y0253712D01*
X0264206Y0249610D02*
X0261337Y0249610D01*
X0261337Y0247459D02*
X0262772Y0247459D01*
X0148215Y0247459D02*
X0148215Y0245307D01*
X0148215Y0247459D02*
X0147498Y0248176D01*
X0145346Y0248176D01*
X0145346Y0245307D01*
X0143711Y0245307D02*
X0142277Y0245307D01*
X0142994Y0245307D02*
X0142994Y0248176D01*
X0142277Y0248176D01*
X0142994Y0249610D02*
X0142994Y0250328D01*
X0140542Y0247459D02*
X0140542Y0246024D01*
X0139824Y0245307D01*
X0137673Y0245307D01*
X0137673Y0243872D02*
X0137673Y0248176D01*
X0139824Y0248176D01*
X0140542Y0247459D01*
X0135938Y0246741D02*
X0135938Y0246024D01*
X0135221Y0245307D01*
X0133786Y0245307D01*
X0133069Y0246024D01*
X0133786Y0247459D02*
X0135221Y0247459D01*
X0135938Y0246741D01*
X0135938Y0248893D02*
X0135221Y0249610D01*
X0133786Y0249610D01*
X0133069Y0248893D01*
X0133069Y0248176D01*
X0133786Y0247459D01*
X0093963Y0248176D02*
X0093245Y0248176D01*
X0091811Y0246741D01*
X0091811Y0245307D02*
X0091811Y0248176D01*
X0090076Y0247459D02*
X0090076Y0246741D01*
X0087207Y0246741D01*
X0087207Y0246024D02*
X0087207Y0247459D01*
X0087924Y0248176D01*
X0089359Y0248176D01*
X0090076Y0247459D01*
X0089359Y0245307D02*
X0087924Y0245307D01*
X0087207Y0246024D01*
X0085472Y0245307D02*
X0083320Y0245307D01*
X0082603Y0246024D01*
X0082603Y0247459D01*
X0083320Y0248176D01*
X0085472Y0248176D01*
X0085472Y0249610D02*
X0085472Y0245307D01*
X0085595Y0223636D02*
X0087030Y0223636D01*
X0086313Y0223636D02*
X0086313Y0219332D01*
X0087030Y0219332D02*
X0085595Y0219332D01*
X0088665Y0220050D02*
X0089382Y0219332D01*
X0090816Y0219332D01*
X0091534Y0220050D01*
X0093268Y0220050D02*
X0093986Y0219332D01*
X0095420Y0219332D01*
X0096138Y0220050D01*
X0096138Y0220767D01*
X0095420Y0221484D01*
X0094703Y0221484D01*
X0095420Y0221484D02*
X0096138Y0222201D01*
X0096138Y0222919D01*
X0095420Y0223636D01*
X0093986Y0223636D01*
X0093268Y0222919D01*
X0091534Y0222919D02*
X0090816Y0223636D01*
X0089382Y0223636D01*
X0088665Y0222919D01*
X0088665Y0220050D01*
X0055709Y0257649D02*
X0052840Y0257649D01*
X0051405Y0259084D01*
X0052840Y0260518D01*
X0055709Y0260518D01*
X0053557Y0260518D02*
X0053557Y0257649D01*
X0079857Y0183544D02*
X0081292Y0183544D01*
X0082009Y0182826D01*
X0082009Y0181392D02*
X0080575Y0180675D01*
X0079857Y0180675D01*
X0079140Y0181392D01*
X0079140Y0182826D01*
X0079857Y0183544D01*
X0082009Y0181392D02*
X0082009Y0179240D01*
X0079140Y0179240D01*
X0083744Y0179957D02*
X0084461Y0179240D01*
X0085896Y0179240D01*
X0086613Y0179957D01*
X0086613Y0182826D01*
X0085896Y0183544D01*
X0084461Y0183544D01*
X0083744Y0182826D01*
X0088248Y0183544D02*
X0089682Y0183544D01*
X0088965Y0183544D02*
X0088965Y0179240D01*
X0089682Y0179240D02*
X0088248Y0179240D01*
X0088006Y0048936D02*
X0088006Y0046067D01*
X0086571Y0044332D02*
X0085854Y0043615D01*
X0085854Y0042181D01*
X0086571Y0041463D01*
X0089441Y0041463D01*
X0090158Y0042181D01*
X0090158Y0043615D01*
X0089441Y0044332D01*
X0086571Y0044332D01*
X0087289Y0039729D02*
X0090158Y0039729D01*
X0088006Y0039729D02*
X0088006Y0036859D01*
X0087289Y0036859D02*
X0085854Y0038294D01*
X0087289Y0039729D01*
X0087289Y0036859D02*
X0090158Y0036859D01*
X0088006Y0035125D02*
X0088723Y0034407D01*
X0088723Y0032256D01*
X0090158Y0032256D02*
X0085854Y0032256D01*
X0085854Y0034407D01*
X0086571Y0035125D01*
X0088006Y0035125D01*
X0099634Y0034407D02*
X0099634Y0032256D01*
X0103937Y0032256D01*
X0102503Y0032256D02*
X0102503Y0034407D01*
X0101786Y0035125D01*
X0100351Y0035125D01*
X0099634Y0034407D01*
X0101068Y0036859D02*
X0099634Y0038294D01*
X0101068Y0039729D01*
X0103937Y0039729D01*
X0103220Y0041463D02*
X0103937Y0042181D01*
X0103937Y0043615D01*
X0103220Y0044332D01*
X0100351Y0044332D01*
X0099634Y0043615D01*
X0099634Y0042181D01*
X0100351Y0041463D01*
X0103220Y0041463D01*
X0101786Y0039729D02*
X0101786Y0036859D01*
X0101068Y0036859D02*
X0103937Y0036859D01*
X0113413Y0036859D02*
X0113413Y0039011D01*
X0114131Y0039729D01*
X0114848Y0039729D01*
X0115565Y0039011D01*
X0115565Y0036859D01*
X0115565Y0035125D02*
X0114131Y0035125D01*
X0113413Y0034407D01*
X0113413Y0032256D01*
X0117717Y0032256D01*
X0116282Y0032256D02*
X0116282Y0034407D01*
X0115565Y0035125D01*
X0117717Y0036859D02*
X0113413Y0036859D01*
X0115565Y0039011D02*
X0116282Y0039729D01*
X0117000Y0039729D01*
X0117717Y0039011D01*
X0117717Y0036859D01*
X0117000Y0041463D02*
X0114131Y0041463D01*
X0113413Y0042181D01*
X0113413Y0043615D01*
X0114131Y0044332D01*
X0117000Y0044332D01*
X0117717Y0043615D01*
X0117717Y0042181D01*
X0117000Y0041463D01*
X0115565Y0046067D02*
X0115565Y0048936D01*
X0114131Y0047502D02*
X0117000Y0047502D01*
X0103220Y0047502D02*
X0100351Y0047502D01*
X0101786Y0048936D02*
X0101786Y0046067D01*
D12*
X0016505Y0076505D02*
X0013202Y0076505D01*
X0011000Y0078707D01*
X0009899Y0078707D01*
X0013202Y0076505D02*
X0011000Y0074303D01*
X0009899Y0074303D01*
X0012101Y0082402D02*
X0012101Y0084604D01*
X0013202Y0085705D01*
X0016505Y0085705D01*
X0016505Y0082402D01*
X0015404Y0081301D01*
X0014303Y0082402D01*
X0014303Y0085705D01*
X0013202Y0088299D02*
X0012101Y0089400D01*
X0012101Y0092703D01*
X0014303Y0091602D02*
X0014303Y0089400D01*
X0013202Y0088299D01*
X0016505Y0088299D02*
X0016505Y0091602D01*
X0015404Y0092703D01*
X0014303Y0091602D01*
X0014303Y0095297D02*
X0012101Y0098600D01*
X0012101Y0102230D02*
X0012101Y0104432D01*
X0013202Y0105533D01*
X0016505Y0105533D01*
X0016505Y0102230D01*
X0015404Y0101129D01*
X0014303Y0102230D01*
X0014303Y0105533D01*
X0015404Y0108127D02*
X0012101Y0108127D01*
X0015404Y0108127D02*
X0016505Y0109228D01*
X0015404Y0110329D01*
X0016505Y0111430D01*
X0015404Y0112530D01*
X0012101Y0112530D01*
X0012101Y0116226D02*
X0012101Y0118428D01*
X0013202Y0119528D01*
X0016505Y0119528D01*
X0016505Y0116226D01*
X0015404Y0115125D01*
X0014303Y0116226D01*
X0014303Y0119528D01*
X0015404Y0129121D02*
X0016505Y0130222D01*
X0016505Y0132423D01*
X0015404Y0133524D01*
X0014303Y0133524D01*
X0013202Y0132423D01*
X0013202Y0130222D01*
X0012101Y0129121D01*
X0011000Y0129121D01*
X0009899Y0130222D01*
X0009899Y0132423D01*
X0011000Y0133524D01*
X0013202Y0136119D02*
X0012101Y0137220D01*
X0012101Y0139421D01*
X0013202Y0140522D01*
X0014303Y0140522D01*
X0014303Y0136119D01*
X0015404Y0136119D02*
X0013202Y0136119D01*
X0015404Y0136119D02*
X0016505Y0137220D01*
X0016505Y0139421D01*
X0016505Y0143117D02*
X0012101Y0143117D01*
X0012101Y0145318D02*
X0012101Y0146419D01*
X0012101Y0145318D02*
X0014303Y0143117D01*
X0012101Y0148948D02*
X0016505Y0151150D01*
X0012101Y0153352D01*
X0013202Y0155946D02*
X0012101Y0157047D01*
X0012101Y0159249D01*
X0013202Y0160350D01*
X0015404Y0160350D01*
X0016505Y0159249D01*
X0016505Y0157047D01*
X0015404Y0155946D01*
X0013202Y0155946D01*
X0016505Y0169942D02*
X0016505Y0172144D01*
X0016505Y0171043D02*
X0009899Y0171043D01*
X0009899Y0169942D02*
X0009899Y0172144D01*
X0012101Y0174607D02*
X0012101Y0177910D01*
X0013202Y0179011D01*
X0016505Y0179011D01*
X0015404Y0182706D02*
X0011000Y0182706D01*
X0012101Y0181605D02*
X0012101Y0183807D01*
X0013202Y0186271D02*
X0012101Y0187372D01*
X0012101Y0189574D01*
X0013202Y0190674D01*
X0014303Y0190674D01*
X0014303Y0186271D01*
X0015404Y0186271D02*
X0013202Y0186271D01*
X0015404Y0186271D02*
X0016505Y0187372D01*
X0016505Y0189574D01*
X0016505Y0193269D02*
X0012101Y0193269D01*
X0012101Y0195471D02*
X0012101Y0196572D01*
X0012101Y0195471D02*
X0014303Y0193269D01*
X0013202Y0199100D02*
X0013202Y0201302D01*
X0011000Y0200201D02*
X0009899Y0201302D01*
X0011000Y0200201D02*
X0016505Y0200201D01*
X0015404Y0203766D02*
X0014303Y0204867D01*
X0014303Y0208169D01*
X0013202Y0208169D02*
X0016505Y0208169D01*
X0016505Y0204867D01*
X0015404Y0203766D01*
X0012101Y0204867D02*
X0012101Y0207068D01*
X0013202Y0208169D01*
X0013202Y0210764D02*
X0012101Y0211865D01*
X0012101Y0215167D01*
X0013202Y0217762D02*
X0012101Y0218863D01*
X0012101Y0221064D01*
X0013202Y0222165D01*
X0014303Y0222165D01*
X0014303Y0217762D01*
X0015404Y0217762D02*
X0013202Y0217762D01*
X0015404Y0217762D02*
X0016505Y0218863D01*
X0016505Y0221064D01*
X0016505Y0215167D02*
X0016505Y0211865D01*
X0015404Y0210764D01*
X0013202Y0210764D01*
X0016505Y0183807D02*
X0015404Y0182706D01*
X0016505Y0174607D02*
X0012101Y0174607D01*
X0016505Y0098600D02*
X0014303Y0095297D01*
X0016505Y0095297D02*
X0009899Y0095297D01*
X0297086Y0204344D02*
X0300389Y0204344D01*
X0301490Y0205445D01*
X0300389Y0206546D01*
X0298187Y0206546D01*
X0297086Y0207647D01*
X0298187Y0208747D01*
X0301490Y0208747D01*
X0304084Y0207647D02*
X0304084Y0205445D01*
X0305185Y0204344D01*
X0307387Y0204344D01*
X0308488Y0205445D01*
X0308488Y0207647D01*
X0307387Y0208747D01*
X0305185Y0208747D01*
X0304084Y0207647D01*
X0311082Y0210949D02*
X0312183Y0210949D01*
X0312183Y0204344D01*
X0311082Y0204344D02*
X0313284Y0204344D01*
X0315748Y0205445D02*
X0315748Y0207647D01*
X0316848Y0208747D01*
X0320151Y0208747D01*
X0320151Y0210949D02*
X0320151Y0204344D01*
X0316848Y0204344D01*
X0315748Y0205445D01*
X0322746Y0205445D02*
X0322746Y0207647D01*
X0323846Y0208747D01*
X0326048Y0208747D01*
X0327149Y0207647D01*
X0327149Y0206546D01*
X0322746Y0206546D01*
X0322746Y0205445D02*
X0323846Y0204344D01*
X0326048Y0204344D01*
X0329743Y0204344D02*
X0329743Y0208747D01*
X0329743Y0206546D02*
X0331945Y0208747D01*
X0333046Y0208747D01*
X0335575Y0208747D02*
X0335575Y0204344D01*
X0335575Y0208747D02*
X0338878Y0208747D01*
X0339979Y0207647D01*
X0339979Y0204344D01*
X0342573Y0205445D02*
X0342573Y0207647D01*
X0343674Y0208747D01*
X0345876Y0208747D01*
X0346977Y0207647D01*
X0346977Y0206546D01*
X0342573Y0206546D01*
X0342573Y0205445D02*
X0343674Y0204344D01*
X0345876Y0204344D01*
X0349571Y0204344D02*
X0349571Y0208747D01*
X0349571Y0206546D02*
X0351773Y0208747D01*
X0352874Y0208747D01*
X0355403Y0207647D02*
X0355403Y0205445D01*
X0356504Y0204344D01*
X0359806Y0204344D01*
X0359806Y0210949D01*
X0359806Y0208747D02*
X0356504Y0208747D01*
X0355403Y0207647D01*
X0362401Y0205445D02*
X0363502Y0205445D01*
X0363502Y0204344D01*
X0362401Y0204344D01*
X0362401Y0205445D01*
X0365900Y0205445D02*
X0365900Y0207647D01*
X0367001Y0208747D01*
X0370303Y0208747D01*
X0372898Y0207647D02*
X0372898Y0205445D01*
X0373999Y0204344D01*
X0376200Y0204344D01*
X0377301Y0205445D01*
X0377301Y0207647D01*
X0376200Y0208747D01*
X0373999Y0208747D01*
X0372898Y0207647D01*
X0370303Y0204344D02*
X0367001Y0204344D01*
X0365900Y0205445D01*
X0379896Y0204344D02*
X0379896Y0208747D01*
X0380997Y0208747D01*
X0382097Y0207647D01*
X0383198Y0208747D01*
X0384299Y0207647D01*
X0384299Y0204344D01*
X0382097Y0204344D02*
X0382097Y0207647D01*
D13*
X0326906Y0120518D02*
X0315882Y0120518D01*
X0313520Y0118156D01*
X0313520Y0107132D01*
X0315882Y0104770D01*
X0326906Y0104770D01*
X0329268Y0107132D01*
X0329268Y0118156D01*
X0326906Y0120518D01*
D14*
X0258466Y0179361D02*
X0255530Y0179361D01*
X0258466Y0182297D01*
X0258466Y0183031D01*
X0257732Y0183765D01*
X0256264Y0183765D01*
X0255530Y0183031D01*
X0252394Y0183765D02*
X0252394Y0179361D01*
X0250926Y0179361D02*
X0253862Y0179361D01*
X0250926Y0182297D02*
X0252394Y0183765D01*
X0249258Y0183031D02*
X0248524Y0183765D01*
X0247056Y0183765D01*
X0246322Y0183031D01*
X0246322Y0180095D01*
X0247056Y0179361D01*
X0248524Y0179361D01*
X0249258Y0180095D01*
X0244721Y0179361D02*
X0243253Y0179361D01*
X0243987Y0179361D02*
X0243987Y0183765D01*
X0243253Y0183765D02*
X0244721Y0183765D01*
X0214716Y0182863D02*
X0214716Y0182130D01*
X0213982Y0181396D01*
X0214716Y0180662D01*
X0214716Y0179928D01*
X0213982Y0179194D01*
X0212514Y0179194D01*
X0211780Y0179928D01*
X0210112Y0179194D02*
X0207176Y0179194D01*
X0208644Y0179194D02*
X0208644Y0183597D01*
X0207176Y0182130D01*
X0205508Y0182863D02*
X0204774Y0183597D01*
X0203306Y0183597D01*
X0202572Y0182863D01*
X0202572Y0179928D01*
X0203306Y0179194D01*
X0204774Y0179194D01*
X0205508Y0179928D01*
X0200971Y0179194D02*
X0199503Y0179194D01*
X0200237Y0179194D02*
X0200237Y0183597D01*
X0199503Y0183597D02*
X0200971Y0183597D01*
X0211780Y0182863D02*
X0212514Y0183597D01*
X0213982Y0183597D01*
X0214716Y0182863D01*
X0213982Y0181396D02*
X0213248Y0181396D01*
X0153466Y0181396D02*
X0150530Y0181396D01*
X0152732Y0183597D01*
X0152732Y0179194D01*
X0148862Y0179194D02*
X0145926Y0179194D01*
X0147394Y0179194D02*
X0147394Y0183597D01*
X0145926Y0182130D01*
X0144258Y0182863D02*
X0143524Y0183597D01*
X0142056Y0183597D01*
X0141322Y0182863D01*
X0141322Y0179928D01*
X0142056Y0179194D01*
X0143524Y0179194D01*
X0144258Y0179928D01*
X0139721Y0179194D02*
X0138253Y0179194D01*
X0138987Y0179194D02*
X0138987Y0183597D01*
X0138253Y0183597D02*
X0139721Y0183597D01*
X0160555Y0116097D02*
X0162023Y0116097D01*
X0161289Y0116097D02*
X0161289Y0111694D01*
X0160555Y0111694D02*
X0162023Y0111694D01*
X0163624Y0112428D02*
X0163624Y0115363D01*
X0164358Y0116097D01*
X0165826Y0116097D01*
X0166560Y0115363D01*
X0168228Y0116097D02*
X0171164Y0116097D01*
X0171164Y0115363D01*
X0168228Y0112428D01*
X0168228Y0111694D01*
X0166560Y0112428D02*
X0165826Y0111694D01*
X0164358Y0111694D01*
X0163624Y0112428D01*
M02*
