G75*
%MOIN*%
%OFA0B0*%
%FSLAX25Y25*%
%IPPOS*%
%LPD*%
%AMOC8*
5,1,8,0,0,1.08239X$1,22.5*
%
%ADD10C,0.00400*%
%ADD11R,0.02756X0.06890*%
%ADD12R,0.04331X0.05118*%
%ADD13R,0.06496X0.01772*%
%ADD14R,0.16535X0.06299*%
%ADD15R,0.05118X0.04331*%
%ADD16R,0.06299X0.07087*%
%ADD17R,0.04331X0.04331*%
%ADD18R,0.03150X0.02362*%
%ADD19R,0.06299X0.09055*%
D10*
X0001394Y0009268D02*
X0001394Y0288795D01*
X0001396Y0288985D01*
X0001403Y0289175D01*
X0001415Y0289365D01*
X0001431Y0289555D01*
X0001451Y0289744D01*
X0001477Y0289933D01*
X0001506Y0290121D01*
X0001541Y0290308D01*
X0001580Y0290494D01*
X0001623Y0290679D01*
X0001671Y0290864D01*
X0001723Y0291047D01*
X0001779Y0291228D01*
X0001840Y0291408D01*
X0001906Y0291587D01*
X0001975Y0291764D01*
X0002049Y0291940D01*
X0002127Y0292113D01*
X0002210Y0292285D01*
X0002296Y0292454D01*
X0002386Y0292622D01*
X0002481Y0292787D01*
X0002579Y0292950D01*
X0002682Y0293110D01*
X0002788Y0293268D01*
X0002898Y0293423D01*
X0003011Y0293576D01*
X0003129Y0293726D01*
X0003250Y0293872D01*
X0003374Y0294016D01*
X0003502Y0294157D01*
X0003633Y0294295D01*
X0003768Y0294430D01*
X0003906Y0294561D01*
X0004047Y0294689D01*
X0004191Y0294813D01*
X0004337Y0294934D01*
X0004487Y0295052D01*
X0004640Y0295165D01*
X0004795Y0295275D01*
X0004953Y0295381D01*
X0005113Y0295484D01*
X0005276Y0295582D01*
X0005441Y0295677D01*
X0005609Y0295767D01*
X0005778Y0295853D01*
X0005950Y0295936D01*
X0006123Y0296014D01*
X0006299Y0296088D01*
X0006476Y0296157D01*
X0006655Y0296223D01*
X0006835Y0296284D01*
X0007016Y0296340D01*
X0007199Y0296392D01*
X0007384Y0296440D01*
X0007569Y0296483D01*
X0007755Y0296522D01*
X0007942Y0296557D01*
X0008130Y0296586D01*
X0008319Y0296612D01*
X0008508Y0296632D01*
X0008698Y0296648D01*
X0008888Y0296660D01*
X0009078Y0296667D01*
X0009268Y0296669D01*
X0387220Y0296669D01*
X0387410Y0296667D01*
X0387600Y0296660D01*
X0387790Y0296648D01*
X0387980Y0296632D01*
X0388169Y0296612D01*
X0388358Y0296586D01*
X0388546Y0296557D01*
X0388733Y0296522D01*
X0388919Y0296483D01*
X0389104Y0296440D01*
X0389289Y0296392D01*
X0389472Y0296340D01*
X0389653Y0296284D01*
X0389833Y0296223D01*
X0390012Y0296157D01*
X0390189Y0296088D01*
X0390365Y0296014D01*
X0390538Y0295936D01*
X0390710Y0295853D01*
X0390879Y0295767D01*
X0391047Y0295677D01*
X0391212Y0295582D01*
X0391375Y0295484D01*
X0391535Y0295381D01*
X0391693Y0295275D01*
X0391848Y0295165D01*
X0392001Y0295052D01*
X0392151Y0294934D01*
X0392297Y0294813D01*
X0392441Y0294689D01*
X0392582Y0294561D01*
X0392720Y0294430D01*
X0392855Y0294295D01*
X0392986Y0294157D01*
X0393114Y0294016D01*
X0393238Y0293872D01*
X0393359Y0293726D01*
X0393477Y0293576D01*
X0393590Y0293423D01*
X0393700Y0293268D01*
X0393806Y0293110D01*
X0393909Y0292950D01*
X0394007Y0292787D01*
X0394102Y0292622D01*
X0394192Y0292454D01*
X0394278Y0292285D01*
X0394361Y0292113D01*
X0394439Y0291940D01*
X0394513Y0291764D01*
X0394582Y0291587D01*
X0394648Y0291408D01*
X0394709Y0291228D01*
X0394765Y0291047D01*
X0394817Y0290864D01*
X0394865Y0290679D01*
X0394908Y0290494D01*
X0394947Y0290308D01*
X0394982Y0290121D01*
X0395011Y0289933D01*
X0395037Y0289744D01*
X0395057Y0289555D01*
X0395073Y0289365D01*
X0395085Y0289175D01*
X0395092Y0288985D01*
X0395094Y0288795D01*
X0395094Y0009268D01*
X0395092Y0009078D01*
X0395085Y0008888D01*
X0395073Y0008698D01*
X0395057Y0008508D01*
X0395037Y0008319D01*
X0395011Y0008130D01*
X0394982Y0007942D01*
X0394947Y0007755D01*
X0394908Y0007569D01*
X0394865Y0007384D01*
X0394817Y0007199D01*
X0394765Y0007016D01*
X0394709Y0006835D01*
X0394648Y0006655D01*
X0394582Y0006476D01*
X0394513Y0006299D01*
X0394439Y0006123D01*
X0394361Y0005950D01*
X0394278Y0005778D01*
X0394192Y0005609D01*
X0394102Y0005441D01*
X0394007Y0005276D01*
X0393909Y0005113D01*
X0393806Y0004953D01*
X0393700Y0004795D01*
X0393590Y0004640D01*
X0393477Y0004487D01*
X0393359Y0004337D01*
X0393238Y0004191D01*
X0393114Y0004047D01*
X0392986Y0003906D01*
X0392855Y0003768D01*
X0392720Y0003633D01*
X0392582Y0003502D01*
X0392441Y0003374D01*
X0392297Y0003250D01*
X0392151Y0003129D01*
X0392001Y0003011D01*
X0391848Y0002898D01*
X0391693Y0002788D01*
X0391535Y0002682D01*
X0391375Y0002579D01*
X0391212Y0002481D01*
X0391047Y0002386D01*
X0390879Y0002296D01*
X0390710Y0002210D01*
X0390538Y0002127D01*
X0390365Y0002049D01*
X0390189Y0001975D01*
X0390012Y0001906D01*
X0389833Y0001840D01*
X0389653Y0001779D01*
X0389472Y0001723D01*
X0389289Y0001671D01*
X0389104Y0001623D01*
X0388919Y0001580D01*
X0388733Y0001541D01*
X0388546Y0001506D01*
X0388358Y0001477D01*
X0388169Y0001451D01*
X0387980Y0001431D01*
X0387790Y0001415D01*
X0387600Y0001403D01*
X0387410Y0001396D01*
X0387220Y0001394D01*
X0009268Y0001394D01*
X0009078Y0001396D01*
X0008888Y0001403D01*
X0008698Y0001415D01*
X0008508Y0001431D01*
X0008319Y0001451D01*
X0008130Y0001477D01*
X0007942Y0001506D01*
X0007755Y0001541D01*
X0007569Y0001580D01*
X0007384Y0001623D01*
X0007199Y0001671D01*
X0007016Y0001723D01*
X0006835Y0001779D01*
X0006655Y0001840D01*
X0006476Y0001906D01*
X0006299Y0001975D01*
X0006123Y0002049D01*
X0005950Y0002127D01*
X0005778Y0002210D01*
X0005609Y0002296D01*
X0005441Y0002386D01*
X0005276Y0002481D01*
X0005113Y0002579D01*
X0004953Y0002682D01*
X0004795Y0002788D01*
X0004640Y0002898D01*
X0004487Y0003011D01*
X0004337Y0003129D01*
X0004191Y0003250D01*
X0004047Y0003374D01*
X0003906Y0003502D01*
X0003768Y0003633D01*
X0003633Y0003768D01*
X0003502Y0003906D01*
X0003374Y0004047D01*
X0003250Y0004191D01*
X0003129Y0004337D01*
X0003011Y0004487D01*
X0002898Y0004640D01*
X0002788Y0004795D01*
X0002682Y0004953D01*
X0002579Y0005113D01*
X0002481Y0005276D01*
X0002386Y0005441D01*
X0002296Y0005609D01*
X0002210Y0005778D01*
X0002127Y0005950D01*
X0002049Y0006123D01*
X0001975Y0006299D01*
X0001906Y0006476D01*
X0001840Y0006655D01*
X0001779Y0006835D01*
X0001723Y0007016D01*
X0001671Y0007199D01*
X0001623Y0007384D01*
X0001580Y0007569D01*
X0001541Y0007755D01*
X0001506Y0007942D01*
X0001477Y0008130D01*
X0001451Y0008319D01*
X0001431Y0008508D01*
X0001415Y0008698D01*
X0001403Y0008888D01*
X0001396Y0009078D01*
X0001394Y0009268D01*
D11*
X0050144Y0103067D03*
X0055144Y0103067D03*
X0060144Y0103067D03*
X0065144Y0103067D03*
X0065144Y0124720D03*
X0060144Y0124720D03*
X0055144Y0124720D03*
X0050144Y0124720D03*
X0098894Y0125016D03*
X0103894Y0125016D03*
X0108894Y0125016D03*
X0113894Y0125016D03*
X0118894Y0125016D03*
X0123894Y0125016D03*
X0128894Y0125016D03*
X0133894Y0125016D03*
X0151394Y0125016D03*
X0156394Y0125016D03*
X0161394Y0125016D03*
X0166394Y0125016D03*
X0171394Y0125016D03*
X0176394Y0125016D03*
X0181394Y0125016D03*
X0200144Y0125016D03*
X0205144Y0125016D03*
X0210144Y0125016D03*
X0215144Y0125016D03*
X0220144Y0125016D03*
X0225144Y0125016D03*
X0230144Y0125016D03*
X0235144Y0125016D03*
X0235144Y0102772D03*
X0230144Y0102772D03*
X0225144Y0102772D03*
X0220144Y0102772D03*
X0215144Y0102772D03*
X0210144Y0102772D03*
X0205144Y0102772D03*
X0200144Y0102772D03*
X0181394Y0102772D03*
X0176394Y0102772D03*
X0171394Y0102772D03*
X0166394Y0102772D03*
X0161394Y0102772D03*
X0156394Y0102772D03*
X0151394Y0102772D03*
X0133894Y0102772D03*
X0128894Y0102772D03*
X0123894Y0102772D03*
X0118894Y0102772D03*
X0113894Y0102772D03*
X0108894Y0102772D03*
X0103894Y0102772D03*
X0098894Y0102772D03*
X0091394Y0170567D03*
X0086394Y0170567D03*
X0081394Y0170567D03*
X0076394Y0170567D03*
X0076394Y0192220D03*
X0081394Y0192220D03*
X0086394Y0192220D03*
X0091394Y0192220D03*
X0093884Y0210360D03*
X0088884Y0210360D03*
X0083884Y0210360D03*
X0078884Y0210360D03*
X0073884Y0210360D03*
X0073884Y0232604D03*
X0078884Y0232604D03*
X0083884Y0232604D03*
X0088884Y0232604D03*
X0093884Y0232604D03*
X0098884Y0232604D03*
X0103884Y0232604D03*
X0108884Y0232604D03*
X0108884Y0210360D03*
X0103884Y0210360D03*
X0098884Y0210360D03*
X0131394Y0192516D03*
X0136394Y0192516D03*
X0141394Y0192516D03*
X0146394Y0192516D03*
X0151394Y0192516D03*
X0156394Y0192516D03*
X0161394Y0192516D03*
X0161394Y0170272D03*
X0156394Y0170272D03*
X0151394Y0170272D03*
X0146394Y0170272D03*
X0141394Y0170272D03*
X0136394Y0170272D03*
X0131394Y0170272D03*
X0192644Y0170272D03*
X0197644Y0170272D03*
X0202644Y0170272D03*
X0207644Y0170272D03*
X0212644Y0170272D03*
X0217644Y0170272D03*
X0222644Y0170272D03*
X0236394Y0170439D03*
X0241394Y0170439D03*
X0246394Y0170439D03*
X0251394Y0170439D03*
X0256394Y0170439D03*
X0261394Y0170439D03*
X0266394Y0170439D03*
X0281394Y0170272D03*
X0286394Y0170272D03*
X0291394Y0170272D03*
X0296394Y0170272D03*
X0301394Y0170272D03*
X0306394Y0170272D03*
X0311394Y0170272D03*
X0316394Y0170272D03*
X0316394Y0192516D03*
X0311394Y0192516D03*
X0306394Y0192516D03*
X0301394Y0192516D03*
X0296394Y0192516D03*
X0291394Y0192516D03*
X0286394Y0192516D03*
X0281394Y0192516D03*
X0266394Y0192683D03*
X0261394Y0192683D03*
X0256394Y0192683D03*
X0251394Y0192683D03*
X0246394Y0192683D03*
X0241394Y0192683D03*
X0236394Y0192683D03*
X0222644Y0192516D03*
X0217644Y0192516D03*
X0212644Y0192516D03*
X0207644Y0192516D03*
X0202644Y0192516D03*
X0197644Y0192516D03*
X0192644Y0192516D03*
X0267644Y0124720D03*
X0272644Y0124720D03*
X0277644Y0124720D03*
X0282644Y0124720D03*
X0282644Y0103067D03*
X0277644Y0103067D03*
X0272644Y0103067D03*
X0267644Y0103067D03*
D12*
X0274494Y0095144D03*
X0280793Y0095144D03*
X0280793Y0087644D03*
X0274494Y0087644D03*
X0256512Y0062417D03*
X0250213Y0062417D03*
X0242732Y0062417D03*
X0236433Y0062417D03*
X0228953Y0062417D03*
X0222654Y0062417D03*
X0215173Y0062417D03*
X0208874Y0062417D03*
X0201394Y0062417D03*
X0195094Y0062417D03*
X0187614Y0062417D03*
X0181315Y0062417D03*
X0173835Y0062417D03*
X0167535Y0062417D03*
X0160055Y0062417D03*
X0153756Y0062417D03*
X0146276Y0062417D03*
X0139976Y0062417D03*
X0132496Y0062417D03*
X0126197Y0062417D03*
X0118717Y0062417D03*
X0112417Y0062417D03*
X0104937Y0062417D03*
X0098638Y0062417D03*
X0091157Y0062417D03*
X0084858Y0062417D03*
X0091994Y0071394D03*
X0098293Y0071394D03*
X0098293Y0078894D03*
X0091994Y0078894D03*
X0091994Y0086394D03*
X0098293Y0086394D03*
X0105744Y0086394D03*
X0112043Y0086394D03*
X0119494Y0086394D03*
X0125793Y0086394D03*
X0133244Y0086394D03*
X0139543Y0086394D03*
X0139543Y0093894D03*
X0133244Y0093894D03*
X0125793Y0093894D03*
X0119494Y0093894D03*
X0112043Y0093894D03*
X0105744Y0093894D03*
X0098293Y0093894D03*
X0091994Y0093894D03*
X0119494Y0078894D03*
X0125793Y0078894D03*
X0125793Y0071394D03*
X0119494Y0071394D03*
X0058293Y0132644D03*
X0051994Y0132644D03*
X0079494Y0161394D03*
X0085793Y0161394D03*
X0130744Y0162644D03*
X0137043Y0162644D03*
X0137043Y0155144D03*
X0130744Y0155144D03*
X0130744Y0147644D03*
X0137043Y0147644D03*
X0139543Y0202644D03*
X0133244Y0202644D03*
X0133244Y0211394D03*
X0139543Y0211394D03*
X0146994Y0211394D03*
X0153293Y0211394D03*
X0160744Y0211394D03*
X0167043Y0211394D03*
X0167043Y0220144D03*
X0160744Y0220144D03*
X0153293Y0220144D03*
X0146994Y0220144D03*
X0139543Y0220144D03*
X0133244Y0220144D03*
X0133244Y0228894D03*
X0139543Y0228894D03*
X0146994Y0228894D03*
X0153293Y0228894D03*
X0160744Y0228894D03*
X0167043Y0228894D03*
X0166945Y0238598D03*
X0160646Y0238598D03*
X0153165Y0238598D03*
X0146866Y0238598D03*
X0139386Y0238598D03*
X0133087Y0238598D03*
X0146994Y0202644D03*
X0153293Y0202644D03*
X0160744Y0202644D03*
X0167043Y0202644D03*
X0201994Y0228894D03*
X0208293Y0228894D03*
X0215744Y0228894D03*
X0222043Y0228894D03*
X0229494Y0228894D03*
X0235793Y0228894D03*
X0243244Y0228894D03*
X0249543Y0228894D03*
X0256994Y0228894D03*
X0263293Y0228894D03*
X0270744Y0228894D03*
X0277043Y0228894D03*
X0284494Y0228894D03*
X0290793Y0228894D03*
X0298244Y0228894D03*
X0304543Y0228894D03*
X0311994Y0228894D03*
X0318293Y0228894D03*
X0325744Y0228894D03*
X0332043Y0228894D03*
X0332299Y0238598D03*
X0326000Y0238598D03*
X0318520Y0238598D03*
X0312220Y0238598D03*
X0304740Y0238598D03*
X0298441Y0238598D03*
X0290961Y0238598D03*
X0284661Y0238598D03*
X0277181Y0238598D03*
X0270882Y0238598D03*
X0263402Y0238598D03*
X0257102Y0238598D03*
X0249622Y0238598D03*
X0243323Y0238598D03*
X0235843Y0238598D03*
X0229543Y0238598D03*
X0222063Y0238598D03*
X0215764Y0238598D03*
X0208283Y0238598D03*
X0201984Y0238598D03*
X0229494Y0220144D03*
X0235793Y0220144D03*
X0243244Y0220144D03*
X0249543Y0220144D03*
X0256994Y0220144D03*
X0263293Y0220144D03*
X0270744Y0220144D03*
X0277043Y0220144D03*
X0277043Y0211394D03*
X0270744Y0211394D03*
X0276994Y0202644D03*
X0283293Y0202644D03*
X0249543Y0202644D03*
X0243244Y0202644D03*
X0235793Y0202644D03*
X0229494Y0202644D03*
X0229494Y0211394D03*
X0235793Y0211394D03*
X0243244Y0211394D03*
X0249543Y0211394D03*
X0218918Y0160144D03*
X0212619Y0160144D03*
X0212619Y0152644D03*
X0218918Y0152644D03*
X0225744Y0152644D03*
X0232043Y0152644D03*
X0296369Y0161226D03*
X0302668Y0161226D03*
X0310119Y0161226D03*
X0316418Y0161226D03*
X0361994Y0133894D03*
X0368293Y0133894D03*
X0370744Y0118894D03*
X0377043Y0118894D03*
X0377043Y0111394D03*
X0370744Y0111394D03*
X0324543Y0091394D03*
X0318244Y0091394D03*
X0318244Y0083894D03*
X0324543Y0083894D03*
X0324543Y0076394D03*
X0318244Y0076394D03*
X0049543Y0225144D03*
X0043244Y0225144D03*
X0043244Y0235144D03*
X0049543Y0235144D03*
D13*
X0343982Y0120144D03*
X0343982Y0117644D03*
X0343982Y0115144D03*
X0343982Y0112644D03*
X0361305Y0112644D03*
X0361305Y0115144D03*
X0361305Y0117644D03*
X0361305Y0120144D03*
D14*
X0321394Y0118549D03*
X0321394Y0106738D03*
D15*
X0336394Y0105793D03*
X0336394Y0099494D03*
X0336394Y0092043D03*
X0336394Y0085744D03*
X0343894Y0099494D03*
X0343894Y0105793D03*
X0336394Y0113244D03*
X0336394Y0119543D03*
X0325144Y0138244D03*
X0325144Y0144543D03*
X0290144Y0123293D03*
X0290144Y0116994D03*
X0290144Y0109543D03*
X0290144Y0103244D03*
X0260144Y0118244D03*
X0260144Y0124543D03*
X0250144Y0079543D03*
X0250144Y0073244D03*
X0236394Y0073244D03*
X0236394Y0079543D03*
X0222644Y0079543D03*
X0222644Y0073244D03*
X0208894Y0073244D03*
X0208894Y0079543D03*
X0195144Y0079543D03*
X0195144Y0073244D03*
X0181394Y0073244D03*
X0181394Y0079543D03*
X0167644Y0079543D03*
X0167644Y0073244D03*
X0153894Y0073244D03*
X0153894Y0079543D03*
X0146394Y0079543D03*
X0146394Y0073244D03*
X0187644Y0096994D03*
X0187644Y0103293D03*
X0156394Y0154494D03*
X0156394Y0160793D03*
X0148894Y0160793D03*
X0148894Y0154494D03*
X0168894Y0169494D03*
X0168894Y0175793D03*
X0228894Y0175793D03*
X0228894Y0169494D03*
X0272644Y0169494D03*
X0272644Y0175793D03*
X0097644Y0177043D03*
X0097644Y0170744D03*
X0097644Y0185744D03*
X0097644Y0192043D03*
X0070144Y0192043D03*
X0070144Y0185744D03*
X0043894Y0127043D03*
X0043894Y0120744D03*
X0071394Y0117619D03*
X0071394Y0123918D03*
X0071394Y0110168D03*
X0071394Y0103869D03*
X0091394Y0111994D03*
X0091394Y0118293D03*
D16*
X0342132Y0128269D03*
X0353156Y0128269D03*
X0353156Y0138269D03*
X0342132Y0138269D03*
D17*
X0288352Y0132644D03*
X0276935Y0132644D03*
X0351394Y0224435D03*
X0351394Y0235852D03*
D18*
X0361472Y0126394D03*
X0371315Y0126394D03*
D19*
X0050252Y0163480D03*
X0032535Y0163480D03*
X0032535Y0199307D03*
X0050252Y0199307D03*
M02*
