%
M48
M72
T01C0.0157
T02C0.0236
T03C0.0315
T04C0.0394
T05C0.1693
%
T01
X12389Y10764
X12889Y10764
X14764Y10452
X16077Y9764
X16389Y9389
X16702Y9764
X17139Y9764
X17639Y9764
X18577Y12327
X17077Y13077
X16639Y13014
X16139Y13014
X15827Y13264
X17327Y13639
X17577Y13889
X18389Y14139
X19764Y14264
X20202Y13827
X20514Y13514
X20827Y13139
X21014Y12139
X21514Y12139
X21514Y11389
X21014Y11139
X24389Y14514
X23952Y14577
X23889Y15889
X22264Y14702
X21889Y14702
X21452Y14702
X20264Y15514
X19764Y14889
X19764Y16327
X20264Y17639
X20764Y17639
X17889Y16327
X17577Y15514
X14264Y15389
X12452Y15014
X11077Y13827
X10889Y12889
X10389Y12889
X9514Y14264
X9389Y14639
X9514Y15014
X11764Y17014
X12702Y17014
X12764Y18139
X15264Y18514
X8639Y18514
X8264Y17764
X8639Y17639
X7889Y19889
X12889Y12889
X13389Y12889
X10639Y11264
X10139Y11264
X23014Y21577
X23577Y21639
X24389Y21577
X24952Y21639
X24264Y20514
X24264Y20139
X26952Y18764
X28139Y18764
X26014Y16389
X26889Y16139
X27764Y16139
X27889Y15764
X24389Y17764
X27889Y23639
X27889Y24014
X33889Y24014
X33889Y23639
T02
X11514Y9264
X11514Y9639
X9389Y10014
X9014Y10014
X9014Y10639
X9389Y10639
X11389Y11827
X11889Y12827
X13264Y11764
X13952Y10827
X13952Y10389
X13952Y9952
X14514Y9389
X14764Y10952
X15139Y11952
X15139Y12952
X15202Y13639
X15139Y14639
X16014Y14639
X17389Y15889
X16889Y16389
X17514Y17764
X16702Y18827
X16702Y19264
X15889Y19952
X15889Y20577
X16139Y21639
X15327Y21702
X14764Y21639
X13952Y21702
X13389Y21639
X13389Y20514
X12764Y19514
X12764Y19014
X13139Y18514
X14764Y20577
X11389Y20764
X11389Y21264
X11389Y21764
X10889Y21764
X10389Y19264
X10389Y18764
X12514Y16389
X12514Y16014
X10764Y14639
X9139Y12327
X7389Y12952
X6952Y12952
X6514Y11014
X4639Y11327
X4327Y11577
X4577Y10514
X4577Y10077
X13139Y7889
X13264Y6889
X18639Y9139
X19139Y9139
X19514Y8639
X20889Y8639
X22264Y8639
X23639Y8639
X25014Y8639
X26389Y8639
X28639Y8514
X28639Y9014
X29639Y10764
X29639Y11264
X28014Y11764
X27014Y11389
X28264Y13139
X27639Y15139
X26889Y15139
X26139Y15889
X26639Y17639
X29077Y16327
X29077Y15889
X30952Y17702
X31452Y17702
X31952Y17702
X31452Y18202
X30952Y18202
X27139Y20139
X27139Y20514
X27139Y21639
X26327Y21452
X25764Y23452
X29139Y22264
X30139Y22139
X31139Y21889
X35889Y26014
X38639Y22514
X38639Y14764
X37639Y13514
X37639Y13014
X37639Y12514
X37639Y10514
X35264Y11264
X35264Y11639
X35264Y12014
X33514Y12514
X33514Y13014
X33514Y13514
X33514Y14014
X34389Y9389
X31264Y9264
X31264Y8764
X31264Y8264
X31264Y7764
X31264Y7264
X38639Y7264
X32639Y1264
X19639Y12389
X19139Y12389
X19139Y12889
X19639Y12889
X20639Y15889
X22452Y15952
X22452Y16389
X21764Y17764
X22514Y18139
X22952Y18139
X23639Y18577
X23264Y19139
X22764Y19156
X22389Y20139
X21889Y20389
X22139Y21202
X20389Y19889
X18827Y19577
X18389Y19764
X18264Y19264
X18827Y19077
X16139Y17764
X7014Y17514
X7014Y18014
X7014Y17014
X9014Y29264
T03
X35700Y9139
X37078Y9139
X37078Y15952
X35700Y15952
T04
X8801Y1714
X10179Y1714
X11557Y1714
X12935Y1714
X14313Y1714
X15691Y1714
X17069Y1714
X18446Y1714
X19824Y1714
X21202Y1714
X22580Y1714
X23958Y1714
X25336Y1714
X26714Y1714
X28092Y1714
X29470Y1714
X30848Y1714
X30159Y28092
X28781Y28092
X27403Y28092
X26025Y28092
X24647Y28092
X23269Y28092
X21891Y28092
X20513Y28092
X19135Y28092
X17757Y28092
X16380Y28092
X15002Y28092
X13624Y28092
X12246Y28092
X10868Y28092
X9490Y28092
X8112Y28092
X6734Y28092
X5356Y28092
X31537Y28092
X32915Y28092
X34293Y28092
T05
X1714Y1714
X1714Y28092
X37935Y28092
X37935Y1714
M30
