%
M48
M72
T01C0.0236
T02C0.0394
T03C0.1299
%
T01
X4625Y875
X4625Y4750
X7750Y5250
X9750Y3500
X12375Y5750
X9000Y9125
X6375Y9875
X6375Y11250
X6375Y12625
X5125Y9125
X9750Y14000
X9750Y15375
X9750Y16750
T02
X14272Y16732
X14272Y15354
X14272Y13976
X14272Y12598
X14272Y11220
X14272Y9843
X14272Y8465
X14272Y7087
X14272Y5709
X1476Y5709
X1476Y7087
X1476Y8465
X1476Y9843
X1476Y11220
X1476Y12598
X1476Y13976
X1476Y15354
T03
X1181Y1181
X14567Y1181
X14567Y19291
X1181Y19291
M30
